<?xml version="1.0" encoding="UTF-8" standalone="no"?>
<!DOCTYPE svg PUBLIC "-//W3C//DTD SVG 1.1//EN" "http://www.w3.org/Graphics/SVG/1.1/DTD/svg11.dtd">
<svg width="100%" height="100%" viewBox="0 0 278 263" version="1.1" xmlns="http://www.w3.org/2000/svg" xmlns:xlink="http://www.w3.org/1999/xlink" xml:space="preserve" xmlns:serif="http://www.serif.com/" style="fill-rule:evenodd;clip-rule:evenodd;stroke-linecap:round;stroke-linejoin:round;stroke-miterlimit:1.5;">
    <g transform="matrix(1,0,0,1,-1268.53,-269.16)">
        <g transform="matrix(1,0,0,1,-134.399,-116.612)">
            <path d="M1430,523.48L1418,536L1430,536L1440,526L1430,523.48Z" style="fill:rgb(253,194,33);"/>
        </g>
        <g transform="matrix(0.150463,-0.988616,0.988616,0.150463,623.966,1613.62)">
            <path d="M1430,523.48L1418,536L1430,536L1440,526L1430,523.48Z" style="fill:rgb(10,76,42);"/>
        </g>
        <g transform="matrix(0.998093,0.0617297,-0.0617297,0.998093,68.0279,-94.748)">
            <path d="M1435.32,519.593L1418,536L1425.16,539.541L1440,526L1435.32,519.593Z" style="fill:rgb(213,32,44);"/>
        </g>
        <g transform="matrix(-0.527968,0.496466,0.496466,0.527968,1768.24,-216.179)">
            <g>
                <g transform="matrix(0.928846,5.55112e-17,-5.55112e-17,0.928846,68.7181,32.9145)">
                    <path d="M666.606,268.038C737.209,298.418 971.046,380.232 1221.93,261.245" style="fill:none;stroke:rgb(64,64,64);stroke-width:2.97px;"/>
                </g>
                <g transform="matrix(0.655573,-0.136176,0.136176,0.655573,252.917,195.873)">
                    <path d="M665.5,283L667.824,343L718,313L665.5,283Z" style="fill:rgb(253,194,33);"/>
                </g>
                <g transform="matrix(0.456307,-0.532608,0.532608,0.456307,657.214,533.523)">
                    <path d="M665.5,283L667.824,343L718,313L665.5,283Z" style="fill:rgb(253,194,33);"/>
                </g>
                <g transform="matrix(0.673068,-0.233008,0.233008,0.673068,307.318,279.1)">
                    <path d="M665.5,283L667.824,343L718,313L665.5,283Z" style="fill:rgb(10,76,42);"/>
                </g>
                <g transform="matrix(0.700945,-0.380373,0.380373,0.700945,343.139,380.571)">
                    <path d="M665.5,283L667.824,343L718,313L665.5,283Z" style="fill:rgb(213,32,44);"/>
                </g>
                <g transform="matrix(0.573689,-0.44732,0.44732,0.573689,511.591,459.305)">
                    <path d="M665.5,283L667.824,343L718,313L665.5,283Z" style="fill:rgb(10,76,42);"/>
                </g>
            </g>
        </g>
    </g>
</svg>
