<?xml version="1.0" encoding="UTF-8" standalone="no"?>
<!DOCTYPE svg PUBLIC "-//W3C//DTD SVG 1.1//EN" "http://www.w3.org/Graphics/SVG/1.1/DTD/svg11.dtd">
<svg width="100%" height="100%" viewBox="0 0 289 287" version="1.1" xmlns="http://www.w3.org/2000/svg" xmlns:xlink="http://www.w3.org/1999/xlink" xml:space="preserve" xmlns:serif="http://www.serif.com/" style="fill-rule:evenodd;clip-rule:evenodd;stroke-linejoin:round;stroke-miterlimit:2;">
    <g transform="matrix(1,0,0,1,-15.9623,-663.27)">
        <g transform="matrix(0.913847,0,0,0.913847,9.97919,94.9377)">
            <g transform="matrix(0.414473,-0.00793499,0.0117982,0.616263,-112.21,105.576)">
                <ellipse cx="636" cy="1333" rx="216" ry="22" style="fill:rgb(189,203,196);"/>
            </g>
            <g transform="matrix(0.653791,0,0,0.653791,-480.89,-469.305)">
                <g>
                    <g>
                        <g transform="matrix(-1.74391,0,0,1.74391,3162.05,-3177.44)">
                            <path d="M1172.12,2974.47L1127.36,2997.11L1131.3,3001.24L1186,2984L1186,2977L1193,2979C1193,2979 1189.81,2995.14 1190,2999C1190.19,3002.86 1193,3037 1193,3037L1198,3037L1205,2980.76L1196.43,2961L1175.7,2967L1172.12,2974.47Z" style="fill:rgb(255,203,166);"/>
                        </g>
                        <g transform="matrix(-1.74391,0,0,1.74391,3160.12,-3174.55)">
                            <path d="M1193,2870L1202,2873L1209,2856L1208,2847L1208,2843L1207,2840C1207,2840 1198.74,2841.77 1198,2843C1197.26,2844.23 1195.69,2844.58 1195,2848C1194.31,2851.42 1192.98,2860.37 1193,2862C1193.02,2863.63 1193,2870 1193,2870Z" style="fill:rgb(255,203,166);"/>
                        </g>
                        <g transform="matrix(-1.74391,0,0,1.74391,3160.12,-3174.55)">
                            <path d="M1175.7,2899L1152.7,2966.36C1152.7,2966.36 1173.63,2977.21 1193,2980C1207.26,2982.06 1209,2977 1209,2977L1211,2888L1205,2868.25C1199.62,2870.28 1195.28,2869.71 1193,2864L1175.7,2899Z" style="fill:rgb(10,76,42);"/>
                        </g>
                        <g transform="matrix(1.8166,-1.33433,1.33433,1.8166,-4115.04,-2558.11)">
                            <path d="M692.26,2952.17L730,2951L730,2956L693.859,2965.8" style="fill:rgb(10,76,42);"/>
                        </g>
                        <g transform="matrix(1.8166,-1.33433,1.51668,2.06485,-4655.39,-3293.76)">
                            <path d="M730,2953L735,2951L735.907,2949.44L736.885,2948.97L737.907,2951L740,2951C741.209,2951.23 740.953,2952.8 740,2955L730,2956L730,2953Z" style="fill:rgb(255,203,166);"/>
                        </g>
                        <g transform="matrix(-2.15521,-0.659965,-0.659965,2.15521,4518.56,-4027.4)">
                            <path d="M704.437,2955L730,2951L730,2956L700.78,2965.64" style="fill:rgb(10,76,42);"/>
                        </g>
                        <g transform="matrix(-2.15521,-0.659965,-0.750154,2.44973,4785.82,-4900.18)">
                            <path d="M730,2953L735,2951L735.907,2949.44L736.885,2948.97L737.907,2951L740,2951C741.209,2951.23 740.953,2952.8 740,2955L730,2956L730,2953Z" style="fill:rgb(255,203,166);"/>
                        </g>
                        <g transform="matrix(-1.74391,0,0,1.74391,3160.12,-3174.55)">
                            <path d="M1206,2841L1198,2848C1198,2848 1198.44,2858.58 1196,2863C1193.56,2867.42 1197.11,2876.1 1191,2883C1184.89,2889.9 1192.51,2898.88 1183,2902.18C1173.49,2905.47 1174.96,2890.07 1178,2883C1181.04,2875.93 1169.97,2869.98 1180,2860.91C1180,2860.91 1175.02,2843.19 1192,2839C1207.5,2835.18 1205.07,2834.67 1208,2834C1210.21,2833.5 1212.94,2844.62 1212,2850C1211.06,2855.38 1218.16,2858.93 1211,2870C1211,2870 1208,2874.39 1214,2879C1222.17,2885.27 1212.59,2893.77 1207,2894C1202.77,2894.17 1200.25,2868.84 1201,2865C1201.75,2861.16 1207.99,2860.64 1208,2856C1208.01,2851.37 1208.48,2842.36 1206,2841Z" style="fill:rgb(213,32,44);"/>
                        </g>
                        <g transform="matrix(-1.59779,0.788608,0.788608,1.59779,-197.026,-3335.14)">
                            <path d="M716.826,3049.75L703.826,3053.75L710,3067L726,3063C726,3063 729.95,3052.62 718,3056L716.826,3049.75Z" style="fill:rgb(253,194,33);"/>
                        </g>
                        <g transform="matrix(-0.267013,1.76169,1.76169,0.267013,-4010.62,-23.7079)">
                            <path d="M716.826,3049.75L703.826,3053.75L710,3067L726,3063C726,3063 729.95,3052.62 718,3056L716.826,3049.75Z" style="fill:rgb(253,194,33);"/>
                        </g>
                        <g transform="matrix(0.599707,0.80022,-0.80022,0.599707,2109.1,-185.791)">
                            <g transform="matrix(-0.130432,-0.991457,0.991457,-0.130432,-712.117,3120.6)">
                                <path d="M918.625,1842L918.625,1888L960.647,1887L958.647,1839.78L918.625,1842Z" style="fill:rgb(213,32,44);"/>
                            </g>
                            <g transform="matrix(-0.0443461,-0.0943268,0.0943268,-0.0443461,887.307,2187.6)">
                                <g transform="matrix(0.134195,0.990955,-0.990955,0.134195,2275.94,269.662)">
                                    <path d="M1594,766L1660,765L1655,847L1605,845L1594,766Z" style="fill:rgb(233,177,22);"/>
                                </g>
                                <g transform="matrix(0.0203326,0.150145,-0.990955,0.134195,2460.79,1634.69)">
                                    <path d="M1594,766L1660,765L1657.5,806L1655,846L1611.6,846L1594,766Z" style="fill:white;"/>
                                </g>
                                <g transform="matrix(0.150145,-0.0203326,0.134195,0.990955,1346.18,1232.14)">
                                    <path d="M1587.4,771L1653.4,769L1657.5,806L1655,829L1611.6,829L1587.4,771Z" style="fill:white;"/>
                                </g>
                                <g transform="matrix(0.134195,0.990955,-0.990955,0.134195,4194.09,1199.67)">
                                    <path d="M442.937,2538C442.937,2538 463.905,2494.34 479,2507C493.582,2519.23 450.347,2536.15 444.42,2538.78C444.211,2538.87 479.806,2523.16 486,2531C492.188,2538.84 443.168,2540.6 443.993,2538.69C444.022,2538.62 444.216,2538.76 444.468,2538.87C452.998,2542.34 492.062,2559.68 504,2558L495,2564L504,2572C504,2572 462.711,2573.4 444.937,2543C444.937,2543 411.551,2577.58 399,2578L408,2564L387,2562C387,2562 440.278,2548.29 443,2539C443,2539 410.958,2539.93 412,2528C413.024,2516.27 437.068,2533.39 442.727,2538.74C442.823,2538.83 416.201,2519.97 425,2509C433.799,2498.03 443.509,2517.98 442.937,2538Z" style="fill:white;"/>
                                </g>
                            </g>
                            <g transform="matrix(0.00742655,-0.134163,-0.134163,-0.00742655,1277.05,2185.4)">
                                <g transform="matrix(0.134195,0.990955,-0.990955,0.134195,2275.94,269.662)">
                                    <path d="M1594,766L1660,765L1655,847L1605,845L1594,766Z" style="fill:rgb(213,242,227);"/>
                                </g>
                                <g transform="matrix(0.0203326,0.150145,-0.990955,0.134195,2460.79,1634.69)">
                                    <path d="M1594,766L1660,765L1657.5,806L1655,846L1611.6,846L1594,766Z" style="fill:white;"/>
                                </g>
                                <g transform="matrix(0.150145,-0.0203326,0.134195,0.990955,1346.18,1232.14)">
                                    <path d="M1587.4,771L1653.4,769L1657.5,806L1655,829L1611.6,829L1587.4,771Z" style="fill:white;"/>
                                </g>
                                <g transform="matrix(0.134195,0.990955,-0.990955,0.134195,4194.09,1199.67)">
                                    <path d="M442.937,2538C442.937,2538 463.905,2494.34 479,2507C493.582,2519.23 450.347,2536.15 444.42,2538.78C444.211,2538.87 479.806,2523.16 486,2531C492.188,2538.84 443.168,2540.6 443.993,2538.69C444.022,2538.62 444.216,2538.76 444.468,2538.87C452.998,2542.34 492.062,2559.68 504,2558L495,2564L504,2572C504,2572 462.711,2573.4 444.937,2543C444.937,2543 411.551,2577.58 399,2578L408,2564L387,2562C387,2562 440.278,2548.29 443,2539C443,2539 410.958,2539.93 412,2528C413.024,2516.27 437.068,2533.39 442.727,2538.74C442.823,2538.83 416.201,2519.97 425,2509C433.799,2498.03 443.509,2517.98 442.937,2538Z" style="fill:white;"/>
                                </g>
                            </g>
                            <g transform="matrix(-0.0736978,-0.15676,0.15676,-0.0736978,823.39,2370.37)">
                                <g transform="matrix(0.134195,0.990955,-0.990955,0.134195,2275.94,269.662)">
                                    <path d="M1594,766L1660,765L1655,847L1605,845L1594,766Z" style="fill:rgb(10,76,42);"/>
                                </g>
                                <g transform="matrix(0.0203326,0.150145,-0.990955,0.134195,2460.79,1634.69)">
                                    <path d="M1594,766L1660,765L1657.5,806L1655,846L1611.6,846L1594,766Z" style="fill:white;"/>
                                </g>
                                <g transform="matrix(0.150145,-0.0203326,0.134195,0.990955,1346.18,1232.14)">
                                    <path d="M1587.4,771L1653.4,769L1657.5,806L1655,829L1611.6,829L1587.4,771Z" style="fill:white;"/>
                                </g>
                                <g transform="matrix(0.134195,0.990955,-0.990955,0.134195,4194.09,1199.67)">
                                    <path d="M442.937,2538C442.937,2538 463.905,2494.34 479,2507C493.582,2519.23 450.347,2536.15 444.42,2538.78C444.211,2538.87 479.806,2523.16 486,2531C492.188,2538.84 443.168,2540.6 443.993,2538.69C444.022,2538.62 444.216,2538.76 444.468,2538.87C452.998,2542.34 492.062,2559.68 504,2558L495,2564L504,2572C504,2572 462.711,2573.4 444.937,2543C444.937,2543 411.551,2577.58 399,2578L408,2564L387,2562C387,2562 440.278,2548.29 443,2539C443,2539 410.958,2539.93 412,2528C413.024,2516.27 437.068,2533.39 442.727,2538.74C442.823,2538.83 416.201,2519.97 425,2509C433.799,2498.03 443.509,2517.98 442.937,2538Z" style="fill:white;"/>
                                </g>
                            </g>
                        </g>
                    </g>
                </g>
            </g>
            <g transform="matrix(0.701111,0,0,0.701111,-498.776,-555.886)">
                <g>
                    <g>
                        <g transform="matrix(1.76472,0,0,1.76472,-379.163,-3308.83)">
                            <path d="M704.437,2955L730,2951L730,2956L709.437,2964" style="fill:rgb(213,242,227);"/>
                        </g>
                        <g transform="matrix(1.76472,0,0,2.00588,-379.163,-4023.48)">
                            <path d="M730,2953L735,2951L735.907,2949.44L736.885,2948.97L737.907,2951L740,2951C741.209,2951.23 740.953,2952.8 740,2955L730,2956L730,2953Z" style="fill:rgb(255,203,166);"/>
                        </g>
                        <g transform="matrix(1.76472,0,0,2.34879,-378.198,-5079.7)">
                            <path d="M676,3010L680.547,3028.11L651.247,3045.22L656.758,3050.22L691.047,3034.11L693.093,3025.11L706.226,3052.75L713.133,3051.29L703.08,3007.59L676,3006L676,3010Z" style="fill:rgb(253,194,33);"/>
                        </g>
                        <g transform="matrix(1.76472,0,0,1.47113,-378.198,-2437.38)">
                            <path d="M682,2919L666,3010L715,3008L704,2918L682,2919Z" style="fill:rgb(213,242,227);"/>
                        </g>
                        <g transform="matrix(1.76472,0,0,1.76472,-379.004,-3296.64)">
                            <path d="M716.826,3049.75L703.826,3053.75L710,3067L726,3063C726,3063 729.95,3052.62 718,3056L716.826,3049.75Z" style="fill:rgb(213,32,44);"/>
                        </g>
                        <g transform="matrix(0.641379,1.64404,-1.64404,0.641379,5343.09,-1052.1)">
                            <path d="M717.656,3050.2L704.656,3054.2L710,3067L726,3063C726,3063 729.95,3052.62 718,3056L717.656,3050.2Z" style="fill:rgb(213,32,44);"/>
                        </g>
                        <g transform="matrix(1.76472,0,0,1.76472,-378.644,-3288.78)">
                            <path d="M690.5,2904C690.5,2904 685.488,2897.84 687,2890C687.24,2889.46 687.501,2888.14 690.293,2884.84C693.738,2880.77 700.432,2880.51 704.69,2883.2C707.549,2885 709.879,2888.13 709.678,2892.69C709.649,2893.35 711.429,2895.75 711.429,2895.75C711.429,2895.75 709.117,2896.11 708.879,2896.84C708.085,2899.26 706.665,2901.97 704.437,2905L690.5,2904Z" style="fill:rgb(255,203,166);"/>
                        </g>
                        <g transform="matrix(1.76472,0,0,1.76472,-378.644,-3288.78)">
                            <path d="M705.236,2883.74C705.693,2884.65 688.57,2896.58 687.936,2898.24C687.019,2900.64 684.714,2891.62 687.547,2888.36C683.455,2883.31 682.228,2894.61 682.667,2900.85C682.912,2904.34 678.652,2948.89 677.163,2951.66C673.602,2958.28 660.842,2962.12 658.875,2961.86C657.189,2961.63 668.513,2904.65 672.561,2893.22C673.892,2889.46 675.738,2885.89 677.412,2883.03C679.529,2879.41 681.371,2876.93 681.547,2876.64C684.348,2872.1 690.219,2872.21 693.549,2875.3C695.844,2877.43 693.983,2879.64 694.36,2881.43C694.878,2880.53 703.027,2879.38 705.236,2883.74Z" style="fill:rgb(67,40,28);"/>
                        </g>
                        <g transform="matrix(1.76472,0,0,1.76472,-378.198,-3294.07)">
                            <path d="M683.64,2920.09L706.15,2918.07C706.15,2918.07 713.645,2911.24 706,2908C698.355,2904.76 682,2908 682,2908C682,2908 669.746,2912.13 668,2923C666.254,2933.87 655.284,2932.13 652.474,2934C649.664,2935.87 645.472,2938.18 647,2950L658,2951C658,2951 654.691,2941 668,2939C681.309,2937 683.402,2925.06 683.64,2920.09Z" style="fill:rgb(213,32,44);"/>
                        </g>
                        <g transform="matrix(1.76472,0,0,1.76472,-378.198,-3294.07)">
                            <path d="M704.437,2955L730,2951L730,2956L709.437,2964" style="fill:rgb(213,242,227);"/>
                        </g>
                        <g transform="matrix(1,0,0,1,-2.53675,-2.53675)">
                            <g transform="matrix(0.972052,-0.234767,0.234767,0.972052,-414.531,307.517)">
                                <path d="M918.625,1842L918.625,1888L960,1888L960,1842L918.625,1842Z" style="fill:rgb(253,194,33);"/>
                            </g>
                            <circle cx="935.5" cy="1894.5" r="9.5" style="fill:rgb(213,32,44);"/>
                            <path d="M937,1902L936.369,1917L953,1908L939,1910.5L938.369,1901.95L937,1902Z" style="fill:rgb(10,76,42);"/>
                            <path d="M938.369,1909.5L926,1904L936.369,1917L938.369,1909.5Z" style="fill:rgb(10,76,42);"/>
                            <g transform="matrix(0.972052,-0.234767,0.234767,0.972052,-414.531,307.517)">
                                <path d="M918.625,1842L952,1833L953,1842L918.625,1842Z" style="fill:rgb(253,194,33);"/>
                            </g>
                        </g>
                        <g transform="matrix(1.76472,0,0,2.00588,-378.198,-4008.71)">
                            <path d="M730,2953L735,2951L735.907,2949.44L736.885,2948.97L737.907,2951L740,2951C741.209,2951.23 740.953,2952.8 740,2955L730,2956L730,2953Z" style="fill:rgb(255,203,166);"/>
                        </g>
                    </g>
                </g>
            </g>
            <g transform="matrix(0.604768,0,0,0.604768,-690.385,372.72)">
                <path d="M1430,523.48L1418,536L1430,536L1440,526L1430,523.48Z" style="fill:rgb(10,76,42);"/>
            </g>
            <g transform="matrix(0.0887732,-0.598218,0.598218,0.0887732,-292.94,1653.65)">
                <path d="M1435.32,519.593L1418,536L1425.16,539.541L1440,526L1435.32,519.593Z" style="fill:rgb(213,32,44);"/>
            </g>
            <g transform="matrix(0.60369,-0.0361042,0.0361042,0.60369,-868.837,456.855)">
                <path d="M1435.32,519.593L1418,536L1425.16,539.541L1440,526L1435.32,519.593Z" style="fill:rgb(10,76,42);"/>
            </g>
            <g transform="matrix(0.603615,0.0373322,-0.0373322,0.603615,-547.496,254.693)">
                <path d="M1435.32,519.593L1418,536L1425.16,539.541L1440,526L1435.32,519.593Z" style="fill:rgb(213,32,44);"/>
            </g>
            <g transform="matrix(0.506955,-0.32976,0.32976,0.506955,-581.688,1020.98)">
                <path d="M1435.32,519.593L1418,536L1425.16,539.541L1440,526L1435.32,519.593Z" style="fill:rgb(253,194,33);"/>
            </g>
            <g transform="matrix(0.0328942,0.603873,-0.603873,0.0328942,345.647,-232.691)">
                <path d="M1435.32,519.593L1418,536L1425.16,539.541L1440,526L1435.32,519.593Z" style="fill:rgb(253,194,33);"/>
            </g>
        </g>
    </g>
</svg>
