<?xml version="1.0" encoding="UTF-8" standalone="no"?>
<!DOCTYPE svg PUBLIC "-//W3C//DTD SVG 1.1//EN" "http://www.w3.org/Graphics/SVG/1.1/DTD/svg11.dtd">
<svg width="100%" height="100%" viewBox="0 0 237 418" version="1.1" xmlns="http://www.w3.org/2000/svg" xmlns:xlink="http://www.w3.org/1999/xlink" xml:space="preserve" xmlns:serif="http://www.serif.com/" style="fill-rule:evenodd;clip-rule:evenodd;stroke-linejoin:round;stroke-miterlimit:2;">
    <g transform="matrix(1,0,0,1,-392.317,-637)">
        <g transform="matrix(1.38255,0,0,1.38255,-631.213,-1928.89)">
            <g>
                <g transform="matrix(0.391491,-0.0764363,0.141263,0.723522,387.648,1219.26)">
                    <ellipse cx="636" cy="1333" rx="216" ry="22" style="fill:rgb(189,203,196);"/>
                </g>
                <g transform="matrix(0.838527,0,0,0.838527,107.297,362.139)">
                    <g transform="matrix(1.76472,0,0,1.76472,-379.163,-3308.83)">
                        <path d="M704.437,2955L730,2951L730,2956L709.437,2964" style="fill:rgb(213,242,227);"/>
                    </g>
                    <g transform="matrix(1.76472,0,0,2.00588,-379.163,-4023.48)">
                        <path d="M730,2953L735,2951L735.907,2949.44L736.885,2948.97L737.907,2951L740,2951C741.209,2951.23 740.953,2952.8 740,2955L730,2956L730,2953Z" style="fill:rgb(255,203,166);"/>
                    </g>
                    <g transform="matrix(1.76472,0,0,2.34879,-378.198,-5079.7)">
                        <path d="M676,3010L680.547,3028.11L651.247,3045.22L656.758,3050.22L691.047,3034.11L693.093,3025.11L706.226,3052.75L713.133,3051.29L703.08,3007.59L676,3006L676,3010Z" style="fill:rgb(253,194,33);"/>
                    </g>
                    <g transform="matrix(1.76472,0,0,1.47113,-378.198,-2437.38)">
                        <path d="M682,2919L666,3010L715,3008L704,2918L682,2919Z" style="fill:rgb(213,242,227);"/>
                    </g>
                    <g transform="matrix(1.76472,0,0,1.76472,-379.004,-3296.64)">
                        <path d="M716.826,3049.75L703.826,3053.75L710,3067L726,3063C726,3063 729.95,3052.62 718,3056L716.826,3049.75Z" style="fill:rgb(213,32,44);"/>
                    </g>
                    <g transform="matrix(0.641379,1.64404,-1.64404,0.641379,5343.09,-1052.1)">
                        <path d="M717.656,3050.2L704.656,3054.2L710,3067L726,3063C726,3063 729.95,3052.62 718,3056L717.656,3050.2Z" style="fill:rgb(213,32,44);"/>
                    </g>
                    <g transform="matrix(1.76472,0,0,1.76472,-378.644,-3288.78)">
                        <path d="M690.5,2904C690.5,2904 685.488,2897.84 687,2890C687.24,2889.46 687.501,2888.14 690.293,2884.84C693.738,2880.77 700.432,2880.51 704.69,2883.2C707.549,2885 709.879,2888.13 709.678,2892.69C709.649,2893.35 711.429,2895.75 711.429,2895.75C711.429,2895.75 709.117,2896.11 708.879,2896.84C708.085,2899.26 706.665,2901.97 704.437,2905L690.5,2904Z" style="fill:rgb(255,203,166);"/>
                    </g>
                    <g transform="matrix(1.76472,0,0,1.76472,-378.644,-3288.78)">
                        <path d="M705.236,2883.74C705.693,2884.65 688.57,2896.58 687.936,2898.24C687.019,2900.64 684.714,2891.62 687.547,2888.36C683.455,2883.31 682.228,2894.61 682.667,2900.85C682.912,2904.34 678.652,2948.89 677.163,2951.66C673.602,2958.28 660.842,2962.12 658.875,2961.86C657.189,2961.63 668.513,2904.65 672.561,2893.22C673.892,2889.46 675.738,2885.89 677.412,2883.03C679.529,2879.41 681.371,2876.93 681.547,2876.64C684.348,2872.1 690.219,2872.21 693.549,2875.3C695.844,2877.43 693.983,2879.64 694.36,2881.43C694.878,2880.53 703.027,2879.38 705.236,2883.74Z" style="fill:rgb(67,40,28);"/>
                    </g>
                    <g transform="matrix(1.76472,0,0,1.76472,-378.198,-3294.07)">
                        <path d="M683.64,2920.09L706.15,2918.07C706.15,2918.07 713.645,2911.24 706,2908C698.355,2904.76 682,2908 682,2908C682,2908 669.746,2912.13 668,2923C666.254,2933.87 655.284,2932.13 652.474,2934C649.664,2935.87 645.472,2938.18 647,2950L658,2951C658,2951 654.691,2941 668,2939C681.309,2937 683.402,2925.06 683.64,2920.09Z" style="fill:rgb(213,32,44);"/>
                    </g>
                    <g transform="matrix(1.76472,0,0,1.76472,-378.198,-3294.07)">
                        <path d="M704.437,2955L730,2951L730,2956L709.437,2964" style="fill:rgb(213,242,227);"/>
                    </g>
                    <g transform="matrix(1,0,0,1,-2.53675,-2.53675)">
                        <g transform="matrix(0.972052,-0.234767,0.234767,0.972052,-414.531,307.517)">
                            <path d="M918.625,1842L918.625,1888L960,1888L960,1842L918.625,1842Z" style="fill:rgb(253,194,33);"/>
                        </g>
                        <circle cx="935.5" cy="1894.5" r="9.5" style="fill:rgb(213,32,44);"/>
                        <path d="M937,1902L936.369,1917L953,1908L939,1910.5L938.369,1901.95L937,1902Z" style="fill:rgb(10,76,42);"/>
                        <path d="M938.369,1909.5L926,1904L936.369,1917L938.369,1909.5Z" style="fill:rgb(10,76,42);"/>
                        <g transform="matrix(0.972052,-0.234767,0.234767,0.972052,-414.531,307.517)">
                            <path d="M918.625,1842L952,1833L953,1842L918.625,1842Z" style="fill:rgb(253,194,33);"/>
                        </g>
                    </g>
                    <g transform="matrix(1.76472,0,0,2.00588,-378.198,-4008.71)">
                        <path d="M730,2953L735,2951L735.907,2949.44L736.885,2948.97L737.907,2951L740,2951C741.209,2951.23 740.953,2952.8 740,2955L730,2956L730,2953Z" style="fill:rgb(255,203,166);"/>
                    </g>
                </g>
            </g>
        </g>
        <g transform="matrix(0.146789,-0.989168,0.989168,0.146789,-144.433,2183.7)">
            <path d="M1435.32,519.593L1418,536L1425.16,539.541L1440,526L1435.32,519.593Z" style="fill:rgb(10,76,42);"/>
        </g>
    </g>
</svg>
