<?xml version="1.0" encoding="UTF-8" standalone="no"?>
<!DOCTYPE svg PUBLIC "-//W3C//DTD SVG 1.1//EN" "http://www.w3.org/Graphics/SVG/1.1/DTD/svg11.dtd">
<svg width="100%" height="100%" viewBox="0 0 536 219" version="1.1" xmlns="http://www.w3.org/2000/svg" xmlns:xlink="http://www.w3.org/1999/xlink" xml:space="preserve" xmlns:serif="http://www.serif.com/" style="fill-rule:evenodd;clip-rule:evenodd;stroke-linejoin:round;stroke-miterlimit:2;">
    <g transform="matrix(1,0,0,1,-13.9788,-563.439)">
        <g transform="matrix(1.01796,0,0,1.01796,-2.87425,-1015.25)">
            <g id="ФОН-3" serif:id="ФОН 3" transform="matrix(0.267365,0,0,0.267365,279.643,1711.68)">
                <g transform="matrix(1,0,0,1,-984,-202)">
                    <clipPath id="_clip1">
                        <rect x="0" y="0" width="1968" height="404"/>
                    </clipPath>
                    <g clip-path="url(#_clip1)">
                        <path d="M1634.95,386.21C2272.55,-18.402 1889.55,-95.854 1363.45,110.605C1338.46,120.413 1152.32,240.574 1040.45,233.121C885.099,222.771 680.112,172.647 514.95,177.509C225.861,186.021 54.805,228.586 21.455,254.55C-61.348,319.013 103.165,397.836 383.95,403.446C507.316,405.911 649.811,373.081 793.441,354.473C931.933,336.53 1081.3,389.039 1193.95,339.766C1359.83,267.211 1568.49,428.384 1634.95,386.21Z" style="fill:rgb(213,242,227);"/>
                    </g>
                </g>
            </g>
        </g>
        <g transform="matrix(1.01796,0,0,1.01796,-2.87425,-1015.25)">
            <g id="_3-ОБЩ" serif:id="3 ОБЩ" transform="matrix(0.398271,0,0,0.398271,149.481,1650.4)">
                <g transform="matrix(1,0,0,1,-300,-250)">
                    <g transform="matrix(1,0,0,1,-103.5,0)">
                        <g transform="matrix(1,0,0,1,-119,-281)">
                            <path d="M397.281,695.702C472.012,692.97 533.102,702.173 533.617,716.24C534.131,730.307 473.876,743.945 399.144,746.677C324.413,749.409 263.323,740.207 262.809,726.139C262.294,712.072 322.549,698.434 397.281,695.702Z" style="fill:rgb(189,203,196);"/>
                            <g>
                                <path d="M436.807,476.841L489.106,468.658L489.106,478.887L447.037,495.254" style="fill:rgb(213,242,227);"/>
                                <path d="M489.106,469.851L499.335,465.2L501.19,461.579L503.192,460.488L505.282,465.2L509.564,465.2C512.037,465.746 511.514,469.386 509.564,474.502L489.106,476.828L489.106,469.851Z" style="fill:rgb(255,203,166);"/>
                                <path d="M379.748,574.506L389.05,623.811L348.106,689.414L360.381,703.029L410.531,640.149L414.718,615.642L441.586,690.902L455.716,686.945L435.15,567.942L379.748,563.614L379.748,574.506Z" style="fill:rgb(253,194,33);"/>
                                <path d="M392.023,419.953L359.289,575.153L459.536,571.742L437.032,418.247L392.023,419.953Z" style="fill:rgb(213,242,227);"/>
                                <path d="M462.338,684.8L435.742,692.983L448.372,720.098L481.106,711.915C481.106,711.915 489.187,690.677 464.739,697.594L462.338,684.8Z" style="fill:rgb(213,32,44);"/>
                                <path d="M365.795,704.435L345.03,685.911L328.285,708.813L352.225,732.59C352.225,732.59 374.58,728.516 356.011,711.174L365.795,704.435Z" style="fill:rgb(213,32,44);"/>
                                <path d="M408.895,395.743C408.895,395.743 398.641,383.148 401.735,367.101C402.225,365.998 402.76,363.293 408.471,356.543C415.52,348.212 429.215,347.682 437.926,353.185C443.776,356.88 448.542,363.274 448.13,372.612C448.071,373.95 451.713,378.856 451.713,378.856C451.713,378.856 446.983,379.608 446.497,381.089C444.872,386.038 441.967,391.597 437.408,397.789L408.895,395.743Z" style="fill:rgb(255,203,166);"/>
                                <path d="M439.044,354.303C439.979,356.148 404.947,380.558 403.65,383.957C401.775,388.871 397.059,370.411 402.853,363.746C394.482,353.41 391.971,376.521 392.87,389.298C393.371,396.434 384.657,487.586 381.61,493.25C374.324,506.796 348.218,514.654 344.196,514.106C340.746,513.636 363.913,397.065 372.195,373.681C374.919,365.989 378.695,358.683 382.119,352.83C386.451,345.427 390.218,340.351 390.578,339.768C396.31,330.482 408.32,330.7 415.133,337.029C419.829,341.391 416.021,345.901 416.793,349.573C417.852,347.719 434.524,345.381 439.044,354.303Z" style="fill:rgb(67,40,28);"/>
                                <path d="M395.378,422.53L441.43,418.393C441.43,418.393 456.764,404.428 441.123,397.789C425.483,391.149 392.023,397.789 392.023,397.789C392.023,397.789 366.953,406.24 363.381,428.477C359.81,450.714 337.367,447.147 331.618,450.981C325.869,454.815 317.292,459.544 320.418,483.715L342.923,485.76C342.923,485.76 336.152,465.309 363.381,461.21C390.61,457.111 394.89,432.684 395.378,422.53Z" style="fill:rgb(213,32,44);"/>
                                <path d="M437.926,493.944L490.224,485.76L490.224,495.99L448.155,512.356" style="fill:rgb(213,242,227);"/>
                                <g>
                                    <path d="M491.867,461.678L500.744,498.433L547.369,487.172L534.849,435.335L488.224,446.595L491.867,461.678Z" style="fill:rgb(253,194,33);"/>
                                    <circle cx="516.789" cy="460.654" r="11.013" style="fill:rgb(213,32,44);"/>
                                    <path d="M518.528,469.348L517.797,486.738L537.077,476.304L520.846,479.202L520.115,469.285L518.528,469.348Z" style="fill:rgb(10,76,42);"/>
                                    <path d="M520.115,478.043L505.776,471.667L517.797,486.738L520.115,478.043Z" style="fill:rgb(10,76,42);"/>
                                    <path d="M488.224,446.595L523.385,427.37L526.961,437.24L488.224,446.595Z" style="fill:rgb(253,194,33);"/>
                                </g>
                                <path d="M490.224,486.968L500.453,482.317L502.308,478.695L504.31,477.604L506.4,482.317L510.682,482.317C513.155,482.862 512.633,486.503 510.682,491.618L490.224,493.944L490.224,486.968Z" style="fill:rgb(255,203,166);"/>
                            </g>
                        </g>
                        <g transform="matrix(1,0,0,1,-119,-281)">
                            <path d="M672.883,708.214C745.454,701.723 805.39,707.835 806.645,721.856C807.899,735.876 749.999,752.529 677.428,759.021C604.857,765.512 544.92,759.4 543.666,745.379C542.412,731.359 600.312,714.706 672.883,708.214Z" style="fill:rgb(189,203,196);"/>
                            <g>
                                <path d="M693.405,598.301L691.384,618.518L721.709,709.496L711.601,713.539L661.058,616.497L661.058,602.344L646.906,606.388C646.906,606.388 653.349,639.015 652.971,646.822C652.592,654.63 646.906,723.648 646.906,723.648L636.797,723.648L622.645,609.949L639.969,569.997L681.887,582.127L693.405,598.301Z" style="fill:rgb(255,203,166);"/>
                                <path d="M644.669,389.375L626.473,395.44L612.321,361.071L614.343,342.875L614.343,334.788L616.365,328.723C616.365,328.723 633.067,332.3 634.56,334.788C636.053,337.277 639.225,337.975 640.626,344.897C642.026,351.819 644.715,369.913 644.669,373.201C644.623,376.489 644.669,389.375 644.669,389.375Z" style="fill:rgb(255,203,166);"/>
                                <path d="M679.65,448.005L726.139,584.193C726.139,584.193 683.828,606.116 644.67,611.765C615.836,615.924 612.321,605.699 612.321,605.699L608.278,425.766L620.409,385.829C631.287,389.945 640.059,388.797 644.67,377.245L679.65,448.005Z" style="fill:rgb(10,76,42);"/>
                                <path d="M618.387,330.745L634.56,344.897C634.56,344.897 633.678,366.285 638.604,375.223C643.529,384.16 636.367,401.71 648.712,415.657C661.058,429.604 645.668,447.762 664.886,454.426C684.105,461.091 681.141,429.951 674.995,415.657C668.848,401.364 691.232,389.34 670.951,371.007C670.951,371.007 681.018,335.166 646.691,326.701C615.347,318.972 620.259,317.939 614.343,316.593C609.882,315.578 604.365,338.066 606.256,348.94C608.148,359.815 593.801,366.999 608.278,389.375C608.278,389.375 614.35,398.256 602.213,407.57C585.696,420.245 605.071,437.44 616.365,437.896C624.919,438.242 630.016,387.032 628.495,379.266C626.975,371.501 614.371,370.441 614.343,361.071C614.315,351.7 613.369,333.486 618.387,330.745Z" style="fill:rgb(213,32,44);"/>
                                <path d="M625.031,705.317L652.768,700.842L653.45,731.036L620.156,738.255C620.156,738.255 603.348,722.637 628.575,717.975L625.031,705.317Z" style="fill:rgb(253,194,33);"/>
                                <path d="M699.305,700.623L724.235,687.665L734.361,716.119L705.016,733.425C705.016,733.425 684.155,723.874 706.643,711.527L699.305,700.623Z" style="fill:rgb(253,194,33);"/>
                                <path d="M647.576,482.041L599.659,529.74L610.197,537.464L658.821,506.481" style="fill:rgb(10,76,42);"/>
                                <path d="M655.983,469.257L588.377,468.47L590.246,481.4L646.417,494.402" style="fill:rgb(10,76,42);"/>
                                <g>
                                    <path d="M561.163,548.593L598.652,543.662L591.151,495.513L537.17,504.953L545.779,550.617L561.163,548.593Z" style="fill:rgb(213,32,44);"/>
                                    <g>
                                        <path d="M546.189,513.762L552.82,509.329L557.694,517.977L552.489,521.055L546.189,513.762Z" style="fill:rgb(233,177,22);"/>
                                        <path d="M548.726,512.121L549.675,511.363L552.327,515.548L554.913,519.632L554.246,520.063L548.726,512.121Z" style="fill:white;"/>
                                        <path d="M549.685,517.832L548.826,516.949L552.54,514.458L554.898,512.987L555.33,513.654L549.685,517.832Z" style="fill:white;"/>
                                        <path d="M548.761,511.522C548.761,511.522 548.024,505.716 550.386,506.011C552.669,506.295 549.392,510.849 548.963,511.504C548.948,511.527 551.528,507.597 552.672,507.986C553.814,508.375 548.955,511.771 548.914,511.523C548.912,511.514 548.941,511.516 548.974,511.51C550.067,511.303 555.169,510.499 556.27,509.545L555.75,510.744L557.188,510.965C557.188,510.965 553.091,513.817 549.293,511.899C549.293,511.899 548.174,517.598 546.928,518.464L546.923,516.453L544.661,517.628C544.661,517.628 549.167,512.741 548.834,511.62C548.834,511.62 545.644,513.817 544.966,512.538C544.3,511.28 547.864,511.44 548.789,511.611C548.804,511.614 544.866,511.447 545.039,509.757C545.212,508.066 547.506,509.453 548.761,511.522Z" style="fill:white;"/>
                                    </g>
                                    <g>
                                        <path d="M584.831,514.827L574.764,512.733L573.941,519.079L573.117,525.424L580.825,526.589L584.831,514.827Z" style="fill:rgb(213,242,227);"/>
                                        <path d="M581.006,514.092L579.506,513.645L578.358,519.928L577.24,526.058L578.246,526.251L581.006,514.092Z" style="fill:white;"/>
                                        <path d="M582.619,521.381L583.219,519.911L577.577,518.728L574.048,518.109L573.854,519.115L582.619,521.381Z" style="fill:white;"/>
                                        <path d="M580.675,513.394C580.675,513.394 578.751,506.098 576.069,507.591C573.479,509.033 579.595,512.893 580.425,513.469C580.454,513.489 575.471,510.039 574.293,511.057C573.116,512.073 580.563,513.784 580.493,513.468C580.49,513.457 580.456,513.473 580.415,513.481C579.008,513.762 572.522,515.266 570.745,514.658L571.946,515.84L570.334,516.799C570.334,516.799 576.609,518.228 580.222,514.1C580.222,514.1 584.312,520.371 586.22,520.805L585.254,518.398L588.526,518.71C588.526,518.71 580.779,515.046 580.635,513.545C580.635,513.545 585.51,514.63 585.701,512.774C585.889,510.949 581.708,512.861 580.685,513.513C580.668,513.524 585.295,511.422 584.271,509.485C583.248,507.548 581.176,510.314 580.675,513.394Z" style="fill:white;"/>
                                    </g>
                                    <g>
                                        <path d="M554.482,533.955L565.502,526.589L569.552,533.775L573.601,540.961L564.952,546.076L554.482,533.955Z" style="fill:rgb(10,76,42);"/>
                                        <path d="M558.698,531.228L560.275,529.969L564.682,536.924L568.98,543.71L567.872,544.427L558.698,531.228Z" style="fill:white;"/>
                                        <path d="M560.292,540.72L558.864,539.252L565.036,535.112L568.955,532.668L569.672,533.776L560.292,540.72Z" style="fill:white;"/>
                                        <path d="M558.757,530.234C558.757,530.234 557.531,520.585 561.457,521.073C565.25,521.546 559.805,529.114 559.091,530.203C559.066,530.241 563.355,523.71 565.255,524.357C567.153,525.004 559.079,530.646 559.01,530.235C559.008,530.22 559.056,530.223 559.109,530.213C560.927,529.868 569.405,528.532 571.234,526.947L570.371,528.94L572.761,529.308C572.761,529.308 565.952,534.047 559.639,530.859C559.639,530.859 557.78,540.33 555.71,541.77L555.701,538.428L551.942,540.381C551.942,540.381 559.43,532.259 558.876,530.395C558.876,530.395 553.575,534.047 552.449,531.921C551.343,529.831 557.264,530.096 558.802,530.381C558.828,530.386 552.282,530.109 552.57,527.3C552.857,524.49 556.669,526.795 558.757,530.234Z" style="fill:white;"/>
                                    </g>
                                </g>
                                <path d="M600.902,530.652L588.388,537.678L583.257,536.855L580.621,538.094L583.898,543.805L580.665,548.216C579.359,551.176 583.504,553.386 590.247,555.239L608.089,535.919L600.902,530.652Z" style="fill:rgb(255,203,166);"/>
                                <path d="M588.598,469.995L574.817,465.986L571.81,461.747L569.08,460.734L567.299,467.072L561.886,467.855C558.86,468.996 560.186,473.503 563.586,479.613L589.873,478.814L588.598,469.995Z" style="fill:rgb(255,203,166);"/>
                            </g>
                        </g>
                    </g>
                </g>
            </g>
        </g>
    </g>
</svg>
