<?xml version="1.0" encoding="UTF-8" standalone="no"?><!DOCTYPE svg PUBLIC "-//W3C//DTD SVG 1.1//EN" "http://www.w3.org/Graphics/SVG/1.1/DTD/svg11.dtd"><svg width="100%" height="100%" viewBox="0 0 769 220" version="1.1" xmlns="http://www.w3.org/2000/svg" xmlns:xlink="http://www.w3.org/1999/xlink" xml:space="preserve" xmlns:serif="http://www.serif.com/" style="fill-rule:evenodd;clip-rule:evenodd;stroke-linejoin:round;stroke-miterlimit:1.41421;"><path d="M683.269,207.455c19.092,-12.115 86.019,-29.018 86.019,-29.018l0,-81.164c0,0 -109.163,15.256 -159.912,35.171c-6.802,2.67 -57.464,35.374 -87.91,33.345c-42.283,-2.817 -98.073,-16.459 -143.025,-15.135c-78.681,2.316 -125.237,13.901 -134.314,20.968c-22.536,17.544 22.239,38.997 98.66,40.524c33.576,0.671 72.359,-8.264 111.45,-13.329c37.693,-4.883 78.345,9.408 109.006,-4.002c45.147,-19.747 101.938,24.119 120.026,12.64Z" style="fill:#d5f2e3;"/><path d="M51.308,213.455c-19.093,-12.115 -53.019,-29.018 -53.019,-29.018l0,-81.164c0,0 76.162,15.256 126.912,35.171c6.802,2.67 60.432,32.374 90.878,30.345c11.706,-0.779 49.11,-6.875 48.662,-2.551c-0.688,6.631 21.397,34.912 -2.427,33.199c-2.732,-0.197 -14.432,-4.82 -29.642,-4.375c-22.907,0.671 -52.509,6.497 -61.338,5.753c-49.103,-4.135 -101.938,24.119 -120.026,12.64Z" style="fill:#d5f2e3;"/><g><path d="M322.834,161.714c30.298,-1.108 55.065,2.623 55.274,8.326c0.208,5.703 -24.221,11.233 -54.519,12.34c-30.298,1.108 -55.065,-2.623 -55.274,-8.326c-0.208,-5.703 24.221,-11.233 54.519,-12.34Z" style="fill:#bdcbc4;"/><g><path d="M338.859,72.982l21.203,-3.318l0,4.147l-17.056,6.636" style="fill:#d5f2e3;"/><path d="M360.062,70.148l4.147,-1.886l0.752,-1.468l0.812,-0.442l0.847,1.91l1.736,0c1.003,0.222 0.791,1.697 0,3.772l-8.294,0.943l0,-2.829Z" style="fill:#ffcba6;"/><path d="M315.725,112.578l3.772,19.989l-16.6,26.597l4.977,5.52l20.332,-25.493l1.697,-9.936l10.893,30.513l5.729,-1.605l-8.338,-48.246l-22.462,-1.755l0,4.416Z" style="fill:#fdc221;"/><path d="M320.702,49.918l-13.271,62.922l40.643,-1.383l-9.124,-62.231l-18.248,0.692Z" style="fill:#d5f2e3;"/><path d="M349.21,157.294l-10.783,3.317l5.12,10.993l13.272,-3.317c0,0 3.276,-8.611 -6.636,-5.806l-0.973,-5.187Z" style="fill:#d5202c;"/><path d="M310.069,165.254l-8.419,-7.51l-6.789,9.285l9.706,9.64c0,0 9.063,-1.652 1.535,-8.683l3.967,-2.732Z" style="fill:#d5202c;"/><path d="M327.542,40.103c0,0 -4.157,-5.107 -2.902,-11.612c0.198,-0.448 0.415,-1.544 2.73,-4.281c2.858,-3.378 8.411,-3.592 11.942,-1.361c2.372,1.498 4.304,4.09 4.137,7.876c-0.024,0.542 1.453,2.531 1.453,2.531c0,0 -1.918,0.305 -2.115,0.906c-0.659,2.006 -1.836,4.26 -3.685,6.77l-11.56,-0.829Z" style="fill:#ffcba6;"/><path d="M339.766,23.302c0.379,0.748 -13.824,10.644 -14.35,12.022c-0.76,1.993 -2.672,-5.492 -0.323,-8.194c-3.394,-4.19 -4.412,5.18 -4.048,10.36c0.204,2.893 -3.329,39.848 -4.565,42.145c-2.954,5.491 -13.538,8.677 -15.168,8.455c-1.399,-0.19 7.994,-47.451 11.351,-56.932c1.105,-3.118 2.636,-6.08 4.024,-8.453c1.756,-3.002 3.283,-5.06 3.429,-5.296c2.324,-3.765 7.193,-3.676 9.955,-1.11c1.904,1.768 0.36,3.597 0.673,5.085c0.43,-0.751 7.189,-1.699 9.022,1.918Z" style="fill:#43281c;"/><path d="M322.062,50.963l18.671,-1.677c0,0 6.217,-5.662 -0.125,-8.354c-6.34,-2.692 -19.906,0 -19.906,0c0,0 -10.164,3.426 -11.612,12.442c-1.448,9.015 -10.547,7.569 -12.878,9.124c-2.33,1.554 -5.808,3.471 -4.54,13.271l9.124,0.829c0,0 -2.745,-8.291 8.294,-9.953c11.039,-1.662 12.774,-11.565 12.972,-15.682Z" style="fill:#d5202c;"/><path d="M339.312,79.916l21.203,-3.318l0,4.147l-17.056,6.636" style="fill:#d5f2e3;"/><g><path d="M361.181,66.834l3.599,14.902l18.903,-4.566l-5.076,-21.016l-18.903,4.565l1.477,6.115Z" style="fill:#fdc221;"/><circle cx="371.285" cy="66.419" r="4.465" style="fill:#d5202c;"/><path d="M371.99,69.944l-0.296,7.05l7.817,-4.23l-6.581,1.175l-0.296,-4.02l-0.644,0.025Z" style="fill:#0a4c2a;"/><path d="M372.634,73.469l-5.814,-2.585l4.874,6.11l0.94,-3.525Z" style="fill:#0a4c2a;"/><path d="M359.704,60.719l14.256,-7.794l1.449,4.002l-15.705,3.792Z" style="fill:#fdc221;"/></g><path d="M360.515,77.088l4.147,-1.886l0.752,-1.468l0.812,-0.443l0.847,1.911l1.736,0c1.003,0.221 0.791,1.697 0,3.771l-8.294,0.943l0,-2.828Z" style="fill:#ffcba6;"/></g></g><g><path d="M434.57,166.786c29.422,-2.631 53.722,-0.153 54.23,5.531c0.509,5.684 -22.965,12.436 -52.387,15.068c-29.423,2.631 -53.723,0.154 -54.231,-5.531c-0.508,-5.684 22.966,-12.436 52.388,-15.068Z" style="fill:#bdcbc4;"/><g><path d="M442.89,122.225l-0.819,8.196l12.294,36.885l-4.098,1.639l-20.491,-39.343l0,-5.738l-5.738,1.64c0,0 2.612,13.227 2.459,16.393c-0.154,3.165 -2.459,31.147 -2.459,31.147l-4.098,0l-5.738,-46.097l7.024,-16.197l16.994,4.918l4.67,6.557Z" style="fill:#ffcba6;"/><path d="M423.131,37.521l-7.377,2.459l-5.738,-13.934l0.82,-7.377l0,-3.279l0.82,-2.459c0,0 6.771,1.45 7.377,2.459c0.605,1.009 1.891,1.292 2.459,4.098c0.568,2.807 1.658,10.143 1.639,11.476c-0.018,1.333 0,6.557 0,6.557Z" style="fill:#ffcba6;"/><path d="M437.313,61.291l18.848,55.214c0,0 -17.154,8.888 -33.029,11.179c-11.69,1.686 -13.116,-2.46 -13.116,-2.46l-1.639,-72.949l4.919,-16.192c4.41,1.669 7.966,1.204 9.836,-3.48l14.181,28.688Z" style="fill:#0a4c2a;"/><path d="M412.476,13.751l6.557,5.737c0,0 -0.358,8.672 1.639,12.295c1.997,3.624 -0.907,10.739 4.098,16.393c5.006,5.655 -1.234,13.017 6.558,15.718c7.792,2.702 6.59,-9.922 4.098,-15.718c-2.492,-5.794 6.583,-10.669 -1.639,-18.102c0,0 4.081,-14.531 -9.836,-17.963c-12.708,-3.133 -10.716,-3.552 -13.115,-4.098c-1.808,-0.411 -4.045,8.706 -3.278,13.115c0.767,4.409 -5.05,7.321 0.819,16.393c0,0 2.462,3.601 -2.459,7.377c-6.696,5.138 1.159,12.11 5.738,12.295c3.468,0.14 5.534,-20.622 4.918,-23.77c-0.616,-3.149 -5.726,-3.578 -5.738,-7.377c-0.011,-3.799 -0.395,-11.184 1.64,-12.295Z" style="fill:#d5202c;"/><path d="M415.169,165.612l11.246,-1.814l0.276,12.241l-13.498,2.927c0,0 -6.814,-6.332 3.413,-8.222l-1.437,-5.132Z" style="fill:#fdc221;"/><path d="M445.282,163.709l10.107,-5.254l4.106,11.536l-11.898,7.017c0,0 -8.457,-3.873 0.66,-8.878l-2.975,-4.421Z" style="fill:#fdc221;"/><path d="M424.31,75.09l-19.427,19.339l4.272,3.131l19.714,-12.561" style="fill:#0a4c2a;"/><path d="M427.718,69.907l-27.409,-0.319l0.758,5.242l22.773,5.272" style="fill:#0a4c2a;"/><g><path d="M389.276,102.072l15.199,-1.999l-3.041,-19.521l-21.886,3.827l3.491,18.514l6.237,-0.821Z" style="fill:#d5202c;"/><g><path d="M383.205,87.951l2.688,-1.798l1.976,3.507l-2.11,1.247l-2.554,-2.956Z" style="fill:#e9b116;"/><path d="M384.233,87.285l0.385,-0.307l1.075,1.697l1.049,1.655l-0.271,0.175l-2.238,-3.22Z" style="fill:#fff;"/><path d="M384.622,89.601l-0.348,-0.358l1.506,-1.01l0.956,-0.597l0.175,0.271l-2.289,1.694Z" style="fill:#fff;"/><path d="M384.248,87.042c0,0 -0.299,-2.353 0.658,-2.234c0.926,0.115 -0.403,1.962 -0.576,2.227c-0.007,0.01 1.039,-1.584 1.503,-1.426c0.463,0.158 -1.507,1.534 -1.523,1.434c-0.001,-0.004 0.011,-0.003 0.024,-0.005c0.443,-0.084 2.512,-0.41 2.958,-0.797l-0.211,0.486l0.583,0.09c0,0 -1.661,1.156 -3.201,0.378c0,0 -0.453,2.311 -0.959,2.662l-0.002,-0.815l-0.917,0.476c0,0 1.827,-1.981 1.692,-2.436c0,0 -1.293,0.891 -1.568,0.372c-0.27,-0.51 1.175,-0.445 1.55,-0.375c0.006,0.001 -1.591,-0.067 -1.52,-0.752c0.07,-0.686 1,-0.123 1.509,0.715Z" style="fill:#fff;"/></g><g><path d="M398.871,88.382l-4.081,-0.849l-0.334,2.573l-0.334,2.573l3.125,0.472l1.624,-4.769Z" style="fill:#d5f2e3;"/><path d="M397.321,88.084l-0.609,-0.181l-0.465,2.547l-0.453,2.486l0.408,0.078l1.119,-4.93Z" style="fill:#fff;"/><path d="M397.975,91.04l0.243,-0.596l-2.288,-0.48l-1.43,-0.251l-0.079,0.408l3.554,0.919Z" style="fill:#fff;"/><path d="M397.186,87.801c0,0 -0.78,-2.958 -1.867,-2.352c-1.05,0.584 1.43,2.149 1.766,2.383c0.012,0.008 -2.008,-1.391 -2.486,-0.978c-0.477,0.412 2.542,1.106 2.514,0.977c-0.002,-0.004 -0.015,0.002 -0.032,0.006c-0.57,0.114 -3.2,0.723 -3.92,0.477l0.486,0.479l-0.653,0.389c0,0 2.544,0.579 4.009,-1.094c0,0 1.658,2.542 2.431,2.718l-0.391,-0.976l1.326,0.127c0,0 -3.14,-1.486 -3.199,-2.094c0,0 1.977,0.44 2.054,-0.313c0.076,-0.74 -1.619,0.035 -2.034,0.3c-0.006,0.004 1.869,-0.848 1.454,-1.633c-0.414,-0.786 -1.255,0.336 -1.458,1.584Z" style="fill:#fff;"/></g><g><path d="M386.567,96.137l4.468,-2.986l1.642,2.913l1.641,2.914l-3.506,2.074l-4.245,-4.915Z" style="fill:#0a4c2a;"/><path d="M388.276,95.032l0.64,-0.511l1.786,2.82l1.743,2.751l-0.449,0.291l-3.72,-5.351Z" style="fill:#fff;"/><path d="M388.923,98.88l-0.579,-0.595l2.502,-1.679l1.589,-0.99l0.29,0.449l-3.802,2.815Z" style="fill:#fff;"/><path d="M388.3,94.629c0,0 -0.497,-3.912 1.095,-3.714c1.538,0.191 -0.67,3.26 -0.959,3.701c-0.01,0.016 1.728,-2.632 2.499,-2.37c0.769,0.262 -2.504,2.55 -2.532,2.383c-0.001,-0.006 0.018,-0.005 0.04,-0.009c0.737,-0.14 4.174,-0.681 4.916,-1.324l-0.35,0.808l0.969,0.149c0,0 -2.761,1.922 -5.32,0.629c0,0 -0.754,3.84 -1.593,4.424l-0.004,-1.355l-1.524,0.792c0,0 3.036,-3.293 2.812,-4.049c0,0 -2.15,1.481 -2.606,0.619c-0.449,-0.848 1.952,-0.74 2.576,-0.625c0.01,0.002 -2.644,-0.11 -2.527,-1.249c0.116,-1.139 1.662,-0.204 2.508,1.19Z" style="fill:#fff;"/></g></g><path d="M405.387,94.798l-5.074,2.849l-2.08,-0.334l-1.069,0.502l1.329,2.316l-1.311,1.788c-0.529,1.2 1.151,2.096 3.885,2.847l7.234,-7.832l-2.914,-2.136Z" style="fill:#ffcba6;"/><path d="M400.399,70.206l-5.588,-1.625l-1.219,-1.719l-1.107,-0.41l-0.722,2.569l-2.194,0.318c-1.227,0.462 -0.689,2.29 0.689,4.767l10.657,-0.324l-0.516,-3.576Z" style="fill:#ffcba6;"/></g></g></svg>