<?xml version="1.0" encoding="UTF-8" standalone="no"?><!DOCTYPE svg PUBLIC "-//W3C//DTD SVG 1.1//EN" "http://www.w3.org/Graphics/SVG/1.1/DTD/svg11.dtd"><svg width="100%" height="100%" viewBox="0 0 1587 858" version="1.1" xmlns="http://www.w3.org/2000/svg" xmlns:xlink="http://www.w3.org/1999/xlink" xml:space="preserve" xmlns:serif="http://www.serif.com/" style="fill-rule:evenodd;clip-rule:evenodd;stroke-linejoin:round;stroke-miterlimit:1.41421;"><g><path d="M607.992,75.236l0.813,88.105l0.662,-0.098l6.971,-87.636l-8.446,-0.371Z" style="fill:#d5202c;"/><path d="M539.75,118.248l68.828,45.051l0.421,-0.319l-66.908,-51.786l-2.341,7.054Z" style="fill:#d5202c;"/><path d="M490.465,127.894l118.329,35.595l0.214,-0.463l-111.884,-41.454l-5.375,4.093l-1.284,2.229Z" style="fill:#d5202c;"/><path d="M609.2,162.293l-0.371,1.075l0.237,-0.046l-6.646,13.696l-8.008,2.838l13.58,-16.21l0.741,-0.468l-34.278,27.567l-29.367,16.158c17.825,-11.47 46.281,-33.333 60.932,-42.633c2.415,-1.533 2.877,-1.715 2.923,-1.578c0.04,0.122 -0.21,0.486 -0.21,0.486l30.019,1.858l5.201,-3.254l-29.727,1.387l58.658,-10.289l7.931,-3.515l-71.615,12.928Z" style="fill:#d5202c;"/><path d="M643.741,46.361l-34.481,116.185l0.589,-0.262l42.978,-117.273l-9.086,1.35Z" style="fill:#d5202c;"/><path d="M598.366,177.491l82.801,-28.581l27.803,65.274l-81.949,28.415l-28.283,-64.264l-0.372,-0.844Z" style="fill:#fdc221;"/><path d="M598.366,177.491l28.655,65.108l-55.41,28.524l-26.785,-64.59l53.54,-29.042" style="fill:#fdc221;"/><path d="M599.051,176.473l4.587,-1.461l25.937,67.087l-5.545,2.039l-29.656,-64.481" style="fill:#d5202c;"/><path d="M626.169,242.766l-54.558,28.357l64.738,-21.51l72.621,-35.429" style="fill:#d5202c;"/><path d="M653.862,45.528c-30.066,1.596 -37.735,33.02 -37.735,33.02c0,0 -59.939,-18.231 -76.212,39.667c0,0 -33.067,-3.978 -48.551,9.503l0.892,-17.834l15.933,-26.985l30.377,-20.932l43.281,-18.235l40.012,-7.832l31.923,9.223" style="fill:#d5202c;"/><path d="M490.538,127.88c0,0 -27.795,-75.067 37.766,-114.35c65.562,-39.283 118.318,18.09 125.558,31.998c0,0 -31.048,-6.715 -48.933,25.488c0,0 -59.995,-18.248 -68.17,37.209c0,0 -30.084,-3.939 -46.221,19.655Z" style="fill:#0a4c2a;"/></g><path d="M1586.95,846.153l0,-354.691c0,0 -144.818,42.558 -223.495,73.433c-24.994,9.809 -211.135,129.969 -323,122.517c-155.356,-10.35 -360.343,-60.475 -525.505,-55.612c-289.089,8.511 -460.145,51.076 -493.495,77.04c-82.803,64.463 81.71,143.286 362.495,148.897c123.366,2.465 265.861,-30.366 409.491,-48.974c138.492,-17.943 287.855,34.567 400.509,-14.707c136.336,-59.632 393,52.097 393,52.097Z" style="fill:#d5f2e3;"/><g><g><path d="M495.007,695.702c74.731,-2.732 135.821,6.471 136.335,20.538c0.514,14.067 -59.741,27.705 -134.472,30.437c-74.731,2.732 -135.821,-6.47 -136.336,-20.538c-0.514,-14.067 59.741,-27.705 134.473,-30.437Z" style="fill:#bdcbc4;"/><g><path d="M534.533,476.841l52.298,-8.183l0,10.229l-42.069,16.367" style="fill:#d5f2e3;"/><path d="M586.831,469.851l10.229,-4.651l1.855,-3.621l2.003,-1.091l2.089,4.712l4.283,0c2.473,0.546 1.95,4.186 0,9.302l-20.459,2.326l0,-6.977Z" style="fill:#ffcba6;"/><path d="M477.474,574.506l9.301,49.305l-40.943,65.603l12.275,13.615l50.15,-62.88l4.187,-24.507l26.867,75.26l14.131,-3.957l-20.566,-119.003l-55.402,-4.328l0,10.892Z" style="fill:#fdc221;"/><path d="M489.749,419.953l-32.734,155.2l100.247,-3.411l-22.505,-153.495l-45.008,1.706Z" style="fill:#d5f2e3;"/><path d="M560.063,684.8l-26.596,8.183l12.631,27.115l32.733,-8.183c0,0 8.082,-21.238 -16.367,-14.321l-2.401,-12.794Z" style="fill:#d5202c;"/><path d="M463.52,704.435l-20.764,-18.524l-16.746,22.902l23.941,23.777c0,0 22.355,-4.074 3.785,-21.416l9.784,-6.739Z" style="fill:#d5202c;"/><path d="M506.621,395.743c0,0 -10.254,-12.595 -7.161,-28.642c0.491,-1.103 1.026,-3.808 6.737,-10.558c7.048,-8.331 20.744,-8.861 29.454,-3.358c5.85,3.695 10.617,10.089 10.205,19.427c-0.059,1.338 3.583,6.244 3.583,6.244c0,0 -4.731,0.752 -5.217,2.233c-1.624,4.949 -4.529,10.508 -9.088,16.7l-28.513,-2.046Z" style="fill:#ffcba6;"/><path d="M536.77,354.303c0.934,1.845 -34.097,26.255 -35.394,29.654c-1.876,4.914 -6.592,-13.546 -0.797,-20.211c-8.372,-10.336 -10.882,12.775 -9.984,25.552c0.502,7.136 -8.212,98.288 -11.259,103.952c-7.286,13.546 -33.392,21.404 -37.414,20.856c-3.451,-0.47 19.717,-117.041 27.998,-140.425c2.724,-7.692 6.5,-14.998 9.924,-20.851c4.332,-7.403 8.1,-12.479 8.46,-13.062c5.732,-9.286 17.742,-9.068 24.555,-2.739c4.695,4.362 0.888,8.872 1.659,12.544c1.059,-1.854 17.732,-4.192 22.252,4.73Z" style="fill:#43281c;"/><path d="M493.104,422.53l46.051,-4.137c0,0 15.334,-13.965 -0.306,-20.604c-15.64,-6.64 -49.1,0 -49.1,0c0,0 -25.071,8.451 -28.642,30.688c-3.572,22.237 -26.015,18.67 -31.764,22.504c-5.748,3.834 -14.326,8.563 -11.199,32.734l22.504,2.045c0,0 -6.77,-20.451 20.459,-24.55c27.229,-4.099 31.509,-28.526 31.997,-38.68Z" style="fill:#d5202c;"/><path d="M535.651,493.944l52.298,-8.184l0,10.23l-42.069,16.366" style="fill:#d5f2e3;"/><g><path d="M589.592,461.678l8.877,36.755l46.626,-11.261l-12.52,-51.837l-46.625,11.26l3.642,15.083Z" style="fill:#fdc221;"/><circle cx="614.514" cy="460.654" r="11.013" style="fill:#d5202c;"/><path d="M616.253,469.348l-0.731,17.39l19.28,-10.434l-16.23,2.898l-0.731,-9.917l-1.588,0.063Z" style="fill:#0a4c2a;"/><path d="M617.841,478.043l-14.34,-6.376l12.021,15.071l2.319,-8.695Z" style="fill:#0a4c2a;"/><path d="M585.95,446.595l35.16,-19.225l3.577,9.87l-38.737,9.355Z" style="fill:#fdc221;"/></g><path d="M587.949,486.968l10.23,-4.651l1.855,-3.622l2.002,-1.091l2.089,4.713l4.283,0c2.473,0.545 1.95,4.186 0,9.301l-20.459,2.326l0,-6.976Z" style="fill:#ffcba6;"/></g></g><g><path d="M770.609,708.214c72.571,-6.491 132.507,-0.379 133.761,13.642c1.254,14.02 -56.646,30.673 -129.217,37.165c-72.571,6.491 -132.507,0.379 -133.761,-13.642c-1.254,-14.02 56.646,-30.673 129.217,-37.165Z" style="fill:#bdcbc4;"/><g><path d="M791.131,598.301l-2.022,20.217l30.326,90.978l-10.109,4.043l-50.543,-97.042l0,-14.153l-14.151,4.044c0,0 6.443,32.627 6.064,40.434c-0.378,7.808 -6.064,76.826 -6.064,76.826l-10.109,0l-14.152,-113.699l17.324,-39.952l41.917,12.13l11.519,16.174Z" style="fill:#ffcba6;"/><path d="M742.395,389.375l-18.196,6.065l-14.152,-34.369l2.022,-18.196l0,-8.087l2.021,-6.065c0,0 16.703,3.577 18.196,6.065c1.493,2.489 4.665,3.187 6.065,10.109c1.401,6.922 4.09,25.016 4.044,28.304c-0.047,3.288 0,16.174 0,16.174Z" style="fill:#ffcba6;"/><path d="M777.376,448.005l46.489,136.188c0,0 -42.312,21.923 -81.47,27.572c-28.833,4.159 -32.348,-6.066 -32.348,-6.066l-4.043,-179.933l12.13,-39.937c10.878,4.116 19.651,2.968 24.261,-8.584l34.981,70.76Z" style="fill:#0a4c2a;"/><path d="M716.112,330.745l16.174,14.152c0,0 -0.882,21.388 4.043,30.326c4.926,8.937 -2.236,26.487 10.109,40.434c12.346,13.947 -3.045,32.105 16.174,38.769c19.218,6.665 16.255,-24.475 10.108,-38.769c-6.146,-14.293 16.238,-26.317 -4.043,-44.65c0,0 10.066,-35.841 -24.261,-44.306c-31.344,-7.729 -26.431,-8.762 -32.347,-10.108c-4.461,-1.015 -9.979,21.473 -8.087,32.347c1.892,10.875 -12.456,18.059 2.022,40.435c0,0 6.072,8.881 -6.066,18.195c-16.516,12.675 2.859,29.87 14.152,30.326c8.554,0.346 13.651,-50.864 12.131,-58.63c-1.521,-7.765 -14.125,-8.825 -14.152,-18.195c-0.028,-9.371 -0.974,-27.585 4.043,-30.326Z" style="fill:#d5202c;"/><path d="M722.756,705.317l27.738,-4.475l0.681,30.194l-33.294,7.219c0,0 -16.807,-15.618 8.419,-20.28l-3.544,-12.658Z" style="fill:#fdc221;"/><path d="M797.03,700.623l24.93,-12.958l10.127,28.454l-29.345,17.306c0,0 -20.861,-9.551 1.627,-21.898l-7.339,-10.904Z" style="fill:#fdc221;"/><path d="M745.301,482.041l-47.916,47.699l10.538,7.724l48.624,-30.983" style="fill:#0a4c2a;"/><path d="M753.709,469.257l-67.606,-0.787l1.869,12.93l56.171,13.002" style="fill:#0a4c2a;"/><g><path d="M658.889,548.593l37.488,-4.931l-7.5,-48.149l-53.981,9.44l8.609,45.664l15.384,-2.024Z" style="fill:#d5202c;"/><g><path d="M643.915,513.762l6.631,-4.433l2.437,4.324l2.437,4.324l-5.205,3.078l-6.3,-7.293Z" style="fill:#e9b116;"/><path d="M646.452,512.121l0.949,-0.758l2.652,4.185l2.586,4.084l-0.667,0.431l-5.52,-7.942Z" style="fill:#fff;"/><path d="M647.411,517.832l-0.859,-0.883l3.713,-2.491l2.359,-1.471l0.431,0.667l-5.644,4.178Z" style="fill:#fff;"/><path d="M646.487,511.522c0,0 -0.737,-5.806 1.625,-5.511c2.282,0.284 -0.994,4.838 -1.423,5.493c-0.016,0.023 2.565,-3.907 3.708,-3.518c1.142,0.389 -3.716,3.785 -3.758,3.537c-0.001,-0.009 0.028,-0.007 0.06,-0.013c1.094,-0.207 6.195,-1.011 7.296,-1.965l-0.519,1.199l1.438,0.221c0,0 -4.097,2.852 -7.896,0.934c0,0 -1.118,5.699 -2.364,6.565l-0.006,-2.011l-2.262,1.175c0,0 4.506,-4.887 4.173,-6.008c0,0 -3.19,2.197 -3.867,0.918c-0.666,-1.258 2.897,-1.098 3.822,-0.927c0.016,0.003 -3.923,-0.164 -3.75,-1.854c0.173,-1.691 2.467,-0.304 3.723,1.765Z" style="fill:#fff;"/></g><g><path d="M682.556,514.827l-10.067,-2.094l-0.823,6.346l-0.823,6.345l7.707,1.165l4.006,-11.762Z" style="fill:#d5f2e3;"/><path d="M678.732,514.092l-1.501,-0.447l-1.147,6.283l-1.118,6.13l1.006,0.193l2.76,-12.159Z" style="fill:#fff;"/><path d="M680.345,521.381l0.599,-1.47l-5.641,-1.183l-3.53,-0.619l-0.193,1.006l8.765,2.266Z" style="fill:#fff;"/><path d="M678.4,513.394c0,0 -1.924,-7.296 -4.605,-5.803c-2.59,1.442 3.526,5.302 4.355,5.878c0.03,0.02 -4.953,-3.43 -6.132,-2.412c-1.177,1.016 6.27,2.727 6.2,2.411c-0.002,-0.011 -0.036,0.005 -0.078,0.013c-1.407,0.281 -7.892,1.785 -9.669,1.177l1.2,1.182l-1.612,0.959c0,0 6.275,1.429 9.888,-2.699c0,0 4.091,6.271 5.998,6.705l-0.965,-2.407l3.271,0.312c0,0 -7.747,-3.664 -7.89,-5.165c0,0 4.874,1.085 5.066,-0.771c0.188,-1.825 -3.993,0.087 -5.016,0.739c-0.018,0.011 4.609,-2.091 3.586,-4.028c-1.024,-1.937 -3.096,0.829 -3.597,3.909Z" style="fill:#fff;"/></g><g><path d="M652.208,533.955l11.02,-7.366l4.049,7.186l4.05,7.186l-8.649,5.115l-10.47,-12.121Z" style="fill:#0a4c2a;"/><path d="M656.423,531.228l1.577,-1.259l4.408,6.955l4.298,6.786l-1.109,0.717l-9.174,-13.199Z" style="fill:#fff;"/><path d="M658.018,540.72l-1.428,-1.468l6.171,-4.14l3.92,-2.444l0.717,1.108l-9.38,6.944Z" style="fill:#fff;"/><path d="M656.482,530.234c0,0 -1.225,-9.649 2.701,-9.161c3.792,0.473 -1.653,8.041 -2.366,9.13c-0.025,0.038 4.264,-6.493 6.163,-5.846c1.898,0.647 -6.176,6.289 -6.244,5.878c-0.003,-0.015 0.045,-0.012 0.099,-0.022c1.817,-0.345 10.295,-1.681 12.125,-3.266l-0.863,1.993l2.39,0.368c0,0 -6.809,4.739 -13.122,1.551c0,0 -1.859,9.471 -3.929,10.911l-0.01,-3.342l-3.759,1.953c0,0 7.489,-8.122 6.935,-9.986c0,0 -5.301,3.652 -6.427,1.526c-1.107,-2.09 4.815,-1.825 6.352,-1.54c0.026,0.005 -6.519,-0.272 -6.232,-3.081c0.288,-2.81 4.1,-0.505 6.187,2.934Z" style="fill:#fff;"/></g></g><path d="M698.628,530.652l-12.515,7.026l-5.131,-0.823l-2.635,1.239l3.277,5.711l-3.234,4.411c-1.305,2.96 2.84,5.17 9.583,7.023l17.842,-19.32l-7.187,-5.267Z" style="fill:#ffcba6;"/><path d="M686.323,469.995l-13.781,-4.009l-3.006,-4.239l-2.731,-1.013l-1.78,6.338l-5.414,0.783c-3.026,1.141 -1.7,5.648 1.7,11.758l26.287,-0.799l-1.275,-8.819Z" style="fill:#ffcba6;"/></g></g></g><g><path d="M226.913,670.774l0.627,0.554l-0.168,0.056l9.227,6.364l6.16,-1.087l-14.581,-5.458l-0.645,-0.031l31.964,5.225l24.678,-0.303c-15.582,-0.881 -41.747,-4.565 -54.508,-5.207c-2.103,-0.106 -2.466,-0.055 -2.445,0.05c0.018,0.092 0.311,0.235 0.311,0.235l-18.56,12.081l-4.512,-0.198l19.549,-9.896l-41.315,14.69l-6.357,0.625l50.575,-17.7Z" style="fill:#d5202c;"/><path d="M239.368,676.581l-63.421,11.729l5.869,51.909l62.658,-4.28l-5.038,-58.683l-0.068,-0.675Z" style="fill:#0a4c2a;"/><path d="M239.368,676.581l5.115,59.41l45.999,-9.127l-6.292,-51.102l-44.822,0.819" style="fill:#0a4c2a;"/><path d="M238.56,676.177l-3.469,0.728l7.098,59.437l4.292,-0.705l-3.769,-59.117" style="fill:#d5202c;"/><g><path d="M188.871,732.436l38.419,-61.336l0.421,0.353l-32.767,64.351l-6.073,-3.368Z" style="fill:#d5202c;"/><path d="M159.57,673.005l67.543,-1.973l0.158,0.404l-69.092,7.514l1.391,-5.945Z" style="fill:#d5202c;"/><path d="M129.208,645.079l98.138,25.912l-0.049,0.416l-96.142,-19.04l-2.005,-5.176l0.058,-2.112Z" style="fill:#d5202c;"/><path d="M201.496,768.009l25.77,-96.157l0.301,0.436l-20.29,100.57l-5.781,-4.849Z" style="fill:#d5202c;"/><path d="M208.223,772.94c-20.364,-14.033 -12.234,-39.329 -12.234,-39.329c0,0 -49.797,-12.985 -36.317,-60.512c0,0 -24.86,-11.42 -29.91,-27.51l-7.037,12.869l-0.437,25.738l12.276,27.705l22.468,31.36l24.65,22.672l26.312,7.257" style="fill:#d5202c;"/><path d="M129.253,645.121c0,0 -51.708,40.616 -22.683,96.284c29.026,55.668 90.61,38.163 101.653,31.535c0,0 -24.622,-8.636 -23.309,-38.866c0,0 -49.844,-12.997 -31.743,-55.336c0,0 -22.755,-10.166 -23.918,-33.617Z" style="fill:#fdc221;"/></g></g></svg>