<?xml version="1.0" encoding="UTF-8" standalone="no"?><!DOCTYPE svg PUBLIC "-//W3C//DTD SVG 1.1//EN" "http://www.w3.org/Graphics/SVG/1.1/DTD/svg11.dtd"><svg width="100%" height="100%" viewBox="0 0 893 606" version="1.1" xmlns="http://www.w3.org/2000/svg" xmlns:xlink="http://www.w3.org/1999/xlink" xml:space="preserve" xmlns:serif="http://www.serif.com/" style="fill-rule:evenodd;clip-rule:evenodd;stroke-linecap:round;stroke-linejoin:round;stroke-miterlimit:1.5;"><path d="M1,468.85c-0.334,0.262 -1,-349.651 -1,-349.651c0,0 198.468,-8.313 288.128,-48.29c125.335,-55.885 282.308,11.534 311.436,161.469c25.215,129.795 180.751,139.222 214.235,221.531c67.35,165.56 -177.294,230.698 -372.961,12.748c-129.572,-144.327 -337.862,-77.441 -439.838,2.193Z" style="fill:#d5f2e3;"/><g><g><path d="M556.751,148.083l4.929,-14.483c0,0 2.635,-6.751 10.304,-3.564c7.669,3.187 40.736,13.864 40.736,13.864c0,0 11.816,3.067 7.782,12.75c-4.035,9.683 -7.703,22.631 -7.703,22.631c0,0 -3.328,8.297 -10.92,5.374c-7.592,-2.923 -14.484,-4.93 -14.484,-4.93l-11.228,6.28l-3.256,-11.209l-16.294,-5.546c0,0 -5.436,-4.064 -3.872,-9.398c1.564,-5.335 4.006,-11.769 4.006,-11.769Z" style="fill:#f77178;"/><path d="M556.751,148.083l4.929,-14.483c0,0 2.635,-6.751 10.304,-3.564c7.669,3.187 40.736,13.864 40.736,13.864c0,0 11.816,3.067 7.782,12.75c-4.035,9.683 -7.703,22.631 -7.703,22.631c0,0 -3.328,8.297 -10.92,5.374c-7.592,-2.923 -14.484,-4.93 -14.484,-4.93l-11.228,6.28l-3.256,-11.209l-16.294,-5.546c0,0 -5.436,-4.064 -3.872,-9.398c1.564,-5.335 4.006,-11.769 4.006,-11.769Z" style="fill:#d5202c;"/><path d="M556.751,148.083l4.929,-14.483c0,0 2.635,-6.751 10.304,-3.564c7.669,3.187 40.736,13.864 40.736,13.864c0,0 11.816,3.067 7.782,12.75c-4.035,9.683 -7.703,22.631 -7.703,22.631c0,0 -3.328,8.297 -10.92,5.374c-7.592,-2.923 -14.484,-4.93 -14.484,-4.93l-11.228,6.28l-3.256,-11.209l-16.294,-5.546c0,0 -5.436,-4.064 -3.872,-9.398c1.564,-5.335 4.006,-11.769 4.006,-11.769Z" style="fill:none;stroke:#9e003d;stroke-width:3px;"/><path d="M556.751,148.083l4.929,-14.483c0,0 2.635,-6.751 10.304,-3.564c7.669,3.187 40.736,13.864 40.736,13.864c0,0 11.816,3.067 7.782,12.75c-4.035,9.683 -7.703,22.631 -7.703,22.631c0,0 -3.328,8.297 -10.92,5.374c-7.592,-2.923 -14.484,-4.93 -14.484,-4.93l-11.228,6.28l-3.256,-11.209l-16.294,-5.546c0,0 -5.436,-4.064 -3.872,-9.398c1.564,-5.335 4.006,-11.769 4.006,-11.769Z" style="fill:none;stroke:#9e003d;stroke-width:3px;"/><g><path d="M579.827,168.203l5.167,1.766l3.035,-8.877l9.117,3.117l1.87,-5.47l-9.117,-3.117l2.909,-8.509l-5.166,-1.766l-2.909,8.509l-8.813,-3.013l-1.87,5.47l8.387,2.676l-2.61,9.214Z" style="fill:#fff;"/></g></g><g><path d="M645.787,48.53l-7.568,-13.297c0,0 -3.304,-6.45 4.169,-10.075c7.472,-3.624 37.397,-21.284 37.397,-21.284c0,0 10.134,-6.808 14.703,2.635c4.569,9.442 11.825,20.776 11.825,20.776c0,0 4,7.994 -3.223,11.737c-7.223,3.742 -13.297,7.567 -13.297,7.567l-2.749,12.568l-10.548,-5l-14.959,8.514c0,0 -6.647,1.371 -9.601,-3.338c-2.954,-4.709 -6.149,-10.803 -6.149,-10.803Z" style="fill:#d5202c;"/><path d="M645.787,48.53l-7.568,-13.297c0,0 -3.304,-6.45 4.169,-10.075c7.472,-3.624 37.397,-21.284 37.397,-21.284c0,0 10.134,-6.808 14.703,2.635c4.569,9.442 11.825,20.776 11.825,20.776c0,0 4,7.994 -3.223,11.737c-7.223,3.742 -13.297,7.567 -13.297,7.567l-2.749,12.568l-10.548,-5l-14.959,8.514c0,0 -6.647,1.371 -9.601,-3.338c-2.954,-4.709 -6.149,-10.803 -6.149,-10.803Z" style="fill:none;stroke:#9e003d;stroke-width:3px;"/><g><path d="M670.481,27.841c0,0 -16.488,-3.141 -10.749,7.956c5.739,11.098 20.507,7.276 21.315,6.717c4.776,-3.308 5.157,-16.075 1.178,-20.687c-2.811,-3.257 -9.984,-4.818 -11.744,6.014Z" style="fill:#fff;"/></g></g><path d="M635.715,540.104c85.273,-3.259 154.863,3.515 155.306,15.117c0.444,11.602 -68.427,23.667 -153.699,26.926c-85.272,3.259 -154.863,-3.515 -155.306,-15.117c-0.443,-11.602 68.427,-23.667 153.699,-26.926Z" style="fill:#bdcbc4;"/><g><path d="M454.133,353.139l11.322,83.031l-33.22,90.462l12.548,0.674l34.155,-87.975l14.186,-80.962l-2.228,-9.219l2.925,4.624c0,0 11.91,64.278 13.467,71.829c1.558,7.551 21.635,108.321 21.635,108.321l9.852,-1.539l-9.286,-181.674l-22.968,-36.297l-39.003,18.206l-13.385,20.519Z" style="fill:#ffcba6;"/><path d="M454.133,353.139l2.93,80.33l-32.039,73.932l38.305,3.991l23.753,-73.806l6.042,-79.217l-2.228,-9.219l2.925,4.624c0,0 11.91,64.278 13.467,71.829c1.558,7.551 7.113,86.773 7.113,86.773l31.557,-0.048l-16.469,-161.617l-22.968,-36.297l-39.003,18.206l-13.385,20.519Z" style="fill:#bdcbc4;"/><path d="M480.195,207.816l18.656,3.14l8.558,-35.65l-4.742,-17.425l-1.231,-7.881l-2.894,-5.603c0,0 -15.733,6.029 -16.809,8.682c-1.076,2.653 -4.061,3.816 -4.371,10.775c-0.311,6.96 -0.176,25.003 0.37,28.2c0.545,3.197 2.463,15.762 2.463,15.762Z" style="fill:#ffcba6;"/><path d="M455.033,270.282l-8.909,50.705l-5.612,31.934l96.191,1.075l-15.501,-116.257l-17.904,-37.073c-9.974,5.668 -18.698,5.885 -24.951,-4.672l-23.314,74.288Z" style="fill:#fff;"/><path d="M497.123,262.492l63.309,-20.965l2.111,12.714l-48.907,29.024" style="fill:#fff;"/><path d="M560.681,243.027l11.753,-7.891l1.589,-6.796l2.263,-1.769l3.539,7.338l5.323,-0.884c3.186,0.167 3.287,4.8 1.919,11.56l-24.946,7.113l-1.44,-8.671Z" style="fill:#ffcba6;"/><path d="M496.879,146.675l-17.055,17.344c0,0 4.135,19.566 0.696,29.026c-3.439,9.461 9.644,25.528 -0.263,41.001c-9.907,15.472 7.857,30.824 -9.858,40.245c-17.714,9.422 -19.569,-21.377 -15.756,-36.243c3.814,-14.865 -19.832,-23.175 -2.859,-44.13c0,0 -15.269,-33.396 16.896,-46.873c29.369,-12.306 24.424,-12.565 29.985,-14.778c4.192,-1.668 12.995,19.407 12.807,30.293c-0.187,10.886 14.889,15.702 4.188,39.714c0,0 -4.565,9.58 8.682,16.809c18.027,9.837 1.763,29.545 -9.174,31.709c-8.283,1.639 -21.049,-47.491 -20.75,-55.291c0.299,-7.799 12.421,-10.751 11.02,-19.887c-1.4,-9.137 -3.251,-27.032 -8.559,-28.939Z" style="fill:#fdc221;"/><path d="M522.592,252.967l23.937,62.246l-12.6,2.71l-31.305,-47.479" style="fill:#fff;"/><path d="M545.042,315.533l8.439,11.367l4.951,1.325l1.875,2.177l-5.251,3.822l1.135,5.275c-0.016,3.19 -4.639,3.511 -11.457,2.464l-8.285,-24.582l8.593,-1.848Z" style="fill:#ffcba6;"/><path d="M464.58,556.498c0,0 -4.43,4.305 -6.029,4.622c-7.963,1.575 -21.038,-5.282 -21.658,-11.963c-0.341,-3.666 -1.911,-20.455 -0.894,-21.454l-2.433,22.529l-19.719,-7.116l19.928,-30.384c0,0 14.307,4.036 16.956,3.747c2.367,-0.259 -7.604,16.93 3.707,28.461c1.346,1.372 8.055,10.396 10.142,11.558Z" style="fill:#43281c;"/><path d="M567.773,559.94c0,0 -2.904,5.452 -4.33,6.242c-7.101,3.931 -21.646,1.394 -24.277,-4.778c-1.443,-3.386 -8.065,-18.894 -7.402,-20.156l4.563,22.196l-20.95,-0.755l9.698,-35.018c0,0 14.856,-0.526 17.29,-1.61c2.175,-0.969 -2.071,18.444 12.221,25.97c1.701,0.895 10.845,7.44 13.187,7.909Z" style="fill:#43281c;"/><path d="M453.729,158.657l55.666,-24.199l-17.331,-29.609l-50.943,24.023" style="fill:#fff;"/><path d="M472.68,122.545l-3.904,1.748l3.004,6.707l-6.889,3.085l1.851,4.133l6.888,-3.085l2.879,6.429l3.904,-1.748l-2.879,-6.429l6.659,-2.981l-1.851,-4.134l-6.663,3.281l-2.999,-7.006Z" style="fill:#d82133;"/></g><g><g><path d="M753.959,175.284l-0.63,-17.065l-3.504,-19.807l-16.993,-2.221l2.665,-2.946l-13.791,-5.188l-8.415,-2.537l-5.33,5.893c0,0 -1.411,8.221 0.315,8.532c1.726,0.311 5.855,8.328 5.855,8.328c0,0 -1.242,4.887 1.422,10.501c1.78,3.752 0.854,8.908 8.505,13.745c16.7,10.557 29.901,2.765 29.901,2.765Z" style="fill:#ffcba6;"/><path d="M787.723,275.977l16.369,36.972c0,0 0.25,13.853 5.69,14.749c0,0 3.875,4.622 -0.888,-3.902c0,0 0.708,-4.25 10.257,2.506c0.559,0.395 1.147,0.828 1.768,1.302c9.587,7.314 -1.447,-5.341 -5.732,-12.935c-0.735,-1.303 -1.272,-2.457 -1.471,-3.335c-0.198,-0.87 -0.618,-2.395 -1.19,-4.366c-3.377,-11.618 -9.239,-32.329 -9.239,-32.329l-9.542,-8.412l-6.022,9.75Z" style="fill:#ffcba6;"/><path d="M708.651,287.22c4.655,-110.536 -9.45,-14.705 -17.766,17.446c-1.125,10.746 -18.465,4.364 -18.465,4.364l9.128,-55.857c0,0 1.767,-50.114 23.536,-62.654c0,0 12.266,-0.35 19.237,-3.558l7.094,-10.94c0,0 18.214,2.569 22.956,-1.56l3.189,11.274c0,0 12.469,-0.639 19.495,2.129c22.899,9.021 33.11,88.593 28.344,92.54l-13.539,6.548c-15.601,-13.841 -11.176,-31.966 -17.036,-52.473l-6.751,10.677c0,0 -1.541,29.231 -6.946,37.28l-52.476,4.784Z" style="fill:#fdc221;"/><path d="M694.966,336.783l7.218,45.302l37.446,7.162l0.623,-26.524c0,0 0.374,22.445 2.288,22.191c9.858,-1.306 40.078,-7.818 39.552,-17.169c-0.629,-11.166 1.406,-37.076 1.406,-37.076l-85.973,0.323l-2.56,5.791Z" style="fill:#ffcba6;"/><path d="M702.184,382.085c0,0 2.933,49.277 7.743,59.522c4.811,10.246 18.546,88.952 22.852,93.142c4.306,4.189 12.201,-0.45 12.201,-0.45l-9.916,-87.998l4.566,-57.054l-37.446,-7.162Z" style="fill:#ffcba6;"/><path d="M741.004,381.767c0,0 2.941,36.687 12.613,41.141c9.672,4.454 101.816,53.204 101.816,53.204l-0.42,-11.376l-73.498,-57.592l0.578,-39.399c0,0 -31.033,13.836 -41.089,14.022Z" style="fill:#ffcba6;"/><path d="M708.233,275.887c0,0 -24.45,84.556 -11.012,114.432l99.613,-6.522c0,0 -24.997,-102.119 -33.185,-111.991c-5.603,-6.756 -55.416,4.081 -55.416,4.081Z" style="fill:#fdc221;"/><path d="M751.363,180.113c0.013,0.34 0.183,0.655 0.46,0.852c0.276,0.198 0.629,0.256 0.955,0.157c5.738,-1.742 27.642,-8.392 27.642,-8.392c0,0 -7.481,-50.972 -25.894,-57.275c-18.357,-6.284 -31.557,-13.65 -51.709,21.525c-0.121,0.212 -0.228,0.431 -0.318,0.657c-1.211,3.022 -10.289,25.685 -10.289,25.685l25.978,3.977c0,0 -1.072,-21.111 -1.694,-33.356c-0.076,-1.496 0.737,-2.896 2.073,-3.572c1.336,-0.676 2.946,-0.501 4.106,0.446c3.553,2.902 7.754,6.333 10.494,8.571c1.835,1.499 4.266,2.049 6.567,1.488c2.279,-0.557 5.168,-1.262 7.271,-1.775c0.691,-0.169 1.421,-0.018 1.989,0.411c0.567,0.429 0.912,1.091 0.938,1.802c0.311,8.422 1.205,32.666 1.431,38.799Z" style="fill:#d5202c;"/><path d="M852.202,463.725l13.43,-11.887l10.148,15.064l-7.475,2.37l11.82,2.438l11.801,16.182c0,0 3.796,6.223 -11.08,0.409c-14.876,-5.815 -14.685,-9.582 -23.701,-10.518c-9.015,-0.936 -4.943,-14.058 -4.943,-14.058Z" style="fill:#43281c;"/><path d="M743.64,525.809l10.086,28.331l-12.869,4.215l-1.144,-7.062l-9.548,7.32c0,0 -16.616,1.831 -21.388,1.828c-2.849,-0.002 2.079,-7.099 5.073,-11.659c3.044,-4.638 5.565,-4.718 7.543,-6.912c3.793,-4.207 5.872,-8.576 7.797,-14.357c2.929,-8.797 14.45,-1.704 14.45,-1.704Z" style="fill:#43281c;"/></g></g><g><path d="M649.443,493.104l-0.573,5.81c0,0 -6.322,1.473 -7.774,-2.967l-0.664,-8.133l8.787,0.134l0.224,5.156Z" style="fill:#ffcba6;"/><path d="M650.113,494.139c0,0 3.726,-2.364 4.656,3.289c0.931,5.652 1.885,7.05 1.885,7.05l-26.088,6.973c0,0 -4.626,0.887 -3.057,-2.96c1.568,-3.847 13.153,-12.809 13.153,-12.809c0,0 5.291,4.752 9.451,-1.543Z" style="fill:#0a4c2a;"/><path d="M731.016,459.17l2.855,6.437c0,0 -4.454,7.531 -8.672,3.847l-4.233,-7.537l10.05,-2.747Z" style="fill:#ffcba6;"/><path d="M724.427,467.226c0,0 -4.378,0.548 -1.497,5.5c2.881,4.951 3.035,6.637 3.035,6.637l24.557,-11.23c0,0 4.132,-2.261 0.474,-4.23c-3.659,-1.968 -18.298,-1.505 -18.298,-1.505c0,0 -1.055,7.034 -8.271,4.828Z" style="fill:#0a4c2a;"/><path d="M730.523,460.919c4.647,-4.218 -17.41,-78.424 -37.312,-77.933c-14.932,0.367 -44.043,-1.683 -51.199,-1.387c-11.127,0.461 -7.225,100.371 -3.809,109.529l13.568,1.261l22.035,-75.749l47.22,46.277l9.497,-1.998Z" style="fill:#43281c;"/><path d="M719.065,307.145c0,0 33.106,-13.521 36.001,-15.423c2.894,-1.901 9.098,-14.491 11.425,-13.763c2.326,0.728 -2.006,7.57 -2.604,8.619c-0.598,1.049 8.755,-5.15 10.779,-4.779c2.023,0.37 4.913,4.221 -12.644,13.612c-17.558,9.39 -42.515,30.412 -42.515,30.412l-0.442,-18.678Z" style="fill:#ffcba6;"/><path d="M636.245,311.689c0,0 -30.284,-26.793 -32.221,-29.664c-1.937,-2.871 -3.375,-15.055 -5.802,-15.281c-2.427,-0.226 -1.07,7.758 -0.923,8.957c0.147,1.198 -6.091,-8.129 -8.1,-8.568c-2.01,-0.439 -6.162,1.999 6.413,17.436c12.575,15.437 30.822,41.139 30.822,41.139l9.811,-14.019Z" style="fill:#ffcba6;"/><path d="M687.769,386.115c0,0 8.269,1.996 8.136,-3.597c-0.134,-5.593 -2.395,-9.484 -2.12,-15.61c0.275,-6.125 1.941,-19.311 3.441,-24.595c0.505,-1.783 19.444,-9.407 25.508,-18.002c0.934,-1.324 2.172,-2.868 1.487,-4.049c-3.379,-5.82 -4.595,-10.895 -5.347,-13.542c-0.463,-1.631 -24.086,11.926 -24.742,10.583c-1.397,-2.858 -3.254,-4.868 -5.66,-5.189c-7.948,-1.059 -21.004,-4.514 -32.955,10.129c-1.272,1.559 -17.243,-15.9 -22.074,-11.407c-3.976,3.697 -4.588,3.824 -9.922,11.376c-2.156,3.052 20.979,20.309 20.143,23.231c-3.213,11.227 -1.829,18.538 -1.829,18.538l-1.864,18.884c5.847,2.293 12.499,5.244 19.84,4.158c0,0 16.329,-1.861 27.958,-0.908Z" style="fill:#d5202c;"/><path d="M658.628,257.833c0,0 -5.714,-2.57 0.097,-8.418c5.812,-5.849 6.655,1.778 5.623,-4.951c-1.032,-6.73 2.419,-2.136 5.442,-3.13c3.023,-0.994 4.066,0.401 7.191,1.443c3.125,1.042 5.284,-1.541 8.859,-0.592c3.575,0.949 5.515,2.899 6.761,5.801c1.247,2.901 2.521,1.742 5.596,2.752c3.075,1.01 2.821,3.155 3.058,6.169c0.237,3.013 4.027,3.741 5.165,7.11c1.138,3.368 1.061,8.16 -0.86,8.715c-1.922,0.556 4.766,7.049 0.276,9.561c-4.49,2.512 -0.942,0.307 -4.022,3.27c-3.081,2.963 -3.89,6.089 -8.458,6.795c-4.569,0.706 -3.333,3.276 -5.342,2.11c-2.01,-1.166 -6.322,-2.824 -6.322,-2.824l-11.047,-6.957c0,0 -5.193,-9.343 -5.533,-10.813c-0.341,-1.47 -1.241,-4.333 -1.677,-5.299c-0.437,-0.967 -3.058,-6.169 -3.058,-6.169l-1.749,-4.573Z" style="fill:#43281c;"/><path d="M686.318,311.652c0,0 -0.199,-15.672 0.969,-17.255c1.168,-1.584 -9.845,-0.04 -2.986,-6.895c6.859,-6.856 12.316,-10.008 1.873,-11.549c-10.442,-1.542 -2.371,3.336 -6.097,2.331c-3.726,-1.004 6.526,-9.627 -1.257,-10.391c-7.784,-0.764 -6.902,1.358 -8.562,-1.578c-1.659,-2.936 0.04,-7.354 -6.689,-6.527c-6.73,0.826 -1.499,-6.239 -4.869,-2.681c-3.371,3.558 -12.45,16.537 -9.338,30.613c3.111,14.076 9.986,13.97 16.444,11.786c0,0 -3.26,15.653 -8.187,20.564c-4.927,4.911 16.255,-2.063 16.255,-2.063c4.374,-1.232 8.529,-3.323 12.444,-6.355Z" style="fill:#ffcba6;"/></g></g></svg>