<?xml version="1.0" encoding="UTF-8" standalone="no"?><!DOCTYPE svg PUBLIC "-//W3C//DTD SVG 1.1//EN" "http://www.w3.org/Graphics/SVG/1.1/DTD/svg11.dtd"><svg width="100%" height="100%" viewBox="0 0 1922 930" version="1.1" xmlns="http://www.w3.org/2000/svg" xmlns:xlink="http://www.w3.org/1999/xlink" xml:space="preserve" xmlns:serif="http://www.serif.com/" style="fill-rule:evenodd;clip-rule:evenodd;stroke-linecap:square;stroke-miterlimit:1.5;"><path d="M1196.56,638.38c0,0 91.278,-277.465 276.558,-318.571c103.99,-23.07 151.321,32.421 232.881,-51.416c71.154,-73.14 -5.765,-112.216 60.97,-192.326c40.295,-48.371 155.03,-27.783 155.03,-27.783l0,-47.97l-1920,0l-1,124.821c0,0 201.855,-176.235 322,-0.821c120.145,175.414 226.232,138.724 285,129c58.768,-9.724 162.852,-28.763 265,19c135.771,63.484 265.489,366.333 265.489,366.333l58.072,-0.267Z" style="fill:#d5f2e3;"/><path d="M1922,889.149l0,-144.617c0,0 -195.199,35.813 -223.522,46.739c-94.707,36.534 -193.449,-40.387 -320.175,-20.308c-77.124,12.22 -230.358,29.771 -340.516,33.189c-186.786,5.795 -288.649,1.16 -326.636,4.876c-45.223,4.424 -134.997,16.318 -82,41.419c30.5,14.447 129.847,58.725 350.307,56.594c63.823,-0.617 147.342,-15.766 214.636,-17.285c32.611,-0.736 171.7,20.441 202.364,19.55c170.874,-4.969 292.478,-44.252 358.542,-34.157c172.647,26.381 167,14 167,14Z" style="fill:#d5f2e3;"/><g><path d="M1179.09,828.593c234.736,-0.488 425.331,8.27 425.355,19.546c0.023,11.275 -190.534,20.826 -425.27,21.315c-234.736,0.488 -425.331,-8.27 -425.354,-19.545c-0.024,-11.276 190.533,-20.827 425.269,-21.316Z" style="fill:#bdcbc4;"/><g><path d="M1360.27,729.425l-18.816,5.573l32.522,95.084l10.798,-1.159l-24.504,-99.498Z" style="fill:#ffcba6;"/><path d="M1370.98,730.238l19.447,-0.813l-9.916,43.332l62.169,-14.437l3.269,6.736l-80.871,26.5l5.902,-61.318Z" style="fill:#ffcba6;"/><path d="M1368.46,823.693l19.692,-2.131l-0.63,21.283l-23.706,3.858c0,0 -11.259,-11.613 6.673,-13.969l-2.029,-9.041Z" style="fill:#fdc221;"/><path d="M1428.78,775.65l-5.555,-19.013l21.064,-3.115l7.959,22.66c0,0 -9.457,13.123 -14.923,-4.117l-8.545,3.585Z" style="fill:#43281c;"/><path d="M1370.56,590.573c0,0 -0.514,-9.005 3.755,-16.08c4.602,-7.628 -16.653,-12.256 -16.27,-20.025c0,0 -6.249,1.565 -8.135,7.509c-1.887,5.945 -5.658,10.808 9.386,21.903c0,0 -0.572,5.271 0.626,7.509c0.288,0.538 0.377,0.083 -0.606,0.033c-3.105,-0.161 -11.284,-1.91 -11.284,-1.91l-5.006,11.264l10.638,10.012c0,0 10.693,3.956 11.89,3.129c1.197,-0.827 18.148,-12.515 18.148,-12.515l1.877,-8.761l0,-4.381l-15.019,2.313Z" style="fill:#ffcba6;"/><path d="M1355.99,555.264c0,0 23.996,-22.844 40.676,10.638c16.067,32.254 8.564,2.711 10.638,2.503c0,0 40.795,-14.34 46.308,7.51c5.513,21.85 2.281,12.704 -6.884,17.522c-9.164,4.818 -0.097,13.457 5.007,16.896c5.103,3.439 6.169,12.599 -1.878,20.025c-8.046,7.425 -2.331,8.284 -9.386,11.264c-7.055,2.98 -12.487,-1.02 -16.896,-0.626c-4.41,0.394 -8.457,5.573 -10.013,8.135c-1.556,2.562 -8.516,2.735 -13.767,-2.871c-5.251,-5.606 -6.238,3.93 -11.264,4.749c-5.026,0.818 -14.888,3.559 -20.025,-4.749c-5.138,-8.307 1.877,-27.166 1.877,-27.166l5.632,-8.761l10.638,-17.522l-16.896,-1.252l0.626,-10.638l2.503,-6.884c0,0 -12.176,-10.179 -13.767,-12.515c-1.591,-2.336 -3.129,-6.258 -3.129,-6.258Z" style="fill:#fdc221;"/><path d="M1406.75,530.646l0.214,-7.995l-1.739,-2.317l-0.073,-1.621l3.667,0.132l1.335,-2.74c1.12,-1.412 3.287,0.058 5.952,2.901l-4.892,13.816l-4.464,-2.176Z" style="fill:#ffcba6;"/><path d="M1302.52,527.689l-2.188,-7.694l1.111,-2.674l-0.33,-1.59l-3.52,1.037l-1.973,-2.324c-1.435,-1.091 -3.17,0.87 -5.048,4.285l8.162,12.174l3.786,-3.214Z" style="fill:#ffcba6;"/><path d="M1314.15,751.145c0,0 8.426,-61.992 29.049,-89.609c0,0 18.569,-26.471 0.796,-48.245c0,0 -33.91,-22.736 -38.798,-36.921c-4.889,-14.184 -14.404,-31.897 -7.054,-46.593l4.377,-2.047l46.482,61.782c0,0 3.617,14.854 14.393,17.522c10.775,2.667 17.37,-9.886 13.767,-17.522c0,0 29.798,-26.758 30.037,-58.824l5.007,0c0,0 8.316,45.91 -18.774,71.339c0,0 -10.1,31.653 -9.452,52.024c0.157,4.915 2.754,11.422 4.175,14.075c7.315,13.652 15.671,39.721 26.78,83.88l-100.785,-0.861Z" style="fill:#d5202c;"/></g><g><path d="M1506.52,800.155c0,0 47.43,25.416 37.206,35.877c-10.225,10.461 -15.234,13.359 -53.152,9.301c-37.328,-3.995 -50.038,-13.504 -54.48,-3.986l3.986,-26.576l18.603,-11.959l47.837,-2.657Z" style="fill:#d5202c;"/><path d="M1491.07,827.799l-0.485,18.587l-19.722,-3.254l-0.617,-22.538c0,0 12.215,-9.018 12.158,7.959l8.666,-0.754Z" style="fill:#43281c;"/><path d="M1494.64,711.232c0,0 -9.968,5.835 -11.58,4.606c-1.296,-0.989 17.938,-27.91 -7.02,-32.258c-22.401,-3.902 -9.284,28.1 -5.66,30.853c3.623,2.753 -8.701,3.599 -12.623,6.038c-3.922,2.44 4.135,8.484 5.428,8.945c1.292,0.461 18.339,2.853 18.339,2.853l10.289,-9.338l2.827,-11.699Z" style="fill:#ffcba6;"/><path d="M1463.43,696.61c5.035,-4.005 11.25,-3.67 17.052,-9.413c7.455,-7.381 14.229,-20.471 16.937,-19.893c1.607,0.342 1.481,3.699 0.427,8.002c-1.733,7.082 -5.98,16.725 -9.151,19.704c-4.884,4.589 -3.597,-13.825 -12.362,-16.634c-4.059,-1.301 -26.609,-13.667 -29.261,-10.14c-4.892,6.504 12.262,31.633 16.358,28.374Z" style="fill:#43281c;"/><path d="M1525.99,647.103l-6.823,-37.262l3.606,-0.661l5.419,37.52" style="fill:#43281c;"/><path d="M1444.15,728.915c0,0 -8.821,-6.502 -17.673,-13.085c-8.851,-6.583 -17.733,-13.247 -17.853,-13.573c-1.275,-3.472 -5.907,-14.443 -13.483,-14.449c0,0 -2.274,1.937 -1.105,4.265c1.17,2.329 -2.447,0.79 -1.918,3.355c0.528,2.564 -0.863,2.729 0.621,4.362c1.483,1.632 0.57,1.082 3.257,3.644c1.567,1.494 6.614,2.008 7.387,4.689c0.592,2.055 9.277,9.926 17.9,17.353c8.799,7.579 21.843,11.772 21.843,11.772l1.024,-8.333Z" style="fill:#ffcba6;"/><path d="M1504.73,702.348c0,0 8.183,-25.3 15.73,-43.214c0.419,-0.994 0.29,-4.885 0.707,-5.809c2.835,-6.281 5.596,-10.79 7.87,-11.457c0,0 2.726,1.22 2.258,3.783c-0.467,2.563 2.571,0.07 2.785,2.679c0.213,2.61 1.595,2.378 0.629,4.361c-0.965,1.984 -0.243,1.199 -2.102,4.413c-0.38,0.657 -3.223,2.272 -4.419,5.59c-4.656,12.922 -11.816,41.311 -11.816,41.311l-11.642,-1.657Z" style="fill:#ffcba6;"/><path d="M1511.37,801.344l-59.458,0.949c0,0 -1.394,-48.272 -2.372,-60.44c-0.006,-0.085 -0.22,0.343 -0.65,0.209c-9.862,-3.078 -21.335,-5.105 -18.438,-9.138c3.283,-4.57 4.06,-10.837 4.812,-13.389c0.667,-2.265 5.351,-0.209 8.986,1.958c1.211,0.722 5.77,-0.961 5.878,-1.005c8.34,-3.372 16.338,-2.799 16.338,-2.799c0,0 7.932,10.826 18.416,-1.654c0.416,-0.496 6.804,-3.092 7.067,-3.643c5.078,-10.608 6.099,-12.11 13.094,-15.492l12.139,5.232c0,0 4.671,20.756 -7.345,30.137c0,0 11.557,59.315 1.533,69.075Z" style="fill:#fdc221;"/><path d="M1521.51,605.684l-1.016,-25.903l-3.606,0.661l4.622,25.242Z" style="fill:#fdc221;"/><path d="M1518.79,606.373l-18.553,-18.104l-2.164,2.959l20.717,15.145Z" style="fill:#d5202c;"/><path d="M1517.29,608.743l-25.92,-0.382l0.465,3.636l25.455,-3.254Z" style="fill:#d5202c;"/><path d="M1515.38,611.665l-19.079,17.549l2.839,2.32l16.24,-19.869Z" style="fill:#fdc221;"/><path d="M1518.04,614.375l-6.231,25.162l3.647,0.369l2.584,-25.531Z" style="fill:#d5202c;"/><path d="M1525.11,613.08l16.495,19.997l2.47,-2.709l-18.965,-17.288Z" style="fill:#d5202c;"/><path d="M1524.8,609.939l25.728,3.172l-0.07,-3.665l-25.658,0.493Z" style="fill:#fdc221;"/><path d="M1524.4,607.739l20.858,-15.392l-2.572,-2.612l-18.286,18.004Z" style="fill:#d5202c;"/><path d="M1369.73,847.094l-3.65,-66.712l98.531,-9.418l1.854,72.206l-96.735,3.924Z" style="fill:#0a4c2a;"/><path d="M1367.64,817.2l-0.888,-6.093l99.152,-20.525l0.911,7.194l-99.175,19.424Z" style="fill:#d5202c;"/><path d="M1411.02,776.542l2.765,-1.322l3.394,1.228l5.909,67.819l-7.252,0.016l-4.816,-67.741Z" style="fill:#d5202c;"/><path d="M1414.03,773.478c0,0 -14.169,-14.303 -18.378,-7.278c-4.066,6.785 15.216,7.559 17.901,7.784c0.095,0.008 -16.023,-1.328 -17.39,2.594c-1.366,3.919 18.129,-2.048 17.546,-2.686c-0.021,-0.022 -0.077,0.06 -0.162,0.135c-2.879,2.523 -15.869,14.642 -20.787,15.603l4.351,1.134l-2.449,4.366c0,0 16.41,-5.058 19.262,-19.416c0,0 17.812,9.046 22.8,7.508l-5.437,-4.277l7.977,-3.639c0,0 -22.791,1.852 -25.123,-1.427c0,0 12.714,-3.987 10.683,-8.532c-1.996,-4.47 -9.114,5.523 -10.611,8.392c-0.026,0.049 7.87,-10.976 2.923,-14.09c-4.947,-3.114 -6.051,6.041 -3.106,13.829Z" style="fill:#d5202c;"/></g><g><g><path d="M1072.73,739.189l23.006,7.29l-0.138,69.791l-11.457,4.337l-11.411,-81.418Z" style="fill:#ffcba6;"/><path d="M1102.85,812.53l-26.206,1.972l5.958,22.384l31.858,-0.687c0,0 11.886,-17.868 -12.076,-16.613l0.466,-7.056Z" style="fill:#d5202c;"/><path d="M1048.87,744.533l-20.156,4.292l4.051,71.599l12.368,-2.11l3.737,-73.781Z" style="fill:#ffcba6;"/><path d="M1027.9,688.28l-11.289,64.963l39.279,2.568l4.846,-50.175l3.987,47.263l39.94,-1.971l-11.15,-70.094l-65.613,7.446Z" style="fill:#43281c;"/><path d="M1023.69,571.335c0,0 21.244,0.47 23.3,-1.527c1.653,-1.605 -29.859,-36.154 4.434,-46.446c30.78,-9.238 17.747,37.873 13.125,42.345c-4.622,4.472 12.815,3.59 18.728,6.354c5.914,2.764 -4.378,12.6 -6.115,13.464c-1.736,0.864 -25.257,7.084 -25.257,7.084l-16.007,-11.376l-12.208,-9.898Z" style="fill:#ffcba6;"/><path d="M1071.31,539.529c-33.285,-20.539 -53.657,-9.471 -35.724,1.998c6.577,4.206 1.004,-22.327 14.554,-25.421c17.11,-3.907 30.879,29.413 21.17,23.423Z" style="fill:#43281c;"/><path d="M1133.8,651.95c0,0 19.589,23.383 17.318,27.607c0,0 -4.218,4.85 -6.047,1.654c-4.037,-7.053 -3.625,1.456 -5.46,1.186c-3.662,-0.539 -1.883,-3.894 -2.92,-6.834c-1.037,-2.94 -10.324,-17.505 -10.324,-17.505l7.433,-6.108Z" style="fill:#ffcba6;"/><path d="M991.703,667.176c0,0 -9.792,28.89 -6.146,32.005c0,0 5.689,2.993 6.236,-0.648c1.209,-8.036 3.907,0.044 5.519,-0.872c3.218,-1.828 0.345,-4.311 0.247,-7.427c-0.098,-3.117 3.284,-20.056 3.284,-20.056l-9.14,-3.002Z" style="fill:#ffcba6;"/><path d="M1027.87,691.418l71.073,-4.47c0,0 5.24,-21.831 2.483,-43.526c-1.994,-15.693 -5.886,-32.361 -6.168,-39.597c-0.433,-11.12 11.047,33.573 28.481,60.807c6.715,10.489 19.046,-8.545 19.046,-8.545c0,0 -29.379,-53.51 -41.054,-74.775c-2.959,-5.39 -8.288,-9.067 -14.377,-9.919c-6.732,-0.943 -14.506,-2.032 -14.506,-2.032c0,0 -8.817,10.977 -17.939,11.304c-8.76,0.315 -16.671,-9.995 -18.532,-9.624c-1.391,0.277 -19.412,-1.878 -28.871,6.557c-1.966,1.753 -21.847,91.839 -21.847,91.839c0.08,3.362 -2.313,10.135 0.332,10.557c7.399,1.179 19.6,7.113 20.221,-1.293c0.438,-5.926 10.421,-58.16 10.712,-66.688c0,0 -2.669,66.346 10.946,79.405Z" style="fill:#fdc221;"/><path d="M1025.78,817.773l26.184,-2.239l-1.471,22.981l-31.559,4.41c0,0 -14.587,-15.74 9.268,-18.329l-2.422,-6.823Z" style="fill:#d5202c;"/></g><path d="M1039.75,550.433l14.634,-3.138l13.609,0c1.241,2.254 1.304,5.686 0.025,10.46c0,0 -6.544,13.694 -12.577,12.552c-6.033,-1.141 -12.05,-6.816 -13.598,-10.46c-2.248,-3.138 -2.979,-6.276 -2.093,-9.414Z" style="fill:#d5f2e3;"/></g><g><g><path d="M1275.06,756.281l-20.748,7.032l1.788,60.735l10.522,3.432l8.438,-71.199Z" style="fill:#ffcba6;"/><path d="M1249.41,821.011l23.878,0.932l-4.885,19.66l-28.987,0.354c0,0 -11.235,-15.196 10.586,-14.82l-0.592,-6.126Z" style="fill:#fdc221;"/><path d="M1296.89,760.219l18.431,3.132l-1.978,62.434l-11.297,-1.467l-5.156,-64.099Z" style="fill:#ffcba6;"/><path d="M1314.02,704.206l15.155,92.351l-35.653,3.481l-8.17,-71.311l-0.108,67.135l-36.594,-2.971l4.938,-99.545l60.432,10.86Z" style="fill:#43281c;"/><path d="M1315.66,608.731c0,0 -19.308,1.043 -21.225,-0.633c-1.542,-1.347 26.389,-29.159 -5.043,-37.092c-28.211,-7.119 -15.333,30.294 -11.023,34.048c4.31,3.754 -11.569,3.507 -16.88,6.09c-5.312,2.582 4.282,10.834 5.881,11.535c1.6,0.7 23.138,5.41 23.138,5.41l14.286,-10.38l10.866,-8.978Z" style="fill:#ffcba6;"/><path d="M1269.1,575.954c-0.681,3.328 5.188,-2.24 13.206,-1.894c9.182,0.397 20.786,6.448 21.849,6.629c0.633,0.107 0.722,-1.419 1.866,-2.129c1.296,-0.804 3.634,-0.853 3.946,-1.656c0.525,-1.356 -0.938,-1.726 -3.485,-2.255c-1.128,-0.235 2.871,-2.431 2.28,-3.521c-0.479,-0.885 -4.163,0.426 -4.761,-0.495c-0.785,-1.206 0.342,-3.491 -0.818,-4.506c-0.652,-0.57 -1.235,3.125 -2.007,2.562c-0.338,-0.246 -4.051,-1.431 -4.658,-2.771c-0.646,-1.427 1.802,-3.017 1.048,-3.402c-2.009,-1.024 -4.157,2.042 -5.458,0.809c-0.959,-0.909 1.203,-2.788 0.159,-3.076c-0.477,-0.132 -2.7,-0.556 -4.353,1.24c-0.979,1.064 -1.695,4.984 -1.899,4.553c-1.494,-3.156 -2.548,-1.896 -3.439,-2.969c-3.018,-3.637 -3.156,-0.563 -3.472,1.883c-0.317,2.454 -1.869,-2.246 -3.924,-1.706c-1.396,0.366 -0.567,4.859 -2.046,4.944c-3.982,0.23 -0.242,1.052 -2.093,1.382c-2.716,0.484 -9.604,0.904 0.146,4.82c0.805,0.323 -1.902,0.654 -2.087,1.558Z" style="fill:#43281c;"/><path d="M1231.49,649.337c0,0 -0.523,44.994 -2.04,49.441c-2.619,7.672 -7.275,14.436 -5.257,16.176c0,0 5.036,2.65 5.654,-0.541c1.365,-7.041 3.527,0.056 5.014,-0.74c2.969,-1.589 0.459,-3.779 0.476,-6.512c0.017,-2.733 6.741,-52.746 6.741,-52.746l-10.588,-5.078Z" style="fill:#ffcba6;"/><path d="M1339.44,651.932c0,0 7.737,28.078 10.726,46.305c1.553,9.472 4.215,17.718 3.153,18.642c0,0 -5.102,2.775 -5.687,-0.378c-1.291,-6.957 -3.551,0.156 -5.04,-0.593c-2.97,-1.495 -0.416,-3.742 -0.401,-6.457c0.005,-0.99 1.582,-6.83 0.996,-9.704c-1.021,-5.006 -11.898,-41.964 -11.898,-41.964l8.151,-5.851Z" style="fill:#ffcba6;"/><path d="M1314.71,713.364l-64.739,-1.765c0,0 -5.286,-18.843 -3.296,-37.807c1.012,-9.638 4.973,-32.432 2.713,-32.948c-0.957,-0.218 -0.992,6.614 -3.317,15.885c-2.68,10.684 -18.461,-2.57 -18.461,-2.57c4.054,-24.909 9.415,-29.876 17.024,-37.484c2.885,-2.945 6.63,-4.898 10.695,-5.579c6.469,-1.089 15.571,-2.614 15.571,-2.614c0,0 8.28,9.29 16.583,9.302c7.973,0.012 14.922,-9.197 16.624,-8.93c1.271,0.2 17.608,-2.215 26.411,4.843c1.83,1.467 13.241,34.725 13.241,34.725c0.008,2.928 2.345,8.751 -0.051,9.197c-6.7,1.248 -17.654,6.777 -18.419,-0.521c-0.54,-5.144 -2.048,-5.755 -2.516,-13.168c0,0 4.007,57.662 -8.063,69.434Z" style="fill:#d5f2e3;"/><path d="M1319.63,823.269l-23.865,-1.166l1.885,19.957l28.805,2.895c0,0 12.891,-14.135 -8.865,-15.675l2.04,-6.011Z" style="fill:#fdc221;"/></g><path d="M1303.92,591.578l-13.854,-3.199l-11.743,2.133c-1.266,2.298 -0.263,4.644 1.041,9.512c0,0 4.517,10.725 10.691,9.686c2.98,-0.501 7.87,-3.57 10.748,-7.846c2.525,-3.751 3.256,-8.677 3.117,-10.286Z" style="fill:#d5f2e3;"/><path d="M1464.18,701.006l12.162,-2.88l10.309,1.92c1.111,2.069 0.23,4.182 -0.915,8.565c0,0 -3.964,9.655 -9.384,8.72c-2.616,-0.451 -6.909,-3.215 -9.436,-7.064c-2.216,-3.378 -2.858,-7.812 -2.736,-9.261Z" style="fill:#d5f2e3;"/><path d="M1373.25,575.492l-6.389,-6.4l-17.076,-1.066c-5.148,3.993 7.092,20.027 14.932,17.633c5.988,-1.829 9.437,-6.968 8.533,-10.167Z" style="fill:#d5f2e3;"/></g><g><path d="M1177.63,729.239l23.458,8.378l-0.141,80.198l-11.682,4.984l-11.635,-93.56Z" style="fill:#ffcba6;"/><path d="M1208.35,813.518l-26.721,2.266l6.075,25.722l32.484,-0.79c0,0 12.12,-20.532 -12.314,-19.091l0.476,-8.107Z" style="fill:#43281c;"/><path d="M1153.3,735.38l-20.551,4.932l4.13,82.277l12.61,-2.425l3.811,-84.784Z" style="fill:#ffcba6;"/><path d="M1131.92,670.737l-11.51,74.652l40.05,2.951l4.941,-57.658l4.066,54.311l40.724,-2.264l-11.369,-80.548l-66.902,8.556Z" style="fill:#bdcbc4;"/><path d="M1127.63,536.353c0,0 21.662,0.539 23.758,-1.755c1.686,-1.844 -30.446,-41.546 4.522,-53.374c31.384,-10.615 18.095,43.522 13.382,48.661c-4.713,5.139 13.067,4.125 19.097,7.302c6.029,3.176 -4.465,14.478 -6.236,15.471c-1.77,0.993 -25.753,8.141 -25.753,8.141l-16.321,-13.073l-12.449,-11.373Z" style="fill:#ffcba6;"/><path d="M1163.38,488.07c-3.822,-1.547 -4.306,1.493 -6.922,0.509c-18.123,-6.812 -25.922,-13.699 -15.89,-23.158c12.884,-12.15 34.026,27.189 22.812,22.649Z" style="fill:#fdc221;"/><path d="M1131.89,674.343l72.468,-5.136c0,0 3.211,-25.087 0.4,-50.017c-2.034,-18.034 -3.869,-45.72 -4.157,-54.035c-0.194,-5.609 0.321,-5.089 5.398,-2.937c6.488,2.75 12.678,18.05 26.242,32.616c3.902,4.19 -0.77,16.507 -3.322,26.281c-2.681,10.27 15.984,15.025 17.658,12.496c0.751,-1.134 3.499,-28.111 4.359,-36.718c0.225,-2.258 -0.179,-4.535 -1.166,-6.579c-6.178,-12.71 -29.502,-39.215 -42.557,-49.199c-2.574,-1.969 -5.598,-3.265 -8.799,-3.77c-6.98,-1.102 -20.662,-3.262 -20.662,-3.262c0,0 -8.991,12.615 -18.292,12.991c-8.932,0.361 -16.998,-11.486 -18.896,-11.06c-1.418,0.319 -19.794,-2.158 -29.438,7.535c-0.908,0.912 -26.889,25.82 -31.708,49.312c-5.827,28.408 -3.532,38.175 -0.896,37.424c6.478,-1.845 5.176,-2.316 12.209,-4.51c4.239,-1.323 1.378,-8.88 4.506,-29.875c1.68,-11.273 25.388,-28.578 25.492,-32.002c0,0 -2.721,95.439 11.161,110.445Z" style="fill:#0a4c2a;"/><path d="M1164.35,625.616c0,0 0.854,-32.959 27.437,-37.331c26.583,-4.372 90.286,64.057 -20.265,147.188c-11.419,1.489 -142.912,-115.233 -51.195,-143.988c40.374,-12.658 44.023,34.131 44.023,34.131Z" style="fill:#d5202c;"/><path d="M1239.47,632.353c0,0 -7.226,17.285 -12.601,17.459c0,0 -6.926,-1.261 -4.521,-4.604c5.308,-7.379 -3.184,-2.515 -3.768,-4.319c-1.165,-3.601 3.092,-3.761 5.608,-6.252c2.516,-2.491 9.029,-5.747 9.029,-5.747l6.253,3.463Z" style="fill:#ffcba6;"/><path d="M1120.73,563.898c0,0 80.16,9.572 79.872,1.257c-0.194,-5.609 18.076,15.113 31.64,29.679c3.902,4.19 -0.77,15.44 -3.322,25.215c-2.681,10.27 15.984,16.091 17.658,13.562c0.751,-1.134 3.499,-28.111 4.359,-36.718c0.225,-2.258 -0.179,-4.535 -1.166,-6.579c-6.178,-12.71 -29.502,-39.215 -42.557,-49.199c-2.574,-1.969 -5.598,-3.265 -8.799,-3.77c-6.98,-1.102 -20.662,-3.262 -20.662,-3.262c0,0 -8.991,12.615 -18.292,12.991c-8.932,0.361 -16.998,-11.486 -18.896,-11.06c-1.418,0.319 -19.794,-2.158 -29.438,7.535c-0.908,0.912 -26.889,25.82 -31.708,49.312c-5.827,28.408 -3.532,38.175 -0.896,37.424c6.478,-1.845 5.176,-2.316 12.209,-4.51c4.239,-1.323 1.378,-8.88 4.506,-29.875c1.68,-11.273 25.388,-28.578 25.492,-32.002Z" style="fill:#0a4c2a;"/><path d="M1082.92,628.723c0,0 -0.044,17.904 4.825,19.614c0,0 6.705,0.717 5.474,-3.321c-2.718,-8.911 3.644,-1.609 4.701,-3.25c2.111,-3.275 -1.739,-4.652 -3.319,-7.867c-1.58,-3.215 -6.72,-8.124 -6.72,-8.124l-4.961,2.948Z" style="fill:#ffcba6;"/><path d="M1129.76,819.542l26.698,-2.573l-1.5,26.409l-32.178,5.067c0,0 -14.875,-18.087 9.449,-21.062l-2.469,-7.841Z" style="fill:#43281c;"/></g><path d="M1143.16,509.331l14.922,-3.606l13.876,0c1.265,2.59 1.329,6.535 0.025,12.021c0,0 -6.672,15.736 -12.824,14.424c-6.152,-1.312 -12.286,-7.833 -13.866,-12.02c-2.291,-3.607 -3.036,-7.213 -2.133,-10.819Z" style="fill:#d5f2e3;"/><g><g><path d="M1005.05,464.487c0,0 5.466,9.704 3.299,20.289c-1.98,9.67 -9.514,20.349 -11.206,33.664c-3.237,25.477 8.993,32.947 18.571,45.2c28.618,36.614 -5.276,99.055 -17.279,102.749" style="fill:none;stroke:#43281c;stroke-width:1px;"/><path d="M999.795,459.228c0,0 -78.418,-27.804 -34.673,-69.409c43.744,-41.606 78.155,22.951 34.673,69.409Z" style="fill:#d5202c;"/><path d="M1000.32,457.651l7.358,4.208c0,0 -4.605,6.873 -6.836,4.729c-2.23,-2.144 -2.626,-7.887 -2.626,-7.887l2.104,-1.05Z" style="fill:#d5202c;"/></g><g><path d="M1000.04,648.289l14.474,1.622c0,0 4.178,1.551 2.864,2.933c-1.313,1.382 1.709,5.283 -0.087,7.246c-1.795,1.963 -5.796,-0.069 -5.796,-0.069c-1.983,1.8 -2.677,-3.339 -11.524,-5.936c-13.665,-4.012 0.069,-5.796 0.069,-5.796Z" style="fill:#ffcba6;"/><path d="M992.457,642.221l13.513,6.138c0,0 2.924,3.231 1.216,4.08c-1.707,0.849 -2.815,-1.998 -16.779,-4.795c-13.965,-2.798 2.05,-5.423 2.05,-5.423Z" style="fill:#ffcba6;"/><path d="M976.389,673.838c0,0 43.332,27.836 -0.764,159.186l-11.064,-1.492l1.771,-78.105c0,0 -10.932,-17.37 -15.706,-30.798c-4.172,-11.733 -32.657,-49.323 -32.657,-49.323l58.42,0.532Z" style="fill:#0a4c2a;"/><path d="M938.729,675.337c2.586,-5.817 61.575,9.946 0.197,157.678l-11.064,-1.491l0.772,-76.359c0,0 -10.951,-12.342 -15.918,-23.802c-8.798,-20.302 1.592,-62.624 7.292,-57.031l18.721,1.005Z" style="fill:#0a4c2a;"/><path d="M968.044,536.304c0,0 8.499,-6.6 2.985,-7.211c-5.514,-0.61 11.833,-2.791 4.417,-5.744c-7.417,-2.954 1.407,-6.641 -2.474,-5.827c-3.882,0.813 -2.426,-8.204 -7.549,-4.439c-5.124,3.765 -8.959,-2.206 -9.967,-0.119c-1.008,2.087 -7.767,-1.366 -8.89,1.343c-1.123,2.709 -3.626,-0.596 -4.382,2.846c-0.756,3.442 -6.681,-1.36 -7.28,2.812c-0.6,4.172 -6.98,-4.646 -7.263,1.362c-0.284,6.009 -7.598,1.175 -5.866,5.728c1.731,4.553 -3.694,3.762 -1.521,5.964c2.173,2.203 -4.128,2.435 -0.067,5.612c4.061,3.176 0.417,6.016 2.811,7.28c2.394,1.264 -3.393,3.793 2.847,4.382c6.239,0.589 -0.873,0.264 5.762,2.968c6.634,2.704 7.228,1.536 7.228,1.536l11.749,-12.904l17.46,-5.589Z" style="fill:#d5202c;"/><path d="M968.044,536.304c0,0 15.584,21.877 -10.979,28.856c0,0 -3.887,-2.419 -0.156,13.043c3.732,15.461 -19.835,2.661 -19.835,2.661l2.933,-2.863c0,0 1.7,-16.971 -1.172,-23.204c-1.068,-2.319 -4.224,-6.279 -1.262,-7.992c0.742,-0.429 0.752,-0.595 4.247,0.781c1.296,0.51 2.5,-5.15 3.512,-5.295c1.445,-0.208 1.281,2.028 2.572,1.159c0.997,-0.671 1.32,-2.612 1.405,-3.897c0.193,-2.884 4.166,0.451 4.418,-2.402c0.107,-1.215 3.492,-4.695 6.619,-3.888c2.804,0.723 3.889,0.513 7.698,3.041" style="fill:#ffcba6;"/><path d="M958.846,578.226c0,0 -14.272,7.682 -18.839,-0.225c-4.567,-7.908 -25.189,15.838 -26.966,28.664c-1.776,12.827 4.163,20.509 7.399,31.975l-3.332,36.194l60.864,0.728l-1.223,-18.856c8.346,3.407 15.994,1.877 23.221,-2.621l0.069,-5.796l-27.412,-10.474c0,0 -2.339,-45.422 -13.781,-59.589Z" style="fill:#bdcbc4;"/><path d="M970.965,622.134l-2.44,19.181l22.759,5.304l2.006,-5.439l-8.453,-8.233l-13.872,-10.813Z" style="fill:#bdcbc4;"/><path d="M980.343,830.153c0,0 21.582,6.254 23.065,10.421c1.483,4.168 -0.034,2.899 -0.034,2.899l-40.577,-0.486l0.156,-13.042l17.39,0.208Z" style="fill:#43281c;"/><path d="M941.632,829.74c0,0 20.235,9.771 21,14.128c0.766,4.357 -0.518,2.852 -0.518,2.852l-39.925,-7.257l2.332,-12.833l17.111,3.11Z" style="fill:#43281c;"/></g></g><g><path d="M775.745,681.59c9.047,-3.507 19.24,0.992 22.746,10.039c3.507,9.048 -0.991,19.24 -10.039,22.747c-9.047,3.507 -19.24,-0.992 -22.746,-10.039c-3.507,-9.048 0.991,-19.24 10.039,-22.747Z" style="fill:#43281c;"/><path d="M760.762,685.544c4.008,-1.553 8.522,0.439 10.075,4.447c1.554,4.007 -0.439,8.521 -4.446,10.075c-4.007,1.553 -8.522,-0.439 -10.075,-4.447c-1.553,-4.007 0.439,-8.521 4.446,-10.075Z" style="fill:#43281c;"/><path d="M782.347,672.508c4.007,-1.553 8.522,0.439 10.075,4.446c1.553,4.008 -0.439,8.522 -4.447,10.075c-4.007,1.554 -8.521,-0.439 -10.075,-4.446c-1.553,-4.007 0.44,-8.522 4.447,-10.075Z" style="fill:#43281c;"/><path d="M796.454,703.312c13.573,-1.973 26.195,7.445 28.168,21.019c1.973,13.573 -7.445,26.195 -21.019,28.168c-13.573,1.973 -26.195,-7.445 -28.168,-21.019c-1.973,-13.573 7.445,-26.195 21.019,-28.168Z" style="fill:#43281c;"/><path d="M808.076,708.358c0,0 -1.231,-19.043 4.201,-22.335c5.432,-3.293 13.362,12.142 2.9,24.921" style="fill:#43281c;"/><path d="M780.834,729.733c0,0 -19.27,0.258 -23.032,5.376c-3.762,5.117 11.317,11.211 24.976,1.926" style="fill:#43281c;"/><path d="M792.367,746.721c0,0 14.237,23.148 7.578,29.069c-6.658,5.92 -10.342,1.805 -8.42,11.948c1.922,10.142 17.425,5.872 20.365,-3.533c2.941,-9.406 -5.184,-40.332 -5.184,-40.332" style="fill:#43281c;"/><path d="M817.941,737.134c0,0 8.099,28.559 16.825,26.757c8.726,-1.802 7.627,-7.215 14.612,0.387c6.984,7.601 -1.849,9.794 -13.045,10.908c-9.806,0.975 -29.243,-28.256 -29.243,-28.256" style="fill:#43281c;"/></g><g><path d="M872.098,588.98l0,-11.557l-2.031,-13.483l-12.38,-1.926l2.031,-1.926l-9.956,-3.852l-6.092,-1.927l-4.061,3.853c0,0 -1.255,5.525 0,5.778c1.256,0.253 4.061,5.779 4.061,5.779c0,0 -0.705,3.155 0.758,7.137c1.202,3.272 3.867,7.101 9.588,10.198c12.687,6.867 18.082,1.926 18.082,1.926Z" style="fill:#ffcba6;"/><path d="M874.128,548.531l-14.213,-32.744l-12.184,32.744c-0.551,0.428 14.004,10.841 26.397,0Z" style="fill:#fdc221;"/><path d="M832.149,656.542l-10.986,25.413c0,0 0.192,9.375 -3.767,10.117c0,0 -2.712,3.223 0.545,-2.661c0,0 -0.71,-3.201 -8.7,2.875c-6.821,5.186 0.915,-3.648 3.847,-8.89c0.503,-0.9 0.864,-1.694 0.987,-2.293c0.121,-0.593 0.387,-1.635 0.753,-2.982c2.158,-7.942 5.89,-22.095 5.89,-22.095l6.759,-5.927l4.672,6.443Z" style="fill:#ffcba6;"/><path d="M910.461,654.498l22.172,-22.526c0,0 9.351,-4.607 8.314,-8.447c0,0 1.292,-2.271 -2.771,2.816c0,0 -2.471,1.259 -0.296,-8.167c1.858,-8.045 -3.001,2.159 -6.608,6.719c-0.619,0.782 -1.201,1.399 -1.706,1.728c-0.5,0.326 -1.355,0.947 -2.452,1.77c-6.46,4.849 -21.303,16.719 -21.303,16.719l-2.574,8.26l7.224,1.128Z" style="fill:#ffcba6;"/><path d="M890.338,662.173l1.382,-5.198c1.114,7.239 12.716,1.149 19.116,-2.477l-2.345,-11.586l-12.027,-1.926c0,0 1.189,-46.02 -6.126,-44.301c0,0 -8.99,0.069 -14.179,-1.927l-3.319,-6.532c0,0 -15.434,1.503 -19.017,-1.172l-2.03,7.704c0,0 -9.146,-0.121 -14.214,1.927c-16.52,6.672 -21.847,60.742 -18.251,63.292l10.088,4.091c11.047,-9.75 7.318,-21.898 11.055,-35.913l5.23,7.052c0,0 1.917,19.731 6.092,25.04l38.545,1.926Z" style="fill:#d5202c;"/><path d="M901.695,695.352l-4.061,30.818l-27.22,5.779l-1.172,-17.923c0,0 0.332,15.188 -1.076,15.065c-7.252,-0.638 -29.551,-4.288 -29.418,-10.625c0.159,-7.568 -2.031,-25.04 -2.031,-25.04l62.947,-1.926l2.031,3.852Z" style="fill:#ffcba6;"/><path d="M897.634,726.17c0,0 -0.817,33.4 -4.062,40.449c-3.244,7.049 -11.174,60.622 -14.213,63.563c-3.039,2.941 -8.945,0 -8.945,0l4.884,-59.761l-4.884,-38.472l27.22,-5.779Z" style="fill:#ffcba6;"/><path d="M869.206,726.924c0,0 -1.162,24.885 -8.122,28.138c-6.96,3.254 -73.099,38.523 -73.099,38.523l0,-7.705l52.25,-40.783l-1.487,-26.631c0,0 23.092,8.583 30.458,8.458Z" style="fill:#ffcba6;"/><path d="M890.338,654.498c0,0 20.182,56.577 11.151,77.117l-73.099,-1.926c0,0 15.542,-69.687 21.269,-76.568c3.92,-4.709 40.679,1.377 40.679,1.377Z" style="fill:#d5202c;"/><path d="M846.903,575.466l0,5.264c0,0 -0.043,3.274 8.533,7.466c8.575,4.192 17.065,-8.556 17.065,-8.556l-2.133,-4.174l-12.472,-2.133l-10.993,2.133Z" style="fill:#d5f2e3;"/><path d="M870.067,577.962c0,0.335 0.154,0.652 0.417,0.86c0.263,0.208 0.607,0.285 0.933,0.207c3.898,-0.924 14.895,-3.532 14.895,-3.532c0,0 1.126,-22.244 -12.184,-26.966c-13.198,-4.683 -22.632,-9.963 -38.186,12.9c-0.256,0.375 -0.462,0.783 -0.613,1.212c-1.094,3.108 -5.872,16.706 -5.872,16.706l17.416,2.649c0,0 -0.471,-11.133 -0.816,-19.28c-0.063,-1.49 0.753,-2.877 2.085,-3.546c1.332,-0.668 2.932,-0.494 4.089,0.447c1.749,1.422 3.545,2.882 4.961,4.033c1.726,1.404 3.984,1.975 6.17,1.56c1.269,-0.241 2.69,-0.51 3.896,-0.739c0.693,-0.131 1.409,0.053 1.952,0.503c0.543,0.45 0.857,1.118 0.857,1.823l0,11.163Z" style="fill:#43281c;"/><path d="M790.015,785.127l-10.153,-7.705l-18.274,25.04c0,0 -2.612,4.304 8.122,0c10.733,-4.303 10.491,-6.847 17.066,-7.704c6.575,-0.858 3.239,-9.631 3.239,-9.631Z" style="fill:#fdc221;"/><path d="M871.166,824.406l-5.589,11.136l16.339,10.714c0,0 12.214,0.824 15.707,0.703c2.086,-0.073 -1.713,-4.75 -4.028,-7.759c-2.354,-3.061 -4.201,-3.052 -5.709,-4.486c-2.89,-2.751 -4.53,-5.654 -6.096,-9.516c-2.382,-5.876 -10.624,-0.792 -10.624,-0.792Z" style="fill:#fdc221;"/></g><path d="M939.237,554.065l22.398,-11.821l9.599,0c0,0 9.762,20.427 -13.865,23.554l-18.132,-11.733Z" style="fill:#d5f2e3;"/><g><path d="M1063.63,404.586l4.93,-14.484c0,0 2.634,-6.75 10.304,-3.563c7.669,3.186 40.735,13.864 40.735,13.864c0,0 11.817,3.067 7.782,12.75c-4.035,9.683 -7.702,22.631 -7.702,22.631c0,0 -3.328,8.296 -10.92,5.374c-7.592,-2.923 -14.484,-4.93 -14.484,-4.93l-11.228,6.28l-3.256,-11.209l-16.294,-5.546c0,0 -5.436,-4.064 -3.872,-9.399c1.564,-5.334 4.005,-11.768 4.005,-11.768Z" style="fill:#f77178;"/><path d="M1063.63,404.586l4.93,-14.484c0,0 2.634,-6.75 10.304,-3.563c7.669,3.186 40.735,13.864 40.735,13.864c0,0 11.817,3.067 7.782,12.75c-4.035,9.683 -7.702,22.631 -7.702,22.631c0,0 -3.328,8.296 -10.92,5.374c-7.592,-2.923 -14.484,-4.93 -14.484,-4.93l-11.228,6.28l-3.256,-11.209l-16.294,-5.546c0,0 -5.436,-4.064 -3.872,-9.399c1.564,-5.334 4.005,-11.768 4.005,-11.768Z" style="fill:#d5202c;"/><path d="M1063.63,404.586l4.93,-14.484c0,0 2.634,-6.75 10.304,-3.563c7.669,3.186 40.735,13.864 40.735,13.864c0,0 11.817,3.067 7.782,12.75c-4.035,9.683 -7.702,22.631 -7.702,22.631c0,0 -3.328,8.296 -10.92,5.374c-7.592,-2.923 -14.484,-4.93 -14.484,-4.93l-11.228,6.28l-3.256,-11.209l-16.294,-5.546c0,0 -5.436,-4.064 -3.872,-9.399c1.564,-5.334 4.005,-11.768 4.005,-11.768Z" style="fill:none;stroke:#9e003d;stroke-width:3px;stroke-linecap:round;stroke-linejoin:round;"/><path d="M1063.63,404.586l4.93,-14.484c0,0 2.634,-6.75 10.304,-3.563c7.669,3.186 40.735,13.864 40.735,13.864c0,0 11.817,3.067 7.782,12.75c-4.035,9.683 -7.702,22.631 -7.702,22.631c0,0 -3.328,8.296 -10.92,5.374c-7.592,-2.923 -14.484,-4.93 -14.484,-4.93l-11.228,6.28l-3.256,-11.209l-16.294,-5.546c0,0 -5.436,-4.064 -3.872,-9.399c1.564,-5.334 4.005,-11.768 4.005,-11.768Z" style="fill:none;stroke:#9e003d;stroke-width:3px;stroke-linecap:round;stroke-linejoin:round;"/><path d="M1086.7,424.706l5.166,1.766l3.035,-8.877l9.117,3.117l1.87,-5.47l-9.116,-3.117l2.909,-8.509l-5.166,-1.766l-2.91,8.509l-8.812,-3.013l-1.871,5.47l8.387,2.676l-2.609,9.214Z" style="fill:#fff;"/></g><g><path d="M1316.79,502.859l-7.568,-13.297c0,0 -3.304,-6.449 4.169,-10.074c7.472,-3.625 37.397,-21.285 37.397,-21.285c0,0 10.134,-6.808 14.703,2.635c4.569,9.443 11.825,20.776 11.825,20.776c0,0 4,7.995 -3.223,11.737c-7.223,3.742 -13.297,7.568 -13.297,7.568l-2.749,12.567l-10.548,-4.999l-14.959,8.513c0,0 -6.647,1.372 -9.601,-3.337c-2.954,-4.709 -6.149,-10.804 -6.149,-10.804Z" style="fill:#d5202c;"/><path d="M1316.79,502.859l-7.568,-13.297c0,0 -3.304,-6.449 4.169,-10.074c7.472,-3.625 37.397,-21.285 37.397,-21.285c0,0 10.134,-6.808 14.703,2.635c4.569,9.443 11.825,20.776 11.825,20.776c0,0 4,7.995 -3.223,11.737c-7.223,3.742 -13.297,7.568 -13.297,7.568l-2.749,12.567l-10.548,-4.999l-14.959,8.513c0,0 -6.647,1.372 -9.601,-3.337c-2.954,-4.709 -6.149,-10.804 -6.149,-10.804Z" style="fill:none;stroke:#9e003d;stroke-width:3px;stroke-linecap:round;stroke-linejoin:round;"/><path d="M1341.48,482.171c0,0 -16.488,-3.142 -10.749,7.956c5.739,11.098 20.507,7.275 21.315,6.716c4.776,-3.308 5.157,-16.075 1.178,-20.687c-2.811,-3.257 -9.984,-4.818 -11.744,6.015Z" style="fill:#fff;"/></g></g><g><path d="M980.581,0l-9.09,0.179l6.401,92.674l0.867,-0.182l1.822,-92.671Z" style="fill:#fdc221;"/><path d="M883.014,38.686l94.575,54.129l0.532,-0.455l-92.568,-63.185l-2.539,9.511Z" style="fill:#fdc221;"/><path d="M818.608,55.339l159.281,37.711l0.247,-0.629l-151.222,-45.969l-6.784,5.838l-1.522,3.049Z" style="fill:#fdc221;"/><path d="M978.332,91.436l-0.406,1.45l0.31,-0.08l-7.706,18.636l-10.363,4.386l16.674,-22.507l0.943,-0.678l-43.146,39.162l-37.555,23.687c22.663,-16.575 58.562,-47.736 77.2,-61.191c3.072,-2.218 3.669,-2.496 3.74,-2.317c0.063,0.158 -0.239,0.659 -0.239,0.659l39.841,0.082l6.619,-4.713l-39.198,4.185l76.75,-18.244l10.209,-5.275l-93.673,22.758Z" style="fill:#fdc221;"/><path d="M1006.52,0.314l-6.792,0l-21.294,91.451l0.759,-0.392l27.327,-91.059Z" style="fill:#fdc221;"/><path d="M965.208,112.389l107.227,-44.341l41.926,84.114l-106.115,44.053l-42.48,-82.74l-0.558,-1.086Z" style="fill:#d5202c;"/><path d="M965.208,112.389l43.038,83.826l-71.013,42.098l-40.525,-83.288l68.5,-42.636" style="fill:#d5202c;"/><path d="M966.033,110.988l5.949,-2.295l39.601,86.659l-7.169,3.135l-44.315,-82.919" style="fill:#fdc221;"/><path d="M1007.13,196.502l-69.9,41.811l83.902,-33.562l93.226,-52.589" style="fill:#fdc221;"/><path d="M902.667,0.314c-8.607,8.998 -15.633,20.823 -19.44,38.316c0,0 -44.039,-2.646 -63.448,16.405l-0.231,-23.652l15.935,-31.069" style="fill:#fdc221;"/><path d="M818.703,55.314c0,0 -10.508,-23.947 -10.889,-55c0,-0.02 76.846,0 76.846,0c0,0 -15.479,11.843 -12.392,27.361c0,0 -34.092,-4.835 -53.565,27.639Z" style="fill:#fff;"/></g><g><path d="M1280.13,217.847l-14.797,61.407l-0.446,-0.176l9.284,-62.336l5.959,1.105Z" style="fill:#d5202c;"/><path d="M1320.85,258.91l-55.35,20.351l-0.243,-0.291l55.096,-25.365l0.497,5.305Z" style="fill:#d5202c;"/><path d="M1353.72,273.607l-88.397,5.752l-0.075,-0.358l84.842,-10.885l3.093,3.727l0.537,1.764Z" style="fill:#d5202c;"/><path d="M1265.23,278.458l0.085,0.81l-0.158,-0.07l2.431,10.64l5.134,3.275l-6.867,-13.515l-0.442,-0.446l19.49,24.79l17.903,16.028c-10.598,-10.89 -26.943,-30.756 -35.674,-39.618c-1.439,-1.461 -1.733,-1.663 -1.787,-1.574c-0.048,0.079 0.068,0.374 0.068,0.374l-21.267,-3.551l-3.107,-3.113l20.539,5.77l-39.308,-16.659l-4.972,-3.736l47.932,20.595Z" style="fill:#d5202c;"/><path d="M1259.83,191.906l5.32,86.719l-0.37,-0.278l-11.079,-88.852l6.129,2.411Z" style="fill:#d5202c;"/><path d="M1270.34,290.823l-53.217,-33.336l-29.961,41.102l52.65,33.081l30.133,-40.318l0.395,-0.529Z" style="fill:#fdc221;"/><path d="M1270.34,290.823l-30.528,40.847l34.095,28.872l29.139,-40.788l-32.706,-28.931" style="fill:#fdc221;"/><path d="M1270.03,290.001l-2.968,-1.761l-28.95,42.669l3.543,2.319l31.127,-40.248" style="fill:#d5202c;"/><path d="M1240.38,331.924l33.528,28.618l-41.743,-25.479l-45.002,-36.474" style="fill:#d5202c;"/><path d="M1252.89,189.689c20.742,5.971 21.024,29.158 21.024,29.158c0,0 44.809,-3.054 46.824,40.014c0,0 23.739,2.561 32.377,14.478l2.257,-12.6l-6.771,-21.421l-17.836,-19.526l-27.285,-19.727l-26.683,-11.932l-23.786,1.286" style="fill:#d5202c;"/><path d="M1353.67,273.585c0,0 31.537,-47.942 -7.911,-85.968c-39.448,-38.025 -85.562,-6.473 -92.865,2.072c0,0 22.77,0.324 30.061,25.706c0,0 44.851,-3.057 41.605,36.998c0,0 21.649,2.107 29.11,21.192Z" style="fill:#fff;"/></g></svg>