<?xml version="1.0" encoding="UTF-8" standalone="no"?><!DOCTYPE svg PUBLIC "-//W3C//DTD SVG 1.1//EN" "http://www.w3.org/Graphics/SVG/1.1/DTD/svg11.dtd"><svg width="100%" height="100%" viewBox="0 0 1025 649" version="1.1" xmlns="http://www.w3.org/2000/svg" xmlns:xlink="http://www.w3.org/1999/xlink" xml:space="preserve" xmlns:serif="http://www.serif.com/" style="fill-rule:evenodd;clip-rule:evenodd;stroke-linecap:square;stroke-miterlimit:1.5;"><path d="M693.733,453.512c0,0 65.715,-199.759 199.106,-229.352c58.089,-12.887 131.161,-9.786 131.161,-9.786l0,-214.232l-1024,-0.142l0,32.345c0,0 45.408,22.726 64.821,51.07c86.497,126.288 162.873,99.873 205.183,92.872c42.31,-7 117.244,-20.707 190.784,13.679c97.747,45.705 191.137,263.738 191.137,263.738l41.808,-0.192Z" style="fill:#d5f2e3;"/><path d="M1024,627.85c0,0 0.01,-57.419 0,-57.418c-58.976,4.337 -121.951,-33.742 -199.424,-21.467c-55.524,8.797 -165.844,21.433 -245.151,23.894c-134.474,4.172 -207.81,0.835 -235.158,3.51c-32.558,3.185 -97.19,11.748 -59.035,29.82c21.957,10.4 93.481,42.278 252.2,40.744c45.948,-0.444 106.077,-11.351 154.525,-12.444c23.478,-0.53 123.614,14.716 145.69,14.074c76.017,-2.21 186.353,-20.713 186.353,-20.713Z" style="fill:#d5f2e3;"/><g><path d="M681.152,590.454c168.996,-0.351 306.213,5.954 306.23,14.072c0.017,8.118 -137.173,14.994 -306.169,15.346c-168.996,0.351 -306.213,-5.954 -306.23,-14.072c-0.017,-8.118 137.173,-14.994 306.169,-15.346Z" style="fill:#bdcbc4;"/><g><path d="M811.596,519.059l-13.546,4.012l23.414,68.455l7.774,-0.835l-17.642,-71.632Z" style="fill:#ffcba6;"/><path d="M819.301,519.644l14,-0.585l-7.139,31.196l44.759,-10.393l2.353,4.849l-58.223,19.079l4.25,-44.146Z" style="fill:#ffcba6;"/><path d="M817.493,586.926l14.178,-1.534l-0.454,15.323l-17.067,2.777c0,0 -8.105,-8.361 4.805,-10.056l-1.462,-6.51Z" style="fill:#fdc221;"/><path d="M860.914,552.338l-3.999,-13.688l15.164,-2.243l5.731,16.315c0,0 -6.809,9.447 -10.744,-2.965l-6.152,2.581Z" style="fill:#43281c;"/><path d="M819,419.094c0,0 -0.37,-6.483 2.703,-11.577c3.314,-5.491 -11.989,-8.824 -11.714,-14.417c0,0 -4.498,1.127 -5.856,5.407c-1.359,4.279 -4.074,7.781 6.758,15.768c0,0 -0.413,3.795 0.45,5.406c0.207,0.388 0.271,0.06 -0.436,0.024c-2.235,-0.116 -8.124,-1.375 -8.124,-1.375l-3.604,8.109l7.659,7.209c0,0 7.698,2.848 8.56,2.252c0.862,-0.595 13.065,-9.01 13.065,-9.01l1.352,-6.308l0,-3.153l-10.813,1.665Z" style="fill:#ffcba6;"/><path d="M808.515,393.674c0,0 17.276,-16.447 29.284,7.658c11.568,23.221 6.166,1.952 7.659,1.803c0,0 29.37,-10.325 33.339,5.406c3.969,15.73 1.643,9.146 -4.955,12.615c-6.599,3.468 -0.07,9.688 3.604,12.164c3.674,2.476 4.441,9.071 -1.352,14.417c-5.793,5.345 -1.679,5.964 -6.758,8.109c-5.079,2.145 -8.989,-0.734 -12.164,-0.45c-3.175,0.283 -6.088,4.012 -7.208,5.856c-1.12,1.845 -6.132,1.969 -9.912,-2.067c-3.78,-4.036 -4.491,2.83 -8.109,3.419c-3.619,0.589 -10.719,2.562 -14.417,-3.419c-3.699,-5.98 1.351,-19.558 1.351,-19.558l4.055,-6.307l7.659,-12.615l-12.164,-0.901l0.45,-7.659l1.803,-4.956c0,0 -8.766,-7.329 -9.912,-9.01c-1.146,-1.682 -2.253,-4.505 -2.253,-4.505Z" style="fill:#fdc221;"/><path d="M845.053,375.95l0.154,-5.756l-1.252,-1.668l-0.053,-1.167l2.64,0.095l0.962,-1.973c0.806,-1.016 2.366,0.042 4.285,2.089l-3.523,9.947l-3.213,-1.567Z" style="fill:#ffcba6;"/><path d="M770.018,373.821l-1.575,-5.539l0.8,-1.926l-0.238,-1.144l-2.534,0.747l-1.42,-1.674c-1.033,-0.785 -2.282,0.627 -3.634,3.085l5.876,8.765l2.725,-2.314Z" style="fill:#ffcba6;"/><path d="M778.392,534.696c0,0 6.066,-44.631 20.913,-64.513c0,0 13.368,-19.058 0.573,-34.733c0,0 -24.413,-16.369 -27.932,-26.581c-3.52,-10.212 -10.37,-22.964 -5.079,-33.544l3.151,-1.475l33.465,44.48c0,0 2.604,10.694 10.362,12.615c7.757,1.92 12.505,-7.118 9.911,-12.615c0,0 21.453,-19.264 21.625,-42.35l3.605,0c0,0 5.987,33.053 -13.516,51.36c0,0 -7.271,22.789 -6.805,37.455c0.113,3.538 1.982,8.222 3.006,10.132c5.266,9.829 11.282,28.597 19.279,60.389l-72.558,-0.62Z" style="fill:#d5202c;"/></g><g><path d="M916.883,569.98c0,0 34.147,18.298 26.786,25.83c-7.361,7.531 -10.967,9.618 -38.266,6.696c-26.874,-2.876 -36.025,-9.722 -39.223,-2.87l2.87,-19.133l13.393,-8.61l34.44,-1.913Z" style="fill:#d5202c;"/><path d="M905.763,589.882l-0.35,13.382l-14.198,-2.343l-0.445,-16.225c0,0 8.795,-6.493 8.754,5.73l6.239,-0.544Z" style="fill:#43281c;"/><path d="M908.334,505.962c0,0 -7.177,4.2 -8.337,3.315c-0.933,-0.712 12.914,-20.093 -5.055,-23.223c-16.127,-2.809 -6.683,20.229 -4.074,22.212c2.608,1.982 -6.265,2.591 -9.088,4.347c-2.824,1.756 2.977,6.108 3.908,6.44c0.93,0.332 13.203,2.054 13.203,2.054l7.407,-6.723l2.036,-8.422Z" style="fill:#ffcba6;"/><path d="M885.861,495.435c3.625,-2.884 8.1,-2.643 12.277,-6.778c5.367,-5.313 10.244,-14.738 12.194,-14.322c1.156,0.247 1.065,2.664 0.307,5.761c-1.248,5.099 -4.305,12.042 -6.588,14.187c-3.517,3.303 -2.59,-9.954 -8.9,-11.976c-2.923,-0.937 -19.157,-9.839 -21.066,-7.301c-3.522,4.683 8.827,22.774 11.776,20.429Z" style="fill:#43281c;"/><path d="M930.9,459.792l-4.913,-26.827l2.596,-0.475l3.902,27.012" style="fill:#43281c;"/><path d="M871.984,518.692c0,0 -6.35,-4.681 -12.723,-9.42c-6.372,-4.74 -12.766,-9.538 -12.853,-9.773c-0.918,-2.499 -4.253,-10.397 -9.707,-10.402c0,0 -1.637,1.395 -0.795,3.071c0.841,1.676 -1.762,0.568 -1.382,2.415c0.381,1.847 -0.621,1.965 0.447,3.14c1.069,1.176 0.411,0.78 2.346,2.624c1.127,1.075 4.761,1.446 5.317,3.376c0.427,1.479 6.68,7.146 12.887,12.493c6.335,5.456 15.726,8.475 15.726,8.475l0.737,-5.999Z" style="fill:#ffcba6;"/><path d="M915.596,499.565c0,0 5.891,-18.215 11.325,-31.111c0.302,-0.716 0.209,-3.517 0.509,-4.182c2.041,-4.522 4.029,-7.768 5.666,-8.249c0,0 1.963,0.878 1.626,2.723c-0.337,1.846 1.85,0.051 2.004,1.93c0.154,1.879 1.149,1.711 0.454,3.139c-0.695,1.428 -0.175,0.864 -1.514,3.177c-0.273,0.473 -2.32,1.636 -3.181,4.025c-3.352,9.303 -8.507,29.741 -8.507,29.741l-8.382,-1.193Z" style="fill:#ffcba6;"/><path d="M920.377,570.836l-42.806,0.684c0,0 -1.003,-34.753 -1.707,-43.513c-0.005,-0.062 -0.159,0.246 -0.468,0.15c-7.101,-2.216 -15.361,-3.675 -13.275,-6.579c2.364,-3.29 2.923,-7.802 3.465,-9.639c0.48,-1.631 3.852,-0.151 6.469,1.41c0.872,0.52 4.154,-0.692 4.232,-0.724c6.004,-2.427 11.763,-2.015 11.763,-2.015c0,0 5.71,7.794 13.257,-1.191c0.3,-0.357 4.899,-2.226 5.089,-2.623c3.655,-7.636 4.391,-8.718 9.426,-11.153l8.74,3.766c0,0 3.363,14.944 -5.288,21.698c0,0 8.32,42.703 1.103,49.729Z" style="fill:#fdc221;"/><path d="M927.675,429.973l-0.732,-18.648l-2.596,0.475l3.328,18.173Z" style="fill:#fdc221;"/><path d="M925.718,430.469l-13.357,-13.034l-1.558,2.131l14.915,10.903Z" style="fill:#d5202c;"/><path d="M924.638,432.175l-18.661,-0.275l0.335,2.618l18.326,-2.343Z" style="fill:#d5202c;"/><path d="M923.262,434.279l-13.736,12.634l2.044,1.671l11.692,-14.305Z" style="fill:#fdc221;"/><path d="M925.175,436.23l-4.486,18.115l2.626,0.266l1.86,-18.381Z" style="fill:#d5202c;"/><path d="M930.265,435.297l11.876,14.398l1.778,-1.951l-13.654,-12.447Z" style="fill:#d5202c;"/><path d="M930.046,433.036l18.522,2.284l-0.051,-2.639l-18.471,0.355Z" style="fill:#fdc221;"/><path d="M929.756,431.453l15.016,-11.082l-1.852,-1.881l-13.164,12.963Z" style="fill:#d5202c;"/><path d="M818.406,603.774l-2.628,-48.029l70.937,-6.78l1.335,51.984l-69.644,2.825Z" style="fill:#0a4c2a;"/><path d="M816.901,582.252l-0.639,-4.387l71.384,-14.777l0.656,5.18l-71.401,13.984Z" style="fill:#d5202c;"/><path d="M848.127,552.98l1.991,-0.951l2.443,0.884l4.254,48.825l-5.221,0.012l-3.467,-48.77Z" style="fill:#d5202c;"/><path d="M850.301,550.774c0,0 -10.201,-10.296 -13.231,-5.239c-2.928,4.885 10.954,5.442 12.887,5.604c0.068,0.006 -11.535,-0.956 -12.52,1.868c-0.983,2.821 13.053,-1.475 12.633,-1.934c-0.015,-0.016 -0.056,0.043 -0.117,0.097c-2.073,1.816 -11.425,10.541 -14.965,11.233l3.132,0.817l-1.763,3.143c0,0 11.814,-3.642 13.867,-13.979c0,0 12.824,6.513 16.415,5.405l-3.915,-3.079l5.744,-2.619c0,0 -16.409,1.333 -18.087,-1.028c0,0 9.153,-2.87 7.691,-6.143c-1.437,-3.217 -6.562,3.977 -7.64,6.042c-0.018,0.036 5.667,-7.902 2.105,-10.143c-3.562,-2.242 -4.356,4.349 -2.236,9.955Z" style="fill:#d5202c;"/></g><g><g><path d="M604.583,526.089l16.563,5.248l-0.099,50.245l-8.249,3.122l-8.215,-58.615Z" style="fill:#ffcba6;"/><path d="M626.269,578.89l-18.866,1.419l4.289,16.116l22.936,-0.495c0,0 8.557,-12.864 -8.694,-11.961l0.335,-5.079Z" style="fill:#d5202c;"/><path d="M587.401,529.936l-14.511,3.09l2.916,51.547l8.904,-1.519l2.691,-53.118Z" style="fill:#ffcba6;"/><path d="M572.305,489.437l-8.127,46.77l28.279,1.849l3.488,-36.124l2.871,34.027l28.754,-1.419l-8.027,-50.464l-47.238,5.361Z" style="fill:#43281c;"/><path d="M569.274,405.244c0,0 15.294,0.338 16.775,-1.099c1.19,-1.156 -21.498,-26.029 3.192,-33.439c22.16,-6.651 12.777,27.266 9.449,30.486c-3.328,3.22 9.226,2.584 13.483,4.574c4.258,1.991 -3.152,9.071 -4.402,9.694c-1.25,0.622 -18.184,5.1 -18.184,5.1l-11.524,-8.19l-8.789,-7.126Z" style="fill:#ffcba6;"/><path d="M603.561,382.345c-23.964,-14.786 -38.631,-6.818 -25.72,1.439c4.735,3.028 0.723,-16.074 10.478,-18.302c12.318,-2.813 22.231,21.176 15.242,16.863Z" style="fill:#43281c;"/><path d="M648.546,463.281c0,0 14.103,16.835 12.468,19.876c0,0 -3.037,3.492 -4.354,1.191c-2.906,-5.078 -2.61,1.048 -3.931,0.854c-2.636,-0.388 -1.355,-2.803 -2.102,-4.92c-0.746,-2.117 -7.432,-12.603 -7.432,-12.603l5.351,-4.398Z" style="fill:#ffcba6;"/><path d="M546.247,474.244c0,0 -7.049,20.798 -4.424,23.041c0,0 4.095,2.155 4.489,-0.466c0.87,-5.786 2.813,0.032 3.974,-0.628c2.316,-1.316 0.248,-3.104 0.177,-5.347c-0.07,-2.244 2.365,-14.439 2.365,-14.439l-6.581,-2.161Z" style="fill:#ffcba6;"/><path d="M572.286,491.696l51.168,-3.218c0,0 3.773,-15.717 1.788,-31.336c-1.435,-11.298 -4.238,-23.298 -4.441,-28.507c-0.311,-8.006 7.954,24.17 20.505,43.777c4.835,7.551 13.712,-6.152 13.712,-6.152c0,0 -19.138,-34.858 -28.24,-51.435c-2.959,-5.39 -8.288,-9.067 -14.376,-9.919c-4.006,-0.562 -7.734,-1.084 -7.734,-1.084c0,0 -6.348,7.904 -12.915,8.139c-6.307,0.226 -12.002,-7.196 -13.343,-6.929c-1.001,0.2 -13.975,-1.352 -20.785,4.72c-1.415,1.263 -15.728,66.119 -15.728,66.119c0.057,2.421 -1.666,7.297 0.239,7.6c5.326,0.849 14.111,5.122 14.558,-0.93c0.315,-4.267 7.502,-41.872 7.712,-48.012c0,0 -1.922,47.766 7.88,57.167Z" style="fill:#fdc221;"/><path d="M570.779,582.664l18.851,-1.612l-1.059,16.545l-22.72,3.175c0,0 -10.502,-11.332 6.672,-13.195l-1.744,-4.913Z" style="fill:#d5202c;"/></g><path d="M580.841,390.195l10.535,-2.259l9.798,0c0.894,1.623 0.938,4.094 0.017,7.531c0,0 -4.71,9.859 -9.054,9.037c-4.344,-0.822 -8.675,-4.907 -9.79,-7.531c-1.618,-2.259 -2.144,-4.518 -1.506,-6.778Z" style="fill:#d5f2e3;"/></g><g><g><path d="M750.246,538.394l-14.938,5.063l1.287,43.725l7.576,2.471l6.075,-51.259Z" style="fill:#ffcba6;"/><path d="M731.782,584.995l17.191,0.672l-3.517,14.153l-20.87,0.255c0,0 -8.088,-10.939 7.622,-10.669l-0.426,-4.411Z" style="fill:#fdc221;"/><path d="M765.963,541.229l13.27,2.255l-1.425,44.949l-8.133,-1.056l-3.712,-46.148Z" style="fill:#ffcba6;"/><path d="M778.298,500.903l10.91,66.487l-25.667,2.507l-5.882,-51.341l-0.078,48.334l-26.346,-2.139l3.556,-71.667l43.507,7.819Z" style="fill:#43281c;"/><path d="M779.477,432.166c0,0 -13.901,0.752 -15.281,-0.455c-1.11,-0.97 18.999,-20.993 -3.63,-26.704c-20.311,-5.126 -11.039,21.81 -7.936,24.512c3.103,2.703 -8.329,2.525 -12.153,4.385c-3.824,1.859 3.083,7.8 4.235,8.304c1.151,0.504 16.657,3.895 16.657,3.895l10.285,-7.472l7.823,-6.465Z" style="fill:#ffcba6;"/><path d="M745.958,408.569c-0.49,2.396 3.735,-1.613 9.508,-1.363c6.61,0.285 14.964,4.642 15.73,4.772c0.455,0.077 0.52,-1.022 1.343,-1.533c0.933,-0.579 2.617,-0.614 2.841,-1.192c0.378,-0.976 -0.675,-1.243 -2.509,-1.624c-0.812,-0.168 2.067,-1.75 1.642,-2.535c-0.346,-0.637 -2.997,0.307 -3.428,-0.355c-0.565,-0.869 0.246,-2.514 -0.589,-3.245c-0.469,-0.41 -0.889,2.25 -1.445,1.845c-0.244,-0.178 -2.917,-1.03 -3.353,-1.995c-0.465,-1.027 1.297,-2.173 0.754,-2.449c-1.446,-0.738 -2.993,1.47 -3.929,0.582c-0.691,-0.654 0.865,-2.007 0.114,-2.215c-0.344,-0.094 -1.944,-0.4 -3.134,0.893c-0.705,0.766 -1.22,3.588 -1.367,3.278c-1.075,-2.272 -1.834,-1.365 -2.476,-2.138c-2.172,-2.618 -2.272,-0.405 -2.499,1.356c-0.229,1.767 -1.346,-1.617 -2.825,-1.228c-1.006,0.264 -0.409,3.498 -1.474,3.559c-2.867,0.166 -0.174,0.757 -1.506,0.995c-1.956,0.349 -6.915,0.651 0.104,3.47c0.58,0.233 -1.369,0.471 -1.502,1.122Z" style="fill:#43281c;"/><path d="M718.881,461.4c0,0 -0.376,32.393 -1.469,35.595c-1.885,5.523 -5.237,10.393 -3.784,11.646c0,0 3.625,1.907 4.071,-0.39c0.982,-5.069 2.539,0.041 3.609,-0.532c2.138,-1.144 0.33,-2.721 0.343,-4.688c0.012,-1.968 4.853,-37.975 4.853,-37.975l-7.623,-3.656Z" style="fill:#ffcba6;"/><path d="M796.599,463.269c0,0 5.57,20.214 7.722,33.336c1.118,6.82 3.034,12.756 2.27,13.422c0,0 -3.674,1.998 -4.095,-0.272c-0.929,-5.009 -2.556,0.112 -3.628,-0.427c-2.138,-1.077 -0.3,-2.694 -0.289,-4.649c0.004,-0.713 1.139,-4.917 0.717,-6.986c-0.734,-3.604 -8.566,-30.212 -8.566,-30.212l5.869,-4.212Z" style="fill:#ffcba6;"/><path d="M778.797,507.496l-46.609,-1.271c0,0 -3.805,-13.566 -2.372,-27.218c0.728,-6.939 3.58,-23.349 1.953,-23.721c-0.689,-0.157 -0.714,4.762 -2.388,11.436c-1.929,7.692 -13.291,-1.85 -13.291,-1.85c2.668,-16.392 6.122,-20.789 10.88,-25.606c2.897,-3 6.68,-4.992 10.793,-5.681c4.397,-0.744 9.493,-1.598 9.493,-1.598c0,0 5.961,6.689 11.939,6.697c5.74,0.009 10.743,-6.621 11.968,-6.429c0.915,0.144 12.677,-1.595 19.014,3.487c1.318,1.056 9.534,25 9.534,25c0.005,2.108 1.688,6.3 -0.037,6.621c-4.824,0.898 -12.71,4.879 -13.261,-0.375c-0.389,-3.703 -1.474,-4.143 -1.811,-9.48c0,0 2.885,41.513 -5.805,49.988Z" style="fill:#d5f2e3;"/><path d="M782.334,586.621l-17.181,-0.839l1.357,14.368l20.737,2.084c0,0 9.281,-10.177 -6.382,-11.285l1.469,-4.328Z" style="fill:#fdc221;"/></g><path d="M771.025,419.818l-9.975,-2.304l-8.454,1.536c-0.911,1.654 -0.189,3.344 0.75,6.848c0,0 3.251,7.721 7.696,6.973c2.146,-0.36 5.667,-2.57 7.739,-5.649c1.817,-2.7 2.343,-6.246 2.244,-7.404Z" style="fill:#d5f2e3;"/><path d="M886.405,498.599l8.756,-2.074l7.422,1.383c0.799,1.49 0.165,3.011 -0.659,6.166c0,0 -2.854,6.951 -6.756,6.278c-1.884,-0.325 -4.974,-2.314 -6.793,-5.086c-1.596,-2.431 -2.058,-5.624 -1.97,-6.667Z" style="fill:#d5f2e3;"/><path d="M820.936,408.236l-4.599,-4.607l-12.294,-0.768c-3.706,2.875 5.106,14.419 10.75,12.695c4.311,-1.317 6.794,-5.016 6.143,-7.32Z" style="fill:#d5f2e3;"/></g><g><path d="M680.107,518.925l16.889,6.032l-0.102,57.738l-8.41,3.588l-8.377,-67.358Z" style="fill:#ffcba6;"/><path d="M702.219,579.601l-19.237,1.631l4.374,18.519l23.386,-0.569c0,0 8.726,-14.782 -8.865,-13.744l0.342,-5.837Z" style="fill:#43281c;"/><path d="M662.587,523.346l-14.796,3.551l2.973,59.235l9.08,-1.746l2.743,-61.04Z" style="fill:#ffcba6;"/><path d="M647.195,476.807l-8.286,53.745l28.834,2.125l3.557,-41.511l2.927,39.101l29.319,-1.63l-8.185,-57.99l-48.166,6.16Z" style="fill:#bdcbc4;"/><path d="M644.104,380.058c0,0 15.595,0.389 17.104,-1.263c1.214,-1.328 -21.919,-29.91 3.256,-38.426c22.595,-7.642 13.027,31.333 9.634,35.033c-3.393,3.7 9.407,2.97 13.748,5.257c4.341,2.287 -3.214,10.424 -4.489,11.139c-1.274,0.715 -18.54,5.86 -18.54,5.86l-11.751,-9.411l-8.962,-8.189Z" style="fill:#ffcba6;"/><path d="M669.844,345.298c-2.752,-1.114 -3.1,1.074 -4.984,0.367c-13.047,-4.905 -18.662,-9.863 -11.44,-16.673c9.276,-8.747 24.498,19.575 16.424,16.306Z" style="fill:#fdc221;"/><path d="M647.176,479.403l52.173,-3.697c0,0 2.311,-18.061 0.287,-36.009c-1.464,-12.984 -2.785,-32.916 -2.992,-38.903c-0.14,-4.038 0.231,-3.663 3.886,-2.114c4.671,1.98 9.127,12.995 18.892,23.481c2.81,3.017 -0.553,11.885 -2.391,18.922c-1.93,7.393 11.508,10.816 12.713,8.996c0.513,-0.775 2.321,-18.311 3.033,-25.391c0.248,-2.463 -0.252,-4.943 -1.435,-7.117c-4.995,-9.024 -19.246,-25.27 -28.366,-32.829c-2.68,-2.2 -5.897,-3.644 -9.321,-4.185c-5.252,-0.836 -13.461,-2.132 -13.461,-2.132c0,0 -6.473,9.082 -13.169,9.352c-6.431,0.26 -12.238,-8.269 -13.605,-7.962c-1.021,0.229 -14.25,-1.554 -21.193,5.424c-0.653,0.657 -19.359,18.589 -22.828,35.502c-4.195,20.452 -2.542,27.484 -0.645,26.943c4.664,-1.328 3.727,-1.667 8.79,-3.247c3.051,-0.952 0.992,-6.393 3.244,-21.508c1.209,-8.116 18.278,-20.575 18.353,-23.039c0,0 -1.96,68.71 8.035,79.513Z" style="fill:#0a4c2a;"/><path d="M670.542,444.322c0,0 0.615,-23.727 19.753,-26.875c19.138,-3.148 65.001,46.117 -14.589,105.966c-8.222,1.072 -102.888,-82.961 -36.858,-103.662c29.067,-9.114 31.694,24.571 31.694,24.571Z" style="fill:#d5202c;"/><path d="M724.622,449.173c0,0 -5.202,12.445 -9.072,12.569c0,0 -4.987,-0.907 -3.255,-3.314c3.822,-5.313 -2.292,-1.811 -2.713,-3.11c-0.838,-2.592 2.227,-2.707 4.038,-4.501c1.811,-1.793 6.5,-4.137 6.5,-4.137l4.502,2.493Z" style="fill:#ffcba6;"/><path d="M639.141,399.89c0,0 57.71,6.891 57.503,0.904c-0.14,-4.038 13.013,10.881 22.778,21.367c2.81,3.017 -0.553,11.117 -2.391,18.154c-1.93,7.394 11.508,11.584 12.713,9.764c0.513,-0.775 2.321,-18.311 3.033,-25.391c0.248,-2.463 -0.252,-4.943 -1.435,-7.117c-4.995,-9.024 -19.246,-25.27 -28.366,-32.829c-2.68,-2.2 -5.897,-3.644 -9.321,-4.185c-5.252,-0.836 -13.461,-2.132 -13.461,-2.132c0,0 -6.473,9.082 -13.169,9.352c-6.431,0.26 -12.238,-8.269 -13.605,-7.962c-1.021,0.229 -14.25,-1.554 -21.193,5.424c-0.653,0.657 -19.359,18.589 -22.828,35.502c-4.195,20.452 -2.542,27.484 -0.645,26.943c4.664,-1.328 3.727,-1.667 8.79,-3.247c3.051,-0.952 0.992,-6.393 3.244,-21.508c1.209,-8.116 18.278,-20.575 18.353,-23.039Z" style="fill:#0a4c2a;"/><path d="M611.922,446.56c0,0 -0.032,12.889 3.474,14.121c0,0 4.827,0.516 3.94,-2.391c-1.957,-6.416 2.624,-1.159 3.385,-2.34c1.52,-2.358 -1.252,-3.349 -2.39,-5.664c-1.137,-2.315 -4.837,-5.849 -4.837,-5.849l-3.572,2.123Z" style="fill:#ffcba6;"/><path d="M645.639,583.938l19.221,-1.852l-1.079,19.012l-23.167,3.649c0,0 -10.708,-13.022 6.803,-15.164l-1.778,-5.645Z" style="fill:#43281c;"/></g><path d="M655.29,360.605l10.742,-2.596l9.99,0c0.911,1.864 0.957,4.704 0.018,8.653c0,0 -4.803,11.33 -9.232,10.385c-4.429,-0.944 -8.846,-5.639 -9.982,-8.654c-1.65,-2.596 -2.187,-5.192 -1.536,-7.788Z" style="fill:#d5f2e3;"/><g><g><path d="M555.857,328.319c0,0 3.935,6.987 2.375,14.607c-1.425,6.962 -6.849,14.65 -8.067,24.237c-2.331,18.341 6.474,23.719 13.369,32.541c20.604,26.36 -3.798,71.314 -12.439,73.973" style="fill:none;stroke:#43281c;stroke-width:1px;"/><path d="M552.073,324.533c0,0 -56.456,-20.017 -24.963,-49.97c31.494,-29.954 56.268,16.523 24.963,49.97Z" style="fill:#d5202c;"/><path d="M552.452,323.398l5.298,3.03c0,0 -3.316,4.948 -4.922,3.404c-1.605,-1.543 -1.89,-5.678 -1.89,-5.678l1.514,-0.756Z" style="fill:#d5202c;"/></g><g><path d="M552.249,460.646l10.421,1.168c0,0 3.007,1.116 2.061,2.111c-0.945,0.995 1.23,3.803 -0.062,5.217c-1.293,1.413 -4.173,-0.05 -4.173,-0.05c-1.428,1.296 -1.928,-2.403 -8.297,-4.273c-9.838,-2.888 0.05,-4.173 0.05,-4.173Z" style="fill:#ffcba6;"/><path d="M546.79,456.278l9.729,4.419c0,0 2.105,2.326 0.875,2.937c-1.229,0.611 -2.026,-1.439 -12.08,-3.453c-10.054,-2.014 1.476,-3.903 1.476,-3.903Z" style="fill:#ffcba6;"/><path d="M535.222,479.04c0,0 31.197,20.04 -0.55,114.604l-7.966,-1.074l1.276,-56.231c0,0 -7.871,-12.505 -11.308,-22.173c-3.003,-8.447 -23.51,-35.509 -23.51,-35.509l42.058,0.383Z" style="fill:#0a4c2a;"/><path d="M508.11,480.119c1.861,-4.188 44.329,7.16 0.141,113.519l-7.965,-1.074l0.555,-54.974c0,0 -7.883,-8.885 -11.459,-17.136c-6.335,-14.616 1.145,-45.085 5.25,-41.058l13.478,0.723Z" style="fill:#0a4c2a;"/><path d="M529.214,380.024c0,0 6.119,-4.752 2.149,-5.192c-3.97,-0.439 8.519,-2.009 3.18,-4.136c-5.339,-2.126 1.013,-4.781 -1.781,-4.195c-2.794,0.586 -1.746,-5.906 -5.435,-3.195c-3.688,2.711 -6.45,-1.589 -7.175,-0.086c-0.726,1.503 -5.592,-0.984 -6.4,0.967c-0.809,1.95 -2.611,-0.429 -3.155,2.049c-0.545,2.478 -4.81,-0.979 -5.242,2.024c-0.431,3.004 -5.025,-3.344 -5.229,0.981c-0.204,4.326 -5.469,0.846 -4.223,4.123c1.247,3.278 -2.659,2.709 -1.095,4.295c1.564,1.585 -2.972,1.753 -0.048,4.039c2.923,2.287 0.301,4.332 2.024,5.242c1.724,0.91 -2.443,2.731 2.049,3.155c4.492,0.424 -0.628,0.19 4.149,2.136c4.776,1.947 5.204,1.106 5.204,1.106l8.458,-9.29l12.57,-4.023Z" style="fill:#d5202c;"/><path d="M529.214,380.024c0,0 11.22,15.75 -7.904,20.774c0,0 -2.798,-1.741 -0.112,9.39c2.686,11.131 -14.28,1.916 -14.28,1.916l2.111,-2.061c0,0 1.224,-12.219 -0.843,-16.706c-0.77,-1.669 -3.042,-4.52 -0.909,-5.754c0.534,-0.309 0.541,-0.428 3.058,0.563c0.933,0.367 1.799,-3.708 2.528,-3.812c1.041,-0.15 0.923,1.46 1.851,0.834c0.718,-0.483 0.951,-1.881 1.012,-2.806c0.139,-2.076 2.999,0.325 3.181,-1.728c0.077,-0.876 2.514,-3.381 4.765,-2.8c2.019,0.521 2.8,0.369 5.542,2.19" style="fill:#ffcba6;"/><path d="M522.592,410.205c0,0 -10.275,5.531 -13.563,-0.162c-3.288,-5.693 -18.134,11.402 -19.413,20.636c-1.28,9.235 2.996,14.765 5.326,23.02l-2.399,26.058l43.819,0.524l-0.881,-13.575c6.009,2.453 11.515,1.351 16.718,-1.887l0.05,-4.173l-19.736,-7.541c0,0 -1.683,-32.7 -9.921,-42.9Z" style="fill:#bdcbc4;"/><path d="M531.317,441.816l-1.756,13.809l16.385,3.819l1.444,-3.916l-6.086,-5.928l-9.987,-7.784Z" style="fill:#bdcbc4;"/><path d="M538.069,591.577c0,0 15.538,4.503 16.605,7.503c1.068,3.001 -0.024,2.087 -0.024,2.087l-29.213,-0.35l0.112,-9.39l12.52,0.15Z" style="fill:#43281c;"/><path d="M510.199,591.28c0,0 14.568,7.034 15.119,10.171c0.552,3.137 -0.373,2.053 -0.373,2.053l-28.744,-5.224l1.679,-9.239l12.319,2.239Z" style="fill:#43281c;"/></g></g><g><path d="M390.77,484.621c6.514,-2.525 13.852,0.714 16.376,7.227c2.525,6.514 -0.713,13.852 -7.227,16.377c-6.514,2.524 -13.852,-0.714 -16.376,-7.228c-2.525,-6.513 0.713,-13.851 7.227,-16.376Z" style="fill:#43281c;"/><path d="M379.984,487.468c2.885,-1.119 6.135,0.316 7.253,3.201c1.118,2.885 -0.316,6.135 -3.201,7.253c-2.885,1.118 -6.135,-0.316 -7.253,-3.201c-1.119,-2.885 0.316,-6.135 3.201,-7.253Z" style="fill:#43281c;"/><path d="M395.523,478.082c2.885,-1.118 6.136,0.316 7.254,3.201c1.118,2.885 -0.316,6.136 -3.201,7.254c-2.885,1.118 -6.136,-0.316 -7.254,-3.201c-1.118,-2.885 0.316,-6.135 3.201,-7.254Z" style="fill:#43281c;"/><path d="M405.679,500.259c9.772,-1.42 18.859,5.361 20.28,15.133c1.42,9.772 -5.36,18.859 -15.132,20.279c-9.772,1.421 -18.859,-5.36 -20.28,-15.132c-1.42,-9.772 5.36,-18.859 15.132,-20.28Z" style="fill:#43281c;"/><path d="M414.047,503.892c0,0 -0.886,-13.71 3.024,-16.08c3.911,-2.37 9.62,8.742 2.088,17.942" style="fill:#43281c;"/><path d="M394.434,519.281c0,0 -13.873,0.186 -16.581,3.87c-2.709,3.684 8.147,8.071 17.981,1.387" style="fill:#43281c;"/><path d="M402.737,531.511c0,0 10.25,16.665 5.456,20.928c-4.794,4.262 -7.445,1.3 -6.062,8.602c1.384,7.302 12.545,4.228 14.662,-2.544c2.117,-6.771 -3.733,-29.036 -3.733,-29.036" style="fill:#43281c;"/><path d="M421.149,524.609c0,0 5.831,20.561 12.113,19.263c6.282,-1.297 5.491,-5.194 10.52,0.279c5.028,5.472 -1.331,7.051 -9.392,7.853c-7.06,0.703 -21.053,-20.342 -21.053,-20.342" style="fill:#43281c;"/></g><g><g><path d="M460.139,417.947l0,-8.32l-1.462,-9.707l-8.913,-1.387l1.462,-1.387l-7.168,-2.773l-4.385,-1.387l-2.924,2.774c0,0 -0.904,3.978 0,4.16c0.904,0.182 2.924,4.16 2.924,4.16c0,0 -0.508,2.272 0.545,5.139c0.865,2.355 2.784,5.112 6.903,7.341c9.134,4.944 13.018,1.387 13.018,1.387Z" style="fill:#ffcba6;"/><path d="M461.601,388.826l-10.233,-23.574l-8.772,23.574c-0.397,0.308 10.082,7.805 19.005,0Z" style="fill:#fdc221;"/><path d="M431.378,466.588l-7.909,18.296c0,0 0.138,6.749 -2.712,7.283c0,0 -1.953,2.32 0.392,-1.916c0,0 -0.511,-2.304 -6.264,2.07c-4.91,3.734 0.659,-2.626 2.77,-6.4c0.362,-0.648 0.622,-1.219 0.71,-1.651c0.088,-0.427 0.279,-1.177 0.543,-2.147c1.553,-5.717 4.24,-15.907 4.24,-15.907l4.866,-4.267l3.364,4.639Z" style="fill:#ffcba6;"/><path d="M487.758,465.116l15.962,-16.217c0,0 6.733,-3.317 5.986,-6.081c0,0 0.93,-1.636 -1.995,2.027c0,0 -1.779,0.906 -0.213,-5.88c1.337,-5.792 -2.161,1.554 -4.757,4.837c-0.446,0.564 -0.865,1.007 -1.229,1.244c-0.36,0.235 -0.975,0.682 -1.765,1.274c-4.651,3.492 -15.337,12.037 -15.337,12.037l-1.853,5.947l5.201,0.812Z" style="fill:#ffcba6;"/><path d="M473.27,470.642l0.996,-3.742c0.801,5.211 9.154,0.827 13.762,-1.784l-1.689,-8.341l-8.658,-1.387c0,0 0.856,-33.131 -4.411,-31.894c0,0 -6.471,0.05 -10.207,-1.387l-2.39,-4.703c0,0 -11.111,1.082 -13.691,-0.844l-1.462,5.547c0,0 -6.584,-0.087 -10.233,1.387c-11.893,4.803 -15.728,43.731 -13.14,45.567l7.263,2.945c7.954,-7.02 5.269,-15.765 7.959,-25.855l3.766,5.077c0,0 1.38,14.205 4.385,18.027l27.75,1.387Z" style="fill:#d5202c;"/><path d="M481.447,494.528l-2.924,22.188l-19.596,4.16l-0.844,-12.904c0,0 0.239,10.935 -0.775,10.846c-5.221,-0.459 -21.275,-3.086 -21.179,-7.649c0.114,-5.448 -1.462,-18.027 -1.462,-18.027l45.318,-1.387l1.462,2.773Z" style="fill:#ffcba6;"/><path d="M478.523,516.716c0,0 -0.588,24.046 -2.924,29.121c-2.336,5.075 -8.045,43.644 -10.233,45.761c-2.188,2.117 -6.439,0 -6.439,0l3.515,-43.025l-3.515,-27.697l19.596,-4.16Z" style="fill:#ffcba6;"/><path d="M458.057,517.258c0,0 -0.837,17.916 -5.848,20.258c-5.011,2.343 -52.627,27.735 -52.627,27.735l0,-5.547l37.617,-29.362l-1.07,-19.173c0,0 16.625,6.179 21.928,6.089Z" style="fill:#ffcba6;"/><path d="M473.27,465.116c0,0 14.53,40.732 8.029,55.52l-52.627,-1.387c0,0 11.189,-50.171 15.312,-55.124c2.822,-3.39 29.286,0.991 29.286,0.991Z" style="fill:#d5202c;"/><path d="M442,408.218l0,3.79c0,0 -0.031,2.357 6.143,5.375c6.174,3.018 12.286,-6.16 12.286,-6.16l-1.536,-3.005l-8.979,-1.536l-7.914,1.536Z" style="fill:#d5f2e3;"/><path d="M458.677,409.626c0,0.336 0.153,0.653 0.416,0.861c0.264,0.208 0.607,0.284 0.934,0.206c3.076,-0.729 10.345,-2.453 10.345,-2.453c0,0 0.811,-16.014 -8.771,-19.414c-9.468,-3.359 -16.246,-7.145 -27.371,9.11c-0.261,0.38 -0.47,0.792 -0.623,1.226c-0.892,2.53 -4.167,11.851 -4.167,11.851l12.539,1.907c0,0 -0.258,-6.081 -0.488,-11.526c-0.063,-1.489 0.753,-2.876 2.085,-3.545c1.332,-0.669 2.932,-0.494 4.088,0.446c0.338,0.275 0.667,0.543 0.981,0.798c1.726,1.403 3.984,1.974 6.17,1.559c0.353,-0.066 0.708,-0.134 1.053,-0.199c0.693,-0.132 1.408,0.053 1.951,0.502c0.544,0.45 0.858,1.119 0.858,1.824c0,2.199 0,5.14 0,6.847Z" style="fill:#43281c;"/><path d="M401.044,559.161l-7.309,-5.547l-13.157,18.028c0,0 -1.88,3.098 5.847,0c7.728,-3.099 7.554,-4.93 12.287,-5.547c4.734,-0.618 2.332,-6.934 2.332,-6.934Z" style="fill:#fdc221;"/><path d="M459.468,587.44l-4.024,8.017l11.764,7.714c0,0 8.792,0.593 11.307,0.505c1.502,-0.052 -1.233,-3.419 -2.9,-5.585c-1.694,-2.204 -3.024,-2.198 -4.11,-3.23c-2.08,-1.981 -3.261,-4.07 -4.388,-6.851c-1.715,-4.23 -7.649,-0.57 -7.649,-0.57Z" style="fill:#fdc221;"/></g></g><path d="M508.475,392.811l16.125,-8.511l6.911,0c0,0 7.028,14.706 -9.982,16.957l-13.054,-8.446Z" style="fill:#d5f2e3;"/><g><path d="M598.029,285.194l3.549,-10.427c0,0 1.896,-4.86 7.418,-2.566c5.521,2.295 29.327,9.982 29.327,9.982c0,0 8.507,2.208 5.602,9.179c-2.904,6.971 -5.545,16.293 -5.545,16.293c0,0 -2.396,5.973 -7.862,3.869c-5.465,-2.104 -10.427,-3.549 -10.427,-3.549l-8.084,4.521l-2.344,-8.07l-11.73,-3.993c0,0 -3.914,-2.926 -2.788,-6.766c1.126,-3.841 2.884,-8.473 2.884,-8.473Z" style="fill:#f77178;"/><path d="M598.029,285.194l3.549,-10.427c0,0 1.896,-4.86 7.418,-2.566c5.521,2.295 29.327,9.982 29.327,9.982c0,0 8.507,2.208 5.602,9.179c-2.904,6.971 -5.545,16.293 -5.545,16.293c0,0 -2.396,5.973 -7.862,3.869c-5.465,-2.104 -10.427,-3.549 -10.427,-3.549l-8.084,4.521l-2.344,-8.07l-11.73,-3.993c0,0 -3.914,-2.926 -2.788,-6.766c1.126,-3.841 2.884,-8.473 2.884,-8.473Z" style="fill:#d5202c;"/><path d="M598.029,285.194l3.549,-10.427c0,0 1.896,-4.86 7.418,-2.566c5.521,2.295 29.327,9.982 29.327,9.982c0,0 8.507,2.208 5.602,9.179c-2.904,6.971 -5.545,16.293 -5.545,16.293c0,0 -2.396,5.973 -7.862,3.869c-5.465,-2.104 -10.427,-3.549 -10.427,-3.549l-8.084,4.521l-2.344,-8.07l-11.73,-3.993c0,0 -3.914,-2.926 -2.788,-6.766c1.126,-3.841 2.884,-8.473 2.884,-8.473Z" style="fill:none;stroke:#9e003d;stroke-width:3px;stroke-linecap:round;stroke-linejoin:round;"/><path d="M598.029,285.194l3.549,-10.427c0,0 1.896,-4.86 7.418,-2.566c5.521,2.295 29.327,9.982 29.327,9.982c0,0 8.507,2.208 5.602,9.179c-2.904,6.971 -5.545,16.293 -5.545,16.293c0,0 -2.396,5.973 -7.862,3.869c-5.465,-2.104 -10.427,-3.549 -10.427,-3.549l-8.084,4.521l-2.344,-8.07l-11.73,-3.993c0,0 -3.914,-2.926 -2.788,-6.766c1.126,-3.841 2.884,-8.473 2.884,-8.473Z" style="fill:none;stroke:#9e003d;stroke-width:3px;stroke-linecap:round;stroke-linejoin:round;"/><g><path d="M614.643,299.679l3.719,1.272l2.185,-6.391l6.564,2.244l1.346,-3.938l-6.564,-2.244l2.095,-6.126l-3.72,-1.272l-2.094,6.126l-6.345,-2.169l-1.346,3.938l6.038,1.927l-1.878,6.633Z" style="fill:#fff;"/></g></g><g><path d="M780.288,355.945l-5.448,-9.573c0,0 -2.378,-4.643 3.001,-7.253c5.38,-2.61 26.924,-15.324 26.924,-15.324c0,0 7.296,-4.901 10.585,1.897c3.29,6.799 8.514,14.958 8.514,14.958c0,0 2.88,5.756 -2.321,8.45c-5.2,2.694 -9.573,5.448 -9.573,5.448l-1.979,9.048l-7.594,-3.599l-10.769,6.129c0,0 -4.786,0.987 -6.913,-2.403c-2.126,-3.39 -4.427,-7.778 -4.427,-7.778Z" style="fill:#d5202c;"/><path d="M780.288,355.945l-5.448,-9.573c0,0 -2.378,-4.643 3.001,-7.253c5.38,-2.61 26.924,-15.324 26.924,-15.324c0,0 7.296,-4.901 10.585,1.897c3.29,6.799 8.514,14.958 8.514,14.958c0,0 2.88,5.756 -2.321,8.45c-5.2,2.694 -9.573,5.448 -9.573,5.448l-1.979,9.048l-7.594,-3.599l-10.769,6.129c0,0 -4.786,0.987 -6.913,-2.403c-2.126,-3.39 -4.427,-7.778 -4.427,-7.778Z" style="fill:none;stroke:#9e003d;stroke-width:3px;stroke-linecap:round;stroke-linejoin:round;"/><g><path d="M798.067,341.051c0,0 -11.871,-2.262 -7.739,5.728c4.132,7.99 14.764,5.237 15.346,4.835c3.438,-2.382 3.712,-11.573 0.848,-14.893c-2.024,-2.345 -7.188,-3.469 -8.455,4.33Z" style="fill:#fff;"/></g></g></g><g><path d="M531.515,0l4.79,60.765l0.624,-0.131l2.647,-60.634l-8.061,0Z" style="fill:#fdc221;"/><path d="M467.998,21.768l68.088,38.97l0.383,-0.328l-66.643,-45.49l-1.828,6.848Z" style="fill:#fdc221;"/><path d="M421.629,33.757l114.673,27.15l0.178,-0.453l-108.871,-33.095l-4.884,4.203l-1.096,2.195Z" style="fill:#fdc221;"/><path d="M536.621,59.745l-0.292,1.044l0.223,-0.058l-5.548,13.417l-7.461,3.158l12.004,-16.204l0.68,-0.488l-31.063,28.194l-27.037,17.054c16.316,-11.934 42.161,-34.367 55.579,-44.055c2.212,-1.596 2.641,-1.796 2.693,-1.668c0.045,0.114 -0.173,0.475 -0.172,0.475l28.683,0.059l4.765,-3.393l-28.22,3.013l55.255,-13.135l7.35,-3.797l-67.439,16.384Z" style="fill:#fdc221;"/><path d="M555.154,0l-4.496,0l-13.966,59.982l0.546,-0.283l17.916,-59.699Z" style="fill:#fdc221;"/><path d="M527.172,74.83l77.198,-31.923l30.184,60.557l-76.397,31.715l-30.583,-59.567l-0.402,-0.782Z" style="fill:#d5202c;"/><path d="M527.172,74.83l30.985,60.349l-51.125,30.309l-29.176,-59.963l49.316,-30.695" style="fill:#d5202c;"/><path d="M527.766,73.822l4.284,-1.653l28.51,62.389l-5.162,2.257l-31.903,-59.696" style="fill:#fdc221;"/><path d="M557.356,135.386l-50.324,30.102l60.405,-24.163l67.117,-37.861" style="fill:#fdc221;"/><path d="M477.011,0c-3.831,5.704 -6.922,12.835 -8.857,21.728c0,0 -31.706,-1.905 -45.679,11.81l-0.166,-17.028l8.462,-16.51" style="fill:#fdc221;"/><path d="M421.698,33.739c-1.018,-5.764 -0.112,-21.31 4.847,-33.739l40.897,0c0,0 -2.454,7.705 -2.861,12.398c0,0 -28.864,-2.038 -42.883,21.341Z" style="fill:#fff;"/><path d="M426.545,0l40.897,0" style="fill:none;"/></g><g><path d="M753.9,150.753l-10.653,44.21l-0.321,-0.127l6.684,-44.878l4.29,0.795Z" style="fill:#d5202c;"/><path d="M783.215,180.316l-39.849,14.652l-0.174,-0.209l39.665,-18.262l0.358,3.819Z" style="fill:#d5202c;"/><path d="M806.876,190.897l-63.64,4.141l-0.054,-0.257l61.08,-7.837l2.228,2.683l0.386,1.27Z" style="fill:#d5202c;"/><path d="M743.17,194.39l0.062,0.583l-0.114,-0.051l1.75,7.66l3.696,2.358l-4.943,-9.729l-0.319,-0.322l14.032,17.847l12.889,11.54c-7.63,-7.84 -19.397,-22.143 -25.683,-28.523c-1.036,-1.051 -1.248,-1.197 -1.287,-1.133c-0.034,0.057 0.049,0.269 0.049,0.269l-15.311,-2.556l-2.236,-2.241l14.786,4.154l-28.299,-11.994l-3.58,-2.69l34.508,14.828Z" style="fill:#d5202c;"/><path d="M739.281,132.077l3.83,62.433l-0.266,-0.2l-7.976,-63.968l4.412,1.735Z" style="fill:#d5202c;"/><path d="M746.851,203.292l-38.313,-24l-21.57,29.591l37.904,23.816l21.694,-29.026l0.285,-0.381Z" style="fill:#fdc221;"/><path d="M746.851,203.292l-21.979,29.407l24.547,20.786l20.978,-29.365l-23.546,-20.828" style="fill:#fdc221;"/><path d="M746.625,202.7l-2.136,-1.268l-20.843,30.719l2.551,1.67l22.41,-28.976" style="fill:#d5202c;"/><path d="M725.281,232.882l24.138,20.603l-30.053,-18.343l-32.398,-26.259" style="fill:#d5202c;"/><path d="M734.289,130.482c14.933,4.298 15.135,20.991 15.135,20.991c0,0 32.26,-2.198 33.711,28.808c0,0 17.091,1.844 23.309,10.423l1.626,-9.071l-4.875,-15.422l-12.841,-14.058l-19.644,-14.202l-19.21,-8.59l-17.124,0.926" style="fill:#d5202c;"/><path d="M806.841,190.882c0,0 22.705,-34.516 -5.695,-61.892c-28.4,-27.377 -61.6,-4.661 -66.857,1.492c0,0 16.393,0.233 21.642,18.506c0,0 32.29,-2.201 29.953,26.636c0,0 15.586,1.517 20.957,15.258Z" style="fill:#fff;"/></g></svg>