<?xml version="1.0" encoding="UTF-8" standalone="no"?><!DOCTYPE svg PUBLIC "-//W3C//DTD SVG 1.1//EN" "http://www.w3.org/Graphics/SVG/1.1/DTD/svg11.dtd"><svg width="100%" height="100%" viewBox="0 0 769 310" version="1.1" xmlns="http://www.w3.org/2000/svg" xmlns:xlink="http://www.w3.org/1999/xlink" xml:space="preserve" xmlns:serif="http://www.serif.com/" style="fill-rule:evenodd;clip-rule:evenodd;stroke-linecap:square;stroke-miterlimit:1.5;"><path d="M390.741,197.635c0,0 27.939,-86.78 84.652,-99.636c11.893,-2.696 33.65,-1.834 45.341,-1.694c41.823,0.5 79.716,-38.769 117.815,-46.69c70.836,-14.726 130.098,0 130.098,0l0,-49.615l-768,0l-0.647,47.615c31.025,8.127 63.55,-8.516 95.432,-4c42.885,6.075 78.417,32.933 122.249,33.362c0,0 49.793,-5.407 74.02,6.168c41.558,19.855 81.264,114.574 81.264,114.574l17.776,-0.084Z" style="fill:#d5f2e3;"/><path d="M768.647,297.587l0,-23.886c0,0 -16.848,2.328 -30.696,-0.252c-17.911,-3.336 -61.512,-5.518 -80.149,-2.566c-8.514,1.349 -34.333,7.319 -85.481,9.323c-41.988,1.645 -79.126,-6.278 -119.236,-6.577c-44.05,-0.329 -84.623,3.889 -95.586,4.229c-56.136,1.742 -87.558,-2.902 -98.165,1.465c-15.576,6.413 -86.635,10.215 -140.732,4.06c-62.572,-7.119 -125.701,4.72 -117.955,8.388c4.541,2.151 3.613,10.503 78.197,14.269c75.953,3.835 227.696,3.063 261.125,2.74c19.181,-0.186 44.282,-4.738 64.506,-5.195c9.801,-0.221 275.567,3.143 284.783,2.875c32.585,-0.947 79.389,-8.873 79.389,-8.873Z" style="fill:#d5f2e3;"/><clipPath id="_clip1"><rect id="_1" serif:id="1" x="239.178" y="127.214" width="295.079" height="171.291"/></clipPath><g clip-path="url(#_clip1)"><g><path d="M386.637,283.995c81.394,-0.17 147.481,2.867 147.489,6.777c0.008,3.91 -66.066,7.221 -147.459,7.391c-81.394,0.169 -147.481,-2.868 -147.489,-6.777c-0.008,-3.91 66.066,-7.222 147.459,-7.391Z" style="fill:#bdcbc4;"/><g><path d="M449.463,249.609l-6.524,1.932l11.276,32.97l3.745,-0.402l-8.497,-34.5Z" style="fill:#ffcba6;"/><path d="M453.174,249.89l6.743,-0.281l-3.439,15.025l21.557,-5.006l1.134,2.335l-28.042,9.189l2.047,-21.262Z" style="fill:#ffcba6;"/><path d="M452.303,282.295l6.829,-0.739l-0.219,7.38l-8.22,1.338c0,0 -3.904,-4.027 2.314,-4.843l-0.704,-3.136Z" style="fill:#fdc221;"/><path d="M473.216,265.637l-1.926,-6.593l7.303,-1.08l2.76,7.857c0,0 -3.279,4.551 -5.174,-1.427l-2.963,1.243Z" style="fill:#43281c;"/><path d="M453.029,201.462c0,0 -0.178,-3.122 1.302,-5.575c1.596,-2.645 -5.775,-4.25 -5.642,-6.944c0,0 -2.166,0.543 -2.821,2.604c-0.654,2.061 -1.962,3.748 3.255,7.595c0,0 -0.198,1.827 0.217,2.604c0.1,0.186 0.131,0.028 -0.21,0.011c-1.077,-0.056 -3.913,-0.662 -3.913,-0.662l-1.736,3.905l3.689,3.472c0,0 3.708,1.372 4.123,1.085c0.415,-0.287 6.292,-4.34 6.292,-4.34l0.652,-3.038l0,-1.518l-5.208,0.801Z" style="fill:#ffcba6;"/><path d="M447.979,189.219c0,0 8.321,-7.921 14.104,3.689c5.572,11.184 2.97,0.94 3.689,0.868c0,0 14.145,-4.973 16.057,2.604c1.911,7.576 0.791,4.405 -2.387,6.075c-3.178,1.671 -0.034,4.667 1.736,5.859c1.769,1.193 2.139,4.369 -0.651,6.944c-2.79,2.575 -0.809,2.872 -3.255,3.905c-2.446,1.034 -4.329,-0.353 -5.858,-0.216c-1.53,0.136 -2.933,1.932 -3.472,2.82c-0.54,0.889 -2.953,0.949 -4.774,-0.995c-1.821,-1.944 -2.163,1.362 -3.906,1.646c-1.742,0.284 -5.162,1.234 -6.943,-1.646c-1.781,-2.881 0.651,-9.42 0.651,-9.42l1.953,-3.038l3.688,-6.076l-5.858,-0.433l0.217,-3.689l0.868,-2.387c0,0 -4.222,-3.53 -4.774,-4.34c-0.552,-0.81 -1.085,-2.17 -1.085,-2.17Z" style="fill:#fdc221;"/><path d="M465.577,180.683l0.074,-2.772l-0.603,-0.803l-0.026,-0.563l1.272,0.047l0.463,-0.951c0.389,-0.49 1.14,0.02 2.064,1.006l-1.697,4.791l-1.547,-0.755Z" style="fill:#ffcba6;"/><path d="M429.438,179.658l-0.759,-2.668l0.385,-0.927l-0.114,-0.551l-1.221,0.359l-0.683,-0.806c-0.498,-0.378 -1.099,0.302 -1.751,1.486l2.83,4.221l1.313,-1.114Z" style="fill:#ffcba6;"/><path d="M433.471,257.14c0,0 2.921,-21.496 10.072,-31.071c0,0 6.439,-9.179 0.276,-16.729c0,0 -11.758,-7.884 -13.453,-12.802c-1.695,-4.919 -4.994,-11.06 -2.446,-16.156l1.518,-0.71l16.117,21.423c0,0 1.255,5.15 4.991,6.075c3.736,0.925 6.023,-3.428 4.774,-6.075c0,0 10.332,-9.279 10.415,-20.397l1.736,0c0,0 2.883,15.919 -6.51,24.736c0,0 -3.502,10.976 -3.277,18.039c0.054,1.704 0.955,3.96 1.448,4.88c2.536,4.734 5.433,13.773 9.285,29.086l-34.946,-0.299Z" style="fill:#d5202c;"/></g><g><path d="M500.172,274.134c0,0 16.446,8.812 12.901,12.44c-3.545,3.627 -5.282,4.632 -18.43,3.225c-12.944,-1.385 -17.351,-4.682 -18.891,-1.382l1.383,-9.215l6.45,-4.147l16.587,-0.921Z" style="fill:#d5202c;"/><path d="M494.816,283.719l-0.168,6.445l-6.838,-1.128l-0.215,-7.815c0,0 4.236,-3.127 4.216,2.76l3.005,-0.262Z" style="fill:#43281c;"/><path d="M496.055,243.3c0,0 -3.457,2.024 -4.016,1.597c-0.449,-0.342 6.22,-9.677 -2.434,-11.185c-7.768,-1.353 -3.219,9.743 -1.963,10.698c1.256,0.955 -3.017,1.248 -4.377,2.094c-1.36,0.846 1.434,2.941 1.882,3.101c0.449,0.16 6.359,0.99 6.359,0.99l3.568,-3.238l0.981,-4.057Z" style="fill:#ffcba6;"/><path d="M485.231,238.23c1.746,-1.388 3.901,-1.272 5.913,-3.264c2.585,-2.559 4.933,-7.098 5.873,-6.898c0.557,0.119 0.513,1.283 0.148,2.775c-0.601,2.456 -2.074,5.8 -3.173,6.833c-1.694,1.591 -1.247,-4.794 -4.287,-5.768c-1.407,-0.452 -9.226,-4.739 -10.146,-3.516c-1.696,2.255 4.252,10.968 5.672,9.838Z" style="fill:#43281c;"/><path d="M506.923,221.064l-2.366,-12.921l1.25,-0.228l1.879,13.009" style="fill:#43281c;"/><path d="M478.548,249.432c0,0 -3.059,-2.255 -6.128,-4.537c-3.07,-2.283 -6.149,-4.594 -6.191,-4.707c-0.442,-1.203 -2.048,-5.008 -4.675,-5.01c0,0 -0.788,0.672 -0.383,1.479c0.405,0.807 -0.848,0.274 -0.665,1.163c0.183,0.89 -0.299,0.947 0.215,1.513c0.515,0.566 0.198,0.375 1.13,1.263c0.543,0.518 2.293,0.696 2.561,1.626c0.205,0.713 3.217,3.442 6.207,6.017c3.051,2.628 7.573,4.082 7.573,4.082l0.356,-2.889Z" style="fill:#ffcba6;"/><path d="M499.553,240.22c0,0 2.837,-8.773 5.454,-14.985c0.145,-0.344 0.1,-1.693 0.245,-2.013c0.983,-2.178 1.94,-3.742 2.728,-3.973c0,0 0.946,0.423 0.784,1.311c-0.162,0.889 0.891,0.025 0.965,0.93c0.074,0.905 0.553,0.824 0.219,1.512c-0.335,0.687 -0.085,0.416 -0.729,1.53c-0.132,0.227 -1.118,0.787 -1.533,1.938c-1.614,4.481 -4.097,14.325 -4.097,14.325l-4.036,-0.575Z" style="fill:#ffcba6;"/><path d="M501.855,274.546l-20.616,0.329c0,0 -0.484,-16.738 -0.823,-20.957c-0.002,-0.03 -0.076,0.119 -0.226,0.072c-3.419,-1.067 -7.397,-1.77 -6.393,-3.168c1.139,-1.585 1.408,-3.758 1.669,-4.643c0.231,-0.785 1.855,-0.072 3.115,0.679c0.42,0.251 2.002,-0.333 2.039,-0.348c2.891,-1.169 5.665,-0.971 5.665,-0.971c0,0 2.75,3.754 6.385,-0.573c0.145,-0.172 2.36,-1.072 2.451,-1.264c1.761,-3.678 2.115,-4.198 4.54,-5.371l4.209,1.814c0,0 1.62,7.197 -2.546,10.45c0,0 4.007,20.567 0.531,23.951Z" style="fill:#fdc221;"/><path d="M505.37,206.702l-0.353,-8.981l-1.25,0.229l1.603,8.752Z" style="fill:#fdc221;"/><path d="M504.427,206.941l-6.433,-6.277l-0.75,1.026l7.183,5.251Z" style="fill:#d5202c;"/><path d="M503.907,207.763l-8.987,-0.133l0.161,1.261l8.826,-1.128Z" style="fill:#d5202c;"/><path d="M503.244,208.776l-6.615,6.085l0.984,0.805l5.631,-6.89Z" style="fill:#fdc221;"/><path d="M504.166,209.716l-2.161,8.725l1.265,0.128l0.896,-8.853Z" style="fill:#d5202c;"/><path d="M506.617,209.267l5.72,6.934l0.856,-0.94l-6.576,-5.994Z" style="fill:#d5202c;"/><path d="M506.512,208.178l8.921,1.1l-0.025,-1.272l-8.896,0.172Z" style="fill:#fdc221;"/><path d="M506.372,207.415l7.232,-5.337l-0.891,-0.906l-6.341,6.243Z" style="fill:#d5202c;"/><path d="M452.743,290.409l-1.266,-23.132l34.165,-3.265l0.643,25.037l-33.542,1.36Z" style="fill:#0a4c2a;"/><path d="M452.018,280.044l-0.308,-2.113l34.381,-7.117l0.315,2.495l-34.388,6.735Z" style="fill:#d5202c;"/><path d="M467.057,265.946l0.959,-0.458l1.177,0.426l2.049,23.515l-2.515,0.006l-1.67,-23.489Z" style="fill:#d5202c;"/><path d="M468.104,264.884c0,0 -4.913,-4.96 -6.372,-2.524c-1.41,2.353 5.276,2.621 6.207,2.699c0.032,0.003 -5.556,-0.46 -6.03,0.9c-0.474,1.359 6.286,-0.711 6.084,-0.932c-0.007,-0.008 -0.027,0.021 -0.057,0.047c-0.998,0.875 -5.502,5.077 -7.207,5.41l1.508,0.394l-0.848,1.513c0,0 5.69,-1.754 6.678,-6.732c0,0 6.177,3.137 7.906,2.603l-1.885,-1.483l2.766,-1.261c0,0 -7.903,0.642 -8.711,-0.495c0,0 4.408,-1.383 3.704,-2.959c-0.692,-1.55 -3.161,1.915 -3.68,2.91c-0.008,0.017 2.73,-3.806 1.014,-4.886c-1.715,-1.079 -2.098,2.095 -1.077,4.796Z" style="fill:#d5202c;"/></g><g><g><path d="M349.76,252.994l7.977,2.528l-0.048,24.199l-3.973,1.504l-3.956,-28.231Z" style="fill:#ffcba6;"/><path d="M360.204,278.425l-9.086,0.683l2.066,7.762l11.046,-0.238c0,0 4.122,-6.196 -4.187,-5.761l0.161,-2.446Z" style="fill:#d5202c;"/><path d="M341.484,254.847l-6.989,1.489l1.405,24.826l4.288,-0.732l1.296,-25.583Z" style="fill:#ffcba6;"/><path d="M334.214,235.342l-3.914,22.525l13.619,0.891l1.68,-17.398l1.383,16.388l13.849,-0.684l-3.866,-24.304l-22.751,2.582Z" style="fill:#43281c;"/><path d="M332.754,194.792c0,0 7.366,0.163 8.079,-0.529c0.573,-0.557 -10.354,-12.537 1.538,-16.106c10.672,-3.203 6.153,13.133 4.55,14.684c-1.602,1.55 4.444,1.244 6.494,2.203c2.051,0.958 -1.518,4.368 -2.12,4.668c-0.602,0.3 -8.758,2.457 -8.758,2.457l-5.55,-3.945l-4.233,-3.432Z" style="fill:#ffcba6;"/><path d="M349.267,183.763c-11.541,-7.121 -18.605,-3.283 -12.387,0.693c2.28,1.458 0.348,-7.741 5.047,-8.814c5.932,-1.355 10.707,10.199 7.34,8.121Z" style="fill:#43281c;"/><path d="M370.934,222.744c0,0 6.792,8.108 6.004,9.573c0,0 -1.462,1.682 -2.097,0.574c-1.399,-2.446 -1.257,0.504 -1.893,0.411c-1.269,-0.187 -0.653,-1.35 -1.012,-2.37c-0.36,-1.019 -3.58,-6.07 -3.58,-6.07l2.578,-2.118Z" style="fill:#ffcba6;"/><path d="M321.663,228.024c0,0 -3.395,10.017 -2.131,11.098c0,0 1.973,1.037 2.163,-0.225c0.419,-2.787 1.354,0.015 1.913,-0.302c1.116,-0.634 0.12,-1.495 0.086,-2.576c-0.034,-1.08 1.139,-6.954 1.139,-6.954l-3.17,-1.041Z" style="fill:#ffcba6;"/><path d="M334.204,236.43l24.644,-1.55c0,0 1.817,-7.57 0.862,-15.092c-0.692,-5.442 -2.041,-11.221 -2.139,-13.731c-0.15,-3.855 3.831,11.642 9.876,21.085c2.328,3.637 6.604,-2.963 6.604,-2.963c0,0 -10.187,-18.554 -14.236,-25.928c-1.026,-1.869 -2.874,-3.143 -4.985,-3.439c-2.334,-0.327 -5.029,-0.705 -5.029,-0.705c0,0 -3.058,3.807 -6.221,3.92c-3.037,0.109 -5.78,-3.466 -6.426,-3.337c-0.482,0.096 -6.731,-0.651 -10.01,2.273c-0.682,0.608 -7.576,31.845 -7.576,31.845c0.028,1.166 -0.802,3.514 0.115,3.661c2.566,0.408 6.797,2.466 7.012,-0.449c0.152,-2.055 3.613,-20.166 3.714,-23.123c0,0 -0.925,23.005 3.795,27.533Z" style="fill:#fdc221;"/><path d="M333.479,280.243l9.079,-0.777l-0.51,7.969l-10.943,1.529c0,0 -5.058,-5.458 3.214,-6.356l-0.84,-2.365Z" style="fill:#d5202c;"/></g><path d="M338.325,187.544l5.074,-1.088l4.719,0c0.43,0.782 0.452,1.972 0.008,3.627c0,0 -2.269,4.749 -4.361,4.353c-2.092,-0.396 -4.178,-2.364 -4.715,-3.627c-0.779,-1.089 -1.032,-2.177 -0.725,-3.265Z" style="fill:#d5f2e3;"/></g><g><g><path d="M419.915,258.921l-7.195,2.438l0.62,21.06l3.649,1.19l2.926,-24.688Z" style="fill:#ffcba6;"/><path d="M411.022,281.365l8.28,0.324l-1.694,6.816l-10.051,0.123c0,0 -3.896,-5.269 3.67,-5.139l-0.205,-2.124Z" style="fill:#fdc221;"/><path d="M427.485,260.286l6.391,1.086l-0.686,21.649l-3.918,-0.509l-1.787,-22.226Z" style="fill:#ffcba6;"/><path d="M433.426,240.864l5.254,32.022l-12.362,1.207l-2.833,-24.727l-0.037,23.279l-12.689,-1.03l1.712,-34.517l20.955,3.766Z" style="fill:#43281c;"/><path d="M433.993,207.759c0,0 -6.695,0.362 -7.359,-0.22c-0.535,-0.467 9.15,-10.111 -1.749,-12.861c-9.782,-2.469 -5.316,10.504 -3.822,11.806c1.494,1.301 -4.011,1.216 -5.853,2.111c-1.842,0.896 1.485,3.757 2.039,4c0.555,0.243 8.023,1.876 8.023,1.876l4.954,-3.599l3.767,-3.113Z" style="fill:#ffcba6;"/><path d="M417.85,196.394c-0.236,1.153 1.799,-0.777 4.579,-0.657c3.184,0.137 7.207,2.235 7.576,2.298c0.219,0.038 0.25,-0.492 0.647,-0.738c0.45,-0.279 1.26,-0.295 1.368,-0.574c0.182,-0.47 -0.325,-0.599 -1.208,-0.782c-0.391,-0.081 0.995,-0.843 0.791,-1.221c-0.167,-0.307 -1.444,0.148 -1.652,-0.171c-0.271,-0.418 0.119,-1.211 -0.283,-1.563c-0.226,-0.197 -0.428,1.084 -0.696,0.889c-0.117,-0.086 -1.405,-0.497 -1.615,-0.962c-0.224,-0.494 0.625,-1.046 0.363,-1.179c-0.696,-0.355 -1.441,0.708 -1.892,0.281c-0.333,-0.316 0.417,-0.967 0.055,-1.067c-0.166,-0.046 -0.937,-0.193 -1.509,0.43c-0.34,0.369 -0.588,1.728 -0.659,1.578c-0.518,-1.094 -0.883,-0.657 -1.192,-1.029c-1.047,-1.261 -1.095,-0.195 -1.204,0.653c-0.11,0.851 -0.649,-0.779 -1.361,-0.592c-0.484,0.128 -0.196,1.685 -0.71,1.715c-1.38,0.08 -0.083,0.364 -0.725,0.479c-0.942,0.168 -3.33,0.313 0.05,1.671c0.279,0.112 -0.659,0.227 -0.723,0.541Z" style="fill:#43281c;"/><path d="M404.809,221.838c0,0 -0.181,15.602 -0.708,17.144c-0.907,2.66 -2.522,5.005 -1.823,5.609c0,0 1.747,0.919 1.961,-0.188c0.474,-2.441 1.223,0.02 1.739,-0.256c1.029,-0.551 0.159,-1.31 0.165,-2.258c0.006,-0.948 2.337,-18.29 2.337,-18.29l-3.671,-1.761Z" style="fill:#ffcba6;"/><path d="M442.24,222.739c0,0 2.683,9.735 3.719,16.055c0.538,3.285 1.461,6.144 1.093,6.464c0,0 -1.769,0.962 -1.972,-0.131c-0.447,-2.412 -1.231,0.054 -1.747,-0.205c-1.03,-0.519 -0.145,-1.298 -0.139,-2.239c0.002,-0.344 0.548,-2.368 0.345,-3.365c-0.354,-1.736 -4.126,-14.551 -4.126,-14.551l2.827,-2.028Z" style="fill:#ffcba6;"/><path d="M433.666,244.039l-22.448,-0.612c0,0 -1.833,-6.533 -1.143,-13.109c0.351,-3.342 1.724,-11.245 0.941,-11.424c-0.332,-0.076 -0.344,2.293 -1.15,5.508c-0.929,3.705 -6.402,-0.892 -6.402,-0.892c1.406,-8.636 3.265,-10.359 5.904,-12.997c1,-1.021 2.298,-1.698 3.708,-1.934c2.243,-0.378 5.399,-0.907 5.399,-0.907c0,0 2.871,3.221 5.75,3.226c2.765,0.004 5.174,-3.189 5.764,-3.097c0.441,0.07 6.106,-0.768 9.158,1.68c0.635,0.508 4.592,12.04 4.592,12.04c0.002,1.016 0.813,3.035 -0.018,3.19c-2.323,0.432 -6.122,2.349 -6.387,-0.181c-0.187,-1.784 -0.71,-1.996 -0.872,-4.566c0,0 1.389,19.994 -2.796,24.075Z" style="fill:#d5f2e3;"/><path d="M435.37,282.149l-8.275,-0.405l0.653,6.92l9.988,1.004c0,0 4.47,-4.901 -3.074,-5.435l0.708,-2.084Z" style="fill:#fdc221;"/></g><path d="M428.882,201.811l-4.804,-1.109l-4.072,0.739c-0.439,0.797 -0.09,1.611 0.362,3.299c0,0 1.566,3.718 3.706,3.358c1.034,-0.174 2.73,-1.238 3.728,-2.721c0.875,-1.3 1.128,-3.008 1.08,-3.566Z" style="fill:#d5f2e3;"/><path d="M485.493,239.755l4.217,-0.999l3.574,0.665c0.386,0.718 0.081,1.451 -0.316,2.97c0,0 -1.375,3.348 -3.255,3.024c-0.907,-0.156 -2.395,-1.115 -3.272,-2.449c-0.768,-1.171 -0.99,-2.709 -0.948,-3.211Z" style="fill:#d5f2e3;"/><path d="M453.961,195.886l-2.215,-2.218l-5.921,-0.37c-1.785,1.385 2.459,6.944 5.178,6.114c2.076,-0.634 3.272,-2.416 2.958,-3.526Z" style="fill:#d5f2e3;"/></g><g><path d="M386.134,249.544l8.134,2.905l-0.049,27.808l-4.051,1.728l-4.034,-32.441Z" style="fill:#ffcba6;"/><path d="M396.784,278.767l-9.265,0.786l2.106,8.919l11.264,-0.274c0,0 4.202,-7.119 -4.27,-6.619l0.165,-2.812Z" style="fill:#43281c;"/><path d="M377.696,251.674l-7.126,1.71l1.432,28.528l4.373,-0.84l1.321,-29.398Z" style="fill:#ffcba6;"/><path d="M370.283,229.259l-3.991,25.885l13.887,1.023l1.713,-19.992l1.41,18.832l14.121,-0.785l-3.942,-27.93l-23.198,2.967Z" style="fill:#bdcbc4;"/><path d="M368.794,182.662c0,0 7.511,0.187 8.238,-0.609c0.584,-0.639 -10.557,-14.405 1.568,-18.506c10.882,-3.681 6.274,15.09 4.64,16.872c-1.634,1.782 4.531,1.431 6.622,2.532c2.09,1.102 -1.549,5.021 -2.162,5.365c-0.614,0.344 -8.93,2.822 -8.93,2.822l-5.66,-4.533l-4.316,-3.943Z" style="fill:#ffcba6;"/><path d="M381.191,165.92c-1.325,-0.536 -1.493,0.518 -2.4,0.177c-6.284,-2.362 -8.989,-4.75 -5.51,-8.03c4.467,-4.213 11.799,9.428 7.91,7.853Z" style="fill:#fdc221;"/><path d="M370.273,230.509l25.129,-1.78c0,0 1.113,-8.699 0.138,-17.344c-0.705,-6.253 -1.342,-15.853 -1.441,-18.736c-0.067,-1.945 0.111,-1.764 1.871,-1.019c2.25,0.954 4.397,6.259 9.099,11.31c1.353,1.453 -0.266,5.724 -1.151,9.113c-0.93,3.561 5.542,5.209 6.122,4.333c0.261,-0.394 1.214,-9.748 1.512,-12.732c0.078,-0.783 -0.062,-1.573 -0.404,-2.281c-2.143,-4.407 -10.23,-13.598 -14.757,-17.06c-0.892,-0.682 -1.941,-1.132 -3.051,-1.307c-2.42,-0.382 -7.164,-1.131 -7.164,-1.131c0,0 -3.118,4.374 -6.343,4.504c-3.097,0.126 -5.894,-3.982 -6.552,-3.834c-0.492,0.11 -6.863,-0.749 -10.207,2.612c-0.315,0.316 -9.324,8.953 -10.995,17.099c-2.02,9.85 -1.224,13.237 -0.31,12.976c2.246,-0.639 1.794,-0.803 4.233,-1.564c1.47,-0.458 0.478,-3.079 1.563,-10.358c0.582,-3.909 8.802,-9.91 8.838,-11.097c0,0 -0.943,33.093 3.87,38.296Z" style="fill:#0a4c2a;"/><path d="M381.528,213.613c0,0 0.296,-11.428 9.513,-12.944c9.217,-1.516 31.306,22.212 -7.027,51.037c-3.959,0.516 -49.553,-39.956 -17.751,-49.927c13.999,-4.389 15.265,11.834 15.265,11.834Z" style="fill:#d5202c;"/><path d="M407.574,215.949c0,0 -2.506,5.994 -4.37,6.054c0,0 -2.401,-0.437 -1.567,-1.596c1.841,-2.559 -1.104,-0.872 -1.307,-1.498c-0.404,-1.248 1.073,-1.304 1.945,-2.168c0.872,-0.863 3.13,-1.992 3.13,-1.992l2.169,1.2Z" style="fill:#ffcba6;"/><path d="M366.403,192.213c0,0 27.795,3.319 27.696,0.436c-0.067,-1.945 6.268,5.24 10.97,10.291c1.353,1.453 -0.266,5.354 -1.151,8.743c-0.93,3.561 5.542,5.579 6.122,4.703c0.261,-0.394 1.214,-9.748 1.512,-12.732c0.078,-0.783 -0.062,-1.573 -0.404,-2.281c-2.143,-4.407 -10.23,-13.598 -14.757,-17.06c-0.892,-0.682 -1.941,-1.132 -3.051,-1.307c-2.42,-0.382 -7.164,-1.131 -7.164,-1.131c0,0 -3.118,4.374 -6.343,4.504c-3.097,0.126 -5.894,-3.982 -6.552,-3.834c-0.492,0.11 -6.863,-0.749 -10.207,2.612c-0.315,0.316 -9.324,8.953 -10.995,17.099c-2.02,9.85 -1.224,13.237 -0.31,12.976c2.246,-0.639 1.794,-0.803 4.233,-1.564c1.47,-0.458 0.478,-3.079 1.563,-10.358c0.582,-3.909 8.802,-9.91 8.838,-11.097Z" style="fill:#0a4c2a;"/><path d="M353.294,214.691c0,0 -0.015,6.208 1.673,6.801c0,0 2.325,0.248 1.898,-1.151c-0.942,-3.09 1.264,-0.558 1.631,-1.127c0.731,-1.136 -0.604,-1.613 -1.152,-2.729c-0.547,-1.114 -2.329,-2.817 -2.329,-2.817l-1.721,1.023Z" style="fill:#ffcba6;"/><path d="M369.533,280.856l9.258,-0.892l-0.52,9.157l-11.158,1.757c0,0 -5.157,-6.272 3.277,-7.303l-0.857,-2.719Z" style="fill:#43281c;"/></g><path d="M374.181,173.293l5.174,-1.251l4.812,0c0.439,0.898 0.46,2.266 0.008,4.168c0,0 -2.313,5.456 -4.446,5.002c-2.133,-0.455 -4.26,-2.716 -4.808,-4.168c-0.795,-1.251 -1.053,-2.501 -0.74,-3.751Z" style="fill:#d5f2e3;"/><g><g><path d="M326.292,157.743c0,0 1.895,3.365 1.144,7.035c-0.687,3.353 -3.299,7.056 -3.886,11.673c-1.122,8.834 3.119,11.424 6.439,15.673c9.924,12.696 -1.829,34.347 -5.991,35.627" style="fill:none;stroke:#43281c;stroke-width:0.35px;"/><path d="M324.47,155.919c0,0 -27.192,-9.64 -12.023,-24.067c15.168,-14.426 27.1,7.959 12.023,24.067Z" style="fill:#d5202c;"/><path d="M324.652,155.373l2.552,1.459c0,0 -1.597,2.383 -2.371,1.64c-0.773,-0.744 -0.91,-2.735 -0.91,-2.735l0.729,-0.364Z" style="fill:#d5202c;"/></g><g><path d="M324.554,221.475l5.019,0.562c0,0 1.448,0.538 0.993,1.017c-0.456,0.48 0.592,1.832 -0.03,2.513c-0.623,0.681 -2.01,-0.024 -2.01,-0.024c-0.688,0.625 -0.928,-1.157 -3.996,-2.058c-4.738,-1.391 0.024,-2.01 0.024,-2.01Z" style="fill:#ffcba6;"/><path d="M321.925,219.371l4.686,2.129c0,0 1.013,1.12 0.421,1.414c-0.592,0.294 -0.976,-0.692 -5.818,-1.663c-4.842,-0.97 0.711,-1.88 0.711,-1.88Z" style="fill:#ffcba6;"/><path d="M316.353,230.334c0,0 15.025,9.652 -0.265,55.197l-3.836,-0.518l0.614,-27.082c0,0 -3.79,-6.023 -5.446,-10.679c-1.446,-4.068 -11.323,-17.102 -11.323,-17.102l20.256,0.184Z" style="fill:#0a4c2a;"/><path d="M303.295,230.854c0.897,-2.017 21.351,3.448 0.069,54.674l-3.837,-0.517l0.268,-26.477c0,0 -3.797,-4.28 -5.52,-8.254c-3.051,-7.039 0.552,-21.714 2.529,-19.774l6.491,0.348Z" style="fill:#0a4c2a;"/><path d="M313.46,182.645c0,0 2.947,-2.289 1.035,-2.5c-1.912,-0.212 4.103,-0.968 1.531,-1.992c-2.571,-1.024 0.488,-2.303 -0.857,-2.021c-1.346,0.283 -0.841,-2.844 -2.618,-1.538c-1.776,1.305 -3.107,-0.766 -3.456,-0.042c-0.349,0.724 -2.693,-0.474 -3.082,0.466c-0.39,0.939 -1.258,-0.207 -1.52,0.987c-0.262,1.193 -2.316,-0.472 -2.524,0.975c-0.208,1.446 -2.42,-1.611 -2.519,0.472c-0.098,2.083 -2.634,0.407 -2.034,1.986c0.6,1.579 -1.28,1.304 -0.527,2.068c0.753,0.764 -1.431,0.845 -0.023,1.946c1.408,1.101 0.145,2.086 0.975,2.524c0.83,0.439 -1.177,1.316 0.987,1.52c2.163,0.204 -0.303,0.091 1.997,1.029c2.301,0.937 2.507,0.532 2.507,0.532l4.074,-4.474l6.054,-1.938Z" style="fill:#d5202c;"/><path d="M313.46,182.645c0,0 5.403,7.586 -3.807,10.006c0,0 -1.348,-0.839 -0.054,4.522c1.294,5.362 -6.878,0.923 -6.878,0.923l1.017,-0.993c0,0 0.59,-5.884 -0.406,-8.046c-0.371,-0.804 -1.465,-2.177 -0.438,-2.771c0.258,-0.149 0.261,-0.206 1.473,0.271c0.449,0.177 0.867,-1.785 1.218,-1.836c0.501,-0.072 0.444,0.703 0.891,0.402c0.346,-0.233 0.458,-0.906 0.488,-1.351c0.066,-1 1.444,0.156 1.531,-0.833c0.038,-0.422 1.211,-1.628 2.296,-1.348c0.972,0.251 1.348,0.177 2.669,1.054" style="fill:#ffcba6;"/><path d="M310.27,197.181c0,0 -4.948,2.664 -6.532,-0.078c-1.583,-2.742 -8.734,5.492 -9.35,9.94c-0.616,4.447 1.443,7.111 2.565,11.086l-1.155,12.551l21.105,0.252l-0.425,-6.538c2.894,1.181 5.546,0.651 8.052,-0.909l0.024,-2.01l-9.505,-3.632c0,0 -0.811,-15.749 -4.779,-20.662Z" style="fill:#bdcbc4;"/><path d="M314.473,212.406l-0.846,6.651l7.891,1.839l0.696,-1.886l-2.931,-2.855l-4.81,-3.749Z" style="fill:#bdcbc4;"/><path d="M317.725,284.535c0,0 7.483,2.169 7.997,3.614c0.515,1.445 -0.012,1.005 -0.012,1.005l-14.069,-0.168l0.054,-4.523l6.03,0.072Z" style="fill:#43281c;"/><path d="M304.302,284.392c0,0 7.016,3.388 7.282,4.899c0.265,1.511 -0.18,0.989 -0.18,0.989l-13.844,-2.516l0.809,-4.45l5.933,1.078Z" style="fill:#43281c;"/></g></g><g><path d="M246.781,233.022c3.137,-1.216 6.672,0.344 7.888,3.481c1.216,3.137 -0.344,6.672 -3.481,7.887c-3.138,1.216 -6.672,-0.343 -7.888,-3.481c-1.216,-3.137 0.344,-6.671 3.481,-7.887Z" style="fill:#43281c;"/><path d="M241.586,234.393c1.39,-0.538 2.955,0.153 3.494,1.542c0.538,1.389 -0.152,2.955 -1.542,3.493c-1.39,0.539 -2.955,-0.152 -3.494,-1.541c-0.538,-1.39 0.153,-2.955 1.542,-3.494Z" style="fill:#43281c;"/><path d="M249.071,229.873c1.389,-0.539 2.954,0.152 3.493,1.542c0.538,1.389 -0.152,2.955 -1.542,3.493c-1.389,0.539 -2.955,-0.152 -3.493,-1.542c-0.539,-1.389 0.152,-2.954 1.542,-3.493Z" style="fill:#43281c;"/><path d="M253.962,240.554c4.706,-0.684 9.083,2.582 9.767,7.288c0.684,4.707 -2.581,9.083 -7.288,9.768c-4.706,0.684 -9.083,-2.582 -9.767,-7.289c-0.684,-4.706 2.582,-9.083 7.288,-9.767Z" style="fill:#43281c;"/><path d="M257.992,242.304c0,0 -0.427,-6.603 1.457,-7.745c1.883,-1.141 4.633,4.21 1.005,8.641" style="fill:#43281c;"/><path d="M248.546,249.715c0,0 -6.682,0.09 -7.986,1.864c-1.305,1.775 3.924,3.888 8.66,0.669" style="fill:#43281c;"/><path d="M252.545,255.606c0,0 4.937,8.026 2.628,10.079c-2.309,2.053 -3.586,0.626 -2.92,4.143c0.667,3.517 6.042,2.036 7.062,-1.225c1.019,-3.261 -1.798,-13.984 -1.798,-13.984" style="fill:#43281c;"/><path d="M261.413,252.281c0,0 2.808,9.903 5.833,9.278c3.026,-0.625 2.645,-2.501 5.067,0.135c2.422,2.635 -0.641,3.396 -4.523,3.782c-3.4,0.338 -10.14,-9.797 -10.14,-9.797" style="fill:#43281c;"/></g><g><path d="M280.191,200.91l0,-4.007l-0.704,-4.675l-4.292,-0.668l0.703,-0.668l-3.452,-1.336l-2.112,-0.668l-1.408,1.336c0,0 -0.435,1.916 0,2.004c0.435,0.088 1.408,2.003 1.408,2.003c0,0 -0.245,1.094 0.263,2.475c0.416,1.135 1.341,2.462 3.325,3.536c4.398,2.381 6.269,0.668 6.269,0.668Z" style="fill:#ffcba6;"/><path d="M280.895,186.885l-4.928,-11.354l-4.225,11.354c-0.191,0.148 4.856,3.759 9.153,0Z" style="fill:#fdc221;"/><path d="M266.339,224.337l-3.809,8.812c0,0 0.066,3.251 -1.306,3.508c0,0 -0.94,1.117 0.189,-0.923c0,0 -0.246,-1.11 -3.017,0.997c-2.365,1.798 0.317,-1.265 1.334,-3.083c0.174,-0.312 0.3,-0.587 0.342,-0.795c0.042,-0.206 0.134,-0.566 0.261,-1.034c0.748,-2.753 2.042,-7.661 2.042,-7.661l2.344,-2.055l1.62,2.234Z" style="fill:#ffcba6;"/><path d="M293.493,223.628l7.688,-7.81c0,0 3.243,-1.598 2.883,-2.929c0,0 0.448,-0.788 -0.961,0.976c0,0 -0.857,0.436 -0.102,-2.832c0.644,-2.79 -1.041,0.748 -2.292,2.33c-0.214,0.271 -0.416,0.485 -0.591,0.599c-0.174,0.113 -0.47,0.328 -0.85,0.614c-2.24,1.681 -7.387,5.797 -7.387,5.797l-0.893,2.864l2.505,0.391Z" style="fill:#ffcba6;"/><path d="M286.516,226.29l0.479,-1.803c0.386,2.51 4.409,0.398 6.628,-0.859l-0.813,-4.017l-4.17,-0.668c0,0 0.412,-15.957 -2.124,-15.361c0,0 -3.117,0.024 -4.917,-0.668l-1.151,-2.265c0,0 -5.351,0.521 -6.594,-0.407l-0.704,2.672c0,0 -3.171,-0.042 -4.928,0.668c-5.728,2.313 -7.575,21.062 -6.329,21.946l3.499,1.418c3.83,-3.38 2.537,-7.593 3.833,-12.452l1.813,2.445c0,0 0.665,6.842 2.112,8.683l13.366,0.668Z" style="fill:#d5202c;"/><path d="M290.454,237.794l-1.408,10.686l-9.438,2.004l-0.407,-6.215c0,0 0.115,5.267 -0.373,5.224c-2.515,-0.222 -10.247,-1.487 -10.201,-3.685c0.055,-2.624 -0.704,-8.682 -0.704,-8.682l21.826,-0.668l0.705,1.336Z" style="fill:#ffcba6;"/><path d="M289.046,248.48c0,0 -0.283,11.581 -1.409,14.025c-1.125,2.445 -3.874,21.021 -4.928,22.04c-1.054,1.02 -3.101,0 -3.101,0l1.693,-20.721l-1.693,-13.34l9.438,-2.004Z" style="fill:#ffcba6;"/><path d="M279.188,248.741c0,0 -0.402,8.629 -2.816,9.757c-2.413,1.128 -25.347,13.358 -25.347,13.358l0,-2.672l18.118,-14.141l-0.516,-9.235c0,0 8.007,2.977 10.561,2.933Z" style="fill:#ffcba6;"/><path d="M286.516,223.628c0,0 6.998,19.618 3.867,26.74l-25.347,-0.668c0,0 5.389,-24.164 7.375,-26.549c1.359,-1.633 14.105,0.477 14.105,0.477Z" style="fill:#d5202c;"/><path d="M271.455,196.224l0,1.825c0,0 -0.015,1.136 2.959,2.589c2.973,1.454 5.917,-2.967 5.917,-2.967l-0.74,-1.447l-4.324,-0.739l-3.812,0.739Z" style="fill:#d5f2e3;"/><path d="M279.487,197.09c0,0.116 0.053,0.226 0.144,0.298c0.092,0.072 0.211,0.099 0.324,0.072c1.352,-0.321 5.165,-1.225 5.165,-1.225c0,0 0.39,-7.713 -4.225,-9.35c-4.576,-1.624 -7.848,-3.455 -13.24,4.473c-0.09,0.13 -0.161,0.271 -0.213,0.42c-0.38,1.078 -2.036,5.793 -2.036,5.793l6.039,0.918c0,0 -0.164,-3.86 -0.283,-6.685c-0.022,-0.516 0.261,-0.998 0.723,-1.229c0.461,-0.232 1.017,-0.172 1.417,0.154c0.607,0.493 1.23,1 1.721,1.399c0.598,0.487 1.381,0.685 2.139,0.541c0.44,-0.084 0.933,-0.177 1.351,-0.257c0.24,-0.045 0.488,0.019 0.677,0.175c0.188,0.156 0.297,0.387 0.297,0.632l0,3.871Z" style="fill:#43281c;"/><path d="M251.729,268.923l-3.52,-2.672l-6.337,8.683c0,0 -0.905,1.492 2.817,0c3.721,-1.492 3.638,-2.374 5.917,-2.672c2.28,-0.297 1.123,-3.339 1.123,-3.339Z" style="fill:#fdc221;"/><path d="M279.868,282.543l-1.938,3.861l5.666,3.715c0,0 4.235,0.286 5.446,0.244c0.723,-0.025 -0.594,-1.647 -1.397,-2.69c-0.816,-1.062 -1.457,-1.059 -1.979,-1.556c-1.003,-0.954 -1.571,-1.96 -2.114,-3.3c-0.826,-2.037 -3.684,-0.274 -3.684,-0.274Z" style="fill:#fdc221;"/></g><path d="M303.471,188.804l7.767,-4.099l3.328,0c0,0 3.385,7.083 -4.808,8.167l-6.287,-4.068Z" style="fill:#d5f2e3;"/><g><path d="M346.603,136.973l1.709,-5.022c0,0 0.914,-2.341 3.573,-1.236c2.659,1.105 14.125,4.807 14.125,4.807c0,0 4.097,1.064 2.698,4.421c-1.399,3.358 -2.671,7.847 -2.671,7.847c0,0 -1.154,2.877 -3.786,1.864c-2.633,-1.013 -5.022,-1.709 -5.022,-1.709l-3.894,2.177l-1.128,-3.887l-5.651,-1.923c0,0 -1.884,-1.409 -1.342,-3.259c0.542,-1.849 1.389,-4.08 1.389,-4.08Z" style="fill:#f77178;"/><path d="M346.603,136.973l1.709,-5.022c0,0 0.914,-2.341 3.573,-1.236c2.659,1.105 14.125,4.807 14.125,4.807c0,0 4.097,1.064 2.698,4.421c-1.399,3.358 -2.671,7.847 -2.671,7.847c0,0 -1.154,2.877 -3.786,1.864c-2.633,-1.013 -5.022,-1.709 -5.022,-1.709l-3.894,2.177l-1.128,-3.887l-5.651,-1.923c0,0 -1.884,-1.409 -1.342,-3.259c0.542,-1.849 1.389,-4.08 1.389,-4.08Z" style="fill:#d5202c;"/><path d="M346.603,136.973l1.709,-5.022c0,0 0.914,-2.341 3.573,-1.236c2.659,1.105 14.125,4.807 14.125,4.807c0,0 4.097,1.064 2.698,4.421c-1.399,3.358 -2.671,7.847 -2.671,7.847c0,0 -1.154,2.877 -3.786,1.864c-2.633,-1.013 -5.022,-1.709 -5.022,-1.709l-3.894,2.177l-1.128,-3.887l-5.651,-1.923c0,0 -1.884,-1.409 -1.342,-3.259c0.542,-1.849 1.389,-4.08 1.389,-4.08Z" style="fill:none;stroke:#9e003d;stroke-width:1.04px;stroke-linecap:round;stroke-linejoin:round;"/><path d="M346.603,136.973l1.709,-5.022c0,0 0.914,-2.341 3.573,-1.236c2.659,1.105 14.125,4.807 14.125,4.807c0,0 4.097,1.064 2.698,4.421c-1.399,3.358 -2.671,7.847 -2.671,7.847c0,0 -1.154,2.877 -3.786,1.864c-2.633,-1.013 -5.022,-1.709 -5.022,-1.709l-3.894,2.177l-1.128,-3.887l-5.651,-1.923c0,0 -1.884,-1.409 -1.342,-3.259c0.542,-1.849 1.389,-4.08 1.389,-4.08Z" style="fill:none;stroke:#9e003d;stroke-width:1.04px;stroke-linecap:round;stroke-linejoin:round;"/><path d="M354.605,143.949l1.791,0.613l1.052,-3.079l3.162,1.081l0.648,-1.896l-3.161,-1.081l1.008,-2.951l-1.791,-0.612l-1.009,2.95l-3.055,-1.044l-0.649,1.896l2.908,0.928l-0.904,3.195Z" style="fill:#fff;"/></g><g><path d="M434.384,171.048l-2.624,-4.611c0,0 -1.145,-2.236 1.446,-3.493c2.59,-1.257 12.967,-7.38 12.967,-7.38c0,0 3.514,-2.36 5.098,0.914c1.584,3.274 4.1,7.204 4.1,7.204c0,0 1.387,2.772 -1.117,4.069c-2.505,1.298 -4.611,2.624 -4.611,2.624l-0.953,4.358l-3.657,-1.733l-5.187,2.952c0,0 -2.305,0.475 -3.33,-1.158c-1.024,-1.632 -2.132,-3.746 -2.132,-3.746Z" style="fill:#d5202c;"/><path d="M434.384,171.048l-2.624,-4.611c0,0 -1.145,-2.236 1.446,-3.493c2.59,-1.257 12.967,-7.38 12.967,-7.38c0,0 3.514,-2.36 5.098,0.914c1.584,3.274 4.1,7.204 4.1,7.204c0,0 1.387,2.772 -1.117,4.069c-2.505,1.298 -4.611,2.624 -4.611,2.624l-0.953,4.358l-3.657,-1.733l-5.187,2.952c0,0 -2.305,0.475 -3.33,-1.158c-1.024,-1.632 -2.132,-3.746 -2.132,-3.746Z" style="fill:none;stroke:#9e003d;stroke-width:1.04px;stroke-linecap:round;stroke-linejoin:round;"/><path d="M442.947,163.875c0,0 -5.717,-1.09 -3.727,2.758c1.989,3.849 7.111,2.523 7.39,2.329c1.656,-1.147 1.788,-5.573 0.409,-7.173c-0.975,-1.129 -3.462,-1.67 -4.072,2.086Z" style="fill:#fff;"/></g></g></g></svg>