<?xml version="1.0" encoding="UTF-8" standalone="no"?><!DOCTYPE svg PUBLIC "-//W3C//DTD SVG 1.1//EN" "http://www.w3.org/Graphics/SVG/1.1/DTD/svg11.dtd"><svg width="100%" height="100%" viewBox="0 0 770 228" version="1.1" xmlns="http://www.w3.org/2000/svg" xmlns:xlink="http://www.w3.org/1999/xlink" xml:space="preserve" xmlns:serif="http://www.serif.com/" style="fill-rule:evenodd;clip-rule:evenodd;stroke-linejoin:round;stroke-miterlimit:1.41421;"><path d="M705.404,126.917c8.263,1.124 63.192,14.937 63.192,14.937l0.766,-110.471c0,0 -59.17,79.163 -157.508,23.433c-48.61,-27.548 -114.942,4.696 -126.802,65.742c-5.141,26.462 -22.551,35.406 -40.53,33.543c-9.055,-0.939 -21.509,-7.336 -26.121,-10.034c-7.365,-4.31 -23.207,8.709 -26.575,16.99c-12.449,30.604 -36.715,57.78 -10.551,64.568c31.465,8.163 118.906,-10.928 162.403,-59.378c27.501,-30.633 127.478,-43.99 161.726,-39.33Z" style="fill:#d5f2e3;"/><path d="M123.958,131.736c-8.263,1.124 -123.192,14.937 -123.192,14.937l-0.766,-110.471c0,0 125.17,29.465 223.508,-26.265c48.61,-27.548 114.942,4.696 126.802,65.742c10.266,52.846 73.593,56.685 87.226,90.197c27.421,67.408 -72.186,93.929 -151.852,5.19c-27.501,-30.633 -127.478,-43.99 -161.726,-39.33Z" style="fill:#d5f2e3;"/><path d="M334.286,208.416c32.108,-1.227 58.311,1.324 58.478,5.692c0.167,4.369 -25.765,8.912 -57.872,10.139c-32.108,1.227 -58.311,-1.324 -58.478,-5.692c-0.167,-4.369 25.765,-8.912 57.872,-10.139Z" style="fill:#bdcbc4;"/><g><path d="M265.915,138.018l4.263,31.264l-12.508,34.061l4.724,0.254l12.861,-33.125l5.341,-30.485l-0.839,-3.471l1.101,1.741c0,0 4.485,24.203 5.072,27.046c0.586,2.843 8.146,40.786 8.146,40.786l3.709,-0.579l-3.496,-68.406l-8.648,-13.667l-14.686,6.855l-5.04,7.726Z" style="fill:#ffcba6;"/><path d="M265.915,138.018l1.103,30.247l-12.064,27.837l14.423,1.503l8.944,-27.79l2.275,-29.828l-0.839,-3.471l1.101,1.741c0,0 4.485,24.203 5.072,27.046c0.586,2.843 2.678,32.673 2.678,32.673l11.882,-0.018l-6.201,-60.854l-8.648,-13.667l-14.686,6.855l-5.04,7.726Z" style="fill:#bdcbc4;"/><path d="M275.728,83.299l7.025,1.182l3.222,-13.423l-1.785,-6.561l-0.464,-2.968l-1.09,-2.109c0,0 -5.924,2.27 -6.329,3.269c-0.405,0.999 -1.529,1.437 -1.646,4.057c-0.117,2.621 -0.066,9.414 0.139,10.618c0.206,1.204 0.928,5.935 0.928,5.935Z" style="fill:#ffcba6;"/><path d="M266.254,106.82l-3.355,19.092l-2.113,12.024l36.219,0.404l-5.836,-43.774l-6.742,-13.959c-3.756,2.134 -7.041,2.216 -9.395,-1.759l-8.778,27.972Z" style="fill:#fff;"/><path d="M282.102,103.886l23.838,-7.894l0.795,4.788l-18.415,10.928" style="fill:#fff;"/><path d="M306.033,96.557l4.426,-2.971l0.598,-2.559l0.853,-0.666l1.332,2.763l2.004,-0.333c1.2,0.063 1.238,1.807 0.723,4.353l-9.393,2.678l-0.543,-3.265Z" style="fill:#ffcba6;"/><path d="M282.01,60.278l-6.421,6.53c0,0 1.556,7.367 0.262,10.929c-1.295,3.563 3.631,9.612 -0.099,15.438c-3.731,5.826 2.958,11.607 -3.712,15.154c-6.671,3.548 -7.369,-8.049 -5.933,-13.647c1.436,-5.597 -7.467,-8.726 -1.077,-16.616c0,0 -5.749,-12.575 6.362,-17.649c11.058,-4.634 9.197,-4.731 11.29,-5.565c1.579,-0.628 4.893,7.308 4.823,11.407c-0.071,4.099 5.606,5.912 1.577,14.953c0,0 -1.719,3.607 3.269,6.329c6.787,3.704 0.664,11.125 -3.454,11.94c-3.12,0.617 -7.926,-17.882 -7.814,-20.819c0.113,-2.937 4.677,-4.048 4.15,-7.488c-0.527,-3.44 -1.224,-10.178 -3.223,-10.896Z" style="fill:#fdc221;"/><path d="M291.692,100.3l9.013,23.437l-4.744,1.021l-11.788,-17.878" style="fill:#fff;"/><path d="M300.145,123.858l3.177,4.28l1.865,0.499l0.706,0.82l-1.977,1.439l0.427,1.986c-0.006,1.201 -1.747,1.322 -4.314,0.928l-3.119,-9.256l3.235,-0.696Z" style="fill:#ffcba6;"/><path d="M269.848,214.589c0,0 -1.667,1.621 -2.27,1.74c-2.998,0.593 -7.921,-1.989 -8.155,-4.504c-0.128,-1.381 -0.719,-7.702 -0.336,-8.078l-0.916,8.483l-7.425,-2.68l7.503,-11.44c0,0 5.388,1.519 6.385,1.411c0.891,-0.098 -2.863,6.374 1.396,10.716c0.507,0.517 3.033,3.914 3.818,4.352Z" style="fill:#43281c;"/><path d="M308.704,215.885c0,0 -1.093,2.053 -1.631,2.35c-2.673,1.48 -8.15,0.525 -9.14,-1.799c-0.544,-1.275 -3.037,-7.114 -2.787,-7.589l1.717,8.357l-7.888,-0.284l3.652,-13.185c0,0 5.593,-0.198 6.51,-0.607c0.819,-0.364 -0.78,6.945 4.601,9.779c0.641,0.337 4.084,2.801 4.966,2.978Z" style="fill:#43281c;"/><path d="M265.763,64.789l20.96,-9.112l-6.526,-11.148l-19.181,9.045" style="fill:#fff;"/><path d="M272.898,51.192l-1.469,0.658l1.13,2.525l-2.593,1.162l0.696,1.556l2.594,-1.161l1.084,2.42l1.47,-0.658l-1.084,-2.421l2.507,-1.122l-0.697,-1.557l-2.508,1.236l-1.13,-2.638Z" style="fill:#d82133;"/></g><g><path d="M378.809,71.05l-0.237,-6.426l-1.319,-7.458l-6.399,-0.836l1.003,-1.109l-5.192,-1.954l-3.169,-0.955l-2.007,2.219c0,0 -0.531,3.095 0.119,3.212c0.65,0.118 2.204,3.136 2.204,3.136c0,0 -0.467,1.84 0.536,3.954c0.67,1.413 0.321,3.354 3.202,5.176c6.288,3.975 11.259,1.041 11.259,1.041Z" style="fill:#ffcba6;"/><path d="M391.522,108.964l6.164,13.921c0,0 0.094,5.216 2.142,5.553c0,0 1.459,1.741 -0.334,-1.469c0,0 0.267,-1.6 3.862,0.944c0.21,0.149 0.432,0.312 0.666,0.49c3.609,2.754 -0.545,-2.011 -2.159,-4.87c-0.277,-0.491 -0.479,-0.926 -0.554,-1.256c-0.074,-0.328 -0.232,-0.902 -0.448,-1.644c-1.271,-4.375 -3.478,-12.173 -3.478,-12.173l-3.594,-3.167l-2.267,3.671Z" style="fill:#ffcba6;"/><path d="M361.749,113.197c1.753,-41.62 -3.558,-5.537 -6.69,6.569c-0.423,4.046 -6.952,1.643 -6.952,1.643l3.437,-21.032c0,0 0.665,-18.869 8.862,-23.591c0,0 4.619,-0.132 7.243,-1.34l2.672,-4.119c0,0 6.857,0.968 8.643,-0.587l1.201,4.245c0,0 4.695,-0.241 7.34,0.801c8.622,3.397 12.467,33.359 10.673,34.845l-5.098,2.465c-5.875,-5.211 -4.208,-12.036 -6.415,-19.757l-2.541,4.02c0,0 -0.581,11.006 -2.616,14.037l-19.759,1.801Z" style="fill:#fdc221;"/><path d="M356.596,131.859l2.718,17.058l14.099,2.697l0.235,-9.988c0,0 0.141,8.452 0.862,8.356c3.711,-0.492 15.091,-2.944 14.892,-6.465c-0.236,-4.204 0.53,-13.96 0.53,-13.96l-32.372,0.122l-0.964,2.18Z" style="fill:#ffcba6;"/><path d="M359.314,148.917c0,0 1.104,18.554 2.916,22.412c1.811,3.858 6.983,33.493 8.604,35.071c1.621,1.577 4.594,-0.17 4.594,-0.17l-3.734,-33.134l1.719,-21.482l-14.099,-2.697Z" style="fill:#ffcba6;"/><path d="M373.931,148.797c0,0 1.107,13.814 4.749,15.491c3.642,1.677 38.337,20.033 38.337,20.033l-0.158,-4.283l-27.675,-21.686l0.218,-14.835c0,0 -11.685,5.21 -15.471,5.28Z" style="fill:#ffcba6;"/><path d="M361.592,108.93c0,0 -9.206,31.838 -4.147,43.087l37.508,-2.455c0,0 -9.412,-38.452 -12.496,-42.169c-2.109,-2.544 -20.865,1.537 -20.865,1.537Z" style="fill:#fdc221;"/><path d="M377.832,72.868c0.004,0.128 0.068,0.247 0.172,0.321c0.105,0.074 0.238,0.096 0.36,0.059c2.161,-0.656 10.408,-3.16 10.408,-3.16c0,0 -2.816,-19.193 -9.75,-21.566c-6.912,-2.366 -11.882,-5.139 -19.47,8.105c-0.045,0.08 -0.085,0.162 -0.119,0.247c-0.457,1.138 -3.874,9.672 -3.874,9.672l9.781,1.497c0,0 -0.403,-7.949 -0.638,-12.559c-0.028,-0.564 0.277,-1.091 0.781,-1.345c0.503,-0.255 1.109,-0.189 1.546,0.167c1.337,1.093 2.92,2.385 3.951,3.228c0.691,0.564 1.607,0.771 2.473,0.56c0.858,-0.21 1.946,-0.475 2.737,-0.668c0.261,-0.064 0.536,-0.007 0.749,0.154c0.214,0.162 0.344,0.411 0.354,0.679c0.117,3.171 0.454,12.3 0.539,14.609Z" style="fill:#d5202c;"/><path d="M415.801,179.657l5.057,-4.476l3.82,5.672l-2.814,0.893l4.451,0.918l4.443,6.093c0,0 1.429,2.343 -4.172,0.154c-5.602,-2.19 -5.529,-3.608 -8.924,-3.961c-3.395,-0.352 -1.861,-5.293 -1.861,-5.293Z" style="fill:#43281c;"/><path d="M374.924,203.034l3.797,10.667l-4.846,1.587l-0.43,-2.659l-3.595,2.756c0,0 -6.257,0.69 -8.053,0.689c-1.073,-0.001 0.782,-2.673 1.909,-4.39c1.147,-1.747 2.096,-1.777 2.841,-2.603c1.428,-1.584 2.211,-3.229 2.936,-5.406c1.103,-3.312 5.441,-0.641 5.441,-0.641Z" style="fill:#43281c;"/></g><g><path d="M339.456,190.719l-0.217,2.188c0,0 -2.38,0.554 -2.927,-1.117l-0.25,-3.063l3.309,0.051l0.085,1.941Z" style="fill:#ffcba6;"/><path d="M339.708,191.109c0,0 1.403,-0.89 1.753,1.238c0.35,2.128 0.709,2.655 0.709,2.655l-9.822,2.625c0,0 -1.742,0.334 -1.152,-1.114c0.591,-1.449 4.953,-4.823 4.953,-4.823c0,0 1.992,1.789 3.559,-0.581Z" style="fill:#0a4c2a;"/><path d="M370.17,177.942l1.075,2.424c0,0 -1.677,2.835 -3.265,1.448l-1.594,-2.838l3.784,-1.034Z" style="fill:#ffcba6;"/><path d="M367.689,180.975c0,0 -1.648,0.207 -0.564,2.071c1.085,1.864 1.143,2.499 1.143,2.499l9.247,-4.228c0,0 1.556,-0.852 0.178,-1.593c-1.377,-0.741 -6.89,-0.567 -6.89,-0.567c0,0 -0.397,2.649 -3.114,1.818Z" style="fill:#0a4c2a;"/><path d="M369.984,178.6c1.75,-1.588 -6.555,-29.529 -14.048,-29.344c-5.623,0.138 -16.584,-0.634 -19.278,-0.522c-4.19,0.173 -2.721,37.793 -1.435,41.241l5.109,0.475l8.297,-28.522l17.779,17.425l3.576,-0.753Z" style="fill:#43281c;"/><path d="M365.67,120.7c0,0 12.466,-5.091 13.556,-5.808c1.09,-0.715 3.426,-5.456 4.301,-5.182c0.877,0.274 -0.755,2.85 -0.98,3.245c-0.225,0.395 3.297,-1.939 4.059,-1.799c0.762,0.139 1.85,1.589 -4.761,5.125c-6.611,3.536 -16.009,11.451 -16.009,11.451l-0.166,-7.032Z" style="fill:#ffcba6;"/><path d="M334.486,122.411c0,0 -11.403,-10.089 -12.133,-11.17c-0.729,-1.081 -1.27,-5.669 -2.184,-5.754c-0.914,-0.085 -0.403,2.921 -0.348,3.373c0.056,0.451 -2.293,-3.061 -3.05,-3.226c-0.756,-0.165 -2.32,0.752 2.415,6.565c4.735,5.813 11.606,15.49 11.606,15.49l3.694,-5.278Z" style="fill:#ffcba6;"/><path d="M353.886,150.434c0,0 3.114,0.752 3.064,-1.354c-0.051,-2.106 -0.902,-3.571 -0.798,-5.878c0.103,-2.306 0.731,-7.271 1.295,-9.261c0.19,-0.671 7.321,-3.542 9.605,-6.778c0.352,-0.498 0.818,-1.08 0.559,-1.524c-1.272,-2.192 -1.73,-4.103 -2.012,-5.099c-0.175,-0.615 -9.07,4.49 -9.317,3.984c-0.526,-1.076 -1.225,-1.833 -2.131,-1.953c-2.993,-0.399 -7.909,-1.7 -12.409,3.813c-0.479,0.587 -6.492,-5.986 -8.311,-4.295c-1.497,1.392 -1.728,1.44 -3.736,4.284c-0.812,1.149 7.899,7.647 7.584,8.747c-1.21,4.227 -0.688,6.98 -0.688,6.98l-0.702,7.111c2.202,0.863 4.706,1.974 7.47,1.565c0,0 6.148,-0.701 10.527,-0.342Z" style="fill:#d5202c;"/><path d="M342.914,102.132c0,0 -2.152,-0.968 0.036,-3.17c2.189,-2.202 2.506,0.67 2.117,-1.864c-0.388,-2.534 0.912,-0.804 2.05,-1.178c1.138,-0.375 1.531,0.151 2.707,0.543c1.177,0.392 1.99,-0.58 3.336,-0.223c1.346,0.357 2.076,1.092 2.546,2.184c0.469,1.093 0.949,0.656 2.107,1.037c1.157,0.38 1.062,1.188 1.151,2.322c0.089,1.135 1.517,1.409 1.945,2.678c0.428,1.268 0.4,3.072 -0.324,3.281c-0.724,0.209 1.795,2.654 0.104,3.6c-1.69,0.946 -0.354,0.116 -1.515,1.231c-1.16,1.116 -1.464,2.293 -3.184,2.559c-1.72,0.266 -1.255,1.233 -2.012,0.794c-0.756,-0.439 -2.38,-1.063 -2.38,-1.063l-4.16,-2.62c0,0 -1.955,-3.517 -2.083,-4.071c-0.128,-0.553 -0.467,-1.632 -0.631,-1.995c-0.165,-0.364 -1.152,-2.323 -1.152,-2.323l-0.658,-1.722Z" style="fill:#43281c;"/><path d="M353.34,122.397c0,0 -0.075,-5.901 0.365,-6.497c0.44,-0.597 -3.707,-0.015 -1.124,-2.597c2.582,-2.581 4.637,-3.768 0.705,-4.348c-3.932,-0.581 -0.893,1.256 -2.296,0.878c-1.403,-0.379 2.457,-3.625 -0.473,-3.913c-2.931,-0.288 -2.599,0.511 -3.224,-0.594c-0.625,-1.106 0.015,-2.769 -2.519,-2.458c-2.534,0.311 -0.564,-2.349 -1.833,-1.009c-1.269,1.339 -4.688,6.226 -3.516,11.526c1.171,5.301 3.76,5.261 6.191,4.438c0,0 -1.227,5.894 -3.082,7.743c-1.856,1.849 6.12,-0.777 6.12,-0.777c1.648,-0.463 3.212,-1.251 4.686,-2.392Z" style="fill:#ffcba6;"/></g></svg>