<?xml version="1.0" encoding="UTF-8" standalone="no"?>
<!DOCTYPE svg PUBLIC "-//W3C//DTD SVG 1.1//EN" "http://www.w3.org/Graphics/SVG/1.1/DTD/svg11.dtd">
<svg width="100%" height="100%" viewBox="0 0 347 236" version="1.1" xmlns="http://www.w3.org/2000/svg" xmlns:xlink="http://www.w3.org/1999/xlink" xml:space="preserve" xmlns:serif="http://www.serif.com/" style="fill-rule:evenodd;clip-rule:evenodd;stroke-linecap:round;stroke-linejoin:round;stroke-miterlimit:1.5;">
    <g transform="matrix(1,0,0,1,75.1595,-2056.73)">
        <g id="ФОН-2" serif:id="ФОН 2" transform="matrix(0.407151,0,0,0.407151,97.8799,2174.39)">
            <g transform="matrix(1,0,0,1,-425,-289)">
                <g transform="matrix(1,0,0,1,-138.5,-11.553)">
                    <path d="M288.792,357.092C215.047,367.124 239.516,288.752 229.22,215.61C220.412,153.035 164.714,95.895 239.048,83.309C286.544,75.267 385.101,61.965 427.684,42.978C553.019,-12.907 709.993,54.512 739.121,204.447C764.336,334.242 919.872,343.669 953.356,425.978C1020.71,591.538 776.062,656.676 580.395,438.726C512.849,363.488 372.91,345.648 288.792,357.092Z" style="fill:rgb(213,242,227);"/>
                </g>
            </g>
        </g>
        <g id="_2" serif:id="2" transform="matrix(0.376532,0,0,0.376532,160,2174.39)">
            <g transform="matrix(1,0,0,1,-239.5,-291.5)">
                <g>
                    <g>
                        <path d="M142.903,148.083L147.833,133.6C147.833,133.6 150.467,126.849 158.136,130.036C165.806,133.223 198.872,143.9 198.872,143.9C198.872,143.9 210.689,146.967 206.654,156.65C202.619,166.333 198.952,179.281 198.952,179.281C198.952,179.281 195.623,187.578 188.032,184.655C180.44,181.732 173.548,179.725 173.548,179.725L162.32,186.005L159.064,174.796L142.77,169.25C142.77,169.25 137.334,165.186 138.898,159.852C140.462,154.517 142.903,148.083 142.903,148.083Z" style="fill:rgb(247,113,120);"/>
                        <path d="M142.903,148.083L147.833,133.6C147.833,133.6 150.467,126.849 158.136,130.036C165.806,133.223 198.872,143.9 198.872,143.9C198.872,143.9 210.689,146.967 206.654,156.65C202.619,166.333 198.952,179.281 198.952,179.281C198.952,179.281 195.623,187.578 188.032,184.655C180.44,181.732 173.548,179.725 173.548,179.725L162.32,186.005L159.064,174.796L142.77,169.25C142.77,169.25 137.334,165.186 138.898,159.852C140.462,154.517 142.903,148.083 142.903,148.083Z" style="fill:rgb(213,32,44);"/>
                        <path d="M142.903,148.083L147.833,133.6C147.833,133.6 150.467,126.849 158.136,130.036C165.806,133.223 198.872,143.9 198.872,143.9C198.872,143.9 210.689,146.967 206.654,156.65C202.619,166.333 198.952,179.281 198.952,179.281C198.952,179.281 195.623,187.578 188.032,184.655C180.44,181.732 173.548,179.725 173.548,179.725L162.32,186.005L159.064,174.796L142.77,169.25C142.77,169.25 137.334,165.186 138.898,159.852C140.462,154.517 142.903,148.083 142.903,148.083Z" style="fill:none;stroke:rgb(158,0,61);stroke-width:3px;"/>
                        <path d="M142.903,148.083L147.833,133.6C147.833,133.6 150.467,126.849 158.136,130.036C165.806,133.223 198.872,143.9 198.872,143.9C198.872,143.9 210.689,146.967 206.654,156.65C202.619,166.333 198.952,179.281 198.952,179.281C198.952,179.281 195.623,187.578 188.032,184.655C180.44,181.732 173.548,179.725 173.548,179.725L162.32,186.005L159.064,174.796L142.77,169.25C142.77,169.25 137.334,165.186 138.898,159.852C140.462,154.517 142.903,148.083 142.903,148.083Z" style="fill:none;stroke:rgb(158,0,61);stroke-width:3px;"/>
                        <path d="M165.98,168.203L171.146,169.969L174.181,161.092L183.298,164.209L185.168,158.739L176.051,155.622L178.961,147.113L173.794,145.347L170.885,153.856L162.072,150.843L160.202,156.313L168.589,158.989L165.98,168.203Z" style="fill:white;"/>
                    </g>
                    <g>
                        <path d="M231.94,48.53L224.372,35.233C224.372,35.233 221.068,28.783 228.54,25.158C236.013,21.534 265.938,3.874 265.938,3.874C265.938,3.874 276.072,-2.934 280.641,6.509C285.21,15.951 292.465,27.285 292.465,27.285C292.465,27.285 296.466,35.279 289.243,39.022C282.02,42.764 275.946,46.589 275.946,46.589L273.196,59.157L262.649,54.157L247.69,62.671C247.69,62.671 241.042,64.042 238.088,59.333C235.134,54.624 231.94,48.53 231.94,48.53Z" style="fill:rgb(213,32,44);"/>
                        <path d="M231.94,48.53L224.372,35.233C224.372,35.233 221.068,28.783 228.54,25.158C236.013,21.534 265.938,3.874 265.938,3.874C265.938,3.874 276.072,-2.934 280.641,6.509C285.21,15.951 292.465,27.285 292.465,27.285C292.465,27.285 296.466,35.279 289.243,39.022C282.02,42.764 275.946,46.589 275.946,46.589L273.196,59.157L262.649,54.157L247.69,62.671C247.69,62.671 241.042,64.042 238.088,59.333C235.134,54.624 231.94,48.53 231.94,48.53Z" style="fill:none;stroke:rgb(158,0,61);stroke-width:3px;"/>
                        <path d="M256.634,27.841C256.634,27.841 240.145,24.7 245.884,35.797C251.623,46.895 266.392,43.073 267.199,42.514C271.976,39.206 272.356,26.439 268.377,21.827C265.567,18.57 258.393,17.009 256.634,27.841Z" style="fill:white;"/>
                    </g>
                    <path d="M221.868,540.104C307.14,536.845 376.73,543.619 377.174,555.221C377.617,566.823 308.747,578.888 223.475,582.147C138.202,585.406 68.612,578.632 68.169,567.03C67.725,555.428 136.596,543.363 221.868,540.104Z" style="fill:rgb(189,203,196);"/>
                    <g>
                        <path d="M40.285,353.139L51.608,436.17L18.388,526.632L30.936,527.306L65.091,439.331L79.277,358.369L77.048,349.15L79.973,353.774C79.973,353.774 91.883,418.052 93.441,425.603C94.999,433.154 115.076,533.924 115.076,533.924L124.928,532.385L115.642,350.711L92.674,314.414L53.67,332.62L40.285,353.139Z" style="fill:rgb(255,203,166);"/>
                        <path d="M40.285,353.139L43.215,433.469L11.176,507.401L49.481,511.392L73.234,437.586L79.277,358.369L77.048,349.15L79.973,353.774C79.973,353.774 91.883,418.052 93.441,425.603C94.999,433.154 100.553,512.376 100.553,512.376L132.111,512.328L115.642,350.711L92.674,314.414L53.67,332.62L40.285,353.139Z" style="fill:rgb(189,203,196);"/>
                        <path d="M66.347,207.816L85.004,210.956L93.561,175.306L88.82,157.881L87.588,150L84.694,144.397C84.694,144.397 68.961,150.426 67.885,153.079C66.809,155.732 63.825,156.895 63.514,163.854C63.203,170.814 63.339,188.857 63.884,192.054C64.43,195.251 66.347,207.816 66.347,207.816Z" style="fill:rgb(255,203,166);"/>
                        <path d="M41.186,270.282L32.276,320.987L26.665,352.921L122.856,353.996L107.355,237.739L89.451,200.666C79.476,206.334 70.752,206.551 64.499,195.994L41.186,270.282Z" style="fill:white;"/>
                        <path d="M83.275,262.492L146.584,241.527L148.696,254.241L99.789,283.265" style="fill:white;"/>
                        <path d="M146.833,243.027L158.587,235.136L160.176,228.34L162.439,226.571L165.978,233.909L171.3,233.025C174.486,233.192 174.588,237.825 173.22,244.585L148.273,251.698L146.833,243.027Z" style="fill:rgb(255,203,166);"/>
                        <path d="M83.032,146.675L65.977,164.019C65.977,164.019 70.112,183.585 66.673,193.045C63.234,202.506 76.317,218.573 66.41,234.046C56.502,249.518 74.266,264.87 56.552,274.291C38.837,283.713 36.983,252.914 40.796,238.048C44.609,223.183 20.964,214.873 37.936,193.918C37.936,193.918 22.668,160.522 54.832,147.045C84.201,134.739 79.257,134.48 84.817,132.267C89.01,130.599 97.812,151.674 97.625,162.56C97.437,173.446 112.513,178.262 101.812,202.274C101.812,202.274 97.248,211.854 110.494,219.083C128.521,228.92 112.258,248.628 101.321,250.792C93.037,252.431 80.271,203.301 80.57,195.501C80.869,187.702 92.991,184.75 91.591,175.614C90.191,166.477 88.339,148.582 83.032,146.675Z" style="fill:rgb(253,194,33);"/>
                        <path d="M108.745,252.967L132.681,315.213L120.082,317.923L88.777,270.444" style="fill:white;"/>
                        <path d="M131.194,315.533L139.633,326.9L144.585,328.225L146.459,330.402L141.209,334.224L142.344,339.499C142.327,342.689 137.705,343.01 130.887,341.963L122.602,317.381L131.194,315.533Z" style="fill:rgb(255,203,166);"/>
                        <path d="M50.732,556.498C50.732,556.498 46.303,560.803 44.703,561.12C36.741,562.695 23.666,555.838 23.045,549.157C22.705,545.491 21.135,528.702 22.152,527.703L19.718,550.232L0,543.116L19.927,512.732C19.927,512.732 34.235,516.768 36.884,516.479C39.251,516.22 29.279,533.409 40.59,544.94C41.937,546.312 48.646,555.336 50.732,556.498Z" style="fill:rgb(67,40,28);"/>
                        <path d="M153.925,559.94C153.925,559.94 151.022,565.392 149.595,566.182C142.494,570.113 127.95,567.576 125.319,561.404C123.876,558.018 117.253,542.51 117.917,541.248L122.479,563.444L101.53,562.689L111.227,527.671C111.227,527.671 126.083,527.145 128.518,526.061C130.693,525.092 126.446,544.505 140.738,552.031C142.439,552.926 151.584,559.471 153.925,559.94Z" style="fill:rgb(67,40,28);"/>
                        <path d="M39.882,158.657L95.548,134.458L78.217,104.849L27.274,128.872" style="fill:white;"/>
                        <path d="M58.832,122.545L54.929,124.293L57.932,131L51.044,134.085L52.894,138.218L59.783,135.133L62.662,141.562L66.565,139.814L63.686,133.385L70.345,130.404L68.494,126.27L61.832,129.551L58.832,122.545Z" style="fill:rgb(216,33,51);"/>
                    </g>
                    <g>
                        <path d="M340.112,175.284L339.482,158.219L335.978,138.412L318.984,136.191L321.649,133.245L307.859,128.057L299.444,125.52L294.114,131.413C294.114,131.413 292.702,139.634 294.429,139.945C296.155,140.256 300.283,148.273 300.283,148.273C300.283,148.273 299.041,153.16 301.705,158.774C303.485,162.526 302.559,167.682 310.211,172.519C326.91,183.076 340.112,175.284 340.112,175.284Z" style="fill:rgb(255,203,166);"/>
                        <path d="M373.875,275.977L390.245,312.949C390.245,312.949 390.494,326.802 395.935,327.698C395.935,327.698 399.809,332.32 395.047,323.796C395.047,323.796 395.755,319.546 405.303,326.302C405.862,326.697 406.451,327.13 407.072,327.604C416.658,334.918 405.625,322.263 401.34,314.669C400.604,313.366 400.068,312.212 399.868,311.334C399.671,310.464 399.251,308.939 398.678,306.968C395.302,295.35 389.44,274.639 389.44,274.639L379.897,266.227L373.875,275.977Z" style="fill:rgb(255,203,166);"/>
                        <path d="M294.804,287.22C299.459,176.684 285.354,272.515 277.037,304.666C275.912,315.412 258.573,309.03 258.573,309.03L267.701,253.173C267.701,253.173 269.467,203.059 291.237,190.519C291.237,190.519 303.503,190.169 310.473,186.961L317.568,176.021C317.568,176.021 335.781,178.59 340.523,174.461L343.713,185.735C343.713,185.735 356.182,185.096 363.207,187.864C386.106,196.885 396.317,276.457 391.551,280.404L378.012,286.952C362.411,273.111 366.837,254.986 360.976,234.479L354.226,245.156C354.226,245.156 352.685,274.387 347.28,282.436L294.804,287.22Z" style="fill:rgb(253,194,33);"/>
                        <path d="M281.118,336.783L288.337,382.085L325.782,389.247L326.405,362.723C326.405,362.723 326.78,385.168 328.693,384.914C338.551,383.608 368.772,377.096 368.245,367.745C367.617,356.579 369.651,330.669 369.651,330.669L283.678,330.992L281.118,336.783Z" style="fill:rgb(255,203,166);"/>
                        <path d="M288.337,382.085C288.337,382.085 291.269,431.362 296.08,441.607C300.89,451.853 314.626,530.559 318.931,534.749C323.237,538.938 331.133,534.299 331.133,534.299L321.216,446.301L325.782,389.247L288.337,382.085Z" style="fill:rgb(255,203,166);"/>
                        <path d="M327.157,381.767C327.157,381.767 330.097,418.454 339.769,422.908C349.441,427.362 441.585,476.112 441.585,476.112L441.166,464.736L367.667,407.144L368.245,367.745C368.245,367.745 337.212,381.581 327.157,381.767Z" style="fill:rgb(255,203,166);"/>
                        <path d="M294.386,275.887C294.386,275.887 269.936,360.443 283.373,390.319L382.986,383.797C382.986,383.797 357.99,281.678 349.801,271.806C344.198,265.05 294.386,275.887 294.386,275.887Z" style="fill:rgb(253,194,33);"/>
                        <path d="M337.516,180.113C337.528,180.453 337.698,180.768 337.975,180.965C338.252,181.163 338.605,181.221 338.931,181.122C344.668,179.38 366.572,172.73 366.572,172.73C366.572,172.73 359.092,121.758 340.678,115.455C322.321,109.171 309.121,101.805 288.969,136.98C288.848,137.192 288.742,137.411 288.652,137.637C287.44,140.659 278.363,163.322 278.363,163.322L304.341,167.299C304.341,167.299 303.269,146.188 302.647,133.943C302.571,132.447 303.383,131.047 304.72,130.371C306.056,129.695 307.665,129.87 308.825,130.817C312.378,133.719 316.58,137.15 319.32,139.388C321.154,140.887 323.586,141.437 325.887,140.876C328.166,140.319 331.055,139.614 333.157,139.101C333.848,138.932 334.579,139.083 335.146,139.512C335.714,139.941 336.059,140.603 336.085,141.314C336.395,149.736 337.29,173.98 337.516,180.113Z" style="fill:rgb(213,32,44);"/>
                        <path d="M438.355,463.725L451.785,451.838L461.932,466.902L454.457,469.272L466.278,471.71L478.078,487.892C478.078,487.892 481.875,494.115 466.998,488.301C452.122,482.486 452.314,478.719 443.298,477.783C434.282,476.847 438.355,463.725 438.355,463.725Z" style="fill:rgb(67,40,28);"/>
                        <path d="M329.793,525.809L339.879,554.14L327.009,558.355L325.866,551.293L316.318,558.613C316.318,558.613 299.702,560.444 294.93,560.441C292.081,560.439 297.009,553.342 300.002,548.782C303.047,544.144 305.567,544.064 307.546,541.87C311.338,537.663 313.418,533.294 315.343,527.513C318.272,518.716 329.793,525.809 329.793,525.809Z" style="fill:rgb(67,40,28);"/>
                    </g>
                    <g>
                        <path d="M235.596,493.104L235.022,498.914C235.022,498.914 228.7,500.387 227.248,495.947L226.584,487.814L235.371,487.948L235.596,493.104Z" style="fill:rgb(255,203,166);"/>
                        <path d="M236.266,494.139C236.266,494.139 239.992,491.775 240.922,497.428C241.852,503.08 242.806,504.478 242.806,504.478L216.719,511.451C216.719,511.451 212.093,512.338 213.661,508.491C215.23,504.644 226.814,495.682 226.814,495.682C226.814,495.682 232.106,500.434 236.266,494.139Z" style="fill:rgb(10,76,42);"/>
                        <path d="M317.168,459.17L320.024,465.607C320.024,465.607 315.569,473.138 311.352,469.454L307.119,461.917L317.168,459.17Z" style="fill:rgb(255,203,166);"/>
                        <path d="M310.58,467.226C310.58,467.226 306.201,467.774 309.082,472.726C311.963,477.677 312.117,479.363 312.117,479.363L336.675,468.133C336.675,468.133 340.807,465.872 337.148,463.903C333.49,461.935 318.85,462.398 318.85,462.398C318.85,462.398 317.795,469.432 310.58,467.226Z" style="fill:rgb(10,76,42);"/>
                        <path d="M316.675,460.919C321.323,456.701 299.266,382.495 279.364,382.986C264.431,383.353 235.321,381.303 228.165,381.599C217.038,382.06 220.939,481.97 224.355,491.128L237.924,492.389L259.959,416.64L307.178,462.917L316.675,460.919Z" style="fill:rgb(67,40,28);"/>
                        <path d="M305.218,307.145C305.218,307.145 338.323,293.624 341.218,291.722C344.113,289.821 350.317,277.231 352.643,277.959C354.97,278.687 350.637,285.529 350.04,286.578C349.442,287.627 358.795,281.428 360.818,281.799C362.842,282.169 365.732,286.02 348.174,295.411C330.617,304.801 305.659,325.823 305.659,325.823L305.218,307.145Z" style="fill:rgb(255,203,166);"/>
                        <path d="M222.397,311.689C222.397,311.689 192.113,284.896 190.176,282.025C188.239,279.154 186.802,266.97 184.375,266.744C181.948,266.518 183.305,274.502 183.451,275.701C183.598,276.899 177.361,267.572 175.351,267.133C173.342,266.694 169.189,269.132 181.765,284.569C194.34,300.006 212.587,325.708 212.587,325.708L222.397,311.689Z" style="fill:rgb(255,203,166);"/>
                        <path d="M273.921,386.115C273.921,386.115 282.19,388.111 282.057,382.518C281.924,376.925 279.663,373.034 279.938,366.908C280.212,360.783 281.879,347.597 283.378,342.313C283.884,340.53 302.822,332.906 308.887,324.311C309.821,322.987 311.059,321.443 310.373,320.262C306.994,314.442 305.778,309.367 305.027,306.72C304.564,305.089 280.941,318.646 280.285,317.303C278.887,314.445 277.03,312.435 274.625,312.114C266.676,311.055 253.62,307.6 241.669,322.243C240.397,323.802 224.426,306.343 219.595,310.836C215.62,314.533 215.007,314.66 209.673,322.212C207.517,325.264 230.653,342.521 229.816,345.443C226.603,356.67 227.988,363.981 227.988,363.981L226.124,382.865C231.971,385.158 238.623,388.109 245.964,387.023C245.964,387.023 262.292,385.162 273.921,386.115Z" style="fill:rgb(213,32,44);"/>
                        <path d="M244.78,257.833C244.78,257.833 239.066,255.263 244.878,249.415C250.69,243.566 251.532,251.193 250.5,244.464C249.468,237.734 252.92,242.328 255.943,241.334C258.966,240.34 260.009,241.735 263.134,242.777C266.259,243.819 268.418,241.236 271.993,242.185C275.568,243.134 277.507,245.084 278.754,247.986C280.001,250.887 281.274,249.728 284.349,250.738C287.424,251.748 287.17,253.893 287.407,256.907C287.644,259.92 291.435,260.648 292.572,264.017C293.71,267.385 293.634,272.177 291.712,272.732C289.79,273.288 296.478,279.781 291.988,282.293C287.499,284.805 291.047,282.6 287.966,285.563C284.885,288.526 284.077,291.652 279.508,292.358C274.94,293.064 276.176,295.634 274.166,294.468C272.156,293.302 267.845,291.644 267.845,291.644L256.797,284.687C256.797,284.687 251.605,275.344 251.264,273.874C250.924,272.404 250.024,269.541 249.587,268.575C249.151,267.608 246.529,262.406 246.529,262.406L244.78,257.833Z" style="fill:rgb(67,40,28);"/>
                        <path d="M272.47,311.652C272.47,311.652 272.272,295.98 273.44,294.397C274.608,292.813 263.594,294.357 270.454,287.502C277.313,280.646 282.769,277.494 272.327,275.953C261.885,274.411 269.956,279.289 266.23,278.284C262.504,277.28 272.756,268.657 264.972,267.893C257.189,267.129 258.07,269.251 256.411,266.315C254.751,263.379 256.451,258.961 249.721,259.788C242.991,260.614 248.222,253.549 244.852,257.107C241.482,260.665 232.403,273.644 235.514,287.72C238.626,301.796 245.501,301.69 251.958,299.506C251.958,299.506 248.699,315.159 243.771,320.07C238.844,324.981 260.026,318.007 260.026,318.007C264.401,316.775 268.556,314.684 272.47,311.652Z" style="fill:rgb(255,203,166);"/>
                    </g>
                </g>
            </g>
        </g>
    </g>
</svg>
