<?xml version="1.0" encoding="UTF-8" standalone="no"?>
<!DOCTYPE svg PUBLIC "-//W3C//DTD SVG 1.1//EN" "http://www.w3.org/Graphics/SVG/1.1/DTD/svg11.dtd">
<svg width="100%" height="100%" viewBox="0 0 199 56" version="1.1" xmlns="http://www.w3.org/2000/svg" xmlns:xlink="http://www.w3.org/1999/xlink" xml:space="preserve" xmlns:serif="http://www.serif.com/" style="fill-rule:evenodd;clip-rule:evenodd;stroke-linejoin:round;stroke-miterlimit:2;">
    <g transform="matrix(1,0,0,1,-375,-30.8422)">
        <g id="PJ-Logo-Znak" serif:id="PJ Logo+Znak" transform="matrix(0.24,0,0,0.24,474.5,25.3351)">
            <clipPath id="_clip1">
                <rect x="-414.583" y="22.946" width="829.167" height="233.304"/>
            </clipPath>
            <g clip-path="url(#_clip1)">
                <g transform="matrix(1,0,0,1,-414.583,-256.25)">
                    <g transform="matrix(4.16667,0,0,4.16667,0,0)">
                        <rect x="0" y="68.434" width="198.424" height="54.566" style="fill:rgb(214,33,51);fill-rule:nonzero;"/>
                        <path d="M67.947,91.879C67.898,91.994 67.843,92.124 67.843,92.124C67.843,92.124 67.779,92.135 67.722,92.14L67.722,93.036L67.568,93.049C67.517,93.049 67.498,93.079 67.478,93.329C67.466,93.511 67.453,93.718 67.304,93.838L66.527,94.019L66.855,93.644C66.937,93.531 66.976,93.393 66.976,93.219C66.976,93.189 66.974,93.15 66.972,93.119C66.91,93.074 66.865,92.995 66.843,92.87C66.525,92.818 66.255,92.55 66.06,92.32C66.06,92.32 65.957,92.209 65.916,92.163L65.912,92.17C65.605,92.278 65.478,92.261 65.316,92.162L65.316,92.587C65.578,92.66 65.668,92.912 65.718,93.079L65.835,93.345L65.882,93.46L65.953,93.732C65.994,93.835 66.05,93.956 66.05,94.135C66.05,94.141 66.046,94.154 66.044,94.161C66.084,94.172 66.127,94.172 66.166,94.197C66.3,94.294 66.316,94.464 66.33,94.602L66.357,94.761L66.427,94.816L66.449,94.922L66.439,95.271C66.423,95.888 66.392,96.512 66.035,96.846C66.072,96.983 66.105,97.124 66.105,97.272C66.105,97.488 66.064,97.71 65.982,97.891C65.877,98.151 65.707,98.329 65.492,98.412L65.3,98.486C65.3,98.486 65.283,98.357 65.273,98.303C65.263,98.313 65.242,98.325 65.242,98.325C65.132,98.4 65,98.493 64.855,98.423C64.718,98.35 64.701,98.178 64.699,98.119L64.693,98.046L64.892,97.823C65.105,97.592 65.293,97.384 65.293,96.972C65.293,96.918 65.283,96.85 65.279,96.786C64.73,96.568 64.38,96.927 64.029,97.317L63.537,97.826L63.439,97.606C63.091,96.891 63.087,95.967 63.433,94.856L63.472,94.732L63.601,94.738C63.705,94.745 63.775,94.702 63.851,94.653L63.851,93.759L63.976,93.725C64.074,93.703 64.111,93.609 64.177,93.408C64.246,93.193 64.359,92.894 64.71,92.859C64.72,92.704 64.736,92.509 64.736,92.509C64.736,92.509 64.718,92.182 64.709,92.019C64.3,91.996 64.005,92.072 63.865,92.256C63.775,92.359 63.652,92.338 63.552,92.32C63.552,92.286 63.392,92.538 63.392,92.538L63.3,92.688L62.998,93.003L62.878,93.12C62.886,93.1 62.902,93.229 62.902,93.229L62.896,93.523L62.576,93.867C62.582,93.863 62.47,93.967 62.459,93.98C62.48,94.019 62.507,94.057 62.507,94.088L62.507,94.118C62.496,94.245 62.39,94.315 62.291,94.388L62.154,94.502L62.291,94.738L62.05,94.787C61.884,94.806 61.785,94.839 61.72,94.876C61.798,94.951 61.857,95.037 61.898,95.118L62.044,95.403L61.494,95.345C61.503,95.345 61.503,95.555 61.503,95.555L61.482,95.981L61.296,96.199C61.234,96.243 61.21,96.259 61.21,96.362L61.21,96.452C61.21,97.015 61.294,97.109 61.296,97.11C61.345,97.131 61.599,97.275 61.599,97.275C61.609,97.286 61.634,97.638 61.634,97.638C61.634,97.638 61.63,97.681 61.625,97.715C62.084,97.86 62.351,98.166 62.351,98.677L62.351,98.698C62.394,98.716 62.445,98.725 62.445,98.725C62.658,98.771 62.902,98.819 63.025,99.034L63.056,99.086L63.048,99.146C63.044,99.203 63.043,99.246 63.043,99.288C63.043,99.407 63.064,99.459 63.084,99.484C63.084,99.484 63.103,99.495 63.107,99.495C63.216,99.344 63.371,99.236 63.593,99.241L64.097,99.274C64.806,99.319 65.41,99.366 65.898,98.987L65.972,98.927L66.019,98.953C66.019,98.953 66.074,98.975 66.125,98.994C66.121,98.98 66.103,98.968 66.103,98.953C66.103,98.92 66.111,98.889 66.127,98.856C66.195,98.73 66.341,98.732 66.49,98.754C66.484,98.741 66.369,98.28 66.369,98.28L66.459,98.265C66.642,98.109 66.753,98.086 66.91,98.178C66.91,98.178 66.947,98.188 66.968,98.193L66.968,98.15C66.968,97.956 66.99,97.71 67.232,97.648L67.496,97.587L67.439,97.85C67.431,97.883 67.425,97.903 67.425,97.924C67.425,97.967 67.459,97.982 67.589,98.013C67.732,98.05 67.964,98.109 68.007,98.375L68.013,98.407L68,98.442C67.994,98.475 67.988,98.5 67.988,98.519C67.988,98.555 68.011,98.571 68.062,98.612C68.125,98.65 68.191,98.73 68.242,98.838C68.429,98.91 68.521,98.905 68.681,98.87L69.271,98.778L69.281,98.995L69.289,99.086C69.322,99.132 69.478,99.142 69.589,99.149C69.589,99.149 69.722,99.184 69.851,99.223C69.968,98.913 70.191,98.852 70.382,98.809L70.566,98.744C70.566,98.62 70.619,98.476 70.71,98.407C70.71,98.403 70.99,98.37 70.99,98.37L71.06,98.375C71.06,98.371 71.197,98.271 71.197,98.271C71.261,98.182 71.353,98.109 71.496,98.086C71.488,97.956 71.441,97.865 71.375,97.757C71.375,97.757 71.326,97.648 71.277,97.547C70.64,97.525 69.992,97.509 69.834,97.885L69.789,97.985L68.619,97.985L68.668,97.775C68.677,97.739 68.683,97.7 68.683,97.656C68.683,97.425 68.566,97.124 68.492,96.912L68.384,96.467C68.412,96.346 68.525,96.32 68.609,96.308L68.726,96.274C68.613,96.191 68.564,96.114 68.564,96.025C68.564,95.976 68.582,95.921 68.615,95.861C68.615,95.861 68.623,95.817 68.63,95.781C68.56,95.758 68.484,95.723 68.435,95.651C68.39,95.589 68.371,95.519 68.371,95.434C68.371,95.399 68.377,95.352 68.382,95.308L68.382,95.303C68.382,95.127 68.521,95.034 68.603,94.975C68.66,94.939 68.683,94.924 68.683,94.884C68.683,94.867 68.677,94.845 68.668,94.812C68.66,94.759 68.558,94.354 68.558,94.354C68.496,94.177 68.441,94.019 68.441,93.885C68.441,93.826 68.451,93.775 68.474,93.725C68.474,93.725 68.539,93.672 68.589,93.63C68.56,93.579 68.531,93.525 68.531,93.525C68.531,93.525 68.607,93.541 68.677,93.553C68.718,93.515 68.798,93.449 68.798,93.449C68.798,93.449 68.798,93.523 68.796,93.571C68.802,93.571 68.83,93.574 68.83,93.574L68.966,93.574C68.988,93.35 69.031,92.907 69.031,92.907C69.072,92.719 69.107,92.535 69.107,92.315C69.107,92.261 69.103,92.199 69.097,92.14C68.988,92.117 68.785,92.072 68.785,92.072C68.544,92.035 68.312,91.958 68.142,91.802C68.093,91.843 68.031,91.869 67.947,91.879Z" style="fill:white;fill-rule:nonzero;"/>
                        <path d="M85.775,91.585C85.728,91.655 85.654,91.709 85.515,91.725C85.496,91.782 85.474,91.836 85.474,91.836L85.074,92.768L84.972,92.758L84.574,92.758C84.564,92.991 84.478,93.149 84.398,93.269C84.398,93.269 84.365,93.335 84.334,93.393C84.371,93.422 84.412,93.445 84.412,93.445L84.953,93.9L84.818,94.004C84.636,94.229 84.632,94.541 84.627,94.874L84.566,95.537L84.412,95.839L84.289,96.094C84.289,96.1 84.287,96.591 84.287,96.591L84.289,97.105C83.814,98.037 83.71,99.314 83.623,100.546C83.623,100.546 83.597,100.802 83.591,100.928C83.732,101.012 83.845,101.13 83.925,101.279C84.091,101.274 84.218,101.242 84.296,101.17L84.607,100.895L84.574,101.317C84.566,101.384 84.578,101.413 84.584,101.418C84.584,101.418 84.627,101.456 84.798,101.423C84.798,101.423 84.802,101.376 84.886,101.359L84.886,101.355L85.005,101.065L85.275,100.986C85.216,100.99 85.355,100.884 85.355,100.884C85.445,100.793 85.574,100.665 85.822,100.672C85.865,100.523 85.968,100.441 86.044,100.401C86.097,100.374 86.123,100.362 86.123,100.325C86.123,100.297 86.109,100.263 86.091,100.201L85.91,99.699C85.91,99.699 86.4,100.037 86.408,100.048C86.408,100.043 86.404,100.043 86.404,100.043C86.404,100.007 86.462,99.889 86.462,99.889C86.558,99.681 86.73,99.328 87.146,99.37C87.263,99.002 87.507,98.744 87.916,98.661C87.865,98.683 87.888,98.536 87.888,98.536C87.904,98.385 87.931,98.105 88.214,98.08L88.214,98.079C88.214,98.066 88.386,97.924 88.386,97.924C88.49,97.795 88.623,97.622 88.912,97.622L88.912,96.927L89.101,96.921L89.265,96.916L89.306,96.771L89.347,96.581L89.791,96.101L89.949,95.954C89.947,95.958 90.14,95.781 90.14,95.781C90.316,95.636 90.378,95.576 90.334,95.389L90.199,94.847L90.619,95.229C90.664,95.13 90.761,94.927 90.761,94.927C90.761,94.927 90.882,94.913 90.98,94.9C90.984,94.889 91.007,94.759 91.007,94.759C91.019,94.608 91.046,94.328 91.33,94.303L91.541,94.283L91.505,94.501C91.289,95.851 91.084,97.323 91.084,98.98L91.084,99.061L91.021,99.109C90.828,99.274 90.793,99.67 90.761,100.055C90.761,100.055 90.699,100.45 90.675,100.631C90.798,100.706 91.037,100.706 91.263,100.7C91.263,100.7 91.33,100.698 91.388,100.698C91.373,100.645 91.324,100.45 91.324,100.45L91.367,100.313C91.427,100.243 91.507,100.25 91.621,100.263C91.669,99.975 91.677,99.619 91.683,99.225L91.746,97.938L91.816,97.588C91.882,97.296 91.962,96.969 91.886,96.7L91.853,96.556L91.978,96.495C92.119,96.433 92.119,96.366 92.058,96.156L92.041,95.861C92.085,95.722 92.24,95.743 92.343,95.758L92.359,95.758C92.365,95.725 92.371,95.7 92.371,95.65C92.371,95.49 92.343,95.269 92.332,95.141L92.31,94.741L92.451,93.933C92.533,93.516 92.617,93.117 92.617,92.696C92.617,92.609 92.609,92.517 92.603,92.43C92.546,92.425 92.529,92.445 92.494,92.51L92.064,92.908L92.035,92.641C92.035,92.641 92.015,92.59 91.992,92.545C91.98,92.555 91.964,92.56 91.964,92.56C91.869,92.646 91.714,92.768 91.5,92.778C91.468,93.15 91.255,93.379 91.119,93.496L91.044,93.568C90.814,93.837 90.699,94.024 90.66,94.351L90.646,94.438L90.55,94.491L90.294,94.622C90.294,94.622 90.154,94.693 90.068,94.738C89.99,95.038 89.718,95.764 89.384,95.798C89.351,95.854 89.322,95.918 89.322,95.918C89.203,96.006 89.175,96.097 89.138,96.216L88.912,96.629C88.824,96.718 88.709,96.692 88.621,96.679C88.599,96.707 88.402,96.983 88.402,96.983C88.402,96.983 88.324,96.977 88.259,96.971C88.238,97.352 88.005,97.509 87.857,97.594L87.773,97.651L87.595,97.872C87.48,98.043 87.324,98.249 87.087,98.274C87.072,98.487 87.039,98.679 86.941,98.798L86.888,98.856L86.82,98.859C86.625,98.865 86.472,99.011 86.326,99.149L86.054,99.448C85.869,99.692 85.468,99.863 85.468,99.863L85.445,100.018C85.429,100.151 85.412,100.325 85.275,100.416C85.185,100.481 85.072,100.495 84.925,100.45L84.794,100.414L84.91,98.942L84.953,98.122L85.058,98.089C85.193,98.041 85.246,97.881 85.31,97.621C85.375,97.403 85.468,97.177 85.654,97.033C85.644,96.969 85.64,96.904 85.64,96.844C85.64,96.577 85.687,96.355 85.73,96.142C85.775,95.937 85.82,95.746 85.82,95.509C85.82,95.422 85.812,95.327 85.798,95.222L85.771,95.045L85.951,95.03C85.982,95.025 85.998,95.004 86.023,94.814C86.046,94.661 86.074,94.475 86.216,94.369C86.216,94.369 86.291,94.355 86.359,94.342C86.359,93.949 86.441,93.635 86.521,93.334C86.593,93.033 86.669,92.751 86.669,92.388C86.669,92.302 86.664,92.199 86.652,92.099C86.539,92.039 86.46,91.926 86.418,91.755C86.222,91.764 86.105,91.699 86.015,91.641C85.935,91.598 85.878,91.566 85.775,91.585Z" style="fill:white;fill-rule:nonzero;"/>
                        <path d="M139.18,90.192C139.098,90.296 139.006,90.412 138.85,90.396C138.813,90.396 138.785,90.364 138.752,90.343C138.84,90.453 138.945,90.592 138.945,90.812L138.945,90.854L138.932,91.024L138.762,91.013C138.635,91.003 138.602,91.044 138.533,91.286L138.316,91.701L138.047,91.531C138.084,91.382 138.063,91.313 138.047,91.301C138.039,91.289 138.012,91.283 137.965,91.283C137.965,91.304 137.971,91.33 137.971,91.35C137.971,91.576 137.916,91.752 137.875,91.908C137.83,92.054 137.793,92.188 137.793,92.357C137.793,92.421 137.799,92.483 137.807,92.556L137.816,92.618L137.793,92.671C137.719,92.803 137.561,92.824 137.438,92.838C137.438,92.838 137.359,92.852 137.34,92.856C137.365,92.868 137.369,92.985 137.369,92.985C137.379,93.045 137.387,93.11 137.387,93.174C137.387,93.282 137.367,93.381 137.281,93.455C137.229,93.497 137.166,93.511 137.104,93.511L137.104,94.942L136.932,94.935C136.838,94.934 136.781,94.975 136.721,95.008C136.732,95.058 136.768,95.119 136.768,95.156C136.768,95.322 136.672,95.422 136.613,95.488L136.561,95.546C136.561,95.542 136.643,95.672 136.643,95.672L136.795,95.931L136.512,95.953C136.334,95.953 136.109,96.204 136.047,96.399C136.133,96.409 136.223,96.466 136.252,96.62L136.266,96.689L136.184,96.796L136.059,97.003C136.029,97.077 135.988,97.158 135.93,97.227C136.037,97.335 136.115,97.469 136.115,97.653L136.109,97.771L135.998,97.838C135.822,97.95 135.725,98.036 135.619,98.197C135.66,98.252 135.689,98.32 135.689,98.39C135.689,98.4 135.689,98.41 135.686,98.423C135.68,98.45 135.471,98.617 135.471,98.617C135.471,98.617 135.418,98.638 135.381,98.656C135.367,98.725 135.262,99.224 135.262,99.224C135.262,99.224 135.176,99.596 135.135,99.779C135.217,99.833 135.297,99.883 135.297,99.883L135.412,99.97C135.805,100.076 135.842,100.268 135.848,100.445C135.854,100.523 135.854,100.543 135.906,100.587C135.906,100.582 136.082,100.572 136.082,100.572C136.229,100.547 136.416,100.521 136.525,100.663C136.561,100.713 136.572,100.768 136.574,100.831C136.672,100.814 136.758,100.782 136.844,100.725C136.971,100.636 137.123,100.536 137.379,100.539C137.438,100.266 137.551,100.001 137.832,99.866C137.82,99.842 137.803,99.796 137.803,99.796C137.803,99.796 137.873,99.802 137.938,99.808C138.029,99.779 138.258,99.691 138.258,99.691C138.258,99.691 138.221,99.771 138.188,99.836C138.385,99.855 138.455,99.759 138.555,99.594L138.828,99.269C138.834,99.269 139.158,99.105 139.158,99.105C139.256,99.064 139.307,99.016 139.371,98.968C139.365,98.945 139.342,98.894 139.342,98.894L139.418,98.779C139.477,98.715 139.59,98.692 139.701,98.677C139.686,98.622 139.66,98.558 139.66,98.51C139.66,98.425 139.684,98.352 139.746,98.302C139.799,98.252 139.867,98.252 139.936,98.26C139.932,98.252 139.922,98.217 139.922,98.217L140.18,97.995C140.27,98.105 140.279,98.1 140.414,97.985C140.486,97.929 140.637,97.837 140.805,97.87C140.875,97.67 140.969,97.495 141.068,97.332L141.309,96.936C141.309,96.936 141.34,96.974 141.354,97.004C141.408,96.846 141.482,96.673 141.666,96.596C141.736,96.57 141.814,96.573 141.9,96.585C141.977,96.129 142.354,95.702 142.705,95.614C142.715,95.61 142.721,95.614 142.727,95.61C142.727,95.591 142.711,95.588 142.711,95.564C142.711,95.536 142.715,95.501 142.719,95.465L142.74,95.322L142.832,95.328L143.266,95.325C143.324,95.33 143.41,95.341 143.477,95.341C143.469,95.31 143.457,95.281 143.457,95.25C143.457,95.153 143.514,95.054 143.566,94.948C143.471,94.959 143.383,94.963 143.303,94.92C143.176,94.85 143.115,94.721 143.145,94.585C143.182,94.323 143.434,94.294 143.631,94.299C143.809,93.807 144.23,93.586 144.584,93.468C144.621,93.372 144.656,93.282 144.656,93.216C144.656,93.094 144.584,93.006 144.453,92.838L144.32,92.672L144.58,92.558L144.656,92.517L145.275,92.348L145.176,92.594L145.119,92.996C145.105,93.072 145.1,93.126 145.094,93.183C145.188,93.168 145.494,93.115 145.494,93.115L145.455,93.291C145.465,93.336 145.467,93.378 145.467,93.418C145.467,93.672 145.365,93.848 145.299,93.973L145.236,94.1C145.242,94.096 145.363,94.172 145.363,94.172L145.514,94.278L145.389,94.467L145.145,94.789C145.145,94.789 145.084,94.882 145.041,94.948C145.066,95.016 145.1,95.081 145.1,95.153C145.1,95.36 145.016,95.588 144.928,95.817C144.832,96.078 144.736,96.345 144.736,96.612C144.736,96.671 144.738,96.717 144.744,96.772L144.766,96.878L144.611,96.969L144.473,97.067C144.473,97.067 144.404,97.118 144.336,97.163C144.348,97.217 144.512,97.874 144.512,97.874L144.32,97.841C144.209,97.855 144.184,97.857 144.197,98.114L144.18,98.433L144.025,98.682L143.895,98.885C143.895,98.922 143.809,100.01 143.809,100.01C143.809,100.01 143.77,100.749 143.762,100.926C143.832,100.981 143.891,101.066 143.9,101.226C143.926,101.23 144.025,101.251 144.025,101.251C144.174,101.265 144.439,101.293 144.463,101.578C144.463,101.57 144.488,101.737 144.488,101.737L144.488,102.361C144.525,102.344 144.58,102.344 144.6,102.316C144.672,102.233 144.705,102.101 144.705,101.921C144.705,101.869 144.703,101.813 144.701,101.757L144.676,101.507L144.908,101.571C145.01,101.601 145.014,101.595 145.068,101.508C145.105,101.454 145.174,101.386 145.26,101.336C145.248,101.23 145.242,101.121 145.242,101.016C145.242,100.469 145.348,99.954 145.447,99.489C145.527,99.086 145.609,98.691 145.609,98.329C145.609,98.169 145.596,98.008 145.555,97.862L145.521,97.741L145.623,97.674C145.953,97.457 146.061,96.983 146.178,96.482C146.271,96.1 146.365,95.702 146.566,95.398C146.471,95.242 146.396,95.066 146.396,94.932C146.396,94.914 146.396,94.903 146.398,94.887C146.396,94.91 146.539,94.695 146.539,94.695L146.701,94.533L146.701,94.528C146.701,94.487 146.768,94.082 146.768,94.082L146.836,93.685L146.877,93.57C147.135,92.868 147.307,92.394 147.113,91.764L147.082,91.66L147.158,91.588C147.258,91.494 147.256,91.204 147.25,90.945L147.244,90.696C147.229,90.697 147.057,90.551 146.938,90.547C146.959,90.589 146.99,90.627 146.994,90.678L146.994,90.7C146.994,90.858 146.887,90.982 146.738,91.01L146.607,91.034L146.541,90.884L146.49,90.757C146.443,90.678 146.396,90.57 146.391,90.419C146.039,90.417 145.744,90.542 145.686,90.657C145.678,90.669 145.666,90.688 145.705,90.732L145.93,91.024L145.568,91.013C145.381,91.005 145.262,91.047 145.176,91.1L145.176,91.558L145.043,91.588C144.885,91.629 144.793,91.742 144.68,91.888C144.57,92.033 144.414,92.182 144.184,92.256L144.184,92.865L143.998,92.901C143.998,92.901 143.707,92.976 143.617,93.002L143.617,93.656C143.617,93.656 143.225,93.594 143.211,93.59C143.221,93.596 143.223,93.632 143.223,93.654L143.223,93.674L143.166,93.98L142.838,94.141L142.762,94.162C142.77,94.204 142.779,94.249 142.779,94.294C142.779,94.346 142.764,94.4 142.721,94.447C142.66,94.51 142.582,94.513 142.504,94.507C142.506,94.513 142.504,94.513 142.508,94.525C142.535,94.567 142.574,94.635 142.574,94.706C142.574,94.734 142.57,94.765 142.549,94.793C142.504,94.905 142.385,94.924 142.346,94.934C142.309,94.935 141.986,94.869 141.986,94.869C141.986,94.869 141.943,94.85 141.928,94.847L141.928,94.849C141.936,94.863 141.961,94.869 141.965,94.875C141.977,94.903 141.979,94.932 141.979,94.955C141.979,95.048 141.922,95.127 141.867,95.199C141.824,95.254 141.752,95.348 141.752,95.398L141.752,95.408L142.225,95.88L141.721,95.804C141.262,95.722 141.164,95.947 141.02,96.287C141.02,96.287 140.719,96.801 140.717,96.806C140.723,96.824 140.748,96.835 140.748,96.857C140.748,96.871 140.748,96.891 140.746,96.907C140.717,97.034 140.598,97.08 140.545,97.099C140.537,97.11 140.514,97.158 140.514,97.158C140.514,97.158 140.512,97.125 140.51,97.118C140.492,97.12 140.477,97.125 140.477,97.125L140.43,97.108C140.289,97.067 140.25,97.095 140.174,97.153C140.174,97.153 140.006,97.192 139.877,97.221C139.613,97.62 139.283,98.06 138.883,98.39C138.793,98.46 138.682,98.435 138.602,98.421L138.602,98.457C138.602,98.519 138.574,98.638 138.41,98.702C138.41,98.702 138.207,98.711 138.146,98.711C138.168,98.768 138.172,98.829 138.205,98.881L138.422,99.204L138.047,99.149C137.768,99.107 137.725,99.171 137.646,99.315L137.471,99.547L137.092,99.775L136.432,100.177L136.494,99.811C136.533,99.608 136.498,99.517 136.441,99.391L136.291,98.758L136.533,98.806C136.533,98.806 136.563,98.808 136.6,98.808C136.59,98.782 136.576,98.755 136.576,98.755L136.496,98.346L136.496,98.338C136.496,98.279 136.568,98.243 136.691,98.187L136.832,98.117C136.902,98.042 136.916,97.886 136.916,97.719C136.916,97.637 136.912,97.554 136.912,97.471L136.912,96.904L137.076,96.919L137.445,96.919C137.438,96.857 137.416,96.796 137.416,96.737C137.416,96.399 137.566,96.141 137.719,95.887C137.885,95.61 138.051,95.33 138.051,94.914C138.051,94.871 138.047,94.826 138.047,94.78L138.029,94.588L138.318,94.6C138.313,94.585 138.311,94.558 138.311,94.533C138.311,94.434 138.336,94.278 138.336,94.278L138.5,94.086C138.5,94.086 138.611,93.987 138.617,93.977C138.6,93.973 138.533,93.757 138.533,93.757L138.354,93.446L138.625,93.43C138.688,93.425 138.709,93.399 138.766,93.247C138.813,93.118 138.92,92.927 139.154,92.875C139.137,92.785 139.107,92.696 139.107,92.607C139.107,92.183 139.336,91.815 139.73,91.512C139.707,91.43 139.678,91.345 139.678,91.265C139.678,91.129 139.699,91.003 139.721,90.88L139.748,90.449C139.746,90.454 139.617,90.333 139.617,90.333C139.512,90.25 139.414,90.155 139.387,90.016C139.313,90.052 139.25,90.106 139.18,90.192Z" style="fill:white;fill-rule:nonzero;"/>
                        <path d="M164.76,93.697C164.609,93.746 164.416,93.8 164.164,93.789C164.164,93.828 164.191,93.844 164.27,93.874C164.27,93.874 164.895,94.421 164.908,94.432C164.895,94.409 164.938,94.381 164.926,94.35C164.82,94.257 164.658,94.24 164.658,94.13C164.658,94.08 164.674,94.025 164.709,93.97L164.771,93.855L164.926,93.868C164.992,93.871 165.029,93.865 165.037,93.855C165.037,93.855 165.066,93.834 165.066,93.752C165.066,93.734 165.059,93.716 165.059,93.697C164.982,93.651 164.926,93.648 164.76,93.697ZM161.902,89.245L161.879,89.232C161.863,89.301 161.855,89.376 161.795,89.424C161.756,89.453 161.719,89.447 161.684,89.463C161.691,89.467 161.693,89.474 161.693,89.474L161.703,89.517C161.703,89.537 161.707,89.548 161.707,89.563C161.707,89.67 161.658,89.745 161.57,89.787C161.451,89.847 161.348,89.805 161.25,89.76C161.238,89.775 161.031,90.104 161.031,90.104C161.031,90.104 160.994,90.109 160.969,90.112C160.969,90.134 160.965,90.16 160.965,90.178C160.965,90.35 161.014,90.483 161.119,90.588L161.359,90.841L160.924,90.866L160.801,90.874C160.742,90.908 160.725,91.047 160.713,91.152C160.688,91.334 160.66,91.539 160.469,91.661C160.469,91.661 160.352,91.681 160.242,91.7C160.23,91.749 160.219,91.805 160.219,91.846C160.219,92.017 160.299,92.12 160.389,92.243L160.756,92.987L160.383,92.896C160.176,92.874 160.02,92.888 159.959,92.947C159.91,92.984 159.893,93.055 159.893,93.143C159.893,93.15 159.895,93.166 159.895,93.176C159.936,93.174 159.982,93.153 160.076,93.102C160.164,93.049 160.291,92.977 160.439,93.034C160.6,93.089 160.615,93.238 160.627,93.293L160.648,93.475L160.422,93.484C160.332,93.487 160.299,93.517 160.242,93.746C160.242,93.746 160.199,93.834 160.148,93.912C160.281,93.945 160.434,93.995 160.441,94.177L160.459,94.396L160.262,94.352L159.754,94.263C159.754,94.263 159.713,94.249 159.684,94.245L159.684,94.267C159.684,94.405 159.766,94.461 159.896,94.552L160.09,94.693L160.086,94.765L160.086,95.808L159.766,95.808C159.779,95.86 159.805,95.933 159.805,95.977C159.805,96.097 159.77,96.182 159.748,96.249C159.816,96.272 159.893,96.308 159.92,96.389L159.959,96.474L159.865,96.61C159.805,96.675 159.721,96.688 159.611,96.683L159.617,96.711L159.762,97.007L159.67,97.058L159.547,97.252C159.547,97.258 159.541,97.455 159.541,97.455C159.541,97.496 159.547,97.543 159.547,97.588C159.547,97.716 159.514,97.854 159.455,97.988C159.584,98.018 159.717,98.069 159.721,98.245C159.766,98.326 159.783,98.397 159.783,98.459C159.783,98.596 159.701,98.676 159.611,98.733C159.621,98.744 159.646,98.733 159.66,98.749C159.684,98.787 159.701,98.821 159.701,98.856C159.701,98.867 159.684,98.877 159.684,98.891C159.865,98.933 160.02,99.085 160.076,99.214L160.146,99.391L159.926,99.434C159.645,99.495 159.279,99.662 159.209,100.352C159.254,100.387 159.275,100.449 159.311,100.516C159.383,100.504 159.617,100.455 159.617,100.455L159.789,100.643C159.789,100.643 159.811,100.683 159.836,100.718C159.926,100.746 160.041,100.791 160.133,100.847C160.148,100.843 160.34,100.8 160.34,100.8L160.857,100.672L160.951,100.759L161.139,100.839C161.139,100.839 161.783,100.936 161.795,100.94C161.773,100.843 161.738,100.753 161.664,100.664L161.373,100.177L161.574,100.133C161.707,100.077 161.742,100.016 161.752,99.975C161.76,99.954 161.762,99.932 161.762,99.908C161.762,99.721 161.57,99.464 161.492,99.36L161.359,99.188L161.783,99.048C161.727,99.044 161.643,98.661 161.643,98.661L161.76,98.494C161.76,98.494 161.785,98.459 161.805,98.429C161.699,98.303 161.643,98.144 161.643,98.122C161.613,98.012 161.604,97.911 161.604,97.814C161.604,97.594 161.658,97.427 161.699,97.285C161.732,97.177 161.752,97.092 161.752,97.006C161.752,96.92 161.732,96.839 161.662,96.733L161.391,96.321L162.104,96.55C162.141,96.566 162.162,96.552 162.188,96.542L162.096,96.495C161.98,96.447 161.76,96.366 161.76,96.128C161.76,96.058 161.785,95.967 161.832,95.865L161.877,95.771L162.492,95.7C162.664,95.67 162.828,95.674 163.004,95.695C162.998,95.652 162.967,95.588 162.967,95.556C162.967,95.48 162.998,95.431 163.076,95.392C163.244,95.324 163.361,95.431 163.434,95.491C163.434,95.491 163.496,95.539 163.555,95.578C163.607,95.475 163.674,95.372 163.674,95.372C163.705,95.352 164.039,95.319 164.039,95.319C164.09,95.339 164.223,95.238 164.223,95.238C164.336,95.138 164.529,94.991 164.787,94.971C164.768,94.924 164.746,94.85 164.746,94.85L165.012,94.638C165.012,94.638 165.037,94.65 165.041,94.654C165.002,94.6 164.957,94.532 164.912,94.433L164.354,94.352C164.178,94.35 164.074,94.405 163.939,94.471L163.619,94.638L163.615,94.329L163.615,94.263C163.488,94.31 163.385,94.379 163.275,94.507C163.141,94.657 162.939,94.798 162.646,94.87C162.646,94.882 162.654,94.888 162.654,94.893C162.654,94.975 162.615,95.054 162.545,95.118C162.387,95.258 162.057,95.299 161.84,95.212C161.707,95.155 161.635,95.056 161.635,94.942C161.635,94.921 161.637,94.896 161.643,94.875L161.68,94.737L161.961,94.737C161.947,94.65 161.902,94.552 161.902,94.471C161.902,94.314 161.939,94.183 161.961,94.065L161.998,93.761L161.969,93.629C161.949,93.521 161.926,93.404 161.926,93.292C161.926,93.158 161.961,93.026 162.086,92.937C162.156,92.881 162.256,92.86 162.369,92.85C162.352,92.72 162.26,92.64 162.143,92.559L161.926,92.267L162.057,92.026C162.232,91.889 162.279,91.828 162.279,91.773C162.279,91.746 162.27,91.724 162.252,91.697L162.178,91.25L162.309,91.079C162.309,91.079 162.322,91.052 162.336,91.028C162.266,90.975 162.174,90.893 162.174,90.737C162.174,90.716 162.176,90.695 162.178,90.677L162.191,90.541L162.217,90.541C162.195,90.475 162.178,90.379 162.178,90.379L162.336,90.195C162.336,90.188 162.344,90.178 162.344,90.172C162.344,90.112 162.293,90.043 162.293,90.043L162.086,89.727L162.293,89.67C162.41,89.624 162.471,89.491 162.541,89.346C162.541,89.346 162.59,89.259 162.646,89.178C162.574,89.222 162.492,89.264 162.387,89.227C162.297,89.197 162.256,89.147 162.225,89.094C162.195,89.102 161.902,89.245 161.902,89.245Z" style="fill:white;fill-rule:nonzero;"/>
                        <path d="M167.033,88.822C167.031,88.848 167.014,88.87 167.014,88.9C167.014,88.971 167.033,89.051 167.051,89.137L167.088,89.556L166.914,90.114L166.734,90.717L166.734,91.158C166.738,91.266 166.744,91.368 166.744,91.464C166.744,91.724 166.703,91.931 166.512,92.026C166.492,92.037 166.453,92.041 166.424,92.047C166.438,92.064 166.434,92.073 166.461,92.088C166.572,92.149 166.746,92.251 166.746,92.474C166.746,92.522 166.742,92.572 166.727,92.625L166.713,92.667L166.496,92.865C166.332,93.002 166.201,93.109 166.191,93.316L166.256,93.63C166.285,93.749 166.316,93.866 166.316,93.98C166.316,94.089 166.285,94.19 166.207,94.282C166.133,94.364 165.979,94.387 165.84,94.422C165.863,94.612 165.918,95.137 165.918,95.137L166.031,95.938L165.766,95.951C165.664,95.938 165.648,95.954 165.578,96.043C165.578,96.043 165.529,96.089 165.475,96.129C165.52,96.252 165.555,96.379 165.555,96.556C165.555,96.787 165.529,97.054 165.506,97.357C165.473,97.683 165.439,98.054 165.439,98.404C165.439,98.934 165.516,99.441 165.795,99.753L165.828,99.796L165.828,100.669L165.84,100.665C166.715,100.568 167.617,100.457 168.439,100.296C168.4,99.825 168.285,99.384 168.162,98.962L167.922,97.981L168.021,97.491C168.021,97.491 168.053,97.393 168.076,97.316C168.025,97.296 167.973,97.271 167.973,97.271L167.887,96.871C167.887,96.871 167.963,96.878 168.041,96.881C168.01,96.835 167.98,96.801 167.939,96.718C167.85,96.658 167.699,96.535 167.699,96.352C167.699,96.292 167.719,96.224 167.762,96.147C167.766,96.141 167.941,95.926 167.941,95.926C168.053,95.812 168.135,95.724 168.135,95.563C168.135,95.516 168.129,95.454 168.105,95.384L168.016,95.067L168.574,95.245C168.594,95.255 168.604,95.25 168.625,95.245C168.617,95.229 168.611,95.218 168.555,95.192L168.291,94.963L168.195,94.679L167.887,94.329L168.107,94.162L168.09,94.168L168.107,93.735L168.314,93.72L168.676,93.72C168.703,93.592 168.744,93.367 168.744,93.367L168.867,92.619C168.867,92.619 169.006,92.696 169.014,92.703C169.029,92.625 169.07,92.555 169.111,92.493C169.184,92.41 169.219,92.352 169.225,92.302C169.096,92.287 168.82,92.253 168.82,92.007L168.82,91.821C168.82,91.821 169.088,91.837 169.096,91.837C169.055,91.762 168.992,91.649 168.992,91.649L168.637,90.875C168.637,90.875 168.732,90.929 168.82,90.97L168.834,90.888L169.092,90.75C169.295,90.639 169.404,90.542 169.473,90.412C169.285,90.406 169.029,90.37 169.006,90.134L168.98,89.972C168.98,89.972 169.508,89.9 169.523,89.9C169.492,89.893 169.457,89.709 169.457,89.709C169.457,89.709 169.42,89.539 169.391,89.412C169.154,89.382 169.037,89.257 168.971,89.141C168.938,89.148 168.811,89.204 168.811,89.204C168.672,89.246 168.418,89.233 168.275,89.091C168.236,89.052 168.203,88.989 168.195,88.909C168.162,88.925 168.115,88.925 168.078,88.944C167.928,89.037 167.738,89.148 167.396,89.122L167.188,89.107L167.203,88.94C167.207,88.884 167.199,88.851 167.188,88.844C167.18,88.841 167.145,88.822 167.033,88.822Z" style="fill:white;fill-rule:nonzero;"/>
                        <path d="M178.744,96.936C178.883,96.943 179.018,96.935 179.115,96.904C179.148,96.891 179.133,96.885 179.154,96.875C179.07,96.84 179.002,96.796 178.93,96.745C178.879,96.817 178.813,96.881 178.744,96.936ZM174.609,95.668C174.674,95.592 174.711,95.521 174.725,95.426C174.666,95.412 174.602,95.384 174.551,95.355C174.564,95.446 174.592,95.589 174.609,95.668ZM172.955,88.822C172.9,88.884 172.875,88.971 172.875,89.067C172.875,89.182 172.916,89.313 172.998,89.464L173.105,89.657L172.846,89.704C172.684,89.729 172.635,89.838 172.635,90.066C172.635,90.14 172.637,90.226 172.646,90.332L172.656,90.717L172.471,91.308C172.393,91.508 172.314,91.724 172.314,91.865C172.314,91.931 172.33,91.98 172.375,92.004L172.701,92.164L172.359,92.304C172.246,92.349 172.148,92.426 172.148,92.615C172.148,92.729 172.186,92.887 172.281,93.109L172.342,93.24L171.932,93.432C171.916,93.461 171.912,93.492 171.912,93.533C171.912,93.633 171.955,93.771 172.006,93.896L172.119,94.329L172.008,94.739L171.939,95.172L172.002,95.28L172.178,95.829L171.949,95.804C171.904,95.812 171.775,95.833 171.738,96.039C171.73,96.078 171.73,96.118 171.73,96.157C171.73,96.443 171.898,96.745 172.006,96.796L172.424,96.975L171.979,97.105C171.6,97.218 171.479,97.365 171.479,97.595C171.479,97.741 171.523,97.913 171.588,98.133C171.658,98.368 171.738,98.62 171.738,98.878C171.738,99.011 171.664,99.149 171.617,99.286C171.867,99.329 172.131,99.399 172.273,99.628L172.369,99.785L172.063,99.906C172.08,99.912 172.168,99.988 172.324,100.1L172.684,100.367L172.332,100.45C172.207,100.481 172.135,100.535 172.125,100.665C172.262,100.832 172.521,100.921 172.805,101.016C173.098,101.107 173.383,101.225 173.594,101.419C173.77,101.411 174.342,101.383 174.342,101.383C174.602,101.391 174.791,101.376 175.008,101.263L175.008,101.25C175.008,101.179 175.043,101.087 175.203,101.013L175.328,100.952L175.512,101.095L175.514,101.101C175.52,101.028 175.543,100.938 175.643,100.877C175.691,100.85 175.783,100.817 175.914,100.847L176.002,100.867L176.043,100.935C176.104,101.028 176.117,101.05 176.439,100.941C176.564,100.898 176.715,100.867 176.869,100.847C176.865,100.837 176.859,100.817 176.859,100.817C176.826,100.755 176.795,100.696 176.795,100.629C176.795,100.588 176.809,100.548 176.842,100.505C176.873,100.471 176.953,100.445 177.051,100.427C177.016,100.365 176.961,100.302 176.961,100.241C176.961,100.217 176.967,100.188 176.975,100.161C177,100.102 177.059,100.025 177.219,99.981C177.258,99.971 177.281,99.971 177.305,99.968C177.305,99.959 177.297,99.947 177.297,99.942C177.297,99.741 177.426,99.594 177.527,99.485L177.635,99.348L178.021,99.485C178.029,99.483 178.029,99.475 178.029,99.468C178.029,99.441 178.02,99.403 177.973,99.368L177.832,99.329L177.992,99.222C178,99.201 178.002,99.172 178.002,99.141C178.002,99.016 177.92,98.894 177.832,98.778L177.758,98.676L177.887,98.549L178.203,98.222C178.203,98.222 178.213,98.211 178.213,98.209C178.035,98.149 177.883,98.051 177.809,97.869L177.727,97.65L178.008,97.645C178.26,97.637 178.549,97.63 178.65,97.543C178.65,97.543 178.65,97.537 178.656,97.532C178.379,97.517 178.125,97.487 177.955,97.341L177.564,96.309C177.564,96.309 177.785,96.495 177.959,96.65C177.914,96.583 177.701,96.259 177.701,96.259L178.195,96.48C178.195,96.48 178.279,96.512 178.355,96.539C178.42,96.35 178.555,96.224 178.676,96.149C178.744,96.11 178.74,96.078 178.766,96.045C178.645,96.011 178.518,95.954 178.518,95.782L178.65,95.504L178.697,95.381C178.695,95.389 178.494,95.3 178.494,95.3L178.248,95.192C178.15,95.141 178.145,95.073 178.139,95.012C178.057,95.059 177.973,95.109 177.973,95.109L177.477,94.988L177.621,94.905C177.621,94.905 177.666,94.812 177.705,94.729C177.67,94.743 177.631,94.743 177.594,94.761L177.592,94.761C177.561,94.844 177.482,94.92 177.324,94.933L177.291,94.939L175.633,94.703L174.813,94.635L174.777,94.565L174.674,94.38C174.609,94.253 174.57,94.204 174.471,94.196C174.502,94.292 174.545,94.356 174.602,94.416C174.695,94.511 174.775,94.605 174.775,94.739C174.775,94.802 174.709,94.893 174.674,94.975C174.73,94.975 174.791,94.977 174.791,94.977L175.281,95.078C175.297,95.088 175.332,95.292 175.338,95.34C175.396,95.34 175.461,95.342 175.461,95.342C175.631,95.33 176.023,95.306 176.066,95.62C176.066,95.62 176.082,95.722 176.09,95.744C176.158,95.794 176.221,95.844 176.221,95.844C176.232,95.855 176.248,96.179 176.248,96.179C176.248,96.179 176.236,96.293 176.236,96.3C176.244,96.301 176.305,96.338 176.305,96.338L176.596,96.592C176.596,96.597 176.76,97.238 176.76,97.238L176.781,97.351C176.863,97.732 176.891,98.005 176.891,98.204C176.891,98.568 176.791,98.662 176.711,98.692C176.715,98.721 176.742,98.754 176.742,98.778C176.742,98.962 176.654,99.105 176.59,99.219C176.537,99.307 176.502,99.372 176.502,99.441C176.502,99.49 176.521,99.547 176.578,99.612L176.766,99.865L176.408,99.877C176.035,99.891 176.002,99.964 175.939,100.104C175.865,100.27 175.756,100.516 175.174,100.601L174.865,100.639L174.932,100.391C175.027,100.048 174.881,99.741 174.742,99.436L174.57,99.014C174.57,99.016 174.68,98.69 174.68,98.69L174.748,98.552C174.734,98.345 174.633,98.286 174.404,98.146L174.096,97.942L174.236,97.645C174.236,97.645 174.355,97.676 174.443,97.702C174.418,97.661 174.418,97.609 174.385,97.574C174.309,97.489 174.254,97.382 174.225,97.263C174.172,97.282 174.125,97.306 174.066,97.297C173.867,97.275 173.762,97.132 173.689,97.017L173.531,96.757L173.893,96.773C174.055,96.785 174.092,96.738 174.201,96.551C174.201,96.551 174.244,96.495 174.275,96.461C174.158,96.443 174.035,96.433 173.916,96.447C173.699,96.461 173.436,96.482 173.332,96.286L173.24,96.127L173.654,95.99C173.902,95.913 174.135,95.842 174.24,95.696C174.24,95.696 174.43,95.419 174.49,95.33C174.207,95.169 173.977,94.922 173.916,94.524C173.902,94.449 173.9,94.37 173.9,94.288C173.9,93.836 174.102,93.391 174.545,93.291L174.725,93.249C174.725,93.249 174.748,93.325 174.777,93.384C174.797,93.194 174.822,93.002 174.822,92.812C174.822,92.352 174.719,91.929 174.508,91.555C174.486,91.558 174.471,91.576 174.451,91.578C174.244,91.589 174.074,91.483 174.035,91.308L174,91.184L174.189,91.109L174.451,91.003C174.564,90.941 174.719,90.864 174.889,90.863C174.867,90.833 174.865,90.798 174.824,90.759C174.824,90.759 174.73,90.648 174.66,90.556C174.637,90.601 174.605,90.656 174.551,90.688L174.469,90.734L174.102,90.669C173.813,90.621 173.492,90.575 173.338,90.343L173.146,90.071L173.535,90.093C173.756,90.098 173.9,90.059 174.01,90.005C173.992,89.885 173.9,89.825 173.689,89.743C173.482,89.657 173.215,89.551 173.139,89.285L173.066,89.051L173.365,89.076C173.619,89.094 173.846,89.242 174.066,89.387C174.121,89.425 174.191,89.468 174.258,89.509C174.303,89.446 174.371,89.392 174.438,89.354C174.438,89.354 174.469,89.33 174.496,89.313C174.377,89.242 174.283,89.158 174.275,89.051L174.275,89.037C174.275,88.944 174.346,88.83 174.545,88.784L174.66,88.763L174.66,88.784L174.984,89.028C175.023,89.096 175.053,89.118 175.111,89.112C175.105,88.892 174.992,88.771 174.85,88.629C174.85,88.629 174.754,88.506 174.674,88.41C173.787,88.422 173.162,88.558 172.955,88.822Z" style="fill:white;fill-rule:nonzero;"/>
                        <path d="M156.783,105.28C156.783,105.319 156.787,105.337 156.797,105.341C156.797,105.341 156.828,105.364 156.908,105.361C156.916,105.326 156.922,105.295 156.922,105.295C156.922,105.299 156.814,105.271 156.814,105.271C156.814,105.271 156.787,105.259 156.785,105.255C156.783,105.26 156.783,105.268 156.783,105.28ZM150.225,89.687C150.221,89.743 150.207,89.86 150.207,89.86C150.211,89.891 150.211,89.923 150.211,89.96C150.211,90.089 150.193,90.231 150.094,90.368C150.098,90.364 149.756,90.513 149.756,90.513C149.756,90.513 149.73,90.519 149.709,90.527C149.717,90.55 149.717,90.564 149.748,90.606L149.889,90.945L149.766,91.002C149.709,91.06 149.701,91.088 149.689,91.118C149.867,91.154 149.953,91.282 149.992,91.365L150.037,91.437C150.037,91.437 150.057,91.437 150.063,91.434C150.047,91.328 150.033,91.209 150.033,91.209C150.016,91.14 150.004,91.079 150.004,91.018C150.004,90.924 150.025,90.816 150.09,90.638L150.137,90.495L150.283,90.531C150.41,90.558 150.42,90.542 150.48,90.396C150.537,90.281 150.637,90.094 150.885,90.071L150.879,90.07C150.842,90.037 150.775,89.995 150.775,89.995L150.465,89.791C150.391,89.712 150.342,89.672 150.225,89.687ZM155.469,86.435C155.506,86.471 155.523,86.528 155.557,86.578C155.57,86.467 155.576,86.417 155.586,86.317C155.486,86.294 155.389,86.267 155.389,86.267C155.389,86.267 155.363,86.264 155.35,86.261C155.363,86.312 155.389,86.359 155.469,86.435ZM153.389,86.287C153.223,86.346 153.029,86.402 152.824,86.28C152.758,86.371 152.715,86.508 152.682,86.666C152.623,86.926 152.561,87.223 152.305,87.361L152.111,87.47L152.033,87.079L152.088,87.005L151.621,87.519C151.363,87.743 151.199,87.904 151.199,88.102C151.199,88.164 151.213,88.227 151.248,88.298C151.248,88.298 151.029,88.458 150.998,88.479C150.99,88.634 150.979,88.835 150.826,88.941C150.795,88.965 150.752,88.968 150.709,88.976C150.73,89.175 150.789,89.338 150.863,89.506C150.863,89.506 150.922,89.649 150.951,89.717C150.963,89.712 150.973,89.704 150.982,89.703C150.979,89.681 150.889,89.408 150.889,89.408L151.102,89.365C151.283,89.371 151.404,89.334 151.498,89.274C151.488,89.267 151.432,89.234 151.432,89.234C151.34,89.185 151.168,89.097 151.168,88.863C151.168,88.793 151.186,88.706 151.223,88.6L151.264,88.491L151.383,88.494C151.76,88.501 152.021,88.386 152.242,88.118L152.318,88.024L152.473,88.094L152.77,88.211C152.77,88.211 152.848,88.244 152.914,88.267L152.914,88.265C152.914,88.074 152.938,87.83 153.18,87.771L153.309,87.736L153.371,87.86C153.432,87.992 153.555,88.063 153.656,88.159C153.686,88.039 153.748,87.933 153.908,87.912L154.121,87.883C154.121,87.883 154.063,88.347 154.063,88.35C154.063,88.337 154.266,88.337 154.266,88.337L154.688,88.356L155.008,88.653L155.248,88.931L155.158,89.095L155.105,89.141L155.129,89.213C155.143,89.269 155.166,89.346 155.166,89.438C155.166,89.456 155.148,89.481 155.143,89.506C155.207,89.506 155.285,89.496 155.285,89.496L155.488,89.838C155.488,89.838 155.494,89.856 155.498,89.871C155.529,89.852 155.557,89.825 155.596,89.821C155.754,89.805 155.902,89.914 155.932,90.082L155.965,90.257L155.793,90.286C155.668,90.308 155.59,90.389 155.498,90.495L155.039,90.941L155.039,90.929C154.998,91.097 154.965,91.22 154.949,91.281C154.982,91.619 155.098,91.863 155.297,92.01L155.186,92.321L154.744,92.218C154.646,92.191 154.506,92.159 154.389,92.132C154.379,92.221 154.336,92.297 154.295,92.354C154.301,92.352 154.328,92.344 154.328,92.344C154.494,92.276 154.688,92.196 154.863,92.276L155.377,92.882L154.893,92.757C154.693,92.725 154.637,92.761 154.621,92.778C154.576,92.814 154.588,92.967 154.596,93.075C154.604,93.258 154.623,93.489 154.439,93.6L154.186,93.762L154.186,93.412C154.09,93.423 154.002,93.412 153.93,93.377C153.928,93.526 153.779,93.576 153.566,93.642C153.566,93.642 153.471,93.675 153.406,93.699C153.42,93.762 153.605,94.481 153.605,94.481L153.285,94.336L153.084,94.277C153.033,94.277 152.992,94.26 152.945,94.245C152.979,94.284 153.02,94.325 153.057,94.355L153.631,94.938L153.01,94.777L152.855,94.739C152.855,94.739 152.857,94.739 152.857,94.742C152.857,94.762 152.834,94.855 152.834,94.855L152.65,95.197L152.059,95.245L152.203,95.049C152.203,95.049 152.227,94.992 152.248,94.933C151.953,95.106 151.668,95.359 151.658,95.516C151.658,95.519 151.652,95.521 151.652,95.527C151.652,95.548 151.664,95.583 151.742,95.633L151.652,95.954C151.566,95.951 151.529,95.988 151.457,96.07L151.184,96.244C151.184,96.244 151.117,96.209 151.07,96.18C150.998,96.329 150.857,96.411 150.766,96.433C150.766,96.433 150.742,96.447 150.711,96.454C150.715,96.483 150.73,96.517 150.73,96.543C150.73,96.784 150.57,96.885 150.473,96.946C150.408,96.988 150.381,97.007 150.381,97.057C150.381,97.089 150.389,97.125 150.408,97.18C150.408,97.18 150.451,97.324 150.492,97.46C150.502,97.463 150.518,97.487 150.518,97.487C150.516,97.495 150.516,97.502 150.508,97.51C150.555,97.649 150.588,97.763 150.6,97.792C150.619,97.816 150.629,97.832 150.658,97.861C150.766,97.994 150.916,98.176 150.928,98.399C151.006,98.287 151.131,98.163 151.418,98.226L151.455,98.243L151.482,98.264C151.629,98.383 151.689,98.383 151.842,98.264L151.963,98.167L152.064,98.282C152.227,98.455 152.26,98.716 152.26,99.003L152.26,99.058C152.271,99.058 152.813,98.912 152.813,98.912L152.799,99.045L152.955,99.497C153.008,99.707 153.057,99.909 153.172,99.995C153.189,99.99 153.191,99.971 153.215,99.971C153.555,100.068 153.854,100.231 154.066,100.486C154.088,100.48 154.096,100.462 154.113,100.456C154.221,100.445 154.344,100.508 154.377,100.69L154.398,100.815L154.34,100.836C154.34,100.836 154.232,100.89 154.146,100.935C154.225,100.956 154.307,100.982 154.361,101.074L154.428,101.149C154.451,101.079 154.535,101.005 154.646,101.046C154.764,101.088 154.791,101.22 154.801,101.268L154.836,101.441C154.836,101.441 154.729,101.458 154.674,101.464L154.674,101.511L154.646,101.808C154.646,101.81 154.637,101.818 154.633,101.824C154.709,101.861 154.783,101.918 154.852,101.98C154.93,102.056 155.033,102.16 155.1,102.156L155.648,101.732L155.5,102.228C155.492,102.267 155.541,102.373 155.58,102.435C155.637,102.559 155.717,102.706 155.654,102.866C155.611,102.958 155.523,103.03 155.389,103.067L155.148,103.137L155.184,102.847L155.201,102.672C155.186,102.643 155.084,102.62 155.016,102.609C155.016,102.609 154.982,102.588 154.971,102.581C154.957,102.708 154.932,102.833 154.9,102.924C154.926,102.928 154.947,102.933 154.975,102.957C155.025,102.992 155.043,103.038 155.043,103.086C155.043,103.153 155.008,103.232 154.971,103.303C154.908,103.426 154.908,103.465 154.875,103.541C154.998,103.521 155.109,103.516 155.201,103.588C155.375,103.717 155.383,103.985 155.371,104.22L155.355,104.455L155.195,104.379C155.195,104.379 155.166,104.371 155.16,104.368C155.174,104.379 155.373,104.566 155.373,104.566L155.123,104.659L154.992,104.734L154.992,104.748C154.992,104.807 154.971,104.965 154.953,105.101C154.965,105.108 154.982,105.109 154.992,105.116C155.084,105.199 155.096,105.323 155.096,105.427L155.096,105.466C155.096,105.466 155.096,105.493 155.098,105.517C155.113,105.511 155.15,105.501 155.15,105.501C155.15,105.501 155.18,105.496 155.189,105.493C155.186,105.489 155.184,105.483 155.184,105.466C155.184,105.446 155.189,105.418 155.189,105.418C155.207,105.315 155.242,105.092 155.457,105.056L155.605,105.032L155.646,105.179C155.672,105.264 155.676,105.337 155.676,105.407C155.676,105.642 155.557,105.755 155.469,105.841C155.398,105.902 155.373,105.936 155.371,106.002C155.402,106.014 155.449,106.032 155.449,106.032C155.564,106.069 155.807,106.136 155.807,106.423C155.807,106.467 155.805,106.52 155.789,106.577L155.732,106.804L155.59,106.7L155.281,106.499C155.211,106.427 155.164,106.384 155.066,106.39C154.998,106.901 154.93,107.442 154.93,108.048C154.93,108.192 154.934,108.341 154.941,108.494C155.004,108.552 155.891,109.464 155.891,109.464L154.369,109.464C154.369,109.501 154.367,109.541 154.367,109.577C154.367,110.024 154.492,110.344 154.646,110.674L154.801,111.007L154.453,110.911C154.264,110.864 154.242,110.909 154.162,111.054C154.088,111.2 153.951,111.423 153.598,111.374C153.555,111.48 153.508,111.594 153.508,111.594C153.508,111.594 153.441,111.602 153.389,111.613L153.389,111.927C153.572,111.971 153.725,112.075 153.799,112.284L153.816,112.33L153.795,112.421L153.748,112.703C153.754,112.73 153.758,112.763 153.758,112.798C153.758,112.887 153.729,112.993 153.582,113.077L153.477,113.133L153.391,113.051C153.275,112.944 153.254,112.807 153.254,112.69C153.254,112.655 153.256,112.621 153.256,112.584C153.256,112.552 153.264,112.525 153.264,112.503C153.264,112.432 153.223,112.409 153.16,112.388C153.102,112.497 152.951,112.779 152.951,112.779L152.484,113.595C152.484,113.595 152.42,113.442 152.391,113.357C152.336,113.513 152.256,113.71 152.059,113.675L152.021,113.67L151.982,113.644C151.846,113.54 151.76,113.553 151.508,113.604C151.508,113.604 151.27,113.635 151.113,113.66C151.107,113.808 151.096,114.083 150.83,114.118C150.596,114.118 150.504,113.97 150.449,113.886C150.422,113.846 150.408,113.846 150.393,113.832C150.377,113.917 150.344,114 150.27,114.052C150.127,114.152 149.963,114.081 149.805,114.018C149.635,113.954 149.469,113.886 149.328,113.954C149.355,114.036 149.385,114.107 149.385,114.175C149.385,114.217 149.379,114.25 149.352,114.291C149.309,114.361 149.213,114.363 149.131,114.375C149.125,114.396 149.123,114.424 149.123,114.45C149.123,114.611 149.16,114.69 149.201,114.76L149.309,115.269L149.176,115.269C149.131,115.289 149.08,115.295 148.977,115.247C148.98,115.273 148.984,115.308 148.984,115.308C148.984,115.308 148.98,115.404 148.977,115.484C149.01,115.474 149.49,115.347 149.49,115.347L149.498,115.404C149.717,115.58 149.879,115.58 150.117,115.578C150.117,115.578 150.391,115.612 150.611,115.636C150.588,115.535 150.584,115.416 150.543,115.357L150.182,114.908C150.182,114.908 150.756,115.1 150.773,115.103C150.773,115.082 150.775,115.06 150.775,115.06C150.775,115.047 150.773,115.039 150.773,115.025C150.773,114.917 150.787,114.795 150.879,114.707C150.922,114.666 151.002,114.625 151.119,114.643L151.25,114.664L151.262,114.803C151.264,114.857 151.266,114.914 151.266,114.963C151.266,115.556 151.014,115.895 150.787,116.203C150.896,116.288 150.988,116.435 150.988,116.71L150.988,116.717C151.076,116.738 151.162,116.761 151.162,116.761C151.322,116.815 151.463,116.853 151.664,116.837C151.68,116.727 151.719,116.542 151.939,116.536C152.256,116.613 152.32,116.539 152.439,116.401L152.857,115.928C152.857,115.928 152.844,116.134 152.834,116.278C152.895,116.088 153.078,115.989 153.244,115.901C153.441,115.799 153.555,115.721 153.59,115.58C153.486,115.448 153.381,115.394 153.264,115.349C153.092,115.292 152.889,115.221 152.777,114.868L152.777,114.861C152.777,114.822 152.768,114.502 152.768,114.502C152.768,114.502 152.77,114.434 152.77,114.374C152.682,114.368 152.574,114.354 152.508,114.25C152.494,114.227 152.479,114.182 152.479,114.132C152.479,114.101 152.482,114.06 152.498,114.021C152.646,113.855 152.783,113.806 152.922,113.825C153.088,113.842 153.25,113.957 153.359,114.143L153.465,114.317L153.264,114.399C153.273,114.416 153.285,114.434 153.285,114.434C153.328,114.509 153.373,114.625 153.398,114.748C153.41,114.728 153.422,114.735 153.438,114.693C153.482,114.575 153.547,114.399 153.752,114.358C154.088,114.368 154.172,114.611 154.221,114.754C154.236,114.782 154.242,114.791 154.248,114.81C154.281,114.696 154.32,114.613 154.42,114.508L154.512,114.411C154.725,114.177 154.803,113.842 154.855,113.514C154.709,113.51 154.492,113.482 154.471,113.236C154.52,112.938 154.709,112.844 154.846,112.773L155.113,112.635L155.084,112.941C155.08,112.966 155.08,112.988 155.08,113.006C155.08,113.077 155.098,113.126 155.121,113.153C155.133,113.163 155.16,113.163 155.176,113.166C155.176,113.126 155.174,113.077 155.174,113.077C155.166,113.006 155.16,112.935 155.16,112.862C155.16,112.728 155.186,112.596 155.285,112.515C155.34,112.47 155.408,112.453 155.482,112.45C155.477,112.378 155.445,112.338 155.383,112.282C155.295,112.196 155.172,112.081 155.172,111.846C155.172,111.818 155.174,111.776 155.18,111.739L155.211,111.536L155.396,111.602C155.555,111.65 155.564,111.633 155.623,111.527C155.686,111.43 155.787,111.268 156.023,111.269C156.023,111.232 156.037,111.21 156.051,111.177C156.004,111.198 155.961,111.218 155.879,111.207L155.764,111.184L155.746,111.068C155.686,110.716 155.734,110.457 155.893,110.292C156.023,110.161 156.215,110.11 156.471,110.126C156.461,110.014 156.406,109.964 156.313,109.885C156.193,109.792 156.023,109.653 156.023,109.364C156.023,109.336 156.023,109.305 156.029,109.277L156.064,108.936L156.244,109.128L156.496,109.372C156.535,109.445 156.559,109.459 156.621,109.446C156.625,109.436 156.633,109.415 156.633,109.406C156.633,109.365 156.607,109.348 156.549,109.318L156.133,108.836L156.434,108.836C156.549,108.803 156.625,108.755 156.668,108.683C156.762,108.511 156.682,108.207 156.625,107.983L156.533,107.625L156.785,107.671C156.865,107.686 156.873,107.676 156.928,107.586C156.928,107.586 156.967,107.546 157.004,107.502C156.979,107.403 156.953,107.304 156.953,107.227C156.953,107.125 156.967,107.04 156.979,106.963C156.982,106.951 156.982,106.944 156.982,106.928C156.881,107.042 156.76,107.139 156.625,107.143C156.559,107.143 156.395,107.119 156.318,106.877L156.262,106.702L156.486,106.653L156.637,106.612C156.697,106.551 156.715,106.408 156.723,106.246C156.684,106.375 156.607,106.594 156.313,106.558L156.158,106.54L156.17,106.372L156.17,106.33C156.17,106.216 156.123,106.15 156.055,106.061C155.979,105.951 155.883,105.813 155.883,105.581L155.883,105.501L155.902,105.344L156.051,105.344C156.076,105.344 156.086,105.344 156.133,105.268C156.186,105.188 156.283,105.056 156.48,105.043C156.48,104.98 156.439,104.56 156.439,104.56L156.619,104.62L156.867,104.62C156.848,104.381 156.744,104.245 156.602,104.083L156.307,103.678L156.309,103.613L156.172,103.18C156.117,103.038 156.07,102.922 156.07,102.828C156.07,102.763 156.088,102.71 156.146,102.669C156.178,102.64 156.213,102.633 156.252,102.63C156.213,102.581 156.17,102.536 156.111,102.488L155.873,102.222L155.883,102.182L155.883,102.092C155.883,101.915 155.953,101.798 156.012,101.673C155.641,101.463 155.559,100.989 155.498,100.556C155.498,100.556 155.492,100.516 155.488,100.498C155.426,100.501 155.371,100.498 155.309,100.456C155.189,100.375 155.182,100.239 155.182,100.121C155.182,100.114 155.182,100.104 155.184,100.097C155.166,100.102 155.158,100.12 155.141,100.12C155.043,100.128 154.922,100.062 154.893,99.876C154.783,99.208 154.479,98.894 153.918,98.861L153.773,98.85L153.785,98.78L153.766,98.445C153.766,98.445 153.766,98.43 153.77,98.424C153.67,98.435 153.58,98.433 153.52,98.368C153.475,98.327 153.461,98.274 153.461,98.217C153.461,98.169 153.471,98.12 153.482,98.078C153.43,98.078 153.309,98.067 153.217,97.904C153.217,97.894 153.15,97.688 153.102,97.538C152.922,97.516 152.627,97.448 152.5,97.16L152.426,96.995L152.848,96.829C153.326,96.659 153.627,96.525 153.627,96.049C153.627,96.014 153.623,95.976 153.621,95.942L153.605,95.724L153.809,95.759C153.928,95.776 153.959,95.745 154.037,95.657C154.121,95.559 154.252,95.426 154.51,95.444C154.531,95.351 154.557,95.249 154.557,95.249C154.582,95.027 154.627,94.786 154.814,94.641C154.809,94.616 154.807,94.596 154.807,94.574C154.807,94.432 154.838,94.282 154.965,94.191C154.965,94.191 155.141,94.169 155.18,94.163C155.164,94.057 155.117,93.941 155.074,93.866L154.773,93.321L155.33,93.62C155.408,93.673 155.463,93.698 155.506,93.717C155.504,93.708 155.504,93.693 155.504,93.682C155.504,93.576 155.59,93.509 155.66,93.457C155.576,93.364 155.52,93.266 155.52,93.167C155.52,93.097 155.533,93.022 155.557,92.945C155.557,92.945 155.57,92.824 155.586,92.721C155.473,92.7 155.324,92.656 155.324,92.442L155.324,92.256C155.324,92.256 155.627,92.279 155.637,92.284C155.611,92.276 155.564,92.043 155.564,92.043C155.533,91.946 155.506,91.858 155.506,91.772C155.506,91.715 155.52,91.656 155.564,91.61C155.598,91.571 155.676,91.513 155.807,91.545L156.016,91.638C156.086,91.68 156.135,91.705 156.219,91.7C156.252,91.621 156.291,91.529 156.291,91.529C156.365,91.354 156.4,91.255 156.4,91.193C156.4,91.162 156.393,91.136 156.371,91.121L156.26,91.025L156.313,90.85C156.375,90.749 156.508,90.725 156.633,90.734C156.668,90.506 156.734,90.099 156.734,90.099L156.563,89.597L156.629,89.578C156.65,89.538 156.691,89.449 156.727,89.358C156.697,89.366 156.678,89.394 156.643,89.401C156.484,89.408 156.342,89.302 156.313,89.132L156.291,89.007C156.291,89.007 156.436,88.943 156.455,88.931C156.506,88.835 156.584,88.731 156.705,88.671C156.668,88.292 156.492,88.055 156.262,87.812L156.023,87.558C156.023,87.558 156.123,87.533 156.215,87.512C156.213,87.51 156.207,87.512 156.205,87.51C156.129,87.468 156.107,87.377 156.102,87.282C156.076,87.317 156.045,87.347 155.994,87.356C156,87.393 156.016,87.44 156.016,87.484C156.016,87.577 155.994,87.669 155.941,87.749C155.855,87.87 155.711,87.941 155.5,87.963L155.23,87.987L155.332,87.727C155.463,87.376 155.494,87.128 155.518,86.875C155.471,86.908 155.422,86.926 155.393,86.932L155.172,87.01C155.172,87.01 155.176,86.878 155.182,86.791C155.135,86.794 155.084,86.803 155.084,86.803C154.936,86.823 154.766,86.85 154.664,86.727C154.633,86.692 154.598,86.635 154.598,86.548C154.598,86.516 154.602,86.477 154.617,86.441L154.645,86.346C154.645,86.346 154.557,86.391 154.398,86.391C154.42,86.488 154.463,86.591 154.564,86.727L154.904,87.377C154.904,87.377 154.807,87.381 154.729,87.382C154.754,87.41 154.779,87.44 154.779,87.44C154.855,87.516 154.998,87.656 154.998,87.82C154.998,87.89 154.971,87.967 154.904,88.048L154.836,88.132L154.729,88.099C154.525,88.039 154.418,87.888 154.369,87.691C154.34,87.698 154.305,87.704 154.305,87.704C154.244,87.736 154.148,87.784 154.051,87.739C153.949,87.693 153.918,87.581 153.908,87.548L153.881,87.45L153.951,87.381C154.025,87.296 154.063,87.209 154.063,87.11C154.063,86.926 153.951,86.711 153.801,86.455C153.801,86.455 153.744,86.34 153.688,86.231C153.594,86.246 153.389,86.287 153.389,86.287Z" style="fill:white;fill-rule:nonzero;"/>
                        <path d="M124.195,100.161L124.227,100.286L124.227,100.287C124.227,100.297 124.309,100.198 124.309,100.198C124.256,100.161 124.215,100.117 124.17,100.068C124.18,100.1 124.189,100.135 124.195,100.161ZM116.836,95.392C116.836,95.392 116.896,95.345 116.959,95.306C116.896,95.286 116.684,95.21 116.684,95.21L116.836,95.392ZM125.762,85.828C125.75,85.958 125.729,86.133 125.729,86.133C125.664,86.333 125.607,86.519 125.607,86.676C125.607,86.784 125.637,86.869 125.709,86.925L125.602,87.237C125.602,87.237 125.445,87.174 125.379,87.147C125.375,87.337 125.305,87.48 125.252,87.567C125.273,87.585 125.311,87.601 125.311,87.601L125.346,87.829C125.346,87.837 125.168,88.051 125.168,88.051L125.049,88.169C124.984,88.325 124.945,88.543 124.945,88.737C124.945,88.838 124.979,88.907 125.006,88.988C125.086,88.999 125.18,89.053 125.209,89.214L125.238,89.375L125.08,89.412C124.768,89.486 124.641,89.777 124.641,90.428C124.641,90.513 124.641,90.599 124.646,90.688L124.646,90.771L124.588,90.827C124.35,91.039 124.285,91.303 124.285,91.598C124.285,91.753 124.305,91.926 124.322,92.101L124.377,92.933L124.154,92.898L124.078,92.889L124.078,92.894C124.078,92.932 124.053,93.1 124.053,93.1C124.053,93.264 124.045,93.451 123.91,93.563C123.91,93.563 123.859,93.572 123.822,93.58C123.842,93.675 123.859,93.768 123.859,93.768C123.859,94.007 123.672,94.11 123.59,94.161L123.559,94.173L123.471,94.173L123.162,94.211L123.055,94.116L123.006,94.057C122.805,94.005 122.717,94.053 122.6,94.11L122.199,94.211L121.766,94.045L121.475,93.919C121.461,93.946 121.211,94.063 121.211,94.063L121.139,94.1L121.121,94.03L120.91,93.919C119.977,93.789 118.84,93.689 118.578,93.767L118.221,93.78L117.717,93.741C117.719,93.735 117.578,93.767 117.578,93.767C117.201,93.867 116.537,93.796 116.385,93.771L116.113,93.725C116.064,93.716 116.037,93.725 116.037,93.725L115.879,93.767C115.686,93.821 115.221,93.864 115.037,93.675C114.971,93.605 114.941,93.509 114.971,93.412C114.971,93.421 115.068,93.027 115.068,93.027C115.17,92.676 115.215,92.517 114.986,92.088L114.795,91.737L115.27,91.868C115.25,91.822 115.418,91.546 115.418,91.546C115.418,91.546 115.469,91.549 115.482,91.549L115.482,91.532L115.391,90.991C115.391,90.995 115.533,90.639 115.533,90.639C115.457,90.6 115.387,90.525 115.387,90.425C115.387,90.405 115.391,90.382 115.396,90.364C115.396,90.36 115.566,90.157 115.566,90.157C115.566,90.157 115.68,90.048 115.688,90.039C115.68,90.037 115.68,89.954 115.68,89.954L115.676,89.812L115.807,89.497C115.807,89.481 115.738,89.214 115.738,89.214C115.738,89.214 115.68,88.914 115.68,88.912C115.68,88.914 115.844,88.695 115.844,88.695C115.914,88.642 115.951,88.616 115.957,88.51L115.922,88.444C115.875,88.387 115.807,88.297 115.807,88.151C115.807,88.118 115.811,88.087 115.818,88.048L116,87.756C116.043,87.704 116.051,87.687 116.072,87.654C115.92,87.651 115.701,87.621 115.676,87.376L115.648,87.157L115.857,87.183C115.961,87.196 115.982,87.2 116.027,86.911C116.027,86.911 116.043,86.835 116.064,86.768C115.924,86.734 115.813,86.681 115.725,86.621C115.643,86.558 115.563,86.524 115.461,86.512C115.461,86.698 115.408,86.839 115.369,86.948C115.338,87.027 115.32,87.07 115.32,87.112C115.32,87.152 115.34,87.183 115.387,87.227L115.207,87.513C115.207,87.513 115.186,87.507 115.168,87.503C115.166,87.528 115.166,87.552 115.166,87.552L115.166,87.592C115.166,87.698 115.158,87.822 115.063,87.902C115.061,87.903 115.049,87.903 115.045,87.907C115.055,87.967 115.088,88.035 115.088,88.078C115.088,88.151 115.072,88.216 115.064,88.267C115.055,88.309 115.051,88.338 115.051,88.372C115.051,88.425 115.068,88.475 115.125,88.562L115.232,88.713C115.232,88.713 115.033,88.812 115.008,88.828C114.982,88.896 114.941,88.965 114.895,89.019C114.949,89.053 114.994,89.109 115.012,89.214L115.037,89.334C115.037,89.334 114.877,89.402 114.869,89.416C114.818,89.509 114.744,89.604 114.633,89.666C114.646,89.731 114.691,89.81 114.691,89.875C114.691,90.048 114.627,90.196 114.576,90.323C114.531,90.439 114.488,90.537 114.488,90.639C114.488,90.72 114.514,90.803 114.57,90.894L114.682,91.1L114.416,91.162L114.33,91.181C114.242,91.262 114.236,91.539 114.229,91.762L114.158,92.352C114.154,92.356 113.957,92.647 113.92,92.705C113.977,92.764 114.033,92.842 114.033,92.967C114.033,92.999 114.025,93.031 114.02,93.068C113.99,93.175 113.895,93.209 113.785,93.249C113.785,93.249 113.766,93.255 113.746,93.264C113.752,93.335 113.785,93.381 113.848,93.431L113.994,93.704L113.756,94.162L113.641,94.048C113.467,93.958 113.182,93.971 112.877,93.98C112.555,93.995 112.189,94.007 111.832,93.914L111.625,93.732C111.625,93.732 111.537,93.634 111.525,93.619C111.525,93.639 111.398,93.685 111.398,93.685L111.158,93.771L110.984,93.683C110.936,93.642 110.904,93.63 110.873,93.621C110.867,93.716 110.852,93.836 110.752,93.896L110.502,94.057L110.432,93.749L110.432,93.517C110.066,93.589 106.785,94.211 106.785,94.211L105.814,94.376C105.814,94.376 105.797,94.322 105.785,94.269C105.727,94.289 105.674,94.302 105.607,94.267C105.543,94.231 105.5,94.168 105.48,94.073L105.48,94.07C105.48,93.999 105.58,93.076 105.58,93.076C105.625,92.55 105.668,92.047 105.771,91.794C105.863,91.558 105.896,91.221 105.93,90.889L106.051,90.066C106.07,89.973 106.154,89.944 106.268,89.897L106.379,89.846C106.395,89.787 106.469,89.233 106.469,89.116L106.469,89.109C106.461,89.014 106.395,88.18 105.908,88.105C105.916,88.105 105.918,88.116 105.918,88.13C105.918,88.159 105.902,88.204 105.902,88.204C105.877,88.286 105.807,88.41 105.68,88.48C105.686,88.531 105.701,88.592 105.701,88.642C105.701,89.013 105.555,89.302 105.43,89.549C105.33,89.746 105.244,89.912 105.244,90.093C105.244,90.205 105.275,90.323 105.363,90.461L105.48,90.652L105.266,90.717C105.111,90.761 105.033,91.057 104.992,91.212L104.951,91.341C104.9,91.467 104.885,91.552 104.885,91.628C104.885,91.691 104.898,91.753 104.916,91.82L104.961,92.313L104.885,92.817C104.83,93.085 104.785,93.363 104.785,93.639C104.785,93.762 104.795,93.883 104.816,94.005L104.828,94.066L104.797,94.121C104.631,94.438 104.266,94.48 103.951,94.514L103.465,94.621C103.465,94.63 103.422,94.734 103.422,94.734C103.377,94.856 103.314,95.049 103.125,95.08L102.902,95.119L102.943,94.777C102.912,94.762 102.729,94.779 102.631,94.792C102.631,94.792 102.543,94.789 102.459,94.789C102.477,94.85 102.488,94.916 102.533,94.977C102.533,94.977 102.594,95.106 102.639,95.204C102.686,95.22 102.732,95.225 102.762,95.26C102.805,95.22 102.85,95.189 102.924,95.179L103.088,95.148L103.117,95.315C103.137,95.438 103.254,95.473 103.563,95.517C103.563,95.517 103.65,95.539 103.732,95.558C103.719,95.518 103.689,95.473 103.689,95.423C103.689,95.392 103.695,95.36 103.715,95.333C103.758,95.224 103.859,95.192 103.895,95.182L104.004,95.148L104.119,95.3C104.172,95.234 104.262,95.177 104.369,95.22C104.482,95.264 104.518,95.399 104.533,95.45L104.541,95.487C104.541,95.487 104.188,97.31 104.137,97.543C104.246,97.564 104.387,97.612 104.395,97.809L104.404,98.017L104.205,97.986C104.137,97.975 104.104,97.986 104.1,97.989C104.094,97.995 104.08,98.022 104.08,98.085C104.08,98.278 104.195,98.549 104.221,98.59L104.285,98.686L104.246,98.73L104.084,98.947C104.018,99 103.977,99.032 103.971,99.136C103.971,99.168 103.986,99.239 103.986,99.239L104.004,99.297L104.043,99.402L103.941,99.661C103.951,99.642 104.025,99.789 104.025,99.789L104.143,100.071L104.049,100.146L103.971,100.3C103.971,100.306 103.869,100.769 103.869,100.769L103.826,100.913L103.732,101.487L103.781,101.882C103.781,101.882 103.791,101.958 103.807,102.031C103.869,102.039 103.939,102.076 104.006,102.136C104.068,102.121 104.16,102.101 104.16,102.101C104.266,102.034 104.367,102.064 104.477,102.12C104.521,102.091 104.568,102.08 104.621,102.076L104.621,102.048C104.648,101.987 104.713,101.935 104.785,101.899C104.795,101.816 104.807,101.719 104.807,101.719L104.922,101.238C105.129,100.675 105.145,99.741 105.145,98.749L105.145,98.392L105.197,96.927L105.273,96.674L105.334,96.486L105.301,96.418L105.174,96.03L105.215,96.003L105.346,95.59L105.363,95.497C105.404,95.312 105.451,95.102 105.742,95.036L105.797,95.021L105.846,95.039C106.113,95.146 106.293,95.148 106.617,95.153C106.617,95.153 106.879,95.164 107.053,95.172C107.063,95.072 107.088,94.987 107.164,94.943C107.275,94.875 107.379,94.934 107.443,94.975L107.613,95.026L108.059,94.924C108.059,94.924 108.035,95.036 108.01,95.131C108.074,95.1 108.123,95.058 108.184,95.002C108.311,94.886 108.471,94.738 108.76,94.738C108.932,94.754 108.998,94.856 109.039,94.943C109.053,94.792 109.094,94.622 109.301,94.597L109.375,94.585L109.451,94.644C109.451,94.644 109.549,94.732 109.555,94.734C109.555,94.719 109.625,94.627 109.625,94.627C109.703,94.511 109.807,94.349 109.998,94.306L110.309,94.236L110.201,94.485L110.096,94.747C110.332,94.754 110.861,94.765 110.861,94.765C111.439,94.743 112.033,94.743 112.479,95.177C112.611,95.179 112.686,95.128 112.787,95.057L113.111,94.889L113.27,95.177L113.266,95.179C113.412,95.215 113.549,95.269 113.598,95.45C113.609,95.485 113.615,95.521 113.615,95.554C113.615,95.705 113.504,95.808 113.451,95.855C113.441,95.855 113.375,96.321 113.375,96.321L113.307,96.852C113.307,96.861 113.15,97.068 113.15,97.068L113.033,97.27C113.029,97.271 113.029,97.539 113.029,97.539L113.033,97.912L112.986,97.935C112.721,98.215 112.682,98.568 112.682,98.979C112.682,99.063 112.686,99.149 112.686,99.235C112.686,99.329 112.688,99.421 112.688,99.512C112.688,99.778 112.676,100.054 112.604,100.329L112.588,100.706L112.607,101.174C112.607,101.179 112.467,101.756 112.467,101.756C112.467,101.756 112.414,101.957 112.377,102.129C112.594,102.112 112.723,102.321 112.775,102.409L112.813,102.471C112.922,102.478 112.98,102.416 112.986,102.409C112.986,102.409 113.168,102.552 113.215,102.593C113.404,102.595 113.566,102.578 113.676,102.515C113.648,102.378 113.623,102.237 113.623,102.109C113.623,101.851 113.664,101.61 113.705,101.391C113.742,101.189 113.77,101.003 113.77,100.832C113.77,100.627 113.727,100.432 113.58,100.245L113.35,99.935L113.748,99.972C113.742,99.943 113.721,99.918 113.721,99.888C113.721,99.85 113.729,99.806 113.756,99.768C113.795,99.713 113.863,99.708 113.932,99.692C113.912,99.628 113.898,99.568 113.898,99.518C113.898,99.431 113.934,99.368 114.033,99.274C114.033,99.274 114.066,99.243 114.1,99.21C114.041,99.063 113.984,98.918 113.984,98.777C113.984,98.433 114.129,98.105 114.264,97.807C114.398,97.514 114.516,97.246 114.516,96.977C114.516,96.85 114.488,96.722 114.42,96.593L114.287,96.338L114.662,96.338C114.646,96.201 114.633,96.051 114.633,96.051L114.525,95.578L114.627,95.485C115.123,95.215 115.279,95.21 115.701,95.296C115.752,95.1 115.922,95.017 116.02,94.992L116.221,94.911L116.34,94.901L116.547,95.055C116.721,95.189 116.744,95.201 116.85,95.087C116.85,95.087 117.102,95.177 117.125,95.183C117.133,95.179 117.166,95.156 117.166,95.156C117.283,95.1 117.355,95.063 117.387,94.994L117.703,95.082C117.703,95.082 117.701,95.169 117.701,95.201C117.717,95.172 117.807,95.137 117.807,95.137C117.936,95.082 118.098,95.017 118.219,95.128C118.26,95.169 118.266,95.22 118.271,95.276C118.635,95.179 118.982,95.28 119.27,95.399C119.408,95.454 119.523,95.477 119.643,95.504C119.643,95.504 119.635,95.497 119.635,95.491L119.635,95.345L119.777,95.32C120.389,95.229 120.713,95.45 121.002,95.642C121.002,95.642 121.385,95.829 121.477,95.877C121.607,95.781 121.777,95.781 121.904,95.793C121.904,95.793 122.029,95.787 122.078,95.786C122.084,95.676 122.096,95.572 122.18,95.511C122.223,95.475 122.289,95.443 122.395,95.47L122.445,95.485L122.48,95.526C122.543,95.6 122.578,95.6 122.727,95.549C122.791,95.526 122.875,95.494 122.975,95.494C122.967,95.467 122.953,95.45 122.953,95.423C122.953,95.392 122.957,95.36 122.971,95.333C123.012,95.224 123.119,95.192 123.156,95.182L123.234,95.156L123.301,95.205C123.461,95.325 123.508,95.467 123.508,95.602C123.508,95.744 123.465,95.871 123.43,95.976C123.43,95.976 123.393,96.121 123.381,96.178C123.434,96.226 123.514,96.32 123.514,96.476C123.514,96.494 123.514,96.509 123.51,96.525C123.51,96.527 123.287,97.363 123.287,97.363C123.287,97.363 123.111,98.001 123.096,98.066C123.16,98.121 123.234,98.196 123.234,98.343C123.234,98.371 123.23,98.398 123.227,98.427C123.227,98.43 123.104,98.613 123.104,98.613L123.086,98.679L123.131,98.787L123.227,99.127L123.135,99.42L123.227,99.507L123.225,99.698C123.201,99.741 123.145,99.749 123.096,99.778C123.105,99.83 123.119,99.89 123.119,99.89L123.16,100.134C123.16,100.293 123.08,100.381 123.012,100.425C122.971,100.45 122.57,100.429 122.57,100.429L122.367,100.037C122.367,100.037 122.361,100.011 122.355,99.997C122.34,100.231 122.314,100.495 122.314,100.495C122.289,100.659 122.264,100.832 122.264,100.964C122.264,101.066 122.279,101.15 122.324,101.199C122.387,101.272 122.539,101.299 122.762,101.278L122.945,101.262L122.945,101.816C122.998,101.809 123.055,101.791 123.104,101.795C123.07,101.746 123.033,101.7 123.033,101.65C123.033,101.62 123.037,101.592 123.037,101.574L123.047,101.487C123.047,101.487 123.156,101.44 123.186,101.428C123.242,101.299 123.295,101.17 123.447,101.133C123.447,101.133 123.537,101.15 123.621,101.166C123.639,101.083 123.672,100.999 123.711,100.934C123.609,100.877 123.451,100.776 123.451,100.618C123.451,100.588 123.457,100.547 123.475,100.508L123.504,100.441L123.574,100.415C123.617,100.396 123.662,100.422 123.711,100.429C123.686,100.339 123.641,100.264 123.506,100.113L123.338,99.931L123.564,99.836C123.682,99.789 123.854,99.729 124.002,99.81C124.035,99.835 124.053,99.871 124.078,99.901C124.059,99.85 124.025,99.806 124.025,99.737L124.025,99.692L124.053,99.376L124.318,99.59C124.316,99.521 124.314,99.451 124.314,99.451L124.275,99.314L124.293,99.012L124.316,98.929L124.438,98.028C124.453,97.764 124.48,97.491 124.555,97.222C124.449,97.195 124.313,97.146 124.313,96.946L124.313,96.771L124.477,96.773C124.533,96.773 124.551,96.773 124.598,96.553C124.619,96.414 124.67,96.187 124.857,96.096C124.846,95.951 124.826,95.814 124.77,95.747L124.488,95.387L124.93,95.467C125.064,95.491 125.08,95.465 125.135,95.381C125.178,95.301 125.273,95.133 125.498,95.179C125.498,95.179 125.52,95.182 125.539,95.184C125.557,95.078 125.596,94.972 125.705,94.904C125.811,94.845 125.938,94.84 126.09,94.894L126.229,94.944L126.18,95.182C126.207,95.22 126.418,95.234 126.543,95.184L126.619,95.106L126.85,94.851L126.896,94.886L127.379,94.886C127.668,94.875 127.951,94.883 128.179,94.963C128.211,94.856 128.261,94.747 128.434,94.738L128.524,94.734L128.58,94.812C128.606,94.851 128.61,94.862 128.75,94.823C128.871,94.792 129.052,94.789 129.242,94.864C129.34,94.769 129.479,94.732 129.619,94.734C129.6,94.68 129.572,94.622 129.572,94.556C129.572,94.532 129.58,94.508 129.59,94.475C129.634,94.356 129.766,94.321 129.817,94.307L129.929,94.276C129.929,94.276 130.002,94.394 130.009,94.398C130.009,94.389 130.072,94.36 130.072,94.36C130.143,94.321 130.242,94.269 130.345,94.315C130.354,94.321 130.511,94.514 130.511,94.514L130.563,94.605C130.588,94.469 130.705,94.264 131.009,94.303C131.139,94.325 131.162,94.446 131.174,94.518L131.213,94.657C131.207,94.607 131.283,94.57 131.283,94.57L132.332,94.23L132.291,94.485L132.291,94.515C132.291,94.6 132.332,94.656 132.367,94.722C132.414,94.708 132.473,94.688 132.473,94.688L132.65,94.597L132.707,94.611L133.023,94.61L133.064,94.627L133.176,94.804L133.236,94.947C133.236,94.947 133.244,94.944 133.248,94.943C133.283,94.786 133.385,94.246 133.385,94.246C133.459,93.964 133.535,93.693 133.535,93.35C133.535,93.291 133.523,93.223 133.52,93.153C132.971,92.919 132.047,92.919 131.213,92.932C131.213,92.932 130.02,92.903 129.901,92.903C129.572,93.2 129.035,93.253 128.502,93.293C128.502,93.293 128.08,93.335 128.048,93.335C127.625,93.652 127.146,93.719 126.645,93.771C126.242,93.818 125.814,93.859 125.391,94.051L125.227,94.122C125.227,94.122 125.207,94.048 125.184,93.98C125.127,93.999 125.07,94.012 125.008,93.974C124.941,93.941 124.898,93.875 124.879,93.78L124.863,93.704L124.898,93.664L125.164,93.345C125.309,93.2 125.426,93.085 125.445,92.864C125.439,92.889 125.285,92.6 125.285,92.6C125.154,92.403 125.033,92.212 125.086,92.034C125.105,91.974 125.15,91.893 125.262,91.847L125.393,91.792L125.525,92.013C125.533,91.981 125.6,91.814 125.6,91.684C125.6,91.659 125.596,91.638 125.59,91.617C125.59,91.619 125.525,91.558 125.525,91.558L125.225,91.262L125.326,91.192C125.576,90.753 125.791,90.296 125.93,89.761C125.875,89.782 125.811,89.808 125.73,89.774C125.627,89.725 125.6,89.617 125.59,89.58L125.564,89.481L125.637,89.412C125.777,89.274 125.857,89.1 125.84,88.983C125.83,88.962 125.82,88.886 125.68,88.821L125.791,88.5C125.896,88.523 125.908,88.51 125.965,88.421C126.02,88.342 126.113,88.244 126.273,88.213C126.246,88.073 126.215,87.932 126.215,87.793C126.215,87.475 126.266,87.147 126.316,86.814C126.316,86.814 126.387,86.167 126.414,85.929C126.287,85.912 126.168,85.877 126.064,85.833C125.82,85.727 125.805,85.749 125.762,85.828Z" style="fill:white;fill-rule:nonzero;"/>
                        <path d="M38.845,92.757C38.845,92.757 38.769,92.757 38.695,92.755L38.695,93.036C38.701,93.016 38.753,93.003 38.753,93.003L38.906,92.972C38.906,92.972 38.929,93.024 38.947,93.069C38.978,93.01 39.019,92.962 39.062,92.918C39.068,92.877 39.087,92.741 39.087,92.737C39.087,92.757 38.845,92.757 38.845,92.757ZM26.429,89.447C26.363,89.487 26.367,89.593 26.378,89.649C26.429,89.704 26.627,89.647 26.738,89.587C26.703,89.551 26.658,89.509 26.658,89.509C26.589,89.433 26.486,89.419 26.429,89.447ZM49.857,85.377L49.369,85.716L49.291,85.559C49.218,85.442 48.886,85.47 48.615,85.49L48.095,85.49C47.927,85.741 47.722,85.716 47.55,85.673C47.55,85.673 47.414,85.662 47.283,85.65C47.296,85.666 47.625,85.966 47.625,85.966L47.39,86.056C46.869,86.349 46.531,86.089 46.226,85.862C46.226,85.862 46.209,85.844 46.197,85.834C45.978,86.094 45.597,86.105 45.281,86.078L44.919,86.074L44.459,86.214L43.918,86.365L43.617,86.281L43.353,86.218L42.466,86.375C41.654,86.524 41.648,86.524 41.584,86.499L41.431,86.437C41.431,86.437 41.505,86.219 41.509,86.218C41.503,86.218 41.459,86.214 41.459,86.214C41.207,86.147 41.128,86.211 41.009,86.308C40.896,86.402 40.759,86.519 40.505,86.508C39.945,86.6 39.347,86.516 38.824,86.442L38.097,86.365L37.884,86.42L37.449,86.529L37.4,86.412L37.33,86.349C37.136,86.303 36.951,86.359 36.796,86.404C36.644,86.448 36.503,86.494 36.377,86.402C36.322,86.359 36.289,86.3 36.267,86.232C35.75,86.329 35.279,86.274 34.742,86.188C34.218,86.105 33.627,86.013 32.878,86.074L32.669,86.089L32.703,85.871C32.707,85.826 32.703,85.796 32.699,85.785C32.642,85.734 32.4,85.759 32.283,85.769L31.994,85.779L31.007,85.49C30.732,85.471 30.464,85.542 30.285,85.591L30.015,85.637C29.931,85.637 29.871,85.566 29.841,85.526C29.81,85.492 29.808,85.487 29.763,85.49C29.019,85.566 28.798,85.769 28.603,86.013L28.554,86.074L28.539,86.059L28.136,86.074C28.136,86.074 28.08,86.068 28.019,86.066C28.029,86.084 28.052,86.089 28.058,86.102C28.082,86.153 28.095,86.204 28.095,86.261C28.095,86.308 28.087,86.363 28.06,86.408C28.013,86.529 27.892,86.526 27.787,86.515C27.789,86.559 27.789,86.666 27.789,86.666C27.679,87.117 27.308,87.661 27.111,87.954C27.111,87.954 27.099,87.974 27.087,87.986C27.099,88.073 27.109,88.163 27.109,88.242C27.109,88.509 27.062,88.724 27.017,88.933C27.017,88.933 26.941,89.433 26.939,89.439C27.029,89.364 27.13,89.28 27.13,89.28L27.085,89.702C27.082,89.722 27.08,89.74 27.08,89.755C27.08,89.848 27.134,89.877 27.384,89.925C27.384,89.925 27.439,89.933 27.476,89.941C27.591,89.891 27.789,89.808 27.789,89.808C27.789,89.808 27.927,89.755 28.013,89.722C27.947,89.431 27.896,89.141 27.896,88.861C27.896,88.055 28.166,87.342 28.654,86.933C29.097,86.74 29.279,86.893 29.384,87.044C29.416,86.971 29.46,86.903 29.537,86.871C29.603,86.842 29.703,86.831 29.843,86.917C29.851,86.925 30.183,87.346 30.183,87.346L30.47,87.795L30.183,87.814C29.976,87.823 29.894,88.086 29.814,88.398L29.767,88.573L29.695,88.741C29.638,88.851 29.609,88.916 29.634,89.069L29.669,89.301L29.441,89.268C29.359,89.256 29.349,89.271 29.294,89.357C29.294,89.357 29.248,89.405 29.205,89.453C29.201,89.511 29.191,89.628 29.191,89.628C29.179,89.975 29.134,90.419 28.752,90.531C28.752,90.542 28.746,90.548 28.746,90.556C28.746,90.606 28.785,90.663 28.834,90.753C28.882,90.822 28.933,90.912 28.933,91.009C28.933,91.038 28.929,91.068 28.919,91.1C28.865,91.237 28.714,91.281 28.666,91.302C28.666,91.302 28.58,91.322 28.531,91.336C28.447,91.719 28.408,92.088 28.394,92.468L28.363,93.183C28.326,93.391 28.201,93.484 28.082,93.548C28.087,93.591 28.091,93.638 28.091,93.681C28.091,94.135 27.951,94.518 27.82,94.89C27.693,95.239 27.576,95.576 27.576,95.954C27.576,96.11 27.595,96.281 27.646,96.46L27.709,96.683L27.478,96.679C27.378,96.674 27.312,96.721 27.24,96.763L27.24,96.772L27.123,97.181L27.08,97.284C27.08,97.288 27.029,97.579 27.029,97.579L26.929,98.032C26.923,98.043 26.699,98.188 26.699,98.188C26.699,98.188 26.671,98.196 26.65,98.208C26.642,98.237 26.642,98.273 26.642,98.273L26.675,98.701L26.642,99.024L26.496,99.004L26.291,99.004C26.316,99.089 26.343,99.183 26.343,99.183L26.216,99.631C26.15,99.777 26.082,99.911 26.082,100.115L26.097,100.338L25.851,100.603L25.65,100.798C25.695,100.776 25.812,101.006 25.812,101.006L25.869,101.114L25.793,101.088L25.703,101.193L25.507,101.383C25.507,101.385 25.244,102.055 25.244,102.055C25.238,102.209 25.107,102.285 25.017,102.332C25.031,102.364 25.06,102.388 25.06,102.422C25.06,102.468 25.041,102.619 24.802,102.634C24.761,102.737 24.681,102.841 24.554,102.895C24.556,102.921 24.57,102.95 24.57,102.972C24.57,103.281 24.382,103.374 24.177,103.425L24.05,103.466L23.949,103.641L23.775,103.897C23.447,104.21 23.113,104.161 22.794,104.121L22.291,104.083L22.234,103.985C22.132,103.731 21.935,103.61 21.705,103.474L21.277,103.169C21.183,103.094 21.212,102.957 21.226,102.865L21.228,102.865C21.228,102.857 20.972,102.704 20.972,102.704C20.972,102.698 20.867,102.344 20.867,102.344L20.818,102.093C20.814,102.098 20.744,102.008 20.744,102.008L20.523,101.625L20.527,101.229L20.529,100.912L20.431,100.783C20.345,100.685 20.222,100.541 20.222,100.363C20.222,100.32 20.232,100.276 20.252,100.222C20.252,100.222 20.24,99.631 20.238,99.495C20.142,99.42 19.992,99.313 19.992,99.313C19.892,99.21 19.843,99.192 19.72,99.245C19.705,99.407 19.699,99.567 19.699,99.721C19.699,100.172 19.74,100.575 19.783,100.999C19.783,100.999 19.845,102.232 19.857,102.471C19.955,102.487 20.142,102.528 20.148,102.75C20.146,102.78 20.144,102.815 20.144,102.848C20.144,103.167 20.334,103.352 20.539,103.556C20.722,103.734 20.935,103.944 20.935,104.23C20.935,104.23 20.931,104.239 20.931,104.244C20.959,104.227 20.992,104.23 21.025,104.21L21.337,104L21.277,104.38C21.271,104.416 21.271,104.449 21.271,104.475C21.271,104.659 21.377,104.709 21.595,104.796C21.767,104.866 21.959,104.988 22.054,105.216C22.435,105.253 22.748,105.353 23.054,105.452C23.054,105.452 23.496,105.58 23.619,105.618C23.966,105.25 24.388,104.898 24.912,104.558L24.912,103.932L25.107,103.895L25.294,103.843C25.365,103.791 25.462,103.742 25.595,103.733C25.607,103.589 25.66,103.491 25.709,103.417L25.783,103.156L25.83,103.056L26.078,102.888C26.078,102.888 26.22,102.77 26.298,102.707L26.294,102.695C26.294,102.608 26.316,102.516 26.328,102.489C26.384,102.321 26.496,102.232 26.627,102.184C26.628,102.101 26.638,101.948 26.638,101.948C26.638,101.902 26.636,101.857 26.636,101.814C26.636,101.578 26.658,101.34 26.798,101.185C26.857,101.109 26.951,101.119 27.058,101.132C27.076,100.999 27.101,100.743 27.101,100.743L27.185,100.089L27.326,99.865L27.468,99.659C27.544,99.338 27.658,99.171 27.882,99.045C27.875,98.996 27.873,98.951 27.873,98.912C27.873,98.68 27.918,98.493 27.966,98.313C28.007,98.151 28.046,97.991 28.046,97.792C28.046,97.72 28.043,97.641 28.025,97.555L27.992,97.327L28.32,97.367L28.314,97.365C28.314,97.337 28.337,97.225 28.337,97.225L28.496,96.839C28.496,96.839 28.554,96.823 28.615,96.809C28.636,96.662 28.681,96.394 28.681,96.394C28.718,96.238 28.755,96.094 28.755,95.907C28.755,95.833 28.752,95.753 28.736,95.667L28.701,95.444L29.043,95.48C29.027,95.477 29.015,95.274 29.015,95.274L29.033,94.837C29.08,94.729 29.187,94.709 29.273,94.697C29.273,94.697 29.296,94.691 29.316,94.688C29.312,94.662 29.3,94.617 29.3,94.617L29.3,93.678L29.347,93.633C29.576,93.385 29.607,93.116 29.642,92.838C29.681,92.556 29.75,92.251 30.002,91.972C29.962,91.836 29.929,91.709 29.929,91.627C29.929,91.466 29.988,91.377 30.093,91.283L30.169,91.202C30.166,91.202 30.156,91.014 30.156,91.014L30.16,90.638L30.3,90.427L30.437,90.217C30.523,89.881 30.63,89.711 30.877,89.579C30.884,89.569 30.884,89.555 30.884,89.538C30.884,89.485 30.855,89.424 30.812,89.354C30.783,89.295 30.742,89.224 30.742,89.149C30.742,89.11 30.75,89.074 30.773,89.041C30.818,88.957 30.912,88.943 31.011,88.941C31.033,88.317 31.119,87.87 31.308,87.554L31.363,87.462L31.97,87.532C32.634,87.601 33.308,87.689 33.75,88.045C34.054,87.923 34.363,88.004 34.644,88.096L35.015,88.203L36.238,88.346C36.927,88.409 37.578,88.475 38.148,88.641L38.371,88.708L38.263,88.854L38.058,89.17C38.058,89.17 38.033,89.201 38.019,89.213C38.029,89.213 38.033,89.224 38.043,89.235C38.257,89.317 38.281,89.283 38.345,89.137C38.38,89.041 38.476,88.91 38.634,88.84C38.621,88.801 38.615,88.76 38.615,88.76C38.591,88.719 38.56,88.658 38.56,88.591C38.56,88.562 38.566,88.53 38.58,88.503C38.621,88.398 38.728,88.362 38.761,88.352L38.88,88.317L38.947,88.417C39.072,88.593 39.349,88.657 39.64,88.724L40.566,89.041L40.347,89.213C40.06,89.524 40.017,90.14 39.98,90.743C39.957,91.148 39.929,91.57 39.822,91.91C39.773,92.041 39.664,92.043 39.539,92.036C39.541,92.146 39.541,92.284 39.541,92.284C39.554,92.374 39.56,92.471 39.56,92.567C39.56,92.742 39.502,92.894 39.359,92.981C39.39,93.042 39.402,93.109 39.404,93.151L39.408,93.193L39.39,93.235C39.125,93.85 39.101,94.475 39.101,95.086L39.101,95.453C39.101,95.897 39.087,96.32 38.97,96.707L38.783,97.016C38.705,97.109 38.668,97.156 38.668,97.225C38.668,97.252 38.671,97.284 38.683,97.317L38.699,97.352C38.699,97.352 38.697,97.418 38.697,97.428C38.697,97.56 38.746,97.639 38.812,97.741L39.025,98.168L38.941,98.222C38.775,98.408 38.712,98.616 38.712,98.838C38.712,99.105 38.804,99.399 38.906,99.734C39.015,100.097 39.136,100.505 39.136,100.927L39.136,100.935C39.49,100.861 39.675,101.013 39.82,101.161C39.912,101.264 40.011,101.345 40.166,101.391C40.125,101.349 40.087,101.301 40.087,101.231C40.087,101.212 40.093,101.185 40.101,101.156C40.152,101.037 40.283,101.006 40.33,100.989L40.47,100.955L40.541,101.13L40.628,101.132L40.755,101.031C40.847,100.934 40.99,100.798 41.261,100.824C41.289,100.753 41.296,100.658 41.357,100.63C41.402,100.603 41.476,100.62 41.552,100.64C41.556,100.631 41.66,100.318 41.66,100.318L41.906,100.144C41.906,100.144 41.99,100.077 42.066,100.01C42,99.935 41.949,99.844 41.916,99.774L41.808,99.535L42.429,99.535C42.427,99.516 42.269,98.88 42.269,98.88L42.509,98.951C42.587,98.959 42.619,98.928 42.691,98.841L42.968,98.663C42.968,98.663 43.005,98.688 43.023,98.691C43.005,98.567 42.99,98.445 42.925,98.35L42.75,98.102L43.078,98.082C43.078,98.077 42.837,97.704 42.837,97.704L43.24,97.792C43.384,97.829 43.451,97.813 43.466,97.8C43.48,97.783 43.498,97.715 43.462,97.563L43.353,97.059C43.353,97.059 43.759,97.418 43.769,97.425C43.812,97.337 43.896,97.272 44.025,97.234L44.025,96.628C43.886,96.546 43.722,96.507 43.505,96.533L43.304,96.557L43.318,96.35C43.324,96.291 43.31,96.264 43.304,96.251C43.3,96.249 43.257,96.224 43.142,96.234C43.103,96.284 43.054,96.34 43.054,96.34C42.654,96.806 42.279,97.242 42.087,97.868L42.066,97.935L41.937,97.985L41.851,98.028C41.851,98.028 41.748,98.057 41.648,98.086C41.617,98.329 41.505,98.5 41.412,98.629C41.306,98.762 41.224,98.864 41.224,99.052C41.224,99.105 41.23,99.167 41.244,99.236L41.273,99.396L41.119,99.435C40.931,99.482 40.804,99.596 40.664,99.729L40.127,100.135L40.074,99.911C39.888,99.436 39.841,98.938 39.841,98.438C39.841,98.093 39.863,97.743 39.886,97.399L39.918,96.935L39.857,96.629L39.779,96.215L39.888,95.937C39.927,95.891 39.974,95.652 39.974,95.652C39.974,95.652 40.173,94.991 40.203,94.894C40.187,94.774 40.177,94.657 40.177,94.554C40.177,94.139 40.283,93.838 40.367,93.579L40.486,93.149L40.478,92.758L40.492,92.261C40.527,92.077 40.658,92.006 40.738,91.957C40.763,91.926 40.773,91.893 40.773,91.859C40.773,91.807 40.75,91.752 40.709,91.684L40.578,91.217L40.679,91.302L40.921,91.251L40.931,91.251C40.959,91.074 41.015,90.589 41.015,90.589L41.054,90.226L41.095,90.024C41.156,89.717 41.201,89.492 41.201,89.178C41.201,89.11 41.201,89.041 41.197,88.961L41.177,88.668L41.437,88.8C41.636,88.903 41.853,88.8 42.107,88.681L42.609,88.491L43.154,88.566C43.154,88.566 43.318,88.601 43.41,88.618C43.474,88.558 43.55,88.506 43.576,88.499C43.591,88.495 43.785,88.49 43.785,88.49L43.888,88.491C43.896,88.491 49.273,87.927 49.392,87.912C49.613,87.692 49.937,87.609 50.269,87.552C50.73,87.471 51.003,87.389 51.074,87.097C50.906,86.939 50.798,86.74 50.798,86.46C50.798,86.368 50.806,86.266 50.826,86.159L50.849,86.021L51.248,86.021L51.248,85.374C51.22,85.377 51.177,85.385 51.177,85.385C50.97,85.421 50.816,85.446 50.734,85.312C50.703,85.274 50.693,85.23 50.693,85.182C50.693,85.141 50.736,85.079 50.752,85.036C50.334,85.015 50.107,85.182 49.857,85.377Z" style="fill:white;fill-rule:nonzero;"/>
                        <path d="M47.794,96.336C47.794,95.967 47.962,95.592 48.121,95.23L48.285,94.847L48.421,94.299L48.789,92.966L48.982,93.189C49.207,93.406 49.318,93.751 49.318,94.243L49.318,94.321C49.332,94.364 49.353,94.406 49.353,94.442C49.353,94.486 49.345,94.525 49.33,94.558C49.277,94.668 49.175,94.704 49.089,94.725C49.13,94.817 49.171,94.91 49.171,94.91L49.125,95.277C49.078,95.523 49.015,95.902 49.015,96.24C49.015,96.481 49.046,96.702 49.144,96.845L49.293,97.068L49.035,97.111C48.847,97.147 48.808,97.351 48.789,97.827C48.777,98.256 48.752,98.856 48.158,98.861L47.966,98.866L47.994,98.664C48.041,98.263 47.935,98.095 47.794,97.881C47.615,97.6 47.406,97.276 47.57,96.473L47.617,96.24C47.617,96.24 47.793,96.352 47.8,96.355C47.8,96.355 47.794,96.343 47.794,96.336ZM49.037,91.359L48.746,91.448L48.3,91.466C48.058,91.462 47.826,91.483 47.595,91.566C47.564,92.033 47.316,92.31 46.904,92.404C46.896,92.535 46.867,92.944 46.867,92.944C46.845,93.394 46.82,93.683 46.63,94.199C46.63,94.23 46.681,94.543 46.681,94.543C46.699,94.642 46.722,94.746 46.722,94.847C46.722,95.021 46.652,95.201 46.4,95.348L46.173,95.481C46.173,95.481 46.158,95.316 46.154,95.254C46.095,95.307 46.021,95.338 45.935,95.36C45.947,95.444 45.964,95.533 45.964,95.602C45.964,95.951 45.867,96.225 45.773,96.472L45.632,96.959L45.685,97.185L45.775,97.522C45.775,97.527 45.66,97.912 45.66,97.912C45.613,98 45.589,98.053 45.589,98.092C45.589,98.117 45.597,98.138 45.613,98.167L45.55,98.102C45.808,98.263 45.941,98.521 45.941,98.87C45.941,98.903 45.933,98.939 45.929,98.975C46.308,99.011 46.445,98.825 46.601,98.588L46.906,98.73L46.742,99.142C46.666,99.312 46.589,99.458 46.589,99.687C46.589,99.759 46.601,99.842 46.619,99.935C46.699,100.037 46.896,100.285 46.896,100.285C46.896,100.285 46.947,100.362 46.982,100.416C47.21,100.456 47.314,100.383 47.445,100.279L47.773,100.052L47.839,100.153L48.06,100.388C48.212,100.569 48.32,100.698 48.58,100.695C48.777,100.726 48.886,100.575 49.009,100.37L49.24,100.125C49.349,100.091 49.421,100.153 49.492,100.202L49.494,100.19C49.537,100.037 49.597,99.824 49.763,99.707C49.843,99.66 49.923,99.682 50.002,99.707C49.96,99.647 49.957,99.588 49.957,99.56C49.957,99.438 50.043,99.325 50.166,99.286C50.195,99.28 50.226,99.276 50.261,99.28C50.261,99.213 50.265,99.134 50.265,99.134C50.265,99.086 50.261,99.031 50.261,98.98C50.261,98.626 50.285,98.286 50.496,98.084C50.58,98.004 50.697,97.986 50.816,97.966C50.81,97.778 50.798,97.593 50.798,97.414C50.798,96.805 50.845,96.247 50.89,95.7C50.933,95.163 50.978,94.608 50.978,94.011C50.978,93.834 50.97,93.652 50.964,93.468L50.957,93.282L51.134,93.286C51.23,93.286 51.296,93.243 51.363,93.209C51.347,93.138 51.316,93.064 51.316,93.002C51.316,92.876 51.341,92.766 51.365,92.667L51.396,92.338C51.392,92.342 51.265,92.204 51.265,92.204C51.132,92.088 50.933,91.907 50.933,91.615L50.933,91.597C50.761,91.6 50.515,91.601 50.515,91.601L49.816,91.588L49.474,91.397L49.283,91.305L49.037,91.359Z" style="fill:white;fill-rule:nonzero;"/>
                        <path d="M75.505,92.859C75.505,92.87 75.509,92.888 75.509,92.902C75.523,92.86 75.582,92.842 75.617,92.813C75.609,92.713 75.595,92.506 75.595,92.477C75.541,92.587 75.505,92.716 75.505,92.859ZM77.191,91.34C76.957,91.522 76.664,91.745 76.279,91.741C76.21,91.833 76.169,91.976 76.132,92.131C76.089,92.32 76.035,92.516 75.912,92.661C75.919,92.661 75.933,92.654 75.933,92.654L75.933,93.92L75.195,93.92C75.136,94.102 75.093,94.291 75.093,94.481C75.093,94.769 75.144,95.059 75.195,95.349C75.244,95.624 75.294,95.914 75.294,96.19C75.294,96.366 75.271,96.538 75.222,96.703L75.199,96.776L75.082,96.846L75.068,96.854C75.068,96.912 74.912,97.221 74.912,97.221C74.912,97.221 74.843,97.231 74.785,97.235C74.611,98.356 74.544,99.512 74.544,100.685C74.544,102.306 74.669,103.96 74.785,105.58C74.785,105.58 74.796,105.728 74.802,105.769C74.959,105.917 75.035,106.166 75.068,106.407C75.068,106.407 75.072,106.421 75.072,106.424C75.095,106.385 75.341,106.027 75.341,106.027L75.369,106.536L75.453,108.557C75.492,109.146 75.535,109.746 75.535,110.397C75.535,110.62 75.523,110.847 75.513,111.09C75.634,111.17 75.898,111.167 76.148,111.159L76.312,111.159C76.322,110.939 76.328,110.725 76.328,110.516C76.328,109.771 76.285,109.071 76.242,108.391C76.197,107.703 76.154,106.996 76.154,106.246C76.154,106.032 76.16,105.817 76.168,105.599C75.918,105.415 75.871,105.05 75.871,104.683L75.871,104.329C75.871,104.083 75.861,103.852 75.773,103.731L75.681,103.599L75.804,103.492C75.955,103.366 76.138,103.077 76.169,102.738C76.171,102.706 76.171,102.669 76.171,102.634C76.171,102.336 76.074,102.099 75.97,101.84L75.894,101.658L75.884,99.787L75.906,99.771L76.08,99.557L76.169,99.388C76.22,99.063 76.232,98.683 76.232,98.3C76.232,98.166 76.228,97.637 76.228,97.5C76.228,96.881 76.269,96.32 76.451,95.921L76.447,95.921L76.455,95.541C76.46,95.158 76.494,94.679 76.865,94.515C76.857,94.455 76.843,94.388 76.843,94.339C76.843,93.994 76.988,93.766 77.107,93.575C77.195,93.438 77.259,93.338 77.259,93.217C77.259,93.141 77.234,93.063 77.179,92.962L77.085,92.777L77.308,92.704L77.707,92.564C77.894,92.474 78.109,92.374 78.429,92.396L78.429,91.989L78.589,91.976C78.921,91.952 79.089,92.112 79.228,92.236C79.341,92.343 79.421,92.413 79.589,92.412L79.728,92.411L79.753,92.546C79.814,92.815 79.845,93.079 79.845,93.338C79.845,93.904 79.701,94.421 79.427,94.803C79.13,95.212 78.671,95.442 78.117,95.499C77.72,95.932 77.406,96.077 76.794,95.977C76.82,96.089 76.843,96.197 76.843,96.284C76.843,96.378 76.835,96.459 76.824,96.53C76.814,96.592 76.808,96.647 76.808,96.695C76.808,96.785 76.83,96.876 76.904,97.003C76.925,97.018 76.947,97.027 77.115,96.972C77.255,96.927 77.445,96.872 77.689,96.906C77.865,96.663 78.146,96.445 78.441,96.38C78.619,96.337 78.771,96.389 78.921,96.445C78.988,96.232 79.085,96.051 79.191,95.884L79.617,95.183L79.617,95.681C79.634,95.637 79.66,95.589 79.66,95.589C79.701,95.526 79.787,95.513 79.867,95.496C79.894,95.192 80.011,94.977 80.134,94.803C80.134,94.803 80.232,94.641 80.263,94.584C80.216,94.421 80.179,94.26 80.179,94.125C80.179,93.705 80.388,93.43 80.625,93.189C80.574,93.096 80.548,92.988 80.548,92.886L80.548,92.881C80.449,92.852 80.347,92.813 80.326,92.699C80.322,92.688 80.322,92.67 80.322,92.652C80.322,92.625 80.334,92.592 80.353,92.555C80.285,92.474 80.197,92.363 80.197,92.363C80.027,92.211 79.824,92.032 79.824,91.655C79.824,91.629 79.834,91.6 79.834,91.575C79.808,91.57 79.771,91.567 79.771,91.567C79.054,91.483 78.492,91.412 77.789,91.589C77.693,91.636 77.613,91.751 77.523,91.891L76.824,92.601L76.877,92.147C76.884,91.684 77.179,91.493 77.414,91.342C77.5,91.284 77.558,91.218 77.63,91.152C77.529,91.114 77.416,91.16 77.191,91.34Z" style="fill:white;fill-rule:nonzero;"/>
                        <path d="M55.812,94.002C55.673,93.822 55.613,93.636 55.613,93.457C55.613,93.079 55.867,92.729 56.054,92.467L56.265,92.15L56.345,92.126C56.88,92.046 57.191,92.221 57.459,92.369L57.668,92.481L57.668,92.62L57.671,93.044L57.668,93.637C57.668,93.64 57.439,93.913 57.439,93.913C57.439,93.913 57.375,93.971 57.363,93.98C57.367,93.98 57.367,93.988 57.367,94.002C57.367,94.041 57.357,94.12 57.357,94.12L57.205,94.555C57.205,94.555 57.08,94.583 56.96,94.607C56.947,95.266 56.582,95.583 56.255,95.855C55.98,96.088 55.744,96.288 55.687,96.681L55.658,96.881L55.466,96.818C55.199,96.725 55.136,96.556 55.136,96.411C55.136,96.335 55.156,96.266 55.166,96.215L55.183,96.094L54.996,95.967L55.128,95.795C55.55,95.43 55.691,94.746 55.816,94.004L55.812,94.002ZM55.414,91.232C55.414,91.249 55.416,91.265 55.416,91.277C55.416,91.742 55.105,91.902 54.888,92.013C54.834,92.027 54.431,91.938 54.431,91.938L54.369,91.917C54.285,92.284 54.166,92.655 53.839,92.831C53.81,93.374 53.718,93.753 53.529,94L53.382,94.187C53.382,94.187 53.218,93.925 53.21,93.91C53.16,94.272 53.13,94.667 53.13,95.087C53.13,95.289 53.13,95.495 53.136,95.696L53.136,96.725L53.095,96.772C52.912,96.975 52.814,97.214 52.755,97.477C52.841,97.417 52.931,97.363 52.931,97.363C53.183,97.335 53.414,97.328 53.502,97.501C53.517,97.529 53.523,97.559 53.529,97.594C53.585,97.576 53.675,97.576 53.712,97.539L54.062,97.231L53.984,97.695C53.982,97.73 53.978,97.755 53.978,97.777C53.978,97.885 54.046,97.917 54.283,97.972C54.459,98.004 54.669,98.082 54.775,98.286C54.837,98.282 54.9,98.263 54.959,98.263C54.959,98.263 55.296,98.237 55.324,98.233L55.316,98.233C55.316,98.217 55.365,98.168 55.365,98.168L55.617,97.945L55.949,97.945C55.949,97.945 56.037,97.95 56.095,97.953C56.103,97.841 56.119,97.742 56.201,97.68C56.236,97.657 56.312,97.62 56.419,97.652C56.543,97.632 56.632,97.705 56.732,97.755C56.734,97.641 56.804,97.486 56.919,97.393C56.976,97.35 57.103,97.296 57.261,97.332C57.253,97.286 57.232,97.235 57.232,97.186C57.232,96.984 57.308,96.798 57.56,96.648L57.728,96.552C57.728,96.552 57.767,96.641 57.789,96.703C57.857,96.591 57.939,96.474 58.08,96.482L58.232,96.495L58.238,96.646C58.285,97.751 58.076,98.499 57.853,99.287L57.509,100.682L57.439,100.728C57.185,100.867 56.996,101.05 56.773,101.281L56.72,101.333L56.648,101.328C56.433,101.322 56.283,101.359 56.197,101.435L55.97,101.631L55.923,101.333C55.904,101.195 55.816,101.12 55.712,101.02C55.712,101.02 55.644,100.953 55.593,100.89C55.228,100.877 54.972,100.941 54.796,101.05C54.83,101.127 54.843,101.218 54.843,101.306L54.843,101.336C55.005,101.404 55.121,101.518 55.181,101.616L55.255,101.713C55.4,101.722 55.482,101.798 55.509,101.936C55.502,101.926 55.482,101.89 55.445,101.869C55.962,102.128 56.351,102.084 56.89,102.019L57.177,101.993L57.181,101.882L57.716,101.81C57.845,101.783 57.962,101.792 58.132,101.833C58.22,101.682 58.408,101.363 58.408,101.363C58.66,100.983 58.898,100.619 58.898,100.011C58.898,99.959 58.896,99.913 58.892,99.86L58.892,99.795L58.96,99.712L59.212,99.388C59.212,99.388 59.267,99.296 59.308,99.232C59.246,99.085 59.195,98.933 59.195,98.786C59.195,98.517 59.271,98.255 59.343,98.012L59.459,97.509L59.386,97.204L59.32,96.934C59.32,96.945 59.398,96.763 59.398,96.763C59.439,96.708 59.468,96.666 59.468,96.602L59.468,96.556C59.429,96.495 59.382,96.422 59.328,96.275C59.314,96.268 59.179,95.937 59.179,95.937L59.263,95.443L59.32,95.197L59.255,94.851L59.179,94.477C59.179,94.486 59.261,94.092 59.261,94.092L59.32,93.885L59.283,93.819L59.181,93.425L59.283,93.257L59.32,93.164L59.287,92.85C59.265,92.739 59.246,92.619 59.246,92.489C59.246,92.454 59.265,92.41 59.271,92.37L58.64,92.537L58.757,92.256C58.765,92.213 58.769,92.181 58.769,92.15C58.769,92.064 58.728,92.027 58.658,91.964C58.562,91.88 58.425,91.762 58.425,91.517C58.425,91.475 58.445,91.422 58.451,91.372C58.3,91.301 58.044,91.169 58.044,91.169C57.728,90.976 57.46,90.812 56.957,90.867L56.804,90.884L56.742,90.564L56.742,90.551C56.365,90.792 55.918,91.013 55.414,91.232Z" style="fill:white;fill-rule:nonzero;"/>
                    </g>
                </g>
            </g>
        </g>
    </g>
</svg>
