<?xml version="1.0" encoding="UTF-8" standalone="no"?>
<!DOCTYPE svg PUBLIC "-//W3C//DTD SVG 1.1//EN" "http://www.w3.org/Graphics/SVG/1.1/DTD/svg11.dtd">
<svg width="100%" height="100%" viewBox="0 0 338 388" version="1.1" xmlns="http://www.w3.org/2000/svg" xmlns:xlink="http://www.w3.org/1999/xlink" xml:space="preserve" xmlns:serif="http://www.serif.com/" style="fill-rule:evenodd;clip-rule:evenodd;stroke-linecap:round;stroke-linejoin:round;stroke-miterlimit:1.5;">
    <g transform="matrix(1,0,0,1,-1266.08,-648.5)">
        <g transform="matrix(0.781451,-0.0740275,0.0853889,0.969822,824.058,-236.817)">
            <ellipse cx="636" cy="1333" rx="216" ry="22" style="fill:rgb(189,203,196);"/>
        </g>
        <g transform="matrix(-0.808156,0.588969,0.588969,0.808156,1309.23,-184.634)">
            <g transform="matrix(1,0,0,1,-285.96,-77.3352)">
                <path d="M712,819L712,803C712,803 712.334,795.429 721,796C729.666,796.571 766,796 766,796C766,796 778.732,795.054 778,806C777.268,816.946 778,831 778,831C778,831 777.501,840.335 769,840C760.499,839.665 753,840 753,840L744,850L737,840L719,840C719,840 712.249,837.808 712,832C711.751,826.192 712,819 712,819Z" style="fill:rgb(247,113,120);"/>
            </g>
            <g transform="matrix(1,0,0,1,-285.96,-77.3352)">
                <path d="M712,819L712,803C712,803 712.334,795.429 721,796C729.666,796.571 766,796 766,796C766,796 778.732,795.054 778,806C777.268,816.946 778,831 778,831C778,831 777.501,840.335 769,840C760.499,839.665 753,840 753,840L744,850L737,840L719,840C719,840 712.249,837.808 712,832C711.751,826.192 712,819 712,819Z" style="fill:rgb(213,32,44);"/>
            </g>
            <g transform="matrix(1,0,0,1,-285.96,-77.3352)">
                <path d="M712,819L712,803C712,803 712.334,795.429 721,796C729.666,796.571 766,796 766,796C766,796 778.732,795.054 778,806C777.268,816.946 778,831 778,831C778,831 777.501,840.335 769,840C760.499,839.665 753,840 753,840L744,850L737,840L719,840C719,840 712.249,837.808 712,832C711.751,826.192 712,819 712,819Z" style="fill:none;stroke:rgb(158,0,61);stroke-width:3px;"/>
            </g>
            <g transform="matrix(1,0,0,1,-285.96,-77.3352)">
                <path d="M712,819L712,803C712,803 712.334,795.429 721,796C729.666,796.571 766,796 766,796C766,796 778.732,795.054 778,806C777.268,816.946 778,831 778,831C778,831 777.501,840.335 769,840C760.499,839.665 753,840 753,840L744,850L737,840L719,840C719,840 712.249,837.808 712,832C711.751,826.192 712,819 712,819Z" style="fill:none;stroke:rgb(158,0,61);stroke-width:3px;"/>
            </g>
            <g transform="matrix(0.000926659,-0.671726,0.671726,0.000926659,-1004.56,1405.65)">
                <path d="M973.394,2172.5L973.394,2181L988,2181L988,2196L997,2196L997,2181L1011,2181L1011,2172.5L997,2172.5L997,2158L988,2158L988.282,2171.7L973.394,2172.5Z" style="fill:white;"/>
            </g>
        </g>
        <g transform="matrix(-0.947288,0,0,0.947288,2214.46,-255.116)">
            <g transform="matrix(1.81523,0,0,1.81523,-1418.04,-5280.95)">
                <path d="M1185,3609C1185,3609 1149.31,3628.13 1157,3636C1164.69,3643.87 1168.46,3646.05 1197,3643C1225.09,3639.99 1234.66,3632.84 1238,3640L1235,3620L1221,3611L1185,3609Z" style="fill:rgb(213,32,44);"/>
            </g>
            <g transform="matrix(0.502392,-1.79866,1.79866,0.502392,-5091.5,1065.13)">
                <path d="M716.826,3049.75L703.826,3053.75L710,3067L726,3063C726,3063 729.95,3052.62 718,3056L716.826,3049.75Z" style="fill:rgb(67,40,28);"/>
            </g>
            <g transform="matrix(1.64206,0.300699,-0.300699,1.64206,-219.137,-1514.89)">
                <path d="M858,1465C858,1465 866.884,1468.23 868,1467C868.898,1466.01 849.447,1447.18 868.896,1440C886.352,1433.56 880.511,1461.25 878,1464C875.489,1466.75 885.534,1465.62 889.051,1467C892.567,1468.38 886.972,1474.44 886,1475C885.028,1475.56 871.659,1480 871.659,1480L862,1474L858,1465Z" style="fill:rgb(255,203,166);"/>
            </g>
            <g transform="matrix(1.64206,0.300699,-0.258638,1.41237,-280.268,-1181.06)">
                <path d="M880.97,1447.85C876.327,1444.97 871.374,1446.35 865.857,1441.97C858.768,1436.34 851.386,1425.25 849.291,1426.25C848.048,1426.85 848.645,1429.97 850.127,1433.81C852.566,1440.14 857.406,1448.44 860.397,1450.69C865.005,1454.14 861.255,1437.13 867.896,1433C870.972,1431.09 887.3,1415.65 889.955,1418.5C894.851,1423.74 884.748,1450.2 880.97,1447.85Z" style="fill:rgb(67,40,28);"/>
            </g>
            <g transform="matrix(1.64206,0.300699,-0.300699,1.64206,-368.229,-1513.34)">
                <path d="M911,1401L911,1370L908,1370L909.168,1401" style="fill:rgb(67,40,28);"/>
            </g>
            <g transform="matrix(1.24462,1.11252,-1.11252,1.24462,1307.46,-1623.84)">
                <path d="M897.974,1444.38C897.974,1444.38 899.811,1435.61 901.621,1426.76C903.431,1417.92 905.215,1409.01 905.111,1408.75C903.996,1405.93 900.839,1396.71 905.457,1392.58C905.457,1392.58 907.901,1392.52 908.457,1394.58C909.014,1396.63 910.381,1393.72 911.457,1395.58C912.534,1397.43 913.473,1396.77 913.457,1398.58C913.442,1400.38 913.7,1399.55 913.457,1402.58C913.316,1404.34 910.517,1407.41 911.508,1409.46C912.267,1411.04 911.261,1420.58 910.05,1429.81C908.815,1439.24 903.143,1448.91 903.143,1448.91L897.974,1444.38Z" style="fill:rgb(255,203,166);"/>
            </g>
            <g transform="matrix(-1.5071,0.717932,0.717932,1.5071,1067.01,-1704.84)">
                <path d="M911.328,1451.24C911.328,1451.24 908.469,1429.66 907.74,1413.77C907.7,1412.89 906.236,1410.06 906.218,1409.24C906.102,1403.6 906.555,1399.29 908,1398C908,1398 910.444,1397.94 911,1400C911.556,1402.06 912.924,1399.15 914,1401C915.076,1402.85 916.015,1402.19 916,1404C915.985,1405.81 916.242,1404.97 916,1408C915.951,1408.62 914.418,1410.81 914.703,1413.68C915.811,1424.87 920.511,1448.36 920.511,1448.36L911.328,1451.24Z" style="fill:rgb(255,203,166);"/>
            </g>
            <g transform="matrix(1.64206,0.300699,-0.300699,1.64206,-216.153,-1514.34)">
                <path d="M856,1540L904,1532C904,1532 898.007,1492.94 897,1483C896.993,1482.93 897.228,1483.24 897.554,1483.07C905.039,1479.14 913.976,1475.82 911.049,1473C907.732,1469.8 906.184,1464.87 905.202,1462.93C904.331,1461.21 900.864,1463.55 898.257,1465.83C897.389,1466.59 893.471,1465.91 893.377,1465.89C886.168,1464.4 879.814,1466.04 879.814,1466.04C879.814,1466.04 875.025,1475.93 864.747,1467.43C864.339,1467.09 858.814,1465.94 858.521,1465.54C852.87,1457.75 851.827,1456.69 845.698,1455L836.698,1461C836.698,1461 835.997,1478.39 847.052,1484.17C847.052,1484.17 846.492,1533.62 856,1540Z" style="fill:rgb(189,203,196);"/>
            </g>
            <g transform="matrix(1.64206,0.300699,-0.300699,1.64206,-367.709,-1511.54)">
                <path d="M908,1366L905,1345L908,1345L908,1366Z" style="fill:rgb(253,194,33);"/>
            </g>
            <g transform="matrix(0.985198,1.34765,-1.34765,0.985198,1662.56,-1563.96)">
                <path d="M908,1366L905,1345L908,1345L908,1366Z" style="fill:rgb(213,32,44);"/>
            </g>
            <g transform="matrix(-0.211696,1.65588,-1.65588,-0.211696,3172.44,-205.649)">
                <path d="M908,1366L905,1345L908,1345L908,1366Z" style="fill:rgb(213,32,44);"/>
            </g>
            <g transform="matrix(-1.29255,1.05645,-1.05645,-1.29255,3337.64,1819.07)">
                <path d="M908,1366L905,1345L908,1345L908,1366Z" style="fill:rgb(253,194,33);"/>
            </g>
            <g transform="matrix(-1.66088,0.168098,-0.168098,-1.66088,2454.96,3132.54)">
                <path d="M908,1366L905,1345L908,1345L908,1366Z" style="fill:rgb(213,32,44);"/>
            </g>
            <g transform="matrix(-1.12463,-1.23369,1.23369,-1.12463,43.5541,3671.07)">
                <path d="M908,1366L905,1345L908,1345L908,1366Z" style="fill:rgb(213,32,44);"/>
            </g>
            <g transform="matrix(0.0321005,-1.66905,1.66905,0.0321005,-1601.05,2482)">
                <path d="M908,1366L905,1345L908,1345L908,1366Z" style="fill:rgb(253,194,33);"/>
            </g>
            <g transform="matrix(1.17123,-1.18953,1.18953,1.17123,-1979.8,487.537)">
                <path d="M908,1366L905,1345L908,1345L908,1366Z" style="fill:rgb(213,32,44);"/>
            </g>
            <g transform="matrix(-0.498523,1.14628e-16,-8.83766e-18,-1.07216,1336.13,3670.57)">
                <path d="M835,2179L825,2264L1095,2276L1100.08,2184L835,2179Z" style="fill:rgb(10,76,42);"/>
            </g>
            <g transform="matrix(-1.72489,-0.344115,0.0254039,-0.200578,3301.86,2692.38)">
                <path d="M1445.49,4494.4L1445.4,4536.06L1524,4541L1524,4492L1445.49,4494.4Z" style="fill:rgb(213,32,44);"/>
            </g>
            <g transform="matrix(-0.0882926,1.20495,-0.20218,-0.000447365,1899.64,-503.843)">
                <path d="M1447.2,4493L1445.71,4512.34L1447.11,4534.65L1524,4541L1524,4492L1447.2,4493Z" style="fill:rgb(213,32,44);"/>
            </g>
            <g transform="matrix(0.536629,0.185592,-0.185592,0.536629,1092.68,-210.412)">
                <path d="M442.937,2538C442.937,2538 463.905,2494.34 479,2507C493.582,2519.23 450.347,2536.15 444.42,2538.78C444.211,2538.87 479.806,2523.16 486,2531C492.188,2538.84 443.168,2540.6 443.993,2538.69C444.022,2538.62 444.216,2538.76 444.468,2538.87C452.998,2542.34 492.062,2559.68 504,2558L495,2564L504,2572C504,2572 462.711,2573.4 444.937,2543C444.937,2543 411.551,2577.58 399,2578L408,2564L387,2562C387,2562 440.278,2548.29 443,2539C443,2539 410.958,2539.93 412,2528C413.024,2516.27 437.068,2533.39 442.727,2538.74C442.823,2538.83 416.201,2519.97 425,2509C433.799,2498.03 443.509,2517.98 442.937,2538Z" style="fill:rgb(213,32,44);"/>
            </g>
        </g>
    </g>
</svg>
