<?xml version="1.0" encoding="UTF-8" standalone="no"?>
<!DOCTYPE svg PUBLIC "-//W3C//DTD SVG 1.1//EN" "http://www.w3.org/Graphics/SVG/1.1/DTD/svg11.dtd">
<svg width="100%" height="100%" viewBox="0 0 84 143" version="1.1" xmlns="http://www.w3.org/2000/svg" xmlns:xlink="http://www.w3.org/1999/xlink" xml:space="preserve" xmlns:serif="http://www.serif.com/" style="fill-rule:evenodd;clip-rule:evenodd;stroke-linecap:square;stroke-miterlimit:1.5;">
    <g transform="matrix(1,0,0,1,-860.907,-709.474)">
        <g transform="matrix(1.07497,0.314322,-0.314322,1.07497,162.087,-11.1229)">
            <g transform="matrix(1.55535,0.102854,-0.102854,1.55535,43.963,-1250.79)">
                <path d="M590,1092L593,1092C593,1092 587.633,1097.19 589,1101C590.367,1104.81 594.371,1104.02 597,1102C599.629,1099.98 604.759,1098.69 608,1099C611.241,1099.31 612.665,1107.94 609,1115" style="fill:none;stroke:rgb(67,40,28);stroke-width:0.57px;"/>
            </g>
        </g>
        <g transform="matrix(1.07497,0.314322,-0.314322,1.07497,162.087,-11.1229)">
            <g transform="matrix(1.55535,0.102854,-0.102854,1.55535,43.963,-1250.79)">
                <path d="M586,1090C586,1090 535.963,1089.07 553,1057C570.037,1024.93 601.963,1055.21 586,1090Z" style="fill:rgb(253,194,33);"/>
            </g>
        </g>
        <g transform="matrix(1.07497,0.314322,-0.314322,1.07497,162.087,-11.1229)">
            <g transform="matrix(1.55535,0.102854,-0.102854,1.55535,43.963,-1250.79)">
                <path d="M586,1089L591,1090C591,1090 589.681,1094.8 588,1094C586.319,1093.2 585,1090 585,1090L586,1089Z" style="fill:rgb(253,194,33);"/>
            </g>
        </g>
    </g>
</svg>
