<?xml version="1.0" encoding="UTF-8" standalone="no"?>
<!DOCTYPE svg PUBLIC "-//W3C//DTD SVG 1.1//EN" "http://www.w3.org/Graphics/SVG/1.1/DTD/svg11.dtd">
<svg width="100%" height="100%" viewBox="0 0 56 35" version="1.1" xmlns="http://www.w3.org/2000/svg" xmlns:xlink="http://www.w3.org/1999/xlink" xml:space="preserve" xmlns:serif="http://www.serif.com/" style="fill-rule:evenodd;clip-rule:evenodd;stroke-linejoin:round;stroke-miterlimit:2;">
    <g transform="matrix(1,0,0,1,-925.342,-4821.87)">
        <g transform="matrix(1,0,0,1,40.6831,1238.02)">
            <g transform="matrix(1,0,0,1,-40,-15.773)">
                <path d="M949,3612C949,3612 957.058,3597.1 964.586,3600C972.115,3602.9 963.238,3598.36 960,3603C960,3603 968.612,3602.28 972,3611C972,3611 974.635,3613.51 979,3612C983.365,3610.49 976.204,3614 976.204,3614L979.422,3615C979.422,3615 973.35,3616.88 972,3619C970.65,3621.12 956.661,3639.18 936,3632C936,3632 927.776,3628.78 925,3625C922.224,3621.22 937.109,3631.75 944,3624C944,3624 939.213,3622.13 943,3620C943,3620 930.635,3617.22 939,3615C939,3615 931.108,3610.88 936,3609C936,3609 931.639,3605.74 933,3604C934.361,3602.26 947.456,3608.67 949,3612Z" style="fill:rgb(67,40,28);"/>
            </g>
        </g>
    </g>
</svg>
