<?xml version="1.0" encoding="UTF-8" standalone="no"?>
<!DOCTYPE svg PUBLIC "-//W3C//DTD SVG 1.1//EN" "http://www.w3.org/Graphics/SVG/1.1/DTD/svg11.dtd">
<svg width="100%" height="100%" viewBox="0 0 62 38" version="1.1" xmlns="http://www.w3.org/2000/svg" xmlns:xlink="http://www.w3.org/1999/xlink" xml:space="preserve" xmlns:serif="http://www.serif.com/" style="fill-rule:evenodd;clip-rule:evenodd;stroke-linejoin:round;stroke-miterlimit:2;">
    <g transform="matrix(1,0,0,1,-928.098,-809.789)">
        <g transform="matrix(1,0,0,1,3.9738,267.176)">
            <g transform="matrix(0.344444,0,0,0.344444,596.213,329.402)">
                <path d="M952.914,624.727C952.691,623.845 952.894,622.91 953.463,622.2C954.032,621.49 954.901,621.089 955.81,621.116C963.229,621.33 979.33,621.804 984.423,621.954C985.406,621.983 986.308,622.508 986.819,623.349C991.518,631.088 1014.99,669.751 1019.32,676.872C1019.41,677.029 1019.6,677.107 1019.78,677.064C1019.96,677.022 1020.09,676.868 1020.1,676.684C1020.63,669.88 1023,639 1023,639C1023,639 1019.56,630.15 1017.5,624.861C1017.16,623.978 1017.27,622.984 1017.79,622.197C1018.32,621.409 1019.2,620.927 1020.14,620.906C1028.95,620.706 1049.38,620.241 1057.03,620.067C1057.81,620.05 1058.57,620.348 1059.13,620.894C1059.68,621.44 1060,622.189 1060,622.97C1060,632.476 1060,661.924 1060,668.631C1060,668.817 1060.12,668.981 1060.3,669.037C1060.48,669.092 1060.67,669.025 1060.78,668.871C1065.37,662.18 1088.99,627.761 1094.05,620.391C1094.64,619.531 1095.64,619.053 1096.68,619.14C1101.95,619.579 1118.26,620.938 1126.35,621.613C1127.35,621.696 1128.24,622.289 1128.69,623.182C1129.15,624.074 1129.12,625.14 1128.6,626C1122.22,636.632 1104.96,665.393 1099.61,674.32C1098.64,675.936 1098.76,677.982 1099.91,679.473C1105.52,686.733 1121.98,708.033 1128.89,716.975C1129.53,717.8 1129.67,718.903 1129.27,719.865C1128.87,720.828 1127.99,721.502 1126.95,721.631C1119.3,722.587 1105.24,724.346 1101.14,724.857C1100.41,724.949 1099.67,724.756 1099.07,724.319C1094.09,720.672 1070.45,703.38 1062.01,697.201C1061.42,696.77 1060.64,696.701 1059.98,697.02C1059.33,697.34 1058.9,697.996 1058.88,698.725C1058.67,705.147 1058.25,718.132 1058.08,723.545C1058.03,724.957 1056.98,726.132 1055.58,726.328C1042.4,727.59 979.023,728.102 952.914,624.727Z" style="fill:rgb(214,33,51);"/>
            </g>
        </g>
    </g>
</svg>
