<?xml version="1.0" encoding="UTF-8" standalone="no"?>
<!DOCTYPE svg PUBLIC "-//W3C//DTD SVG 1.1//EN" "http://www.w3.org/Graphics/SVG/1.1/DTD/svg11.dtd">
<svg width="100%" height="100%" viewBox="0 0 44 43" version="1.1" xmlns="http://www.w3.org/2000/svg" xmlns:xlink="http://www.w3.org/1999/xlink" xml:space="preserve" xmlns:serif="http://www.serif.com/" style="fill-rule:evenodd;clip-rule:evenodd;stroke-linejoin:round;stroke-miterlimit:2;">
    <g transform="matrix(1,0,0,1,-1006.27,-4817.84)">
        <g transform="matrix(1,0,0,1,45.6831,1238.02)">
            <g transform="matrix(1,0,0,1,-45.1831,-1768.9)">
                <path d="M1039.94,5348.85C1036.98,5348.29 1022.95,5349.66 1017.52,5349.44C1009.09,5349.12 1004.81,5349.94 1005.95,5365.43C1007.55,5387.06 1005.01,5388.92 1009.12,5389.3C1013.23,5389.68 1043.12,5390.8 1043.12,5390.8C1043.12,5390.8 1049.39,5391.87 1049.12,5383.57C1048.85,5375.28 1048.89,5360.66 1048.89,5360.66C1048.89,5360.66 1050.93,5350.9 1039.94,5348.85ZM1017.5,5369.2C1017.5,5369.2 1015.2,5384.55 1031.37,5380.75C1047.54,5376.96 1027.83,5349.1 1017.5,5369.2ZM1036.18,5357.48C1036.18,5357.48 1035.57,5361.61 1039.91,5360.59C1044.27,5359.57 1038.96,5352.07 1036.18,5357.48Z" style="fill:rgb(67,40,28);"/>
            </g>
        </g>
    </g>
</svg>
