<?xml version="1.0" encoding="UTF-8" standalone="no"?>
<!DOCTYPE svg PUBLIC "-//W3C//DTD SVG 1.1//EN" "http://www.w3.org/Graphics/SVG/1.1/DTD/svg11.dtd">
<svg width="100%" height="100%" viewBox="0 0 30 53" version="1.1" xmlns="http://www.w3.org/2000/svg" xmlns:xlink="http://www.w3.org/1999/xlink" xml:space="preserve" xmlns:serif="http://www.serif.com/" style="fill-rule:evenodd;clip-rule:evenodd;stroke-linejoin:round;stroke-miterlimit:2;">
    <g transform="matrix(1,0,0,1,-874.349,-799.213)">
        <g transform="matrix(1,0,0,1,38.6569,-2770.52)">
            <g transform="matrix(1,0,0,1,-25,-21)">
                <path d="M889,3591C889,3591 867.577,3587.51 869,3606C869,3606 862.509,3605.48 862,3607C861.491,3608.52 859.329,3613.83 862,3615C864.671,3616.17 869,3616.6 869,3616.6C869,3616.6 868.355,3641.76 870,3642C871.645,3642.24 880.375,3644.51 881,3641C881.625,3637.49 877.981,3617.7 883,3616.6C888.019,3615.49 890.527,3616.03 890,3613C889.473,3609.97 891.805,3607.68 882,3608C882,3608 879.171,3600.98 885,3600C890.829,3599.02 890.687,3597.34 889,3591Z" style="fill:rgb(214,33,51);"/>
            </g>
        </g>
    </g>
</svg>
