<?xml version="1.0" encoding="UTF-8" standalone="no"?>
<!DOCTYPE svg PUBLIC "-//W3C//DTD SVG 1.1//EN" "http://www.w3.org/Graphics/SVG/1.1/DTD/svg11.dtd">
<svg width="100%" height="100%" viewBox="0 0 32 53" version="1.1" xmlns="http://www.w3.org/2000/svg" xmlns:xlink="http://www.w3.org/1999/xlink" xml:space="preserve" xmlns:serif="http://www.serif.com/" style="fill-rule:evenodd;clip-rule:evenodd;stroke-linejoin:round;stroke-miterlimit:2;">
    <g transform="matrix(1,0,0,1,-1013.89,-802.213)">
        <g transform="matrix(0.590467,0,0,0.590467,543.367,436.139)">
            <g transform="matrix(1,0,0,1,-103,2)">
                <path d="M932,618C932,618 897.798,615.974 903.884,646.786C909.971,677.598 948.713,661.213 948.602,645C948.602,645 950.511,623.219 932,618ZM929.047,632.067C929.047,632.067 913.12,627.636 916.256,643.51C919.391,659.383 934.27,649.249 935.906,642.59C935.906,642.59 938.583,634.756 929.047,632.067Z" style="fill:rgb(214,33,51);"/>
            </g>
        </g>
        <g transform="matrix(0.590467,0,0,0.590467,543.367,436.139)">
            <g transform="matrix(1,0,0,1,-103,2)">
                <path d="M907,664C907,664 919.416,670.995 930.098,669.205C931.7,668.936 936.701,667.847 940.8,666.098C941.939,665.612 945.016,663.198 947.012,662.894C949.642,662.493 952.826,664.283 952.856,664.347C954.938,668.857 952.832,672.152 948,675.694C944.226,678.46 935.427,682.592 927.321,682.805C924.785,682.872 904.589,681.587 899.867,670.694C899.867,670.694 899.333,662.061 907,664Z" style="fill:rgb(214,33,51);"/>
            </g>
        </g>
        <g transform="matrix(0.590467,0,0,0.590467,543.367,436.139)">
            <g transform="matrix(1,0,0,1,-103,2)">
                <path d="M920.306,680L904,699C904,699 902.704,706.708 908.794,705.944C909.693,705.831 910.752,705.534 912,705L926,690.306L941,706C941,706 943.077,706.824 945.059,706.062C947.457,705.14 949.717,702.362 948,699C944.864,692.859 930.694,680 930.694,680L920.306,680Z" style="fill:rgb(214,33,51);"/>
            </g>
        </g>
    </g>
</svg>
