<?xml version="1.0" encoding="UTF-8" standalone="no"?><!DOCTYPE svg PUBLIC "-//W3C//DTD SVG 1.1//EN" "http://www.w3.org/Graphics/SVG/1.1/DTD/svg11.dtd"><svg width="100%" height="100%" viewBox="0 0 769 255" version="1.1" xmlns="http://www.w3.org/2000/svg" xmlns:xlink="http://www.w3.org/1999/xlink" xml:space="preserve" xmlns:serif="http://www.serif.com/" style="fill-rule:evenodd;clip-rule:evenodd;stroke-linejoin:round;stroke-miterlimit:1.41421;"><path d="M479.339,27.26c-34.625,4.778 -140.783,-48.548 -145.335,-7.313c-3.807,34.489 -47.281,-3.084 -96.046,-13.774c-35.808,-7.849 -166.054,8.056 -180.449,30.365c-14.396,22.309 -55.205,17.877 -55.205,17.877l0,199.585c0,0 303.081,-0.521 314.566,-0.652c11.486,-0.132 196.523,0.608 209.697,-1.241c13.173,-1.848 240.577,1.235 240.577,1.235l0,-220c0,0 -148.105,54.839 -181.255,0.434c-33.15,-54.405 -64.196,-12.362 -106.55,-6.516Z" style="fill:#d5f2e3;"/></svg>