<?xml version="1.0" encoding="UTF-8" standalone="no"?><!DOCTYPE svg PUBLIC "-//W3C//DTD SVG 1.1//EN" "http://www.w3.org/Graphics/SVG/1.1/DTD/svg11.dtd"><svg width="100%" height="100%" viewBox="0 0 1921 340" version="1.1" xmlns="http://www.w3.org/2000/svg" xmlns:xlink="http://www.w3.org/1999/xlink" xml:space="preserve" xmlns:serif="http://www.serif.com/" style="fill-rule:evenodd;clip-rule:evenodd;stroke-linejoin:round;stroke-miterlimit:1.41421;"><path d="M1245.44,82.994c-125.488,15.726 -458.238,-117.776 -526.735,-24.067c-67.477,92.313 -171.358,-10.15 -348.097,-45.331c-129.777,-25.833 -155.826,24.57 -208,97.991c-43.788,61.621 -133.709,31.293 -162.168,32.836c-0.983,0.054 0,194.656 0,194.656l1920,0c0,0 0.813,-179.91 0,-196.58c-0.063,-1.287 -2.334,1.15 -3.538,1.732c-63.95,30.881 -196.839,72.035 -285.294,-59.789c-120.145,-179.053 -232.662,-20.684 -386.168,-1.448Z" style="fill:#d5f2e3;"/></svg>